  0
SECTION
  2
HEADER
  9
$ACADVER
  1
AC1009
  9
$ACADMAINTVER
 70
   0
  9
$DWGCODEPAGE
  3
ANSI_932
  9
$INSBASE
 10
0.0
 20
0.0
 30
0.0
  9
$EXTMIN
 10
0.000000
 20
-0.130000
 30
0.0
  9
$EXTMAX
 10
20.590000
 20
33.150000
 30
0.0
  9
$LIMMIN
 10
0.0
 20
0.0
  9
$LIMMAX
 10
12.0
 20
9.0
  9
$ORTHOMODE
 70
	0
  9
$REGENMODE
 70
	1
  9
$FILLMODE
 70
	1
  9
$QTEXTMODE
 70
	0
  9
$MIRRTEXT
 70
	1
  9
$DRAGMODE
 70
	2
  9
$LTSCALE
 40
1.0
  9
$OSMODE
 70
	0
  9
$ATTMODE
 70
	1
  9
$TEXTSIZE
 40
0.2
  9
$TRACEWID
 40
0.05
  9
$TEXTSTYLE
  7
STANDARD
  9
$CLAYER
  8
0
  9
$CELTYPE
  6
BYLAYER
  9
$CECOLOR
 62
	256
  9
$CELTSCALE
 40
1.0
  9
$DELOBJ
 70
	1
  9
$DISPSILH
 70
	0
  9
$LUNITS
 70
	2
  9
$LUPREC
 70
	6
  9
$SKETCHINC
 40
0.1
  9
$FILLETRAD
 40
0.5
  9
$AUNITS
 70
	0
  9
$AUPREC
 70
	6
  9
$MENU
  1
acad
  9
$ELEVATION
 40
0.0
  9
$PELEVATION
 40
0.0
  9
$THICKNESS
 40
0.0
  9
$LIMCHECK
 70
	0
  9
$BLIPMODE
 70
	0
  9
$CHAMFERA
 40
0.5
  9
$CHAMFERB
 40
0.5
  9
$CHAMFERC
 40
1.0
  9
$CHAMFERD
 40
0.0
  9
$SKPOLY
 70
	0
  9
$TDCREATE
 40
0.0
  9
$TDUPDATE
 40
0.0
  9
$TDINDWG
 40
0.0
  9
$TDUSRTIMER
 40
0.0
  9
$USRTIMER
 70
	0
  9
$ANGBASE
 50
0.0
  9
$ANGDIR
 70
	0
  9
$PDMODE
 70
	0
  9
$PDSIZE
 40
0.0
  9
$PLINEWID
 40
0.0
  9
$COORDS
 70
	1
  9
$SPLFRAME
 70
	0
  9
$SPLINETYPE
 70
	6
  9
$SPLINESEGS
 70
	8
  9
$ATTDIA
 70
	0
  9
$ATTREQ
 70
	1
  9
$HANDLING
 70
   1
  0
ENDSEC
  0
SECTION
  2
TABLES
  0
TABLE
  2
LAYER
 70
4
  0
LAYER
  2
0
 70
   0
 62
  7
  6
CONTINUOUS
  0
LAYER
  2
OUTLINE
 70
   0
 62
  7
  6
CONTINUOUS
  0
LAYER
  2
HOLE_1_4
 70
   0
 62
  7
  6
CONTINUOUS
  0
LAYER
  2
NC_Resist-B
 70
   0
 62
  111
  6
CONTINUOUS
  0
LAYER
  2
NC_Symbol-B
 70
   0
 62
  140
  6
CONTINUOUS
  0
ENDTAB
  0
TABLE
  2
LTYPE
 70
1
  0
ENDTAB
  0
TABLE
  2
STYLE
 70
1
  0
STYLE
  2
STANDARD
 70
0
 40
0.0
 41
1.0
 50
0.0
 71
0
 42
1.0
  3
txt
  4
EXTFONT
  0
ENDTAB
  0
ENDSEC
  0
SECTION
  2
BLOCKS
  0
ENDSEC
  0
SECTION
  2
ENTITIES
  0
POLYLINE
  8
OUTLINE
 66
   1
 10
0.0
 20
0.0
 30
0.0
 70
   1
  0
VERTEX
  8
OUTLINE
 10
0.000000
 20
32.520000
 30
0.0
 42
-0.414214
  0
VERTEX
  8
OUTLINE
 10
0.500000
 20
33.020000
 30
0.0
  0
VERTEX
  8
OUTLINE
 10
20.100000
 20
33.020000
 30
0.0
 42
-0.414214
  0
VERTEX
  8
OUTLINE
 10
20.600000
 20
32.520000
 30
0.0
  0
VERTEX
  8
OUTLINE
 10
20.600000
 20
0.500000
 30
0.0
 42
-0.414214
  0
VERTEX
  8
OUTLINE
 10
20.100000
 20
0.000000
 30
0.0
  0
VERTEX
  8
OUTLINE
 10
4.100000
 20
0.000000
 30
0.0
 42
1.000000
  0
VERTEX
  8
OUTLINE
 10
3.100000
 20
0.000000
 30
0.0
  0
VERTEX
  8
OUTLINE
 10
0.500000
 20
0.000000
 30
0.0
 42
-0.414214
  0
VERTEX
  8
OUTLINE
 10
0.000000
 20
0.500000
 30
0.0
  0
SEQEND
  0
POLYLINE
  8
NC_Symbol-B
 66
   1
 10
0.0
 20
0.0
 30
0.0
 70
   1
  0
VERTEX
  8
NC_Symbol-B
 10
4.868570
 20
7.785440
 30
0.0
 42
-0.413940
  0
VERTEX
  8
NC_Symbol-B
 10
4.903500
 20
7.780080
 30
0.0
  0
VERTEX
  8
NC_Symbol-B
 10
4.903500
 20
7.780080
 30
0.0
 42
3.051717
  0
VERTEX
  8
NC_Symbol-B
 10
4.903500
 20
8.413920
 30
0.0
  0
VERTEX
  8
NC_Symbol-B
 10
4.903500
 20
8.413920
 30
0.0
 42
-0.413940
  0
VERTEX
  8
NC_Symbol-B
 10
4.868570
 20
8.408560
 30
0.0
  0
VERTEX
  8
NC_Symbol-B
 10
4.620990
 20
8.590090
 30
0.0
 42
-0.414293
  0
VERTEX
  8
NC_Symbol-B
 10
4.615620
 20
8.625040
 30
0.0
  0
VERTEX
  8
NC_Symbol-B
 10
4.615620
 20
8.625040
 30
0.0
 42
-3.052865
  0
VERTEX
  8
NC_Symbol-B
 10
4.615620
 20
7.568960
 30
0.0
  0
VERTEX
  8
NC_Symbol-B
 10
4.615620
 20
7.568960
 30
0.0
 42
-0.414293
  0
VERTEX
  8
NC_Symbol-B
 10
4.620990
 20
7.603910
 30
0.0
  0
SEQEND
  0
POLYLINE
  8
NC_Symbol-B
 66
   1
 10
0.0
 20
0.0
 30
0.0
 70
   1
  0
VERTEX
  8
NC_Symbol-B
 10
4.339760
 20
7.399220
 30
0.0
 42
-0.418293
  0
VERTEX
  8
NC_Symbol-B
 10
4.374980
 20
7.394030
 30
0.0
  0
VERTEX
  8
NC_Symbol-B
 10
4.374980
 20
7.394030
 30
0.0
 42
3.058699
  0
VERTEX
  8
NC_Symbol-B
 10
4.374980
 20
8.799970
 30
0.0
  0
VERTEX
  8
NC_Symbol-B
 10
4.374980
 20
8.799970
 30
0.0
 42
-0.418293
  0
VERTEX
  8
NC_Symbol-B
 10
4.339760
 20
8.794780
 30
0.0
  0
VERTEX
  8
NC_Symbol-B
 10
4.094580
 20
8.979590
 30
0.0
 42
-0.410809
  0
VERTEX
  8
NC_Symbol-B
 10
4.089500
 20
9.014370
 30
0.0
  0
VERTEX
  8
NC_Symbol-B
 10
4.089500
 20
9.014370
 30
0.0
 42
-0.679303
  0
VERTEX
  8
NC_Symbol-B
 10
6.871020
 20
8.282210
 30
0.0
  0
VERTEX
  8
NC_Symbol-B
 10
7.435150
 20
8.282210
 30
0.0
  0
VERTEX
  8
NC_Symbol-B
 10
7.435150
 20
9.245290
 30
0.0
  0
VERTEX
  8
NC_Symbol-B
 10
6.732490
 20
9.245290
 30
0.0
 42
-0.231866
  0
VERTEX
  8
NC_Symbol-B
 10
6.712730
 20
9.254970
 30
0.0
  0
VERTEX
  8
NC_Symbol-B
 10
6.478640
 20
9.556870
 30
0.0
 42
-0.623666
  0
VERTEX
  8
NC_Symbol-B
 10
6.498400
 20
9.597190
 30
0.0
  0
VERTEX
  8
NC_Symbol-B
 10
7.725000
 20
9.597190
 30
0.0
 42
-0.414214
  0
VERTEX
  8
NC_Symbol-B
 10
7.750000
 20
9.572190
 30
0.0
  0
VERTEX
  8
NC_Symbol-B
 10
7.750000
 20
6.644380
 30
0.0
 42
-0.614753
  0
VERTEX
  8
NC_Symbol-B
 10
7.710190
 20
6.624240
 30
0.0
  0
VERTEX
  8
NC_Symbol-B
 10
7.445340
 20
6.818980
 30
0.0
 42
-0.238556
  0
VERTEX
  8
NC_Symbol-B
 10
7.435150
 20
6.839120
 30
0.0
  0
VERTEX
  8
NC_Symbol-B
 10
7.435150
 20
7.911790
 30
0.0
  0
VERTEX
  8
NC_Symbol-B
 10
6.871020
 20
7.911790
 30
0.0
 42
-0.679303
  0
VERTEX
  8
NC_Symbol-B
 10
4.089500
 20
7.179630
 30
0.0
  0
VERTEX
  8
NC_Symbol-B
 10
4.089500
 20
7.179630
 30
0.0
 42
-0.410809
  0
VERTEX
  8
NC_Symbol-B
 10
4.094580
 20
7.214410
 30
0.0
  0
SEQEND
  0
POLYLINE
  8
NC_Symbol-B
 66
   1
 10
0.0
 20
0.0
 30
0.0
 70
   1
  0
VERTEX
  8
NC_Symbol-B
 10
12.636500
 20
13.818710
 30
0.0
 42
-0.268881
  0
VERTEX
  8
NC_Symbol-B
 10
12.679900
 20
13.793580
 30
0.0
  0
VERTEX
  8
NC_Symbol-B
 10
13.104100
 20
13.053700
 30
0.0
  0
VERTEX
  8
NC_Symbol-B
 10
13.104100
 20
13.768640
 30
0.0
 42
-0.414214
  0
VERTEX
  8
NC_Symbol-B
 10
13.154100
 20
13.818640
 30
0.0
  0
VERTEX
  8
NC_Symbol-B
 10
13.217600
 20
13.818640
 30
0.0
 42
-0.414214
  0
VERTEX
  8
NC_Symbol-B
 10
13.267600
 20
13.768640
 30
0.0
  0
VERTEX
  8
NC_Symbol-B
 10
13.267600
 20
12.927650
 30
0.0
 42
-0.414214
  0
VERTEX
  8
NC_Symbol-B
 10
13.217600
 20
12.877650
 30
0.0
  0
VERTEX
  8
NC_Symbol-B
 10
13.035310
 20
12.877650
 30
0.0
 42
-0.269037
  0
VERTEX
  8
NC_Symbol-B
 10
12.991910
 20
12.902830
 30
0.0
  0
VERTEX
  8
NC_Symbol-B
 10
12.510890
 20
13.743860
 30
0.0
 42
-0.575803
  0
VERTEX
  8
NC_Symbol-B
 10
12.554270
 20
13.818680
 30
0.0
  0
SEQEND
  0
POLYLINE
  8
NC_Symbol-B
 66
   1
 10
0.0
 20
0.0
 30
0.0
 70
   1
  0
VERTEX
  8
NC_Symbol-B
 10
11.751330
 20
13.650690
 30
0.0
 42
-1.412449
  0
VERTEX
  8
NC_Symbol-B
 10
11.751360
 20
13.052380
 30
0.0
  0
VERTEX
  8
NC_Symbol-B
 10
11.751360
 20
13.052380
 30
0.0
 42
-0.474956
  0
VERTEX
  8
NC_Symbol-B
 10
11.725120
 20
13.125310
 30
0.0
  0
VERTEX
  8
NC_Symbol-B
 10
11.758750
 20
13.181230
 30
0.0
 42
-0.337947
  0
VERTEX
  8
NC_Symbol-B
 10
11.815140
 20
13.203590
 30
0.0
  0
VERTEX
  8
NC_Symbol-B
 10
11.815140
 20
13.203590
 30
0.0
 42
1.321812
  0
VERTEX
  8
NC_Symbol-B
 10
11.814830
 20
13.499440
 30
0.0
  0
VERTEX
  8
NC_Symbol-B
 10
11.814830
 20
13.499440
 30
0.0
 42
-0.340123
  0
VERTEX
  8
NC_Symbol-B
 10
11.758190
 20
13.522010
 30
0.0
  0
VERTEX
  8
NC_Symbol-B
 10
11.724940
 20
13.578010
 30
0.0
 42
-0.473175
  0
VERTEX
  8
NC_Symbol-B
 10
11.751330
 20
13.650690
 30
0.0
  0
SEQEND
  0
POLYLINE
  8
NC_Symbol-B
 66
   1
 10
0.0
 20
0.0
 30
0.0
 70
   1
  0
VERTEX
  8
NC_Symbol-B
 10
11.587640
 20
13.917990
 30
0.0
 42
-1.577960
  0
VERTEX
  8
NC_Symbol-B
 10
11.590470
 20
12.783820
 30
0.0
  0
VERTEX
  8
NC_Symbol-B
 10
11.590470
 20
12.783820
 30
0.0
 42
-0.441824
  0
VERTEX
  8
NC_Symbol-B
 10
11.568620
 20
12.854450
 30
0.0
  0
VERTEX
  8
NC_Symbol-B
 10
11.600240
 20
12.908140
 30
0.0
 42
-0.383863
  0
VERTEX
  8
NC_Symbol-B
 10
11.664050
 20
12.928280
 30
0.0
  0
VERTEX
  8
NC_Symbol-B
 10
11.664050
 20
12.928280
 30
0.0
 42
1.559100
  0
VERTEX
  8
NC_Symbol-B
 10
11.661710
 20
13.773450
 30
0.0
  0
VERTEX
  8
NC_Symbol-B
 10
11.661710
 20
13.773450
 30
0.0
 42
-0.386105
  0
VERTEX
  8
NC_Symbol-B
 10
11.597590
 20
13.793570
 30
0.0
  0
VERTEX
  8
NC_Symbol-B
 10
11.565960
 20
13.847560
 30
0.0
 42
-0.439689
  0
VERTEX
  8
NC_Symbol-B
 10
11.587640
 20
13.917990
 30
0.0
  0
SEQEND
  0
POLYLINE
  8
NC_Symbol-B
 66
   1
 10
0.0
 20
0.0
 30
0.0
 70
   1
  0
VERTEX
  8
NC_Symbol-B
 10
11.229400
 20
13.768640
 30
0.0
 42
-0.414214
  0
VERTEX
  8
NC_Symbol-B
 10
11.279400
 20
13.818640
 30
0.0
  0
VERTEX
  8
NC_Symbol-B
 10
11.340210
 20
13.818640
 30
0.0
 42
-0.414214
  0
VERTEX
  8
NC_Symbol-B
 10
11.390210
 20
13.768640
 30
0.0
  0
VERTEX
  8
NC_Symbol-B
 10
11.390210
 20
12.927650
 30
0.0
 42
-0.414214
  0
VERTEX
  8
NC_Symbol-B
 10
11.340210
 20
12.877650
 30
0.0
  0
VERTEX
  8
NC_Symbol-B
 10
11.279400
 20
12.877650
 30
0.0
 42
-0.414214
  0
VERTEX
  8
NC_Symbol-B
 10
11.229400
 20
12.927650
 30
0.0
  0
SEQEND
  0
POLYLINE
  8
NC_Symbol-B
 66
   1
 10
0.0
 20
0.0
 30
0.0
 70
   1
  0
VERTEX
  8
NC_Symbol-B
 10
10.676760
 20
13.598760
 30
0.0
 42
-0.006302
  0
VERTEX
  8
NC_Symbol-B
 10
10.676790
 20
13.600020
 30
0.0
  0
VERTEX
  8
NC_Symbol-B
 10
10.686260
 20
13.847470
 30
0.0
 42
-0.004757
  0
VERTEX
  8
NC_Symbol-B
 10
10.686310
 20
13.848420
 30
0.0
  0
VERTEX
  8
NC_Symbol-B
 10
10.700440
 20
14.094860
 30
0.0
 42
-0.011034
  0
VERTEX
  8
NC_Symbol-B
 10
10.700610
 20
14.097060
 30
0.0
  0
VERTEX
  8
NC_Symbol-B
 10
10.702950
 20
14.120030
 30
0.0
 42
-0.019701
  0
VERTEX
  8
NC_Symbol-B
 10
10.703500
 20
14.123930
 30
0.0
  0
VERTEX
  8
NC_Symbol-B
 10
10.707450
 20
14.145620
 30
0.0
 42
-0.021030
  0
VERTEX
  8
NC_Symbol-B
 10
10.708380
 20
14.149720
 30
0.0
  0
VERTEX
  8
NC_Symbol-B
 10
10.714200
 20
14.171210
 30
0.0
 42
-0.021943
  0
VERTEX
  8
NC_Symbol-B
 10
10.715530
 20
14.175390
 30
0.0
  0
VERTEX
  8
NC_Symbol-B
 10
10.723020
 20
14.195780
 30
0.0
 42
-0.023629
  0
VERTEX
  8
NC_Symbol-B
 10
10.724860
 20
14.200130
 30
0.0
  0
VERTEX
  8
NC_Symbol-B
 10
10.734110
 20
14.219440
 30
0.0
 42
-0.026287
  0
VERTEX
  8
NC_Symbol-B
 10
10.736630
 20
14.224050
 30
0.0
  0
VERTEX
  8
NC_Symbol-B
 10
10.747470
 20
14.241650
 30
0.0
 42
-0.028179
  0
VERTEX
  8
NC_Symbol-B
 10
10.750690
 20
14.246270
 30
0.0
  0
VERTEX
  8
NC_Symbol-B
 10
10.763290
 20
14.262350
 30
0.0
 42
-0.028612
  0
VERTEX
  8
NC_Symbol-B
 10
10.767070
 20
14.266640
 30
0.0
  0
VERTEX
  8
NC_Symbol-B
 10
10.781500
 20
14.281240
 30
0.0
 42
-0.027135
  0
VERTEX
  8
NC_Symbol-B
 10
10.785520
 20
14.284880
 30
0.0
  0
VERTEX
  8
NC_Symbol-B
 10
10.801530
 20
14.297900
 30
0.0
 42
-0.026711
  0
VERTEX
  8
NC_Symbol-B
 10
10.805840
 20
14.301050
 30
0.0
  0
VERTEX
  8
NC_Symbol-B
 10
10.823330
 20
14.312410
 30
0.0
 42
-0.025891
  0
VERTEX
  8
NC_Symbol-B
 10
10.827810
 20
14.315000
 30
0.0
  0
VERTEX
  8
NC_Symbol-B
 10
10.846580
 20
14.324600
 30
0.0
 42
-0.023890
  0
VERTEX
  8
NC_Symbol-B
 10
10.850930
 20
14.326570
 30
0.0
  0
VERTEX
  8
NC_Symbol-B
 10
10.871010
 20
14.334520
 30
0.0
 42
-0.021294
  0
VERTEX
  8
NC_Symbol-B
 10
10.875030
 20
14.335920
 30
0.0
  0
VERTEX
  8
NC_Symbol-B
 10
10.896040
 20
14.342240
 30
0.0
 42
-0.018804
  0
VERTEX
  8
NC_Symbol-B
 10
10.899680
 20
14.343180
 30
0.0
  0
VERTEX
  8
NC_Symbol-B
 10
10.921860
 20
14.348070
 30
0.0
 42
-0.016990
  0
VERTEX
  8
NC_Symbol-B
 10
10.925200
 20
14.348690
 30
0.0
  0
VERTEX
  8
NC_Symbol-B
 10
10.947980
 20
14.352120
 30
0.0
 42
-0.011742
  0
VERTEX
  8
NC_Symbol-B
 10
10.950310
 20
14.352410
 30
0.0
  0
VERTEX
  8
NC_Symbol-B
 10
11.034920
 20
14.361100
 30
0.0
 42
-0.006628
  0
VERTEX
  8
NC_Symbol-B
 10
11.036240
 20
14.361220
 30
0.0
  0
VERTEX
  8
NC_Symbol-B
 10
11.121100
 20
14.367670
 30
0.0
 42
-0.004008
  0
VERTEX
  8
NC_Symbol-B
 10
11.121900
 20
14.367720
 30
0.0
  0
VERTEX
  8
NC_Symbol-B
 10
11.208680
 20
14.372920
 30
0.0
 42
-0.001803
  0
VERTEX
  8
NC_Symbol-B
 10
11.209040
 20
14.372940
 30
0.0
  0
VERTEX
  8
NC_Symbol-B
 10
11.295360
 20
14.377490
 30
0.0
 42
-0.001304
  0
VERTEX
  8
NC_Symbol-B
 10
11.295620
 20
14.377510
 30
0.0
  0
VERTEX
  8
NC_Symbol-B
 10
11.382030
 20
14.381620
 30
0.0
 42
-0.001101
  0
VERTEX
  8
NC_Symbol-B
 10
11.382250
 20
14.381630
 30
0.0
  0
VERTEX
  8
NC_Symbol-B
 10
11.468700
 20
14.385390
 30
0.0
 42
-0.000900
  0
VERTEX
  8
NC_Symbol-B
 10
11.468880
 20
14.385390
 30
0.0
  0
VERTEX
  8
NC_Symbol-B
 10
11.555390
 20
14.388850
 30
0.0
 42
-0.000900
  0
VERTEX
  8
NC_Symbol-B
 10
11.555570
 20
14.388850
 30
0.0
  0
VERTEX
  8
NC_Symbol-B
 10
11.640280
 20
14.391940
 30
0.0
 42
-0.000900
  0
VERTEX
  8
NC_Symbol-B
 10
11.640460
 20
14.391940
 30
0.0
  0
VERTEX
  8
NC_Symbol-B
 10
11.728840
 20
14.394840
 30
0.0
 42
-0.001000
  0
VERTEX
  8
NC_Symbol-B
 10
11.729040
 20
14.394840
 30
0.0
  0
VERTEX
  8
NC_Symbol-B
 10
11.815580
 20
14.397330
 30
0.0
 42
-0.001100
  0
VERTEX
  8
NC_Symbol-B
 10
11.815800
 20
14.397330
 30
0.0
  0
VERTEX
  8
NC_Symbol-B
 10
11.902320
 20
14.399440
 30
0.0
 42
-0.001300
  0
VERTEX
  8
NC_Symbol-B
 10
11.902580
 20
14.399440
 30
0.0
  0
VERTEX
  8
NC_Symbol-B
 10
11.989090
 20
14.401090
 30
0.0
 42
-0.001400
  0
VERTEX
  8
NC_Symbol-B
 10
11.989370
 20
14.401090
 30
0.0
  0
VERTEX
  8
NC_Symbol-B
 10
12.075200
 20
14.402260
 30
0.0
 42
-0.003300
  0
VERTEX
  8
NC_Symbol-B
 10
12.075860
 20
14.402260
 30
0.0
  0
VERTEX
  8
NC_Symbol-B
 10
12.421980
 20
14.402410
 30
0.0
 42
-0.003700
  0
VERTEX
  8
NC_Symbol-B
 10
12.422720
 20
14.402400
 30
0.0
  0
VERTEX
  8
NC_Symbol-B
 10
12.510440
 20
14.401130
 30
0.0
 42
-0.001200
  0
VERTEX
  8
NC_Symbol-B
 10
12.510680
 20
14.401130
 30
0.0
  0
VERTEX
  8
NC_Symbol-B
 10
12.597450
 20
14.399440
 30
0.0
 42
-0.000900
  0
VERTEX
  8
NC_Symbol-B
 10
12.597630
 20
14.399440
 30
0.0
  0
VERTEX
  8
NC_Symbol-B
 10
12.683220
 20
14.397460
 30
0.0
 42
-0.001000
  0
VERTEX
  8
NC_Symbol-B
 10
12.683420
 20
14.397460
 30
0.0
  0
VERTEX
  8
NC_Symbol-B
 10
12.771310
 20
14.395080
 30
0.0
 42
-0.001000
  0
VERTEX
  8
NC_Symbol-B
 10
12.771510
 20
14.395080
 30
0.0
  0
VERTEX
  8
NC_Symbol-B
 10
12.856700
 20
14.392430
 30
0.0
 42
-0.001000
  0
VERTEX
  8
NC_Symbol-B
 10
12.856900
 20
14.392430
 30
0.0
  0
VERTEX
  8
NC_Symbol-B
 10
12.943420
 20
14.389380
 30
0.0
 42
-0.001100
  0
VERTEX
  8
NC_Symbol-B
 10
12.943640
 20
14.389380
 30
0.0
  0
VERTEX
  8
NC_Symbol-B
 10
13.030110
 20
14.385950
 30
0.0
 42
-0.001100
  0
VERTEX
  8
NC_Symbol-B
 10
13.030330
 20
14.385950
 30
0.0
  0
VERTEX
  8
NC_Symbol-B
 10
13.116780
 20
14.382140
 30
0.0
 42
-0.001304
  0
VERTEX
  8
NC_Symbol-B
 10
13.117040
 20
14.382120
 30
0.0
  0
VERTEX
  8
NC_Symbol-B
 10
13.203480
 20
14.377870
 30
0.0
 42
-0.001105
  0
VERTEX
  8
NC_Symbol-B
 10
13.203700
 20
14.377850
 30
0.0
  0
VERTEX
  8
NC_Symbol-B
 10
13.290190
 20
14.373200
 30
0.0
 42
-0.001903
  0
VERTEX
  8
NC_Symbol-B
 10
13.290570
 20
14.373180
 30
0.0
  0
VERTEX
  8
NC_Symbol-B
 10
13.376760
 20
14.367880
 30
0.0
 42
-0.004008
  0
VERTEX
  8
NC_Symbol-B
 10
13.377560
 20
14.367830
 30
0.0
  0
VERTEX
  8
NC_Symbol-B
 10
13.463280
 20
14.361190
 30
0.0
 42
-0.006379
  0
VERTEX
  8
NC_Symbol-B
 10
13.464550
 20
14.361070
 30
0.0
  0
VERTEX
  8
NC_Symbol-B
 10
13.548510
 20
14.352410
 30
0.0
 42
-0.011593
  0
VERTEX
  8
NC_Symbol-B
 10
13.550810
 20
14.352120
 30
0.0
  0
VERTEX
  8
NC_Symbol-B
 10
13.573660
 20
14.348680
 30
0.0
 42
-0.016883
  0
VERTEX
  8
NC_Symbol-B
 10
13.576980
 20
14.348070
 30
0.0
  0
VERTEX
  8
NC_Symbol-B
 10
13.599090
 20
14.343190
 30
0.0
 42
-0.018549
  0
VERTEX
  8
NC_Symbol-B
 10
13.602680
 20
14.342260
 30
0.0
  0
VERTEX
  8
NC_Symbol-B
 10
13.623740
 20
14.335940
 30
0.0
 42
-0.021499
  0
VERTEX
  8
NC_Symbol-B
 10
13.627800
 20
14.334530
 30
0.0
  0
VERTEX
  8
NC_Symbol-B
 10
13.647840
 20
14.326580
 30
0.0
 42
-0.023733
  0
VERTEX
  8
NC_Symbol-B
 10
13.652160
 20
14.324620
 30
0.0
  0
VERTEX
  8
NC_Symbol-B
 10
13.670980
 20
14.315000
 30
0.0
 42
-0.025711
  0
VERTEX
  8
NC_Symbol-B
 10
13.675430
 20
14.312430
 30
0.0
  0
VERTEX
  8
NC_Symbol-B
 10
13.692880
 20
14.301110
 30
0.0
 42
-0.027043
  0
VERTEX
  8
NC_Symbol-B
 10
13.697250
 20
14.297930
 30
0.0
  0
VERTEX
  8
NC_Symbol-B
 10
13.713300
 20
14.284860
 30
0.0
 42
-0.026957
  0
VERTEX
  8
NC_Symbol-B
 10
13.717290
 20
14.281240
 30
0.0
  0
VERTEX
  8
NC_Symbol-B
 10
13.731790
 20
14.266570
 30
0.0
 42
-0.028329
  0
VERTEX
  8
NC_Symbol-B
 10
13.735530
 20
14.262320
 30
0.0
  0
VERTEX
  8
NC_Symbol-B
 10
13.748160
 20
14.246260
 30
0.0
 42
-0.028500
  0
VERTEX
  8
NC_Symbol-B
 10
13.751420
 20
14.241590
 30
0.0
  0
VERTEX
  8
NC_Symbol-B
 10
13.762260
 20
14.224000
 30
0.0
 42
-0.025883
  0
VERTEX
  8
NC_Symbol-B
 10
13.764740
 20
14.219460
 30
0.0
  0
VERTEX
  8
NC_Symbol-B
 10
13.773980
 20
14.200270
 30
0.0
 42
-0.023964
  0
VERTEX
  8
NC_Symbol-B
 10
13.775850
 20
14.195860
 30
0.0
  0
VERTEX
  8
NC_Symbol-B
 10
13.783420
 20
14.175300
 30
0.0
 42
-0.021958
  0
VERTEX
  8
NC_Symbol-B
 10
13.784760
 20
14.171120
 30
0.0
  0
VERTEX
  8
NC_Symbol-B
 10
13.790560
 20
14.149720
 30
0.0
 42
-0.020167
  0
VERTEX
  8
NC_Symbol-B
 10
13.791460
 20
14.145790
 30
0.0
  0
VERTEX
  8
NC_Symbol-B
 10
13.795550
 20
14.123830
 30
0.0
 42
-0.020317
  0
VERTEX
  8
NC_Symbol-B
 10
13.796130
 20
14.119810
 30
0.0
  0
VERTEX
  8
NC_Symbol-B
 10
13.798490
 20
14.096920
 30
0.0
 42
-0.011541
  0
VERTEX
  8
NC_Symbol-B
 10
13.798680
 20
14.094620
 30
0.0
  0
VERTEX
  8
NC_Symbol-B
 10
13.812670
 20
13.847470
 30
0.0
 42
-0.004807
  0
VERTEX
  8
NC_Symbol-B
 10
13.812720
 20
13.846510
 30
0.0
  0
VERTEX
  8
NC_Symbol-B
 10
13.821970
 20
13.598760
 30
0.0
 42
-0.006002
  0
VERTEX
  8
NC_Symbol-B
 10
13.822000
 20
13.597560
 30
0.0
  0
VERTEX
  8
NC_Symbol-B
 10
13.825300
 20
13.350560
 30
0.0
 42
-0.006800
  0
VERTEX
  8
NC_Symbol-B
 10
13.825300
 20
13.349200
 30
0.0
  0
VERTEX
  8
NC_Symbol-B
 10
13.821720
 20
13.090260
 30
0.0
 42
-0.004702
  0
VERTEX
  8
NC_Symbol-B
 10
13.821690
 20
13.089320
 30
0.0
  0
VERTEX
  8
NC_Symbol-B
 10
13.813180
 20
12.828910
 30
0.0
 42
-0.004403
  0
VERTEX
  8
NC_Symbol-B
 10
13.813150
 20
12.828030
 30
0.0
  0
VERTEX
  8
NC_Symbol-B
 10
13.800190
 20
12.570370
 30
0.0
 42
-0.016913
  0
VERTEX
  8
NC_Symbol-B
 10
13.799910
 20
12.567000
 30
0.0
  0
VERTEX
  8
NC_Symbol-B
 10
13.797780
 20
12.549000
 30
0.0
 42
-0.026347
  0
VERTEX
  8
NC_Symbol-B
 10
13.796890
 20
12.543810
 30
0.0
  0
VERTEX
  8
NC_Symbol-B
 10
13.793060
 20
12.526940
 30
0.0
 42
-0.026103
  0
VERTEX
  8
NC_Symbol-B
 10
13.791640
 20
12.521920
 30
0.0
  0
VERTEX
  8
NC_Symbol-B
 10
13.786010
 20
12.505370
 30
0.0
 42
-0.025848
  0
VERTEX
  8
NC_Symbol-B
 10
13.784100
 20
12.500570
 30
0.0
  0
VERTEX
  8
NC_Symbol-B
 10
13.776800
 20
12.484700
 30
0.0
 42
-0.025535
  0
VERTEX
  8
NC_Symbol-B
 10
13.774430
 20
12.480180
 30
0.0
  0
VERTEX
  8
NC_Symbol-B
 10
13.765460
 20
12.465000
 30
0.0
 42
-0.024422
  0
VERTEX
  8
NC_Symbol-B
 10
13.762780
 20
12.460920
 30
0.0
  0
VERTEX
  8
NC_Symbol-B
 10
13.752320
 20
12.446610
 30
0.0
 42
-0.023376
  0
VERTEX
  8
NC_Symbol-B
 10
13.749390
 20
12.442970
 30
0.0
  0
VERTEX
  8
NC_Symbol-B
 10
13.737450
 20
12.429480
 30
0.0
 42
-0.021757
  0
VERTEX
  8
NC_Symbol-B
 10
13.734430
 20
12.426350
 30
0.0
  0
VERTEX
  8
NC_Symbol-B
 10
13.721270
 20
12.413860
 30
0.0
 42
-0.020813
  0
VERTEX
  8
NC_Symbol-B
 10
13.718130
 20
12.411130
 30
0.0
  0
VERTEX
  8
NC_Symbol-B
 10
13.703860
 20
12.399680
 30
0.0
 42
-0.021221
  0
VERTEX
  8
NC_Symbol-B
 10
13.700440
 20
12.397170
 30
0.0
  0
VERTEX
  8
NC_Symbol-B
 10
13.685220
 20
12.386950
 30
0.0
 42
-0.020881
  0
VERTEX
  8
NC_Symbol-B
 10
13.681660
 20
12.384770
 30
0.0
  0
VERTEX
  8
NC_Symbol-B
 10
13.665650
 20
12.375870
 30
0.0
 42
-0.021073
  0
VERTEX
  8
NC_Symbol-B
 10
13.661890
 20
12.373970
 30
0.0
  0
VERTEX
  8
NC_Symbol-B
 10
13.645040
 20
12.366380
 30
0.0
 42
-0.021486
  0
VERTEX
  8
NC_Symbol-B
 10
13.641050
 20
12.364790
 30
0.0
  0
VERTEX
  8
NC_Symbol-B
 10
13.624200
 20
12.358880
 30
0.0
 42
-0.023998
  0
VERTEX
  8
NC_Symbol-B
 10
13.619600
 20
12.357520
 30
0.0
  0
VERTEX
  8
NC_Symbol-B
 10
13.602530
 20
12.353320
 30
0.0
 42
-0.026338
  0
VERTEX
  8
NC_Symbol-B
 10
13.597360
 20
12.352330
 30
0.0
  0
VERTEX
  8
NC_Symbol-B
 10
13.579610
 20
12.349900
 30
0.0
 42
-0.017991
  0
VERTEX
  8
NC_Symbol-B
 10
13.576030
 20
12.349550
 30
0.0
  0
VERTEX
  8
NC_Symbol-B
 10
13.388250
 20
12.337540
 30
0.0
 42
-0.002907
  0
VERTEX
  8
NC_Symbol-B
 10
13.387670
 20
12.337500
 30
0.0
  0
VERTEX
  8
NC_Symbol-B
 10
13.198560
 20
12.327640
 30
0.0
 42
-0.002202
  0
VERTEX
  8
NC_Symbol-B
 10
13.198120
 20
12.327620
 30
0.0
  0
VERTEX
  8
NC_Symbol-B
 10
13.008190
 20
12.319410
 30
0.0
 42
-0.001803
  0
VERTEX
  8
NC_Symbol-B
 10
13.007830
 20
12.319390
 30
0.0
  0
VERTEX
  8
NC_Symbol-B
 10
12.818980
 20
12.312600
 30
0.0
 42
-0.001200
  0
VERTEX
  8
NC_Symbol-B
 10
12.818740
 20
12.312600
 30
0.0
  0
VERTEX
  8
NC_Symbol-B
 10
12.629150
 20
12.306680
 30
0.0
 42
-0.000800
  0
VERTEX
  8
NC_Symbol-B
 10
12.628990
 20
12.306680
 30
0.0
  0
VERTEX
  8
NC_Symbol-B
 10
12.250770
 20
12.296160
 30
0.0
 42
-0.014003
  0
VERTEX
  8
NC_Symbol-B
 10
12.247970
 20
12.296160
 30
0.0
  0
VERTEX
  8
NC_Symbol-B
 10
11.868350
 20
12.306900
 30
0.0
 42
-0.000700
  0
VERTEX
  8
NC_Symbol-B
 10
11.868210
 20
12.306900
 30
0.0
  0
VERTEX
  8
NC_Symbol-B
 10
11.679950
 20
12.312780
 30
0.0
 42
-0.001200
  0
VERTEX
  8
NC_Symbol-B
 10
11.679710
 20
12.312780
 30
0.0
  0
VERTEX
  8
NC_Symbol-B
 10
11.490150
 20
12.319590
 30
0.0
 42
-0.001703
  0
VERTEX
  8
NC_Symbol-B
 10
11.489810
 20
12.319610
 30
0.0
  0
VERTEX
  8
NC_Symbol-B
 10
11.300420
 20
12.327740
 30
0.0
 42
-0.002302
  0
VERTEX
  8
NC_Symbol-B
 10
11.299960
 20
12.327760
 30
0.0
  0
VERTEX
  8
NC_Symbol-B
 10
11.110810
 20
12.337630
 30
0.0
 42
-0.002804
  0
VERTEX
  8
NC_Symbol-B
 10
11.110250
 20
12.337660
 30
0.0
  0
VERTEX
  8
NC_Symbol-B
 10
10.923290
 20
12.349520
 30
0.0
 42
-0.018250
  0
VERTEX
  8
NC_Symbol-B
 10
10.919660
 20
12.349890
 30
0.0
  0
VERTEX
  8
NC_Symbol-B
 10
10.901660
 20
12.352360
 30
0.0
 42
-0.025719
  0
VERTEX
  8
NC_Symbol-B
 10
10.896610
 20
12.353320
 30
0.0
  0
VERTEX
  8
NC_Symbol-B
 10
10.879590
 20
12.357470
 30
0.0
 42
-0.023902
  0
VERTEX
  8
NC_Symbol-B
 10
10.875010
 20
12.358830
 30
0.0
  0
VERTEX
  8
NC_Symbol-B
 10
10.857880
 20
12.364790
 30
0.0
 42
-0.021216
  0
VERTEX
  8
NC_Symbol-B
 10
10.853940
 20
12.366360
 30
0.0
  0
VERTEX
  8
NC_Symbol-B
 10
10.837060
 20
12.373950
 30
0.0
 42
-0.020872
  0
VERTEX
  8
NC_Symbol-B
 10
10.833330
 20
12.375820
 30
0.0
  0
VERTEX
  8
NC_Symbol-B
 10
10.817350
 20
12.384680
 30
0.0
 42
-0.021173
  0
VERTEX
  8
NC_Symbol-B
 10
10.813740
 20
12.386890
 30
0.0
  0
VERTEX
  8
NC_Symbol-B
 10
10.798530
 20
12.397100
 30
0.0
 42
-0.020790
  0
VERTEX
  8
NC_Symbol-B
 10
10.795180
 20
12.399560
 30
0.0
  0
VERTEX
  8
NC_Symbol-B
 10
10.780870
 20
12.410990
 30
0.0
 42
-0.020917
  0
VERTEX
  8
NC_Symbol-B
 10
10.777720
 20
12.413740
 30
0.0
  0
VERTEX
  8
NC_Symbol-B
 10
10.764450
 20
12.426300
 30
0.0
 42
-0.021934
  0
VERTEX
  8
NC_Symbol-B
 10
10.761400
 20
12.429450
 30
0.0
  0
VERTEX
  8
NC_Symbol-B
 10
10.749440
 20
12.442960
 30
0.0
 42
-0.023486
  0
VERTEX
  8
NC_Symbol-B
 10
10.746500
 20
12.446620
 30
0.0
  0
VERTEX
  8
NC_Symbol-B
 10
10.736050
 20
12.460920
 30
0.0
 42
-0.024019
  0
VERTEX
  8
NC_Symbol-B
 10
10.733410
 20
12.464930
 30
0.0
  0
VERTEX
  8
NC_Symbol-B
 10
10.724430
 20
12.480070
 30
0.0
 42
-0.026387
  0
VERTEX
  8
NC_Symbol-B
 10
10.721980
 20
12.484740
 30
0.0
  0
VERTEX
  8
NC_Symbol-B
 10
10.714700
 20
12.500620
 30
0.0
 42
-0.025327
  0
VERTEX
  8
NC_Symbol-B
 10
10.712820
 20
12.505320
 30
0.0
  0
VERTEX
  8
NC_Symbol-B
 10
10.707190
 20
12.521830
 30
0.0
 42
-0.026529
  0
VERTEX
  8
NC_Symbol-B
 10
10.705740
 20
12.526930
 30
0.0
  0
VERTEX
  8
NC_Symbol-B
 10
10.701930
 20
12.543780
 30
0.0
 42
-0.026051
  0
VERTEX
  8
NC_Symbol-B
 10
10.701040
 20
12.548910
 30
0.0
  0
VERTEX
  8
NC_Symbol-B
 10
10.698880
 20
12.567040
 30
0.0
 42
-0.017117
  0
VERTEX
  8
NC_Symbol-B
 10
10.698590
 20
12.570450
 30
0.0
  0
VERTEX
  8
NC_Symbol-B
 10
10.685620
 20
12.828910
 30
0.0
 42
-0.004403
  0
VERTEX
  8
NC_Symbol-B
 10
10.685590
 20
12.829790
 30
0.0
  0
VERTEX
  8
NC_Symbol-B
 10
10.677110
 20
13.089360
 30
0.0
 42
-0.004702
  0
VERTEX
  8
NC_Symbol-B
 10
10.677080
 20
13.090300
 30
0.0
  0
VERTEX
  8
NC_Symbol-B
 10
10.673510
 20
13.349200
 30
0.0
 42
-0.006700
  0
VERTEX
  8
NC_Symbol-B
 10
10.673510
 20
13.350540
 30
0.0
  0
SEQEND
  0
POLYLINE
  8
NC_Symbol-B
 66
   1
 10
0.0
 20
0.0
 30
0.0
 70
   1
  0
VERTEX
  8
NC_Symbol-B
 10
10.833420
 20
13.238100
 30
0.0
  0
VERTEX
  8
NC_Symbol-B
 10
10.834640
 20
13.126340
 30
0.0
  0
VERTEX
  8
NC_Symbol-B
 10
10.837050
 20
13.014550
 30
0.0
  0
VERTEX
  8
NC_Symbol-B
 10
10.840780
 20
12.902790
 30
0.0
  0
VERTEX
  8
NC_Symbol-B
 10
10.845890
 20
12.791110
 30
0.0
  0
VERTEX
  8
NC_Symbol-B
 10
10.852520
 20
12.679500
 30
0.0
  0
VERTEX
  8
NC_Symbol-B
 10
10.860700
 20
12.568020
 30
0.0
  0
VERTEX
  8
NC_Symbol-B
 10
10.864680
 20
12.554510
 30
0.0
  0
VERTEX
  8
NC_Symbol-B
 10
10.873290
 20
12.542620
 30
0.0
  0
VERTEX
  8
NC_Symbol-B
 10
10.884700
 20
12.532310
 30
0.0
  0
VERTEX
  8
NC_Symbol-B
 10
10.897200
 20
12.523470
 30
0.0
  0
VERTEX
  8
NC_Symbol-B
 10
10.910100
 20
12.516330
 30
0.0
  0
VERTEX
  8
NC_Symbol-B
 10
10.923480
 20
12.511300
 30
0.0
  0
VERTEX
  8
NC_Symbol-B
 10
10.937510
 20
12.508790
 30
0.0
  0
VERTEX
  8
NC_Symbol-B
 10
11.124580
 20
12.495350
 30
0.0
  0
VERTEX
  8
NC_Symbol-B
 10
11.311850
 20
12.484530
 30
0.0
  0
VERTEX
  8
NC_Symbol-B
 10
11.499230
 20
12.475970
 30
0.0
  0
VERTEX
  8
NC_Symbol-B
 10
11.686700
 20
12.469550
 30
0.0
  0
VERTEX
  8
NC_Symbol-B
 10
11.874260
 20
12.465050
 30
0.0
  0
VERTEX
  8
NC_Symbol-B
 10
12.061810
 20
12.462380
 30
0.0
  0
VERTEX
  8
NC_Symbol-B
 10
12.249390
 20
12.461370
 30
0.0
  0
VERTEX
  8
NC_Symbol-B
 10
12.437000
 20
12.462230
 30
0.0
  0
VERTEX
  8
NC_Symbol-B
 10
12.624600
 20
12.464800
 30
0.0
  0
VERTEX
  8
NC_Symbol-B
 10
12.812180
 20
12.469220
 30
0.0
  0
VERTEX
  8
NC_Symbol-B
 10
12.999730
 20
12.475640
 30
0.0
  0
VERTEX
  8
NC_Symbol-B
 10
13.187180
 20
12.484280
 30
0.0
  0
VERTEX
  8
NC_Symbol-B
 10
13.374480
 20
12.495280
 30
0.0
  0
VERTEX
  8
NC_Symbol-B
 10
13.561610
 20
12.508790
 30
0.0
  0
VERTEX
  8
NC_Symbol-B
 10
13.575550
 20
12.511330
 30
0.0
  0
VERTEX
  8
NC_Symbol-B
 10
13.588910
 20
12.516380
 30
0.0
  0
VERTEX
  8
NC_Symbol-B
 10
13.601760
 20
12.523520
 30
0.0
  0
VERTEX
  8
NC_Symbol-B
 10
13.614210
 20
12.532360
 30
0.0
  0
VERTEX
  8
NC_Symbol-B
 10
13.625560
 20
12.542700
 30
0.0
  0
VERTEX
  8
NC_Symbol-B
 10
13.634120
 20
12.554560
 30
0.0
  0
VERTEX
  8
NC_Symbol-B
 10
13.638110
 20
12.568020
 30
0.0
  0
VERTEX
  8
NC_Symbol-B
 10
13.655460
 20
12.828300
 30
0.0
  0
VERTEX
  8
NC_Symbol-B
 10
13.665140
 20
13.089030
 30
0.0
  0
VERTEX
  8
NC_Symbol-B
 10
13.668110
 20
13.349890
 30
0.0
  0
VERTEX
  8
NC_Symbol-B
 10
13.664070
 20
13.611790
 30
0.0
  0
VERTEX
  8
NC_Symbol-B
 10
13.653020
 20
13.873510
 30
0.0
  0
VERTEX
  8
NC_Symbol-B
 10
13.635700
 20
14.134870
 30
0.0
  0
VERTEX
  8
NC_Symbol-B
 10
13.632570
 20
14.146760
 30
0.0
  0
VERTEX
  8
NC_Symbol-B
 10
13.626250
 20
14.157680
 30
0.0
  0
VERTEX
  8
NC_Symbol-B
 10
13.617890
 20
14.167380
 30
0.0
  0
VERTEX
  8
NC_Symbol-B
 10
13.607960
 20
14.175620
 30
0.0
  0
VERTEX
  8
NC_Symbol-B
 10
13.596840
 20
14.182120
 30
0.0
  0
VERTEX
  8
NC_Symbol-B
 10
13.584950
 20
14.186640
 30
0.0
  0
VERTEX
  8
NC_Symbol-B
 10
13.572710
 20
14.188920
 30
0.0
  0
VERTEX
  8
NC_Symbol-B
 10
13.384060
 20
14.203990
 30
0.0
  0
VERTEX
  8
NC_Symbol-B
 10
13.195190
 20
14.215850
 30
0.0
  0
VERTEX
  8
NC_Symbol-B
 10
13.006160
 20
14.225040
 30
0.0
  0
VERTEX
  8
NC_Symbol-B
 10
12.817000
 20
14.232080
 30
0.0
  0
VERTEX
  8
NC_Symbol-B
 10
12.627830
 20
14.237440
 30
0.0
  0
VERTEX
  8
NC_Symbol-B
 10
12.438620
 20
14.240970
 30
0.0
  0
VERTEX
  8
NC_Symbol-B
 10
12.249390
 20
14.242340
 30
0.0
  0
VERTEX
  8
NC_Symbol-B
 10
12.060190
 20
14.240820
 30
0.0
  0
VERTEX
  8
NC_Symbol-B
 10
11.870980
 20
14.237240
 30
0.0
  0
VERTEX
  8
NC_Symbol-B
 10
11.681800
 20
14.231880
 30
0.0
  0
VERTEX
  8
NC_Symbol-B
 10
11.492650
 20
14.224870
 30
0.0
  0
VERTEX
  8
NC_Symbol-B
 10
11.303600
 20
14.215750
 30
0.0
  0
VERTEX
  8
NC_Symbol-B
 10
11.114720
 20
14.203960
 30
0.0
  0
VERTEX
  8
NC_Symbol-B
 10
10.926100
 20
14.188920
 30
0.0
  0
VERTEX
  8
NC_Symbol-B
 10
10.914140
 20
14.186640
 30
0.0
  0
VERTEX
  8
NC_Symbol-B
 10
10.902530
 20
14.182120
 30
0.0
  0
VERTEX
  8
NC_Symbol-B
 10
10.891230
 20
14.175590
 30
0.0
  0
VERTEX
  8
NC_Symbol-B
 10
10.880890
 20
14.167330
 30
0.0
  0
VERTEX
  8
NC_Symbol-B
 10
10.872300
 20
14.157630
 30
0.0
  0
VERTEX
  8
NC_Symbol-B
 10
10.866210
 20
14.146710
 30
0.0
  0
VERTEX
  8
NC_Symbol-B
 10
10.863410
 20
14.134870
 30
0.0
 42
0.019075
  0
VERTEX
  8
NC_Symbol-B
 10
10.833110
 20
13.349890
 30
0.0
  0
SEQEND
  0
POLYLINE
  8
NC_Symbol-B
 66
   1
 10
0.0
 20
0.0
 30
0.0
 70
   1
  0
VERTEX
  8
NC_Symbol-B
 10
10.239010
 20
13.686820
 30
0.0
 42
-0.003501
  0
VERTEX
  8
NC_Symbol-B
 10
10.239030
 20
13.687520
 30
0.0
  0
VERTEX
  8
NC_Symbol-B
 10
10.244910
 20
13.855220
 30
0.0
 42
-0.003403
  0
VERTEX
  8
NC_Symbol-B
 10
10.244940
 20
13.855900
 30
0.0
  0
VERTEX
  8
NC_Symbol-B
 10
10.253110
 20
14.023490
 30
0.0
 42
-0.003004
  0
VERTEX
  8
NC_Symbol-B
 10
10.253140
 20
14.024090
 30
0.0
  0
VERTEX
  8
NC_Symbol-B
 10
10.263340
 20
14.191670
 30
0.0
 42
-0.002003
  0
VERTEX
  8
NC_Symbol-B
 10
10.263360
 20
14.192070
 30
0.0
  0
VERTEX
  8
NC_Symbol-B
 10
10.274900
 20
14.359740
 30
0.0
 42
-0.000906
  0
VERTEX
  8
NC_Symbol-B
 10
10.274920
 20
14.359920
 30
0.0
  0
VERTEX
  8
NC_Symbol-B
 10
10.287000
 20
14.526500
 30
0.0
 42
-0.011201
  0
VERTEX
  8
NC_Symbol-B
 10
10.287210
 20
14.528730
 30
0.0
  0
VERTEX
  8
NC_Symbol-B
 10
10.289440
 20
14.547690
 30
0.0
 42
-0.021176
  0
VERTEX
  8
NC_Symbol-B
 10
10.290110
 20
14.551870
 30
0.0
  0
VERTEX
  8
NC_Symbol-B
 10
10.293800
 20
14.569870
 30
0.0
 42
-0.020928
  0
VERTEX
  8
NC_Symbol-B
 10
10.294810
 20
14.573930
 30
0.0
  0
VERTEX
  8
NC_Symbol-B
 10
10.299950
 20
14.591420
 30
0.0
 42
-0.022497
  0
VERTEX
  8
NC_Symbol-B
 10
10.301420
 20
14.595670
 30
0.0
  0
VERTEX
  8
NC_Symbol-B
 10
10.308050
 20
14.612460
 30
0.0
 42
-0.022974
  0
VERTEX
  8
NC_Symbol-B
 10
10.309930
 20
14.616650
 30
0.0
  0
VERTEX
  8
NC_Symbol-B
 10
10.317850
 20
14.632340
 30
0.0
 42
-0.025096
  0
VERTEX
  8
NC_Symbol-B
 10
10.320330
 20
14.636700
 30
0.0
  0
VERTEX
  8
NC_Symbol-B
 10
10.329620
 20
14.651260
 30
0.0
 42
-0.026896
  0
VERTEX
  8
NC_Symbol-B
 10
10.332750
 20
14.655630
 30
0.0
  0
VERTEX
  8
NC_Symbol-B
 10
10.343290
 20
14.668780
 30
0.0
 42
-0.026826
  0
VERTEX
  8
NC_Symbol-B
 10
10.346860
 20
14.672780
 30
0.0
  0
VERTEX
  8
NC_Symbol-B
 10
10.358810
 20
14.684790
 30
0.0
 42
-0.025929
  0
VERTEX
  8
NC_Symbol-B
 10
10.362650
 20
14.688270
 30
0.0
  0
VERTEX
  8
NC_Symbol-B
 10
10.375930
 20
14.699100
 30
0.0
 42
-0.024435
  0
VERTEX
  8
NC_Symbol-B
 10
10.379860
 20
14.702000
 30
0.0
  0
VERTEX
  8
NC_Symbol-B
 10
10.394530
 20
14.711760
 30
0.0
 42
-0.022933
  0
VERTEX
  8
NC_Symbol-B
 10
10.398460
 20
14.714120
 30
0.0
  0
VERTEX
  8
NC_Symbol-B
 10
10.414030
 20
14.722530
 30
0.0
 42
-0.021163
  0
VERTEX
  8
NC_Symbol-B
 10
10.417830
 20
14.724390
 30
0.0
  0
VERTEX
  8
NC_Symbol-B
 10
10.434440
 20
14.731620
 30
0.0
 42
-0.019274
  0
VERTEX
  8
NC_Symbol-B
 10
10.438030
 20
14.733020
 30
0.0
  0
VERTEX
  8
NC_Symbol-B
 10
10.455640
 20
14.739120
 30
0.0
 42
-0.017165
  0
VERTEX
  8
NC_Symbol-B
 10
10.458920
 20
14.740130
 30
0.0
  0
VERTEX
  8
NC_Symbol-B
 10
10.477220
 20
14.745090
 30
0.0
 42
-0.015733
  0
VERTEX
  8
NC_Symbol-B
 10
10.480280
 20
14.745820
 30
0.0
  0
VERTEX
  8
NC_Symbol-B
 10
10.499280
 20
14.749700
 30
0.0
 42
-0.012448
  0
VERTEX
  8
NC_Symbol-B
 10
10.501730
 20
14.750140
 30
0.0
  0
VERTEX
  8
NC_Symbol-B
 10
10.614870
 20
14.767440
 30
0.0
 42
-0.008677
  0
VERTEX
  8
NC_Symbol-B
 10
10.616590
 20
14.767670
 30
0.0
  0
VERTEX
  8
NC_Symbol-B
 10
10.731990
 20
14.781240
 30
0.0
 42
-0.005936
  0
VERTEX
  8
NC_Symbol-B
 10
10.733170
 20
14.781370
 30
0.0
  0
VERTEX
  8
NC_Symbol-B
 10
10.848450
 20
14.792150
 30
0.0
 42
-0.003513
  0
VERTEX
  8
NC_Symbol-B
 10
10.849150
 20
14.792210
 30
0.0
  0
VERTEX
  8
NC_Symbol-B
 10
10.965390
 20
14.801420
 30
0.0
 42
-0.002309
  0
VERTEX
  8
NC_Symbol-B
 10
10.965850
 20
14.801460
 30
0.0
  0
VERTEX
  8
NC_Symbol-B
 10
11.081620
 20
14.809570
 30
0.0
 42
-0.002003
  0
VERTEX
  8
NC_Symbol-B
 10
11.082020
 20
14.809590
 30
0.0
  0
VERTEX
  8
NC_Symbol-B
 10
11.198260
 20
14.816790
 30
0.0
 42
-0.001803
  0
VERTEX
  8
NC_Symbol-B
 10
11.198620
 20
14.816810
 30
0.0
  0
VERTEX
  8
NC_Symbol-B
 10
11.315120
 20
14.823170
 30
0.0
 42
-0.001703
  0
VERTEX
  8
NC_Symbol-B
 10
11.315460
 20
14.823190
 30
0.0
  0
VERTEX
  8
NC_Symbol-B
 10
11.432580
 20
14.828790
 30
0.0
 42
-0.001503
  0
VERTEX
  8
NC_Symbol-B
 10
11.432880
 20
14.828810
 30
0.0
  0
VERTEX
  8
NC_Symbol-B
 10
11.548400
 20
14.833620
 30
0.0
 42
-0.001301
  0
VERTEX
  8
NC_Symbol-B
 10
11.548660
 20
14.833630
 30
0.0
  0
VERTEX
  8
NC_Symbol-B
 10
11.665190
 20
14.837890
 30
0.0
 42
-0.001300
  0
VERTEX
  8
NC_Symbol-B
 10
11.665450
 20
14.837890
 30
0.0
  0
VERTEX
  8
NC_Symbol-B
 10
11.782000
 20
14.841550
 30
0.0
 42
-0.001100
  0
VERTEX
  8
NC_Symbol-B
 10
11.782220
 20
14.841550
 30
0.0
  0
VERTEX
  8
NC_Symbol-B
 10
11.898840
 20
14.844680
 30
0.0
 42
-0.001300
  0
VERTEX
  8
NC_Symbol-B
 10
11.899100
 20
14.844680
 30
0.0
  0
VERTEX
  8
NC_Symbol-B
 10
12.015680
 20
14.847220
 30
0.0
 42
-0.001500
  0
VERTEX
  8
NC_Symbol-B
 10
12.015980
 20
14.847220
 30
0.0
  0
VERTEX
  8
NC_Symbol-B
 10
12.132520
 20
14.849050
 30
0.0
 42
-0.001900
  0
VERTEX
  8
NC_Symbol-B
 10
12.132900
 20
14.849050
 30
0.0
  0
VERTEX
  8
NC_Symbol-B
 10
12.249400
 20
14.849980
 30
0.0
 42
-0.004900
  0
VERTEX
  8
NC_Symbol-B
 10
12.250380
 20
14.849970
 30
0.0
  0
VERTEX
  8
NC_Symbol-B
 10
12.496820
 20
14.847080
 30
0.0
 42
-0.004902
  0
VERTEX
  8
NC_Symbol-B
 10
12.497800
 20
14.847050
 30
0.0
  0
VERTEX
  8
NC_Symbol-B
 10
12.746010
 20
14.839270
 30
0.0
 42
-0.002802
  0
VERTEX
  8
NC_Symbol-B
 10
12.746570
 20
14.839250
 30
0.0
  0
VERTEX
  8
NC_Symbol-B
 10
12.994170
 20
14.828720
 30
0.0
 42
-0.002202
  0
VERTEX
  8
NC_Symbol-B
 10
12.994610
 20
14.828700
 30
0.0
  0
VERTEX
  8
NC_Symbol-B
 10
13.242250
 20
14.815940
 30
0.0
 42
-0.002704
  0
VERTEX
  8
NC_Symbol-B
 10
13.242790
 20
14.815910
 30
0.0
  0
VERTEX
  8
NC_Symbol-B
 10
13.490210
 20
14.800520
 30
0.0
 42
-0.003409
  0
VERTEX
  8
NC_Symbol-B
 10
13.490890
 20
14.800470
 30
0.0
  0
VERTEX
  8
NC_Symbol-B
 10
13.737880
 20
14.781700
 30
0.0
 42
-0.004215
  0
VERTEX
  8
NC_Symbol-B
 10
13.738720
 20
14.781630
 30
0.0
  0
VERTEX
  8
NC_Symbol-B
 10
13.983640
 20
14.758850
 30
0.0
 42
-0.015067
  0
VERTEX
  8
NC_Symbol-B
 10
13.986630
 20
14.758480
 30
0.0
  0
VERTEX
  8
NC_Symbol-B
 10
14.004780
 20
14.755680
 30
0.0
 42
-0.023793
  0
VERTEX
  8
NC_Symbol-B
 10
14.009440
 20
14.754730
 30
0.0
  0
VERTEX
  8
NC_Symbol-B
 10
14.026170
 20
14.750490
 30
0.0
 42
-0.024214
  0
VERTEX
  8
NC_Symbol-B
 10
14.030800
 20
14.749080
 30
0.0
  0
VERTEX
  8
NC_Symbol-B
 10
14.047210
 20
14.743190
 30
0.0
 42
-0.023710
  0
VERTEX
  8
NC_Symbol-B
 10
14.051590
 20
14.741380
 30
0.0
  0
VERTEX
  8
NC_Symbol-B
 10
14.067300
 20
14.733990
 30
0.0
 42
-0.024529
  0
VERTEX
  8
NC_Symbol-B
 10
14.071630
 20
14.731690
 30
0.0
  0
VERTEX
  8
NC_Symbol-B
 10
14.086550
 20
14.722800
 30
0.0
 42
-0.023644
  0
VERTEX
  8
NC_Symbol-B
 10
14.090490
 20
14.720190
 30
0.0
  0
VERTEX
  8
NC_Symbol-B
 10
14.104560
 20
14.709890
 30
0.0
 42
-0.023197
  0
VERTEX
  8
NC_Symbol-B
 10
14.108170
 20
14.706980
 30
0.0
  0
VERTEX
  8
NC_Symbol-B
 10
14.121350
 20
14.695310
 30
0.0
 42
-0.022146
  0
VERTEX
  8
NC_Symbol-B
 10
14.124530
 20
14.692230
 30
0.0
  0
VERTEX
  8
NC_Symbol-B
 10
14.136890
 20
14.679170
 30
0.0
 42
-0.021562
  0
VERTEX
  8
NC_Symbol-B
 10
14.139710
 20
14.675910
 30
0.0
  0
VERTEX
  8
NC_Symbol-B
 10
14.150960
 20
14.661760
 30
0.0
 42
-0.021092
  0
VERTEX
  8
NC_Symbol-B
 10
14.153440
 20
14.658350
 30
0.0
  0
VERTEX
  8
NC_Symbol-B
 10
14.163620
 20
14.643060
 30
0.0
 42
-0.021164
  0
VERTEX
  8
NC_Symbol-B
 10
14.165810
 20
14.639440
 30
0.0
  0
VERTEX
  8
NC_Symbol-B
 10
14.174610
 20
14.623430
 30
0.0
 42
-0.021320
  0
VERTEX
  8
NC_Symbol-B
 10
14.176500
 20
14.619610
 30
0.0
  0
VERTEX
  8
NC_Symbol-B
 10
14.183890
 20
14.602950
 30
0.0
 42
-0.022351
  0
VERTEX
  8
NC_Symbol-B
 10
14.185520
 20
14.598790
 30
0.0
  0
VERTEX
  8
NC_Symbol-B
 10
14.191300
 20
14.581840
 30
0.0
 42
-0.022972
  0
VERTEX
  8
NC_Symbol-B
 10
14.192580
 20
14.577430
 30
0.0
  0
VERTEX
  8
NC_Symbol-B
 10
14.196660
 20
14.560500
 30
0.0
 42
-0.024599
  0
VERTEX
  8
NC_Symbol-B
 10
14.197580
 20
14.555670
 30
0.0
  0
VERTEX
  8
NC_Symbol-B
 10
14.200110
 20
14.537500
 30
0.0
 42
-0.012884
  0
VERTEX
  8
NC_Symbol-B
 10
14.200400
 20
14.534940
 30
0.0
  0
VERTEX
  8
NC_Symbol-B
 10
14.215070
 20
14.366620
 30
0.0
 42
-0.001703
  0
VERTEX
  8
NC_Symbol-B
 10
14.215090
 20
14.366280
 30
0.0
  0
VERTEX
  8
NC_Symbol-B
 10
14.228690
 20
14.196930
 30
0.0
 42
-0.002209
  0
VERTEX
  8
NC_Symbol-B
 10
14.228730
 20
14.196490
 30
0.0
  0
VERTEX
  8
NC_Symbol-B
 10
14.240830
 20
14.027070
 30
0.0
 42
-0.002807
  0
VERTEX
  8
NC_Symbol-B
 10
14.240870
 20
14.026510
 30
0.0
  0
VERTEX
  8
NC_Symbol-B
 10
14.251040
 20
13.857070
 30
0.0
 42
-0.003506
  0
VERTEX
  8
NC_Symbol-B
 10
14.251080
 20
13.856370
 30
0.0
  0
VERTEX
  8
NC_Symbol-B
 10
14.258880
 20
13.686970
 30
0.0
 42
-0.004103
  0
VERTEX
  8
NC_Symbol-B
 10
14.258910
 20
13.686150
 30
0.0
  0
VERTEX
  8
NC_Symbol-B
 10
14.263910
 20
13.516820
 30
0.0
 42
-0.004800
  0
VERTEX
  8
NC_Symbol-B
 10
14.263920
 20
13.515860
 30
0.0
  0
VERTEX
  8
NC_Symbol-B
 10
14.265690
 20
13.346580
 30
0.0
 42
-0.004400
  0
VERTEX
  8
NC_Symbol-B
 10
14.265690
 20
13.345700
 30
0.0
  0
VERTEX
  8
NC_Symbol-B
 10
14.264460
 20
13.177090
 30
0.0
 42
-0.003700
  0
VERTEX
  8
NC_Symbol-B
 10
14.264450
 20
13.176350
 30
0.0
  0
VERTEX
  8
NC_Symbol-B
 10
14.260740
 20
13.007620
 30
0.0
 42
-0.003801
  0
VERTEX
  8
NC_Symbol-B
 10
14.260720
 20
13.006860
 30
0.0
  0
VERTEX
  8
NC_Symbol-B
 10
14.254430
 20
12.838230
 30
0.0
 42
-0.003903
  0
VERTEX
  8
NC_Symbol-B
 10
14.254400
 20
12.837450
 30
0.0
  0
VERTEX
  8
NC_Symbol-B
 10
14.245500
 20
12.669220
 30
0.0
 42
-0.003406
  0
VERTEX
  8
NC_Symbol-B
 10
14.245460
 20
12.668540
 30
0.0
  0
VERTEX
  8
NC_Symbol-B
 10
14.234200
 20
12.499850
 30
0.0
 42
-0.002508
  0
VERTEX
  8
NC_Symbol-B
 10
14.234160
 20
12.499350
 30
0.0
  0
VERTEX
  8
NC_Symbol-B
 10
14.221170
 20
12.330570
 30
0.0
 42
-0.001503
  0
VERTEX
  8
NC_Symbol-B
 10
14.221150
 20
12.330270
 30
0.0
  0
VERTEX
  8
NC_Symbol-B
 10
14.207300
 20
12.163250
 30
0.0
 42
-0.014994
  0
VERTEX
  8
NC_Symbol-B
 10
14.206970
 20
12.160270
 30
0.0
  0
VERTEX
  8
NC_Symbol-B
 10
14.204750
 20
12.144840
 30
0.0
 42
-0.026730
  0
VERTEX
  8
NC_Symbol-B
 10
14.203710
 20
12.139600
 30
0.0
  0
VERTEX
  8
NC_Symbol-B
 10
14.200050
 20
12.125240
 30
0.0
 42
-0.024560
  0
VERTEX
  8
NC_Symbol-B
 10
14.198600
 20
12.120550
 30
0.0
  0
VERTEX
  8
NC_Symbol-B
 10
14.193440
 20
12.106320
 30
0.0
 42
-0.023236
  0
VERTEX
  8
NC_Symbol-B
 10
14.191660
 20
12.102030
 30
0.0
  0
VERTEX
  8
NC_Symbol-B
 10
14.185020
 20
12.087950
 30
0.0
 42
-0.021166
  0
VERTEX
  8
NC_Symbol-B
 10
14.183060
 20
12.084200
 30
0.0
  0
VERTEX
  8
NC_Symbol-B
 10
14.175140
 20
12.070530
 30
0.0
 42
-0.020940
  0
VERTEX
  8
NC_Symbol-B
 10
14.172890
 20
12.067000
 30
0.0
  0
VERTEX
  8
NC_Symbol-B
 10
14.163880
 20
12.054080
 30
0.0
 42
-0.020098
  0
VERTEX
  8
NC_Symbol-B
 10
14.161450
 20
12.050880
 30
0.0
  0
VERTEX
  8
NC_Symbol-B
 10
14.151140
 20
12.038370
 30
0.0
 42
-0.018671
  0
VERTEX
  8
NC_Symbol-B
 10
14.148660
 20
12.035580
 30
0.0
  0
VERTEX
  8
NC_Symbol-B
 10
14.137380
 20
12.023810
 30
0.0
 42
-0.017646
  0
VERTEX
  8
NC_Symbol-B
 10
14.134850
 20
12.021350
 30
0.0
  0
VERTEX
  8
NC_Symbol-B
 10
14.122510
 20
12.010200
 30
0.0
 42
-0.016964
  0
VERTEX
  8
NC_Symbol-B
 10
14.119920
 20
12.008010
 30
0.0
  0
VERTEX
  8
NC_Symbol-B
 10
14.106820
 20
11.997700
 30
0.0
 42
-0.017607
  0
VERTEX
  8
NC_Symbol-B
 10
14.103980
 20
11.995620
 30
0.0
  0
VERTEX
  8
NC_Symbol-B
 10
14.090370
 20
11.986370
 30
0.0
 42
-0.019098
  0
VERTEX
  8
NC_Symbol-B
 10
14.087130
 20
11.984350
 30
0.0
  0
VERTEX
  8
NC_Symbol-B
 10
14.073050
 20
11.976280
 30
0.0
 42
-0.021635
  0
VERTEX
  8
NC_Symbol-B
 10
14.069210
 20
11.974290
 30
0.0
  0
VERTEX
  8
NC_Symbol-B
 10
14.055160
 20
11.967780
 30
0.0
 42
-0.023178
  0
VERTEX
  8
NC_Symbol-B
 10
14.050870
 20
11.966030
 30
0.0
  0
VERTEX
  8
NC_Symbol-B
 10
14.036800
 20
11.961090
 30
0.0
 42
-0.027108
  0
VERTEX
  8
NC_Symbol-B
 10
14.031600
 20
11.959570
 30
0.0
  0
VERTEX
  8
NC_Symbol-B
 10
14.016690
 20
11.956090
 30
0.0
 42
-0.018648
  0
VERTEX
  8
NC_Symbol-B
 10
14.013030
 20
11.955380
 30
0.0
  0
VERTEX
  8
NC_Symbol-B
 10
13.899310
 20
11.937690
 30
0.0
 42
-0.007475
  0
VERTEX
  8
NC_Symbol-B
 10
13.897830
 20
11.937480
 30
0.0
  0
VERTEX
  8
NC_Symbol-B
 10
13.781190
 20
11.922900
 30
0.0
 42
-0.005439
  0
VERTEX
  8
NC_Symbol-B
 10
13.780110
 20
11.922770
 30
0.0
  0
VERTEX
  8
NC_Symbol-B
 10
13.663760
 20
11.910810
 30
0.0
 42
-0.003617
  0
VERTEX
  8
NC_Symbol-B
 10
13.663040
 20
11.910740
 30
0.0
  0
VERTEX
  8
NC_Symbol-B
 10
13.546160
 20
11.900430
 30
0.0
 42
-0.002807
  0
VERTEX
  8
NC_Symbol-B
 10
13.545600
 20
11.900390
 30
0.0
  0
VERTEX
  8
NC_Symbol-B
 10
13.428200
 20
11.891350
 30
0.0
 42
-0.002408
  0
VERTEX
  8
NC_Symbol-B
 10
13.427720
 20
11.891310
 30
0.0
  0
VERTEX
  8
NC_Symbol-B
 10
13.311190
 20
11.883460
 30
0.0
 42
-0.002102
  0
VERTEX
  8
NC_Symbol-B
 10
13.310770
 20
11.883440
 30
0.0
  0
VERTEX
  8
NC_Symbol-B
 10
13.193000
 20
11.876480
 30
0.0
 42
-0.001803
  0
VERTEX
  8
NC_Symbol-B
 10
13.192640
 20
11.876460
 30
0.0
  0
VERTEX
  8
NC_Symbol-B
 10
13.074790
 20
11.870340
 30
0.0
 42
-0.001703
  0
VERTEX
  8
NC_Symbol-B
 10
13.074450
 20
11.870320
 30
0.0
  0
VERTEX
  8
NC_Symbol-B
 10
12.957260
 20
11.865030
 30
0.0
 42
-0.001603
  0
VERTEX
  8
NC_Symbol-B
 10
12.956940
 20
11.865010
 30
0.0
  0
VERTEX
  8
NC_Symbol-B
 10
12.839330
 20
11.860450
 30
0.0
 42
-0.001703
  0
VERTEX
  8
NC_Symbol-B
 10
12.838990
 20
11.860430
 30
0.0
  0
VERTEX
  8
NC_Symbol-B
 10
12.721370
 20
11.856700
 30
0.0
 42
-0.001701
  0
VERTEX
  8
NC_Symbol-B
 10
12.721030
 20
11.856690
 30
0.0
  0
VERTEX
  8
NC_Symbol-B
 10
12.603390
 20
11.853750
 30
0.0
 42
-0.001800
  0
VERTEX
  8
NC_Symbol-B
 10
12.603030
 20
11.853750
 30
0.0
  0
VERTEX
  8
NC_Symbol-B
 10
12.485400
 20
11.851640
 30
0.0
 42
-0.001800
  0
VERTEX
  8
NC_Symbol-B
 10
12.485040
 20
11.851640
 30
0.0
  0
VERTEX
  8
NC_Symbol-B
 10
12.367400
 20
11.850400
 30
0.0
 42
-0.001800
  0
VERTEX
  8
NC_Symbol-B
 10
12.367040
 20
11.850400
 30
0.0
  0
VERTEX
  8
NC_Symbol-B
 10
12.249390
 20
11.850010
 30
0.0
 42
-0.003200
  0
VERTEX
  8
NC_Symbol-B
 10
12.248750
 20
11.850010
 30
0.0
  0
VERTEX
  8
NC_Symbol-B
 10
12.000800
 20
11.852390
 30
0.0
 42
-0.004100
  0
VERTEX
  8
NC_Symbol-B
 10
11.999980
 20
11.852400
 30
0.0
  0
VERTEX
  8
NC_Symbol-B
 10
11.752260
 20
11.858830
 30
0.0
 42
-0.003402
  0
VERTEX
  8
NC_Symbol-B
 10
11.751580
 20
11.858850
 30
0.0
  0
VERTEX
  8
NC_Symbol-B
 10
11.503610
 20
11.868690
 30
0.0
 42
-0.002802
  0
VERTEX
  8
NC_Symbol-B
 10
11.503050
 20
11.868710
 30
0.0
  0
VERTEX
  8
NC_Symbol-B
 10
11.255490
 20
11.881290
 30
0.0
 42
-0.002804
  0
VERTEX
  8
NC_Symbol-B
 10
11.254930
 20
11.881320
 30
0.0
  0
VERTEX
  8
NC_Symbol-B
 10
11.007360
 20
11.896680
 30
0.0
 42
-0.003609
  0
VERTEX
  8
NC_Symbol-B
 10
11.006640
 20
11.896730
 30
0.0
  0
VERTEX
  8
NC_Symbol-B
 10
10.760210
 20
11.915550
 30
0.0
 42
-0.006075
  0
VERTEX
  8
NC_Symbol-B
 10
10.759000
 20
11.915660
 30
0.0
  0
VERTEX
  8
NC_Symbol-B
 10
10.513550
 20
11.940420
 30
0.0
 42
-0.014931
  0
VERTEX
  8
NC_Symbol-B
 10
10.510590
 20
11.940810
 30
0.0
  0
VERTEX
  8
NC_Symbol-B
 10
10.491770
 20
11.943850
 30
0.0
 42
-0.020778
  0
VERTEX
  8
NC_Symbol-B
 10
10.487700
 20
11.944680
 30
0.0
  0
VERTEX
  8
NC_Symbol-B
 10
10.469990
 20
11.949080
 30
0.0
 42
-0.022017
  0
VERTEX
  8
NC_Symbol-B
 10
10.465770
 20
11.950330
 30
0.0
  0
VERTEX
  8
NC_Symbol-B
 10
10.448690
 20
11.956210
 30
0.0
 42
-0.022815
  0
VERTEX
  8
NC_Symbol-B
 10
10.444450
 20
11.957890
 30
0.0
  0
VERTEX
  8
NC_Symbol-B
 10
10.428150
 20
11.965220
 30
0.0
 42
-0.024881
  0
VERTEX
  8
NC_Symbol-B
 10
10.423720
 20
11.967480
 30
0.0
  0
VERTEX
  8
NC_Symbol-B
 10
10.408400
 20
11.976290
 30
0.0
 42
-0.024800
  0
VERTEX
  8
NC_Symbol-B
 10
10.404230
 20
11.978970
 30
0.0
  0
VERTEX
  8
NC_Symbol-B
 10
10.389960
 20
11.989190
 30
0.0
 42
-0.024613
  0
VERTEX
  8
NC_Symbol-B
 10
10.386100
 20
11.992240
 30
0.0
  0
VERTEX
  8
NC_Symbol-B
 10
10.372790
 20
12.003900
 30
0.0
 42
-0.023776
  0
VERTEX
  8
NC_Symbol-B
 10
10.369370
 20
12.007200
 30
0.0
  0
VERTEX
  8
NC_Symbol-B
 10
10.357100
 20
12.020210
 30
0.0
 42
-0.024164
  0
VERTEX
  8
NC_Symbol-B
 10
10.353960
 20
12.023880
 30
0.0
  0
VERTEX
  8
NC_Symbol-B
 10
10.342890
 20
12.038150
 30
0.0
 42
-0.022692
  0
VERTEX
  8
NC_Symbol-B
 10
10.340280
 20
12.041860
 30
0.0
  0
VERTEX
  8
NC_Symbol-B
 10
10.330380
 20
12.057340
 30
0.0
 42
-0.022524
  0
VERTEX
  8
NC_Symbol-B
 10
10.328130
 20
12.061240
 30
0.0
  0
VERTEX
  8
NC_Symbol-B
 10
10.319630
 20
12.077620
 30
0.0
 42
-0.021732
  0
VERTEX
  8
NC_Symbol-B
 10
10.317800
 20
12.081560
 30
0.0
  0
VERTEX
  8
NC_Symbol-B
 10
10.310690
 20
12.098760
 30
0.0
 42
-0.021553
  0
VERTEX
  8
NC_Symbol-B
 10
10.309220
 20
12.102810
 30
0.0
  0
VERTEX
  8
NC_Symbol-B
 10
10.303640
 20
12.120500
 30
0.0
 42
-0.022218
  0
VERTEX
  8
NC_Symbol-B
 10
10.302490
 20
12.124790
 30
0.0
  0
VERTEX
  8
NC_Symbol-B
 10
10.298580
 20
12.142540
 30
0.0
 42
-0.021884
  0
VERTEX
  8
NC_Symbol-B
 10
10.297830
 20
12.146850
 30
0.0
  0
VERTEX
  8
NC_Symbol-B
 10
10.295330
 20
12.166100
 30
0.0
 42
-0.012122
  0
VERTEX
  8
NC_Symbol-B
 10
10.295070
 20
12.168510
 30
0.0
  0
VERTEX
  8
NC_Symbol-B
 10
10.281520
 20
12.335790
 30
0.0
 42
-0.001503
  0
VERTEX
  8
NC_Symbol-B
 10
10.281500
 20
12.336090
 30
0.0
  0
VERTEX
  8
NC_Symbol-B
 10
10.268860
 20
12.504550
 30
0.0
 42
-0.002006
  0
VERTEX
  8
NC_Symbol-B
 10
10.268830
 20
12.504950
 30
0.0
  0
VERTEX
  8
NC_Symbol-B
 10
10.257560
 20
12.673430
 30
0.0
 42
-0.002604
  0
VERTEX
  8
NC_Symbol-B
 10
10.257530
 20
12.673950
 30
0.0
  0
VERTEX
  8
NC_Symbol-B
 10
10.248030
 20
12.842440
 30
0.0
 42
-0.003204
  0
VERTEX
  8
NC_Symbol-B
 10
10.248000
 20
12.843080
 30
0.0
  0
VERTEX
  8
NC_Symbol-B
 10
10.240690
 20
13.011530
 30
0.0
 42
-0.003903
  0
VERTEX
  8
NC_Symbol-B
 10
10.240660
 20
13.012310
 30
0.0
  0
VERTEX
  8
NC_Symbol-B
 10
10.235970
 20
13.180700
 30
0.0
 42
-0.004500
  0
VERTEX
  8
NC_Symbol-B
 10
10.235960
 20
13.181600
 30
0.0
  0
VERTEX
  8
NC_Symbol-B
 10
10.234310
 20
13.349050
 30
0.0
 42
-0.004200
  0
VERTEX
  8
NC_Symbol-B
 10
10.234310
 20
13.349890
 30
0.0
  0
VERTEX
  8
NC_Symbol-B
 10
10.235480
 20
13.518360
 30
0.0
 42
-0.003500
  0
VERTEX
  8
NC_Symbol-B
 10
10.235490
 20
13.519060
 30
0.0
  0
SEQEND
  0
POLYLINE
  8
NC_Symbol-B
 66
   1
 10
0.0
 20
0.0
 30
0.0
 70
   1
  0
VERTEX
  8
NC_Symbol-B
 10
10.395110
 20
13.517880
 30
0.0
  0
VERTEX
  8
NC_Symbol-B
 10
10.395700
 20
13.349890
 30
0.0
  0
VERTEX
  8
NC_Symbol-B
 10
10.398420
 20
13.183570
 30
0.0
  0
VERTEX
  8
NC_Symbol-B
 10
10.402100
 20
13.017250
 30
0.0
  0
VERTEX
  8
NC_Symbol-B
 10
10.407510
 20
12.850980
 30
0.0
  0
VERTEX
  8
NC_Symbol-B
 10
10.415460
 20
12.684810
 30
0.0
  0
VERTEX
  8
NC_Symbol-B
 10
10.426280
 20
12.518800
 30
0.0
  0
VERTEX
  8
NC_Symbol-B
 10
10.439920
 20
12.352960
 30
0.0
  0
VERTEX
  8
NC_Symbol-B
 10
10.456300
 20
12.187430
 30
0.0
  0
VERTEX
  8
NC_Symbol-B
 10
10.459200
 20
12.167060
 30
0.0
  0
VERTEX
  8
NC_Symbol-B
 10
10.464510
 20
12.146990
 30
0.0
  0
VERTEX
  8
NC_Symbol-B
 10
10.473520
 20
12.129540
 30
0.0
  0
VERTEX
  8
NC_Symbol-B
 10
10.487470
 20
12.116790
 30
0.0
  0
VERTEX
  8
NC_Symbol-B
 10
10.505650
 20
12.108820
 30
0.0
  0
VERTEX
  8
NC_Symbol-B
 10
10.525950
 20
12.104070
 30
0.0
  0
VERTEX
  8
NC_Symbol-B
 10
10.546290
 20
12.101020
 30
0.0
  0
VERTEX
  8
NC_Symbol-B
 10
10.659200
 20
12.087250
 30
0.0
  0
VERTEX
  8
NC_Symbol-B
 10
10.772410
 20
12.076280
 30
0.0
  0
VERTEX
  8
NC_Symbol-B
 10
10.885820
 20
12.067110
 30
0.0
  0
VERTEX
  8
NC_Symbol-B
 10
10.999280
 20
12.058950
 30
0.0
  0
VERTEX
  8
NC_Symbol-B
 10
11.112770
 20
12.051590
 30
0.0
  0
VERTEX
  8
NC_Symbol-B
 10
11.226300
 20
12.044910
 30
0.0
  0
VERTEX
  8
NC_Symbol-B
 10
11.339870
 20
12.038860
 30
0.0
  0
VERTEX
  8
NC_Symbol-B
 10
11.453480
 20
12.033350
 30
0.0
  0
VERTEX
  8
NC_Symbol-B
 10
11.567120
 20
12.028420
 30
0.0
  0
VERTEX
  8
NC_Symbol-B
 10
11.680790
 20
12.024130
 30
0.0
  0
VERTEX
  8
NC_Symbol-B
 10
11.794500
 20
12.020530
 30
0.0
  0
VERTEX
  8
NC_Symbol-B
 10
11.908190
 20
12.017630
 30
0.0
  0
VERTEX
  8
NC_Symbol-B
 10
12.021930
 20
12.015500
 30
0.0
  0
VERTEX
  8
NC_Symbol-B
 10
12.135670
 20
12.014200
 30
0.0
  0
VERTEX
  8
NC_Symbol-B
 10
12.479260
 20
12.014730
 30
0.0
  0
VERTEX
  8
NC_Symbol-B
 10
12.594200
 20
12.016050
 30
0.0
  0
VERTEX
  8
NC_Symbol-B
 10
12.709110
 20
12.018040
 30
0.0
  0
VERTEX
  8
NC_Symbol-B
 10
12.824010
 20
12.020700
 30
0.0
  0
VERTEX
  8
NC_Symbol-B
 10
12.938920
 20
12.024180
 30
0.0
  0
VERTEX
  8
NC_Symbol-B
 10
13.053810
 20
12.028480
 30
0.0
  0
VERTEX
  8
NC_Symbol-B
 10
13.168690
 20
12.033710
 30
0.0
  0
VERTEX
  8
NC_Symbol-B
 10
13.283550
 20
12.039960
 30
0.0
  0
VERTEX
  8
NC_Symbol-B
 10
13.398330
 20
12.047370
 30
0.0
  0
VERTEX
  8
NC_Symbol-B
 10
13.513020
 20
12.056140
 30
0.0
  0
VERTEX
  8
NC_Symbol-B
 10
13.627540
 20
12.066370
 30
0.0
  0
VERTEX
  8
NC_Symbol-B
 10
13.741890
 20
12.078230
 30
0.0
  0
VERTEX
  8
NC_Symbol-B
 10
13.856020
 20
12.091870
 30
0.0
  0
VERTEX
  8
NC_Symbol-B
 10
13.969910
 20
12.107440
 30
0.0
  0
VERTEX
  8
NC_Symbol-B
 10
13.985000
 20
12.110800
 30
0.0
  0
VERTEX
  8
NC_Symbol-B
 10
13.999500
 20
12.116540
 30
0.0
  0
VERTEX
  8
NC_Symbol-B
 10
14.012710
 20
12.124740
 30
0.0
  0
VERTEX
  8
NC_Symbol-B
 10
14.023810
 20
12.135540
 30
0.0
  0
VERTEX
  8
NC_Symbol-B
 10
14.032340
 20
12.148620
 30
0.0
  0
VERTEX
  8
NC_Symbol-B
 10
14.038030
 20
12.163200
 30
0.0
  0
VERTEX
  8
NC_Symbol-B
 10
14.040700
 20
12.178390
 30
0.0
  0
VERTEX
  8
NC_Symbol-B
 10
14.052990
 20
12.345520
 30
0.0
  0
VERTEX
  8
NC_Symbol-B
 10
14.064700
 20
12.512700
 30
0.0
  0
VERTEX
  8
NC_Symbol-B
 10
14.075420
 20
12.679940
 30
0.0
  0
VERTEX
  8
NC_Symbol-B
 10
14.084850
 20
12.847300
 30
0.0
  0
VERTEX
  8
NC_Symbol-B
 10
14.092310
 20
13.014760
 30
0.0
  0
VERTEX
  8
NC_Symbol-B
 10
14.096990
 20
13.182320
 30
0.0
  0
VERTEX
  8
NC_Symbol-B
 10
14.098000
 20
13.349890
 30
0.0
  0
VERTEX
  8
NC_Symbol-B
 10
14.095440
 20
13.516840
 30
0.0
  0
VERTEX
  8
NC_Symbol-B
 10
14.090460
 20
13.683740
 30
0.0
  0
VERTEX
  8
NC_Symbol-B
 10
14.083270
 20
13.850600
 30
0.0
  0
VERTEX
  8
NC_Symbol-B
 10
14.074130
 20
14.017320
 30
0.0
  0
VERTEX
  8
NC_Symbol-B
 10
14.063260
 20
14.184000
 30
0.0
  0
VERTEX
  8
NC_Symbol-B
 10
14.050940
 20
14.350540
 30
0.0
  0
VERTEX
  8
NC_Symbol-B
 10
14.037400
 20
14.516990
 30
0.0
  0
VERTEX
  8
NC_Symbol-B
 10
14.034530
 20
14.533780
 30
0.0
  0
VERTEX
  8
NC_Symbol-B
 10
14.028610
 20
14.549910
 30
0.0
  0
VERTEX
  8
NC_Symbol-B
 10
14.019570
 20
14.564390
 30
0.0
  0
VERTEX
  8
NC_Symbol-B
 10
14.007450
 20
14.576400
 30
0.0
  0
VERTEX
  8
NC_Symbol-B
 10
13.992950
 20
14.585720
 30
0.0
  0
VERTEX
  8
NC_Symbol-B
 10
13.976950
 20
14.592380
 30
0.0
  0
VERTEX
  8
NC_Symbol-B
 10
13.960310
 20
14.596370
 30
0.0
  0
VERTEX
  8
NC_Symbol-B
 10
13.847080
 20
14.611810
 30
0.0
  0
VERTEX
  8
NC_Symbol-B
 10
13.733390
 20
14.623720
 30
0.0
  0
VERTEX
  8
NC_Symbol-B
 10
13.619520
 20
14.633630
 30
0.0
  0
VERTEX
  8
NC_Symbol-B
 10
13.505570
 20
14.642140
 30
0.0
  0
VERTEX
  8
NC_Symbol-B
 10
13.391530
 20
14.649550
 30
0.0
  0
VERTEX
  8
NC_Symbol-B
 10
13.277430
 20
14.656060
 30
0.0
  0
VERTEX
  8
NC_Symbol-B
 10
13.163260
 20
14.661800
 30
0.0
  0
VERTEX
  8
NC_Symbol-B
 10
13.049080
 20
14.666880
 30
0.0
  0
VERTEX
  8
NC_Symbol-B
 10
12.934890
 20
14.671400
 30
0.0
  0
VERTEX
  8
NC_Symbol-B
 10
12.820690
 20
14.675440
 30
0.0
  0
VERTEX
  8
NC_Symbol-B
 10
12.706460
 20
14.679020
 30
0.0
  0
VERTEX
  8
NC_Symbol-B
 10
12.592210
 20
14.682140
 30
0.0
  0
VERTEX
  8
NC_Symbol-B
 10
12.477940
 20
14.684780
 30
0.0
  0
VERTEX
  8
NC_Symbol-B
 10
12.363690
 20
14.686640
 30
0.0
  0
VERTEX
  8
NC_Symbol-B
 10
12.134480
 20
14.686640
 30
0.0
  0
VERTEX
  8
NC_Symbol-B
 10
12.019570
 20
14.684780
 30
0.0
  0
VERTEX
  8
NC_Symbol-B
 10
11.904660
 20
14.682320
 30
0.0
  0
VERTEX
  8
NC_Symbol-B
 10
11.789750
 20
14.679400
 30
0.0
  0
VERTEX
  8
NC_Symbol-B
 10
11.674870
 20
14.676020
 30
0.0
  0
VERTEX
  8
NC_Symbol-B
 10
11.560010
 20
14.672110
 30
0.0
  0
VERTEX
  8
NC_Symbol-B
 10
11.445200
 20
14.667640
 30
0.0
  0
VERTEX
  8
NC_Symbol-B
 10
11.330390
 20
14.662530
 30
0.0
  0
VERTEX
  8
NC_Symbol-B
 10
11.215610
 20
14.656740
 30
0.0
  0
VERTEX
  8
NC_Symbol-B
 10
11.100850
 20
14.650190
 30
0.0
  0
VERTEX
  8
NC_Symbol-B
 10
10.986150
 20
14.642800
 30
0.0
  0
VERTEX
  8
NC_Symbol-B
 10
10.871470
 20
14.634470
 30
0.0
  0
VERTEX
  8
NC_Symbol-B
 10
10.756940
 20
14.624640
 30
0.0
  0
VERTEX
  8
NC_Symbol-B
 10
10.642610
 20
14.612800
 30
0.0
  0
VERTEX
  8
NC_Symbol-B
 10
10.528590
 20
14.598320
 30
0.0
  0
VERTEX
  8
NC_Symbol-B
 10
10.511930
 20
14.594940
 30
0.0
  0
VERTEX
  8
NC_Symbol-B
 10
10.495670
 20
14.589360
 30
0.0
  0
VERTEX
  8
NC_Symbol-B
 10
10.480660
 20
14.581230
 30
0.0
  0
VERTEX
  8
NC_Symbol-B
 10
10.467730
 20
14.570330
 30
0.0
  0
VERTEX
  8
NC_Symbol-B
 10
10.457670
 20
14.556590
 30
0.0
  0
VERTEX
  8
NC_Symbol-B
 10
10.450870
 20
14.540870
 30
0.0
  0
VERTEX
  8
NC_Symbol-B
 10
10.447590
 20
14.524280
 30
0.0
  0
VERTEX
  8
NC_Symbol-B
 10
10.434130
 20
14.356820
 30
0.0
  0
VERTEX
  8
NC_Symbol-B
 10
10.422190
 20
14.189280
 30
0.0
  0
VERTEX
  8
NC_Symbol-B
 10
10.412000
 20
14.021590
 30
0.0
  0
VERTEX
  8
NC_Symbol-B
 10
10.403830
 20
13.853770
 30
0.0
  0
VERTEX
  8
NC_Symbol-B
 10
10.398010
 20
13.685850
 30
0.0
  0
SEQEND
  0
POLYLINE
  8
NC_Symbol-B
 66
   1
 10
0.0
 20
0.0
 30
0.0
 70
   1
  0
VERTEX
  8
NC_Symbol-B
 10
9.450030
 20
20.990690
 30
0.0
 42
-0.389931
  0
VERTEX
  8
NC_Symbol-B
 10
9.495860
 20
21.040510
 30
0.0
  0
VERTEX
  8
NC_Symbol-B
 10
9.495860
 20
21.040510
 30
0.0
 42
-1.087114
  0
VERTEX
  8
NC_Symbol-B
 10
9.495840
 20
15.559720
 30
0.0
  0
VERTEX
  8
NC_Symbol-B
 10
9.495840
 20
15.559720
 30
0.0
 42
-0.389931
  0
VERTEX
  8
NC_Symbol-B
 10
9.450010
 20
15.609540
 30
0.0
  0
VERTEX
  8
NC_Symbol-B
 10
9.450010
 20
16.337990
 30
0.0
 42
-0.448062
  0
VERTEX
  8
NC_Symbol-B
 10
9.505710
 20
16.387660
 30
0.0
  0
VERTEX
  8
NC_Symbol-B
 10
9.505710
 20
16.387660
 30
0.0
 42
0.384705
  0
VERTEX
  8
NC_Symbol-B
 10
11.605280
 20
17.887610
 30
0.0
  0
VERTEX
  8
NC_Symbol-B
 10
10.050000
 20
17.887620
 30
0.0
 42
-0.414214
  0
VERTEX
  8
NC_Symbol-B
 10
10.000000
 20
17.937620
 30
0.0
  0
VERTEX
  8
NC_Symbol-B
 10
10.000000
 20
18.662590
 30
0.0
 42
-0.414214
  0
VERTEX
  8
NC_Symbol-B
 10
10.050000
 20
18.712590
 30
0.0
  0
VERTEX
  8
NC_Symbol-B
 10
11.605290
 20
18.712590
 30
0.0
 42
0.384723
  0
VERTEX
  8
NC_Symbol-B
 10
9.505620
 20
20.212550
 30
0.0
  0
VERTEX
  8
NC_Symbol-B
 10
9.505620
 20
20.212550
 30
0.0
 42
-0.448122
  0
VERTEX
  8
NC_Symbol-B
 10
9.449920
 20
20.262230
 30
0.0
  0
SEQEND
  0
POLYLINE
  8
NC_Symbol-B
 66
   1
 10
0.0
 20
0.0
 30
0.0
 70
   1
  0
VERTEX
  8
NC_Symbol-B
 10
14.124950
 20
20.990680
 30
0.0
 42
-0.389931
  0
VERTEX
  8
NC_Symbol-B
 10
14.170780
 20
21.040500
 30
0.0
  0
VERTEX
  8
NC_Symbol-B
 10
14.170780
 20
21.040500
 30
0.0
 42
-1.087138
  0
VERTEX
  8
NC_Symbol-B
 10
14.170780
 20
15.559720
 30
0.0
  0
VERTEX
  8
NC_Symbol-B
 10
14.170780
 20
15.559720
 30
0.0
 42
-0.389931
  0
VERTEX
  8
NC_Symbol-B
 10
14.124950
 20
15.609540
 30
0.0
  0
VERTEX
  8
NC_Symbol-B
 10
14.124950
 20
16.337990
 30
0.0
 42
-0.448122
  0
VERTEX
  8
NC_Symbol-B
 10
14.180650
 20
16.387670
 30
0.0
  0
VERTEX
  8
NC_Symbol-B
 10
14.180650
 20
16.387670
 30
0.0
 42
1.121262
  0
VERTEX
  8
NC_Symbol-B
 10
14.180650
 20
20.212550
 30
0.0
  0
VERTEX
  8
NC_Symbol-B
 10
14.180650
 20
20.212550
 30
0.0
 42
-0.448122
  0
VERTEX
  8
NC_Symbol-B
 10
14.124950
 20
20.262230
 30
0.0
  0
SEQEND
  0
POLYLINE
  8
NC_Symbol-B
 66
   1
 10
0.0
 20
0.0
 30
0.0
 70
   1
  0
VERTEX
  8
NC_Symbol-B
 10
12.359000
 20
27.535500
 30
0.0
 42
-0.134122
  0
VERTEX
  8
NC_Symbol-B
 10
12.362470
 20
27.548210
 30
0.0
  0
VERTEX
  8
NC_Symbol-B
 10
14.426070
 20
31.043710
 30
0.0
 42
-0.265366
  0
VERTEX
  8
NC_Symbol-B
 10
14.447600
 20
31.056000
 30
0.0
  0
VERTEX
  8
NC_Symbol-B
 10
14.461400
 20
31.056000
 30
0.0
 42
-0.265366
  0
VERTEX
  8
NC_Symbol-B
 10
14.482930
 20
31.043710
 30
0.0
  0
VERTEX
  8
NC_Symbol-B
 10
16.546530
 20
27.548210
 30
0.0
 42
-0.134122
  0
VERTEX
  8
NC_Symbol-B
 10
16.550000
 20
27.535500
 30
0.0
  0
VERTEX
  8
NC_Symbol-B
 10
16.550000
 20
27.525000
 30
0.0
 42
-0.414214
  0
VERTEX
  8
NC_Symbol-B
 10
16.525000
 20
27.500000
 30
0.0
  0
VERTEX
  8
NC_Symbol-B
 10
12.384000
 20
27.500000
 30
0.0
 42
-0.414214
  0
VERTEX
  8
NC_Symbol-B
 10
12.359000
 20
27.525000
 30
0.0
  0
SEQEND
  0
POLYLINE
  8
NC_Symbol-B
 66
   1
 10
0.0
 20
0.0
 30
0.0
 70
   1
  0
VERTEX
  8
NC_Symbol-B
 10
16.306990
 20
27.628000
 30
0.0
 42
0.580624
  0
VERTEX
  8
NC_Symbol-B
 10
16.328520
 20
27.665710
 30
0.0
  0
VERTEX
  8
NC_Symbol-B
 10
14.476030
 20
30.803610
 30
0.0
 42
0.570987
  0
VERTEX
  8
NC_Symbol-B
 10
14.432970
 20
30.803610
 30
0.0
  0
VERTEX
  8
NC_Symbol-B
 10
12.580480
 20
27.665710
 30
0.0
 42
0.580624
  0
VERTEX
  8
NC_Symbol-B
 10
12.602010
 20
27.628000
 30
0.0
  0
SEQEND
  0
POLYLINE
  8
NC_Symbol-B
 66
   1
 10
0.0
 20
0.0
 30
0.0
 70
   1
  0
VERTEX
  8
NC_Symbol-B
 10
15.231080
 20
28.159720
 30
0.0
 42
-0.081621
  0
VERTEX
  8
NC_Symbol-B
 10
15.232570
 20
28.167690
 30
0.0
  0
VERTEX
  8
NC_Symbol-B
 10
15.375980
 20
28.564180
 30
0.0
 42
-0.717746
  0
VERTEX
  8
NC_Symbol-B
 10
15.423340
 20
28.563160
 30
0.0
  0
VERTEX
  8
NC_Symbol-B
 10
15.561170
 20
28.123830
 30
0.0
  0
VERTEX
  8
NC_Symbol-B
 10
15.677670
 20
28.423410
 30
0.0
 42
-0.686100
  0
VERTEX
  8
NC_Symbol-B
 10
15.724320
 20
28.423270
 30
0.0
  0
VERTEX
  8
NC_Symbol-B
 10
15.829520
 20
28.148140
 30
0.0
 42
-0.091573
  0
VERTEX
  8
NC_Symbol-B
 10
15.831170
 20
28.139210
 30
0.0
  0
VERTEX
  8
NC_Symbol-B
 10
15.831170
 20
27.880400
 30
0.0
 42
-0.844277
  0
VERTEX
  8
NC_Symbol-B
 10
15.782580
 20
27.872110
 30
0.0
  0
VERTEX
  8
NC_Symbol-B
 10
15.701170
 20
28.103830
 30
0.0
  0
VERTEX
  8
NC_Symbol-B
 10
15.577210
 20
27.773280
 30
0.0
 42
-0.718016
  0
VERTEX
  8
NC_Symbol-B
 10
15.529860
 20
27.774870
 30
0.0
  0
VERTEX
  8
NC_Symbol-B
 10
15.401170
 20
28.203830
 30
0.0
  0
VERTEX
  8
NC_Symbol-B
 10
15.273060
 20
27.840840
 30
0.0
 42
-0.852465
  0
VERTEX
  8
NC_Symbol-B
 10
15.224490
 20
27.849690
 30
0.0
  0
SEQEND
  0
POLYLINE
  8
NC_Symbol-B
 66
   1
 10
0.0
 20
0.0
 30
0.0
 70
   1
  0
VERTEX
  8
NC_Symbol-B
 10
15.011250
 20
28.010580
 30
0.0
 42
-0.409798
  0
VERTEX
  8
NC_Symbol-B
 10
14.980960
 20
27.992870
 30
0.0
  0
VERTEX
  8
NC_Symbol-B
 10
14.980960
 20
27.992870
 30
0.0
 42
-0.025098
  0
VERTEX
  8
NC_Symbol-B
 10
13.988310
 20
28.298700
 30
0.0
  0
VERTEX
  8
NC_Symbol-B
 10
13.988310
 20
28.298700
 30
0.0
 42
0.227881
  0
VERTEX
  8
NC_Symbol-B
 10
13.677890
 20
28.267850
 30
0.0
  0
VERTEX
  8
NC_Symbol-B
 10
13.460630
 20
28.135480
 30
0.0
 42
-0.438938
  0
VERTEX
  8
NC_Symbol-B
 10
13.425260
 20
28.145650
 30
0.0
  0
VERTEX
  8
NC_Symbol-B
 10
13.399050
 20
28.198060
 30
0.0
 42
-0.317139
  0
VERTEX
  8
NC_Symbol-B
 10
13.403370
 20
28.226550
 30
0.0
  0
VERTEX
  8
NC_Symbol-B
 10
13.456360
 20
28.281790
 30
0.0
 42
-0.064786
  0
VERTEX
  8
NC_Symbol-B
 10
13.461390
 20
28.285830
 30
0.0
  0
VERTEX
  8
NC_Symbol-B
 10
13.565440
 20
28.349230
 30
0.0
 42
-0.226584
  0
VERTEX
  8
NC_Symbol-B
 10
14.080020
 20
28.401680
 30
0.0
  0
VERTEX
  8
NC_Symbol-B
 10
14.080020
 20
28.401680
 30
0.0
 42
0.021370
  0
VERTEX
  8
NC_Symbol-B
 10
14.914250
 20
28.142390
 30
0.0
  0
VERTEX
  8
NC_Symbol-B
 10
14.921490
 20
28.169230
 30
0.0
 42
0.287505
  0
VERTEX
  8
NC_Symbol-B
 10
14.872970
 20
28.300780
 30
0.0
  0
VERTEX
  8
NC_Symbol-B
 10
14.872970
 20
28.300780
 30
0.0
 42
0.075950
  0
VERTEX
  8
NC_Symbol-B
 10
14.630560
 20
28.428320
 30
0.0
  0
VERTEX
  8
NC_Symbol-B
 10
14.630560
 20
28.428320
 30
0.0
 42
-0.073296
  0
VERTEX
  8
NC_Symbol-B
 10
14.624090
 20
28.431680
 30
0.0
  0
VERTEX
  8
NC_Symbol-B
 10
14.624090
 20
28.431680
 30
0.0
 42
-0.242369
  0
VERTEX
  8
NC_Symbol-B
 10
14.541170
 20
28.594970
 30
0.0
  0
VERTEX
  8
NC_Symbol-B
 10
14.541170
 20
28.594970
 30
0.0
 42
-0.199047
  0
VERTEX
  8
NC_Symbol-B
 10
14.671970
 20
28.905520
 30
0.0
  0
VERTEX
  8
NC_Symbol-B
 10
14.671970
 20
28.905520
 30
0.0
 42
-0.199185
  0
VERTEX
  8
NC_Symbol-B
 10
14.785210
 20
28.952540
 30
0.0
  0
VERTEX
  8
NC_Symbol-B
 10
14.785210
 20
28.952540
 30
0.0
 42
-0.018520
  0
VERTEX
  8
NC_Symbol-B
 10
14.787060
 20
28.952470
 30
0.0
  0
VERTEX
  8
NC_Symbol-B
 10
14.787060
 20
28.952470
 30
0.0
 42
-0.194137
  0
VERTEX
  8
NC_Symbol-B
 10
14.946990
 20
28.873780
 30
0.0
  0
VERTEX
  8
NC_Symbol-B
 10
15.119150
 20
28.681410
 30
0.0
 42
0.484576
  0
VERTEX
  8
NC_Symbol-B
 10
15.200620
 20
28.686440
 30
0.0
  0
VERTEX
  8
NC_Symbol-B
 10
15.214690
 20
28.706710
 30
0.0
 42
0.347227
  0
VERTEX
  8
NC_Symbol-B
 10
15.210720
 20
28.771040
 30
0.0
  0
VERTEX
  8
NC_Symbol-B
 10
14.865820
 20
29.156430
 30
0.0
 42
0.365684
  0
VERTEX
  8
NC_Symbol-B
 10
14.804480
 20
29.165050
 30
0.0
  0
VERTEX
  8
NC_Symbol-B
 10
14.411360
 20
28.917640
 30
0.0
 42
-0.467760
  0
VERTEX
  8
NC_Symbol-B
 10
14.374850
 20
28.929470
 30
0.0
  0
VERTEX
  8
NC_Symbol-B
 10
14.345260
 20
29.003010
 30
0.0
 42
-0.362617
  0
VERTEX
  8
NC_Symbol-B
 10
14.355130
 20
29.033500
 30
0.0
  0
VERTEX
  8
NC_Symbol-B
 10
14.670360
 20
29.231880
 30
0.0
  0
VERTEX
  8
NC_Symbol-B
 10
14.666190
 20
29.236060
 30
0.0
 42
-0.010753
  0
VERTEX
  8
NC_Symbol-B
 10
14.665450
 20
29.236840
 30
0.0
  0
VERTEX
  8
NC_Symbol-B
 10
14.665450
 20
29.236840
 30
0.0
 42
0.362499
  0
VERTEX
  8
NC_Symbol-B
 10
14.604510
 20
29.245050
 30
0.0
  0
VERTEX
  8
NC_Symbol-B
 10
14.293740
 20
29.049490
 30
0.0
 42
-0.467579
  0
VERTEX
  8
NC_Symbol-B
 10
14.257240
 20
29.061320
 30
0.0
  0
VERTEX
  8
NC_Symbol-B
 10
14.227640
 20
29.134860
 30
0.0
 42
-0.362617
  0
VERTEX
  8
NC_Symbol-B
 10
14.237510
 20
29.165350
 30
0.0
  0
VERTEX
  8
NC_Symbol-B
 10
14.470360
 20
29.311880
 30
0.0
  0
VERTEX
  8
NC_Symbol-B
 10
14.466190
 20
29.316060
 30
0.0
 42
-0.010753
  0
VERTEX
  8
NC_Symbol-B
 10
14.465450
 20
29.316840
 30
0.0
  0
VERTEX
  8
NC_Symbol-B
 10
14.465450
 20
29.316840
 30
0.0
 42
0.362499
  0
VERTEX
  8
NC_Symbol-B
 10
14.404510
 20
29.325050
 30
0.0
  0
VERTEX
  8
NC_Symbol-B
 10
14.118980
 20
29.145370
 30
0.0
 42
-0.467760
  0
VERTEX
  8
NC_Symbol-B
 10
14.082470
 20
29.157200
 30
0.0
  0
VERTEX
  8
NC_Symbol-B
 10
14.052880
 20
29.230740
 30
0.0
 42
-0.362617
  0
VERTEX
  8
NC_Symbol-B
 10
14.062750
 20
29.261230
 30
0.0
  0
VERTEX
  8
NC_Symbol-B
 10
14.270360
 20
29.391880
 30
0.0
  0
VERTEX
  8
NC_Symbol-B
 10
14.266190
 20
29.396060
 30
0.0
 42
-0.010753
  0
VERTEX
  8
NC_Symbol-B
 10
14.265450
 20
29.396840
 30
0.0
  0
VERTEX
  8
NC_Symbol-B
 10
14.265450
 20
29.396840
 30
0.0
 42
0.362575
  0
VERTEX
  8
NC_Symbol-B
 10
14.204500
 20
29.405050
 30
0.0
  0
VERTEX
  8
NC_Symbol-B
 10
13.670350
 20
29.068910
 30
0.0
 42
-0.467760
  0
VERTEX
  8
NC_Symbol-B
 10
13.633840
 20
29.080740
 30
0.0
  0
VERTEX
  8
NC_Symbol-B
 10
13.604250
 20
29.154280
 30
0.0
 42
-0.362617
  0
VERTEX
  8
NC_Symbol-B
 10
13.614120
 20
29.184770
 30
0.0
  0
VERTEX
  8
NC_Symbol-B
 10
14.157820
 20
29.526910
 30
0.0
 42
-0.035610
  0
VERTEX
  8
NC_Symbol-B
 10
14.160960
 20
29.528580
 30
0.0
  0
VERTEX
  8
NC_Symbol-B
 10
14.160960
 20
29.528580
 30
0.0
 42
-0.519278
  0
VERTEX
  8
NC_Symbol-B
 10
14.351950
 20
29.414450
 30
0.0
  0
VERTEX
  8
NC_Symbol-B
 10
14.351950
 20
29.414450
 30
0.0
 42
-0.579633
  0
VERTEX
  8
NC_Symbol-B
 10
14.582410
 20
29.363510
 30
0.0
  0
VERTEX
  8
NC_Symbol-B
 10
14.582410
 20
29.363510
 30
0.0
 42
-0.454051
  0
VERTEX
  8
NC_Symbol-B
 10
14.774030
 20
29.291270
 30
0.0
  0
VERTEX
  8
NC_Symbol-B
 10
14.774030
 20
29.291270
 30
0.0
 42
-0.299700
  0
VERTEX
  8
NC_Symbol-B
 10
14.961200
 20
29.241790
 30
0.0
  0
VERTEX
  8
NC_Symbol-B
 10
15.306100
 20
28.856400
 30
0.0
 42
-0.347187
  0
VERTEX
  8
NC_Symbol-B
 10
15.319850
 20
28.633740
 30
0.0
  0
VERTEX
  8
NC_Symbol-B
 10
15.305780
 20
28.613470
 30
0.0
 42
-0.467564
  0
VERTEX
  8
NC_Symbol-B
 10
15.030630
 20
28.588810
 30
0.0
  0
VERTEX
  8
NC_Symbol-B
 10
14.820030
 20
28.799400
 30
0.0
 42
0.481625
  0
VERTEX
  8
NC_Symbol-B
 10
14.726780
 20
28.788880
 30
0.0
  0
VERTEX
  8
NC_Symbol-B
 10
14.726780
 20
28.788880
 30
0.0
 42
0.129482
  0
VERTEX
  8
NC_Symbol-B
 10
14.653800
 20
28.555520
 30
0.0
  0
VERTEX
  8
NC_Symbol-B
 10
14.653800
 20
28.555520
 30
0.0
 42
-0.080999
  0
VERTEX
  8
NC_Symbol-B
 10
14.949950
 20
28.403050
 30
0.0
  0
VERTEX
  8
NC_Symbol-B
 10
14.949950
 20
28.403050
 30
0.0
 42
-0.004000
  0
VERTEX
  8
NC_Symbol-B
 10
14.950270
 20
28.402810
 30
0.0
  0
VERTEX
  8
NC_Symbol-B
 10
14.950270
 20
28.402810
 30
0.0
 42
-0.292551
  0
VERTEX
  8
NC_Symbol-B
 10
15.046000
 20
28.139400
 30
0.0
  0
VERTEX
  8
NC_Symbol-B
 10
15.046000
 20
28.139400
 30
0.0
 42
-0.010818
  0
VERTEX
  8
NC_Symbol-B
 10
15.045740
 20
28.138350
 30
0.0
  0
SEQEND
  0
POLYLINE
  8
NC_Symbol-B
 66
   1
 10
0.0
 20
0.0
 30
0.0
 70
   1
  0
VERTEX
  8
NC_Symbol-B
 10
3.909000
 20
27.535500
 30
0.0
 42
-0.134122
  0
VERTEX
  8
NC_Symbol-B
 10
3.912470
 20
27.548210
 30
0.0
  0
VERTEX
  8
NC_Symbol-B
 10
5.976070
 20
31.043710
 30
0.0
 42
-0.265366
  0
VERTEX
  8
NC_Symbol-B
 10
5.997600
 20
31.056000
 30
0.0
  0
VERTEX
  8
NC_Symbol-B
 10
6.011400
 20
31.056000
 30
0.0
 42
-0.265366
  0
VERTEX
  8
NC_Symbol-B
 10
6.032930
 20
31.043710
 30
0.0
  0
VERTEX
  8
NC_Symbol-B
 10
8.096530
 20
27.548210
 30
0.0
 42
-0.134122
  0
VERTEX
  8
NC_Symbol-B
 10
8.100000
 20
27.535500
 30
0.0
  0
VERTEX
  8
NC_Symbol-B
 10
8.100000
 20
27.525000
 30
0.0
 42
-0.414214
  0
VERTEX
  8
NC_Symbol-B
 10
8.075000
 20
27.500000
 30
0.0
  0
VERTEX
  8
NC_Symbol-B
 10
3.934000
 20
27.500000
 30
0.0
 42
-0.414214
  0
VERTEX
  8
NC_Symbol-B
 10
3.909000
 20
27.525000
 30
0.0
  0
SEQEND
  0
POLYLINE
  8
NC_Symbol-B
 66
   1
 10
0.0
 20
0.0
 30
0.0
 70
   1
  0
VERTEX
  8
NC_Symbol-B
 10
7.856990
 20
27.628000
 30
0.0
 42
0.580624
  0
VERTEX
  8
NC_Symbol-B
 10
7.878520
 20
27.665710
 30
0.0
  0
VERTEX
  8
NC_Symbol-B
 10
6.026030
 20
30.803610
 30
0.0
 42
0.570987
  0
VERTEX
  8
NC_Symbol-B
 10
5.982970
 20
30.803610
 30
0.0
  0
VERTEX
  8
NC_Symbol-B
 10
4.130480
 20
27.665710
 30
0.0
 42
0.580624
  0
VERTEX
  8
NC_Symbol-B
 10
4.152010
 20
27.628000
 30
0.0
  0
SEQEND
  0
POLYLINE
  8
NC_Symbol-B
 66
   1
 10
0.0
 20
0.0
 30
0.0
 70
   1
  0
VERTEX
  8
NC_Symbol-B
 10
6.781080
 20
28.159720
 30
0.0
 42
-0.081621
  0
VERTEX
  8
NC_Symbol-B
 10
6.782570
 20
28.167690
 30
0.0
  0
VERTEX
  8
NC_Symbol-B
 10
6.925980
 20
28.564180
 30
0.0
 42
-0.717746
  0
VERTEX
  8
NC_Symbol-B
 10
6.973340
 20
28.563160
 30
0.0
  0
VERTEX
  8
NC_Symbol-B
 10
7.111170
 20
28.123830
 30
0.0
  0
VERTEX
  8
NC_Symbol-B
 10
7.227670
 20
28.423410
 30
0.0
 42
-0.686100
  0
VERTEX
  8
NC_Symbol-B
 10
7.274320
 20
28.423270
 30
0.0
  0
VERTEX
  8
NC_Symbol-B
 10
7.379520
 20
28.148140
 30
0.0
 42
-0.091573
  0
VERTEX
  8
NC_Symbol-B
 10
7.381170
 20
28.139210
 30
0.0
  0
VERTEX
  8
NC_Symbol-B
 10
7.381170
 20
27.880400
 30
0.0
 42
-0.844277
  0
VERTEX
  8
NC_Symbol-B
 10
7.332580
 20
27.872110
 30
0.0
  0
VERTEX
  8
NC_Symbol-B
 10
7.251170
 20
28.103830
 30
0.0
  0
VERTEX
  8
NC_Symbol-B
 10
7.127210
 20
27.773280
 30
0.0
 42
-0.718016
  0
VERTEX
  8
NC_Symbol-B
 10
7.079860
 20
27.774870
 30
0.0
  0
VERTEX
  8
NC_Symbol-B
 10
6.951170
 20
28.203830
 30
0.0
  0
VERTEX
  8
NC_Symbol-B
 10
6.823060
 20
27.840840
 30
0.0
 42
-0.852465
  0
VERTEX
  8
NC_Symbol-B
 10
6.774490
 20
27.849690
 30
0.0
  0
SEQEND
  0
POLYLINE
  8
NC_Symbol-B
 66
   1
 10
0.0
 20
0.0
 30
0.0
 70
   1
  0
VERTEX
  8
NC_Symbol-B
 10
6.561250
 20
28.010580
 30
0.0
 42
-0.409798
  0
VERTEX
  8
NC_Symbol-B
 10
6.530960
 20
27.992870
 30
0.0
  0
VERTEX
  8
NC_Symbol-B
 10
6.530960
 20
27.992870
 30
0.0
 42
-0.025098
  0
VERTEX
  8
NC_Symbol-B
 10
5.538310
 20
28.298700
 30
0.0
  0
VERTEX
  8
NC_Symbol-B
 10
5.538310
 20
28.298700
 30
0.0
 42
0.227881
  0
VERTEX
  8
NC_Symbol-B
 10
5.227890
 20
28.267850
 30
0.0
  0
VERTEX
  8
NC_Symbol-B
 10
5.010630
 20
28.135480
 30
0.0
 42
-0.438938
  0
VERTEX
  8
NC_Symbol-B
 10
4.975260
 20
28.145650
 30
0.0
  0
VERTEX
  8
NC_Symbol-B
 10
4.949050
 20
28.198060
 30
0.0
 42
-0.317139
  0
VERTEX
  8
NC_Symbol-B
 10
4.953370
 20
28.226550
 30
0.0
  0
VERTEX
  8
NC_Symbol-B
 10
5.006360
 20
28.281790
 30
0.0
 42
-0.064786
  0
VERTEX
  8
NC_Symbol-B
 10
5.011390
 20
28.285830
 30
0.0
  0
VERTEX
  8
NC_Symbol-B
 10
5.115440
 20
28.349230
 30
0.0
 42
-0.226584
  0
VERTEX
  8
NC_Symbol-B
 10
5.630020
 20
28.401680
 30
0.0
  0
VERTEX
  8
NC_Symbol-B
 10
5.630020
 20
28.401680
 30
0.0
 42
0.021370
  0
VERTEX
  8
NC_Symbol-B
 10
6.464250
 20
28.142390
 30
0.0
  0
VERTEX
  8
NC_Symbol-B
 10
6.471490
 20
28.169230
 30
0.0
 42
0.287505
  0
VERTEX
  8
NC_Symbol-B
 10
6.422970
 20
28.300780
 30
0.0
  0
VERTEX
  8
NC_Symbol-B
 10
6.422970
 20
28.300780
 30
0.0
 42
0.075950
  0
VERTEX
  8
NC_Symbol-B
 10
6.180560
 20
28.428320
 30
0.0
  0
VERTEX
  8
NC_Symbol-B
 10
6.180560
 20
28.428320
 30
0.0
 42
-0.073296
  0
VERTEX
  8
NC_Symbol-B
 10
6.174090
 20
28.431680
 30
0.0
  0
VERTEX
  8
NC_Symbol-B
 10
6.174090
 20
28.431680
 30
0.0
 42
-0.242369
  0
VERTEX
  8
NC_Symbol-B
 10
6.091170
 20
28.594970
 30
0.0
  0
VERTEX
  8
NC_Symbol-B
 10
6.091170
 20
28.594970
 30
0.0
 42
-0.199047
  0
VERTEX
  8
NC_Symbol-B
 10
6.221970
 20
28.905520
 30
0.0
  0
VERTEX
  8
NC_Symbol-B
 10
6.221970
 20
28.905520
 30
0.0
 42
-0.199185
  0
VERTEX
  8
NC_Symbol-B
 10
6.335210
 20
28.952540
 30
0.0
  0
VERTEX
  8
NC_Symbol-B
 10
6.335210
 20
28.952540
 30
0.0
 42
-0.018520
  0
VERTEX
  8
NC_Symbol-B
 10
6.337060
 20
28.952470
 30
0.0
  0
VERTEX
  8
NC_Symbol-B
 10
6.337060
 20
28.952470
 30
0.0
 42
-0.194137
  0
VERTEX
  8
NC_Symbol-B
 10
6.496990
 20
28.873780
 30
0.0
  0
VERTEX
  8
NC_Symbol-B
 10
6.669150
 20
28.681410
 30
0.0
 42
0.484576
  0
VERTEX
  8
NC_Symbol-B
 10
6.750620
 20
28.686440
 30
0.0
  0
VERTEX
  8
NC_Symbol-B
 10
6.764690
 20
28.706710
 30
0.0
 42
0.347227
  0
VERTEX
  8
NC_Symbol-B
 10
6.760720
 20
28.771040
 30
0.0
  0
VERTEX
  8
NC_Symbol-B
 10
6.415820
 20
29.156430
 30
0.0
 42
0.365684
  0
VERTEX
  8
NC_Symbol-B
 10
6.354480
 20
29.165050
 30
0.0
  0
VERTEX
  8
NC_Symbol-B
 10
5.961360
 20
28.917640
 30
0.0
 42
-0.467760
  0
VERTEX
  8
NC_Symbol-B
 10
5.924850
 20
28.929470
 30
0.0
  0
VERTEX
  8
NC_Symbol-B
 10
5.895260
 20
29.003010
 30
0.0
 42
-0.362617
  0
VERTEX
  8
NC_Symbol-B
 10
5.905130
 20
29.033500
 30
0.0
  0
VERTEX
  8
NC_Symbol-B
 10
6.220360
 20
29.231880
 30
0.0
  0
VERTEX
  8
NC_Symbol-B
 10
6.216190
 20
29.236060
 30
0.0
 42
-0.010753
  0
VERTEX
  8
NC_Symbol-B
 10
6.215450
 20
29.236840
 30
0.0
  0
VERTEX
  8
NC_Symbol-B
 10
6.215450
 20
29.236840
 30
0.0
 42
0.362499
  0
VERTEX
  8
NC_Symbol-B
 10
6.154510
 20
29.245050
 30
0.0
  0
VERTEX
  8
NC_Symbol-B
 10
5.843740
 20
29.049490
 30
0.0
 42
-0.467579
  0
VERTEX
  8
NC_Symbol-B
 10
5.807240
 20
29.061320
 30
0.0
  0
VERTEX
  8
NC_Symbol-B
 10
5.777640
 20
29.134860
 30
0.0
 42
-0.362617
  0
VERTEX
  8
NC_Symbol-B
 10
5.787510
 20
29.165350
 30
0.0
  0
VERTEX
  8
NC_Symbol-B
 10
6.020360
 20
29.311880
 30
0.0
  0
VERTEX
  8
NC_Symbol-B
 10
6.016190
 20
29.316060
 30
0.0
 42
-0.010753
  0
VERTEX
  8
NC_Symbol-B
 10
6.015450
 20
29.316840
 30
0.0
  0
VERTEX
  8
NC_Symbol-B
 10
6.015450
 20
29.316840
 30
0.0
 42
0.362499
  0
VERTEX
  8
NC_Symbol-B
 10
5.954510
 20
29.325050
 30
0.0
  0
VERTEX
  8
NC_Symbol-B
 10
5.668980
 20
29.145370
 30
0.0
 42
-0.467760
  0
VERTEX
  8
NC_Symbol-B
 10
5.632470
 20
29.157200
 30
0.0
  0
VERTEX
  8
NC_Symbol-B
 10
5.602880
 20
29.230740
 30
0.0
 42
-0.362617
  0
VERTEX
  8
NC_Symbol-B
 10
5.612750
 20
29.261230
 30
0.0
  0
VERTEX
  8
NC_Symbol-B
 10
5.820360
 20
29.391880
 30
0.0
  0
VERTEX
  8
NC_Symbol-B
 10
5.816190
 20
29.396060
 30
0.0
 42
-0.010753
  0
VERTEX
  8
NC_Symbol-B
 10
5.815450
 20
29.396840
 30
0.0
  0
VERTEX
  8
NC_Symbol-B
 10
5.815450
 20
29.396840
 30
0.0
 42
0.362575
  0
VERTEX
  8
NC_Symbol-B
 10
5.754500
 20
29.405050
 30
0.0
  0
VERTEX
  8
NC_Symbol-B
 10
5.220350
 20
29.068910
 30
0.0
 42
-0.467760
  0
VERTEX
  8
NC_Symbol-B
 10
5.183840
 20
29.080740
 30
0.0
  0
VERTEX
  8
NC_Symbol-B
 10
5.154250
 20
29.154280
 30
0.0
 42
-0.362617
  0
VERTEX
  8
NC_Symbol-B
 10
5.164120
 20
29.184770
 30
0.0
  0
VERTEX
  8
NC_Symbol-B
 10
5.707820
 20
29.526910
 30
0.0
 42
-0.035610
  0
VERTEX
  8
NC_Symbol-B
 10
5.710960
 20
29.528580
 30
0.0
  0
VERTEX
  8
NC_Symbol-B
 10
5.710960
 20
29.528580
 30
0.0
 42
-0.519278
  0
VERTEX
  8
NC_Symbol-B
 10
5.901950
 20
29.414450
 30
0.0
  0
VERTEX
  8
NC_Symbol-B
 10
5.901950
 20
29.414450
 30
0.0
 42
-0.579633
  0
VERTEX
  8
NC_Symbol-B
 10
6.132410
 20
29.363510
 30
0.0
  0
VERTEX
  8
NC_Symbol-B
 10
6.132410
 20
29.363510
 30
0.0
 42
-0.454051
  0
VERTEX
  8
NC_Symbol-B
 10
6.324030
 20
29.291270
 30
0.0
  0
VERTEX
  8
NC_Symbol-B
 10
6.324030
 20
29.291270
 30
0.0
 42
-0.299700
  0
VERTEX
  8
NC_Symbol-B
 10
6.511200
 20
29.241790
 30
0.0
  0
VERTEX
  8
NC_Symbol-B
 10
6.856100
 20
28.856400
 30
0.0
 42
-0.347187
  0
VERTEX
  8
NC_Symbol-B
 10
6.869850
 20
28.633740
 30
0.0
  0
VERTEX
  8
NC_Symbol-B
 10
6.855780
 20
28.613470
 30
0.0
 42
-0.467564
  0
VERTEX
  8
NC_Symbol-B
 10
6.580630
 20
28.588810
 30
0.0
  0
VERTEX
  8
NC_Symbol-B
 10
6.370030
 20
28.799400
 30
0.0
 42
0.481625
  0
VERTEX
  8
NC_Symbol-B
 10
6.276780
 20
28.788880
 30
0.0
  0
VERTEX
  8
NC_Symbol-B
 10
6.276780
 20
28.788880
 30
0.0
 42
0.129482
  0
VERTEX
  8
NC_Symbol-B
 10
6.203800
 20
28.555520
 30
0.0
  0
VERTEX
  8
NC_Symbol-B
 10
6.203800
 20
28.555520
 30
0.0
 42
-0.080999
  0
VERTEX
  8
NC_Symbol-B
 10
6.499950
 20
28.403050
 30
0.0
  0
VERTEX
  8
NC_Symbol-B
 10
6.499950
 20
28.403050
 30
0.0
 42
-0.004000
  0
VERTEX
  8
NC_Symbol-B
 10
6.500270
 20
28.402810
 30
0.0
  0
VERTEX
  8
NC_Symbol-B
 10
6.500270
 20
28.402810
 30
0.0
 42
-0.292551
  0
VERTEX
  8
NC_Symbol-B
 10
6.596000
 20
28.139400
 30
0.0
  0
VERTEX
  8
NC_Symbol-B
 10
6.596000
 20
28.139400
 30
0.0
 42
-0.010818
  0
VERTEX
  8
NC_Symbol-B
 10
6.595740
 20
28.138350
 30
0.0
  0
SEQEND
  0
POLYLINE
  8
NC_Symbol-B
 66
   1
 10
0.0
 20
0.0
 30
0.0
 70
   1
  0
VERTEX
  8
NC_Symbol-B
 10
11.584980
 20
6.050000
 30
0.0
  0
VERTEX
  8
NC_Symbol-B
 10
10.267520
 20
6.050000
 30
0.0
  0
VERTEX
  8
NC_Symbol-B
 10
10.266310
 20
5.526130
 30
0.0
 42
-0.412810
  0
VERTEX
  8
NC_Symbol-B
 10
10.241370
 20
5.501190
 30
0.0
  0
VERTEX
  8
NC_Symbol-B
 10
9.740060
 20
5.500040
 30
0.0
 42
-0.414918
  0
VERTEX
  8
NC_Symbol-B
 10
9.715000
 20
5.525040
 30
0.0
  0
VERTEX
  8
NC_Symbol-B
 10
9.715000
 20
6.305880
 30
0.0
 42
-0.000219
  0
VERTEX
  8
NC_Symbol-B
 10
9.715150
 20
6.654650
 30
0.0
  0
VERTEX
  8
NC_Symbol-B
 10
9.715150
 20
6.654650
 30
0.0
 42
-0.000533
  0
VERTEX
  8
NC_Symbol-B
 10
9.715650
 20
6.911740
 30
0.0
  0
VERTEX
  8
NC_Symbol-B
 10
9.715650
 20
6.911740
 30
0.0
 42
-0.000190
  0
VERTEX
  8
NC_Symbol-B
 10
9.716340
 20
7.115180
 30
0.0
  0
VERTEX
  8
NC_Symbol-B
 10
9.716340
 20
7.115180
 30
0.0
 42
-0.018572
  0
VERTEX
  8
NC_Symbol-B
 10
9.717520
 20
7.144010
 30
0.0
  0
VERTEX
  8
NC_Symbol-B
 10
9.717520
 20
7.144010
 30
0.0
 42
-0.037998
  0
VERTEX
  8
NC_Symbol-B
 10
9.737760
 20
7.274350
 30
0.0
  0
VERTEX
  8
NC_Symbol-B
 10
9.737760
 20
7.274350
 30
0.0
 42
-0.039718
  0
VERTEX
  8
NC_Symbol-B
 10
9.777320
 20
7.398130
 30
0.0
  0
VERTEX
  8
NC_Symbol-B
 10
9.777320
 20
7.398130
 30
0.0
 42
-0.039714
  0
VERTEX
  8
NC_Symbol-B
 10
9.835970
 20
7.514120
 30
0.0
  0
VERTEX
  8
NC_Symbol-B
 10
9.835970
 20
7.514120
 30
0.0
 42
-0.037961
  0
VERTEX
  8
NC_Symbol-B
 10
9.913000
 20
7.621250
 30
0.0
  0
VERTEX
  8
NC_Symbol-B
 10
9.913000
 20
7.621250
 30
0.0
 42
-0.017628
  0
VERTEX
  8
NC_Symbol-B
 10
9.935880
 20
7.646580
 30
0.0
  0
VERTEX
  8
NC_Symbol-B
 10
9.935880
 20
7.646580
 30
0.0
 42
-0.006845
  0
VERTEX
  8
NC_Symbol-B
 10
9.969220
 20
7.680050
 30
0.0
  0
VERTEX
  8
NC_Symbol-B
 10
9.969220
 20
7.680050
 30
0.0
 42
-0.006784
  0
VERTEX
  8
NC_Symbol-B
 10
10.003250
 20
7.712390
 30
0.0
  0
VERTEX
  8
NC_Symbol-B
 10
10.003250
 20
7.712390
 30
0.0
 42
-0.019227
  0
VERTEX
  8
NC_Symbol-B
 10
10.028130
 20
7.733690
 30
0.0
  0
VERTEX
  8
NC_Symbol-B
 10
10.028130
 20
7.733690
 30
0.0
 42
-0.012481
  0
VERTEX
  8
NC_Symbol-B
 10
10.068940
 20
7.764370
 30
0.0
  0
VERTEX
  8
NC_Symbol-B
 10
10.068940
 20
7.764370
 30
0.0
 42
-0.014862
  0
VERTEX
  8
NC_Symbol-B
 10
10.108960
 20
7.791170
 30
0.0
  0
VERTEX
  8
NC_Symbol-B
 10
10.108960
 20
7.791170
 30
0.0
 42
-0.014950
  0
VERTEX
  8
NC_Symbol-B
 10
10.150290
 20
7.815400
 30
0.0
  0
VERTEX
  8
NC_Symbol-B
 10
10.150290
 20
7.815400
 30
0.0
 42
-0.012927
  0
VERTEX
  8
NC_Symbol-B
 10
10.195040
 20
7.838390
 30
0.0
  0
VERTEX
  8
NC_Symbol-B
 10
10.195040
 20
7.838390
 30
0.0
 42
-0.014976
  0
VERTEX
  8
NC_Symbol-B
 10
10.243110
 20
7.859790
 30
0.0
  0
VERTEX
  8
NC_Symbol-B
 10
10.243110
 20
7.859790
 30
0.0
 42
-0.015773
  0
VERTEX
  8
NC_Symbol-B
 10
10.291550
 20
7.877870
 30
0.0
  0
VERTEX
  8
NC_Symbol-B
 10
10.291550
 20
7.877870
 30
0.0
 42
-0.015829
  0
VERTEX
  8
NC_Symbol-B
 10
10.340880
 20
7.892810
 30
0.0
  0
VERTEX
  8
NC_Symbol-B
 10
10.340880
 20
7.892810
 30
0.0
 42
-0.015314
  0
VERTEX
  8
NC_Symbol-B
 10
10.391610
 20
7.904780
 30
0.0
  0
VERTEX
  8
NC_Symbol-B
 10
10.391610
 20
7.904780
 30
0.0
 42
-0.018332
  0
VERTEX
  8
NC_Symbol-B
 10
10.452140
 20
7.914830
 30
0.0
  0
VERTEX
  8
NC_Symbol-B
 10
10.452140
 20
7.914830
 30
0.0
 42
-0.024017
  0
VERTEX
  8
NC_Symbol-B
 10
10.508020
 20
7.919300
 30
0.0
  0
VERTEX
  8
NC_Symbol-B
 10
10.508020
 20
7.919300
 30
0.0
 42
-0.007379
  0
VERTEX
  8
NC_Symbol-B
 10
10.598200
 20
7.920840
 30
0.0
  0
VERTEX
  8
NC_Symbol-B
 10
10.598200
 20
7.920840
 30
0.0
 42
-0.000323
  0
VERTEX
  8
NC_Symbol-B
 10
10.912500
 20
7.921360
 30
0.0
  0
VERTEX
  8
NC_Symbol-B
 10
10.912500
 20
7.921360
 30
0.0
 42
-0.000193
  0
VERTEX
  8
NC_Symbol-B
 10
11.075590
 20
7.921460
 30
0.0
  0
VERTEX
  8
NC_Symbol-B
 10
11.075590
 20
7.921460
 30
0.0
 42
-0.000313
  0
VERTEX
  8
NC_Symbol-B
 10
11.214340
 20
7.921400
 30
0.0
  0
VERTEX
  8
NC_Symbol-B
 10
11.214340
 20
7.921400
 30
0.0
 42
-0.000040
  0
VERTEX
  8
NC_Symbol-B
 10
11.337980
 20
7.921270
 30
0.0
  0
VERTEX
  8
NC_Symbol-B
 10
11.337980
 20
7.921270
 30
0.0
 42
-0.024372
  0
VERTEX
  8
NC_Symbol-B
 10
11.345000
 20
7.920920
 30
0.0
  0
VERTEX
  8
NC_Symbol-B
 10
11.345000
 20
7.920920
 30
0.0
 42
-0.000087
  0
VERTEX
  8
NC_Symbol-B
 10
11.350010
 20
7.920420
 30
0.0
  0
VERTEX
  8
NC_Symbol-B
 10
11.350010
 20
7.920420
 30
0.0
 42
-0.000016
  0
VERTEX
  8
NC_Symbol-B
 10
11.359260
 20
7.919500
 30
0.0
  0
VERTEX
  8
NC_Symbol-B
 10
11.359260
 20
7.919500
 30
0.0
 42
-0.000017
  0
VERTEX
  8
NC_Symbol-B
 10
11.370080
 20
7.918420
 30
0.0
  0
VERTEX
  8
NC_Symbol-B
 10
11.370080
 20
7.918420
 30
0.0
 42
-0.000016
  0
VERTEX
  8
NC_Symbol-B
 10
11.381250
 20
7.917310
 30
0.0
  0
VERTEX
  8
NC_Symbol-B
 10
11.381250
 20
7.917310
 30
0.0
 42
-0.027655
  0
VERTEX
  8
NC_Symbol-B
 10
11.463250
 20
7.904530
 30
0.0
  0
VERTEX
  8
NC_Symbol-B
 10
11.463250
 20
7.904530
 30
0.0
 42
-0.024399
  0
VERTEX
  8
NC_Symbol-B
 10
11.546910
 20
7.882400
 30
0.0
  0
VERTEX
  8
NC_Symbol-B
 10
11.546910
 20
7.882400
 30
0.0
 42
-0.024259
  0
VERTEX
  8
NC_Symbol-B
 10
11.628550
 20
7.852050
 30
0.0
  0
VERTEX
  8
NC_Symbol-B
 10
11.628550
 20
7.852050
 30
0.0
 42
-0.026427
  0
VERTEX
  8
NC_Symbol-B
 10
11.704490
 20
7.814680
 30
0.0
  0
VERTEX
  8
NC_Symbol-B
 10
11.704490
 20
7.814680
 30
0.0
 42
-0.053353
  0
VERTEX
  8
NC_Symbol-B
 10
11.854390
 20
7.708400
 30
0.0
  0
VERTEX
  8
NC_Symbol-B
 10
11.854390
 20
7.708400
 30
0.0
 42
-0.054200
  0
VERTEX
  8
NC_Symbol-B
 10
11.977520
 20
7.573320
 30
0.0
  0
VERTEX
  8
NC_Symbol-B
 10
11.977520
 20
7.573320
 30
0.0
 42
-0.054474
  0
VERTEX
  8
NC_Symbol-B
 10
12.068250
 20
7.415600
 30
0.0
  0
VERTEX
  8
NC_Symbol-B
 10
12.068250
 20
7.415600
 30
0.0
 42
-0.054949
  0
VERTEX
  8
NC_Symbol-B
 10
12.122450
 20
7.242470
 30
0.0
  0
VERTEX
  8
NC_Symbol-B
 10
12.122450
 20
7.242470
 30
0.0
 42
-0.029595
  0
VERTEX
  8
NC_Symbol-B
 10
12.131070
 20
7.178710
 30
0.0
  0
VERTEX
  8
NC_Symbol-B
 10
12.131070
 20
7.178710
 30
0.0
 42
-0.014884
  0
VERTEX
  8
NC_Symbol-B
 10
12.134760
 20
7.097560
 30
0.0
  0
VERTEX
  8
NC_Symbol-B
 10
12.134760
 20
7.097560
 30
0.0
 42
-0.003578
  0
VERTEX
  8
NC_Symbol-B
 10
12.136080
 20
6.943570
 30
0.0
  0
VERTEX
  8
NC_Symbol-B
 10
12.136080
 20
6.943570
 30
0.0
 42
-0.000118
  0
VERTEX
  8
NC_Symbol-B
 10
12.136800
 20
6.329360
 30
0.0
  0
VERTEX
  8
NC_Symbol-B
 10
12.137560
 20
5.525060
 30
0.0
 42
-0.415152
  0
VERTEX
  8
NC_Symbol-B
 10
12.112500
 20
5.500040
 30
0.0
  0
VERTEX
  8
NC_Symbol-B
 10
11.611130
 20
5.501190
 30
0.0
 42
-0.412810
  0
VERTEX
  8
NC_Symbol-B
 10
11.586190
 20
5.526130
 30
0.0
  0
SEQEND
  0
POLYLINE
  8
NC_Symbol-B
 66
   1
 10
0.0
 20
0.0
 30
0.0
 70
   1
  0
VERTEX
  8
NC_Symbol-B
 10
11.560000
 20
6.602500
 30
0.0
 42
0.414214
  0
VERTEX
  8
NC_Symbol-B
 10
11.585000
 20
6.627500
 30
0.0
  0
VERTEX
  8
NC_Symbol-B
 10
11.585000
 20
6.856480
 30
0.0
 42
0.000324
  0
VERTEX
  8
NC_Symbol-B
 10
11.584890
 20
7.019460
 30
0.0
  0
VERTEX
  8
NC_Symbol-B
 10
11.584890
 20
7.019460
 30
0.0
 42
0.004303
  0
VERTEX
  8
NC_Symbol-B
 10
11.584300
 20
7.079510
 30
0.0
  0
VERTEX
  8
NC_Symbol-B
 10
11.584300
 20
7.079510
 30
0.0
 42
0.011697
  0
VERTEX
  8
NC_Symbol-B
 10
11.582900
 20
7.112920
 30
0.0
  0
VERTEX
  8
NC_Symbol-B
 10
11.582900
 20
7.112920
 30
0.0
 42
0.033956
  0
VERTEX
  8
NC_Symbol-B
 10
11.579830
 20
7.135840
 30
0.0
  0
VERTEX
  8
NC_Symbol-B
 10
11.579830
 20
7.135840
 30
0.0
 42
0.036319
  0
VERTEX
  8
NC_Symbol-B
 10
11.568880
 20
7.174850
 30
0.0
  0
VERTEX
  8
NC_Symbol-B
 10
11.568880
 20
7.174850
 30
0.0
 42
0.038288
  0
VERTEX
  8
NC_Symbol-B
 10
11.552550
 20
7.211150
 30
0.0
  0
VERTEX
  8
NC_Symbol-B
 10
11.552550
 20
7.211150
 30
0.0
 42
0.037453
  0
VERTEX
  8
NC_Symbol-B
 10
11.530500
 20
7.245230
 30
0.0
  0
VERTEX
  8
NC_Symbol-B
 10
11.530500
 20
7.245230
 30
0.0
 42
0.031940
  0
VERTEX
  8
NC_Symbol-B
 10
11.502500
 20
7.277610
 30
0.0
  0
VERTEX
  8
NC_Symbol-B
 10
11.502500
 20
7.277610
 30
0.0
 42
0.025471
  0
VERTEX
  8
NC_Symbol-B
 10
11.474220
 20
7.303600
 30
0.0
  0
VERTEX
  8
NC_Symbol-B
 10
11.474220
 20
7.303600
 30
0.0
 42
0.031869
  0
VERTEX
  8
NC_Symbol-B
 10
11.445400
 20
7.324540
 30
0.0
  0
VERTEX
  8
NC_Symbol-B
 10
11.445400
 20
7.324540
 30
0.0
 42
0.032422
  0
VERTEX
  8
NC_Symbol-B
 10
11.414570
 20
7.341380
 30
0.0
  0
VERTEX
  8
NC_Symbol-B
 10
11.414570
 20
7.341380
 30
0.0
 42
0.027952
  0
VERTEX
  8
NC_Symbol-B
 10
11.380290
 20
7.355040
 30
0.0
  0
VERTEX
  8
NC_Symbol-B
 10
11.380290
 20
7.355040
 30
0.0
 42
0.045120
  0
VERTEX
  8
NC_Symbol-B
 10
11.342630
 20
7.363980
 30
0.0
  0
VERTEX
  8
NC_Symbol-B
 10
11.342630
 20
7.363980
 30
0.0
 42
0.027590
  0
VERTEX
  8
NC_Symbol-B
 10
11.297120
 20
7.367980
 30
0.0
  0
VERTEX
  8
NC_Symbol-B
 10
11.297120
 20
7.367980
 30
0.0
 42
0.007665
  0
VERTEX
  8
NC_Symbol-B
 10
11.214250
 20
7.369420
 30
0.0
  0
VERTEX
  8
NC_Symbol-B
 10
11.214250
 20
7.369420
 30
0.0
 42
0.000344
  0
VERTEX
  8
NC_Symbol-B
 10
10.928450
 20
7.369780
 30
0.0
  0
VERTEX
  8
NC_Symbol-B
 10
10.928450
 20
7.369780
 30
0.0
 42
0.000269
  0
VERTEX
  8
NC_Symbol-B
 10
10.705520
 20
7.369780
 30
0.0
  0
VERTEX
  8
NC_Symbol-B
 10
10.705520
 20
7.369780
 30
0.0
 42
0.002084
  0
VERTEX
  8
NC_Symbol-B
 10
10.601330
 20
7.369300
 30
0.0
  0
VERTEX
  8
NC_Symbol-B
 10
10.601330
 20
7.369300
 30
0.0
 42
0.002969
  0
VERTEX
  8
NC_Symbol-B
 10
10.539140
 20
7.368380
 30
0.0
  0
VERTEX
  8
NC_Symbol-B
 10
10.539140
 20
7.368380
 30
0.0
 42
0.038002
  0
VERTEX
  8
NC_Symbol-B
 10
10.515960
 20
7.366130
 30
0.0
  0
VERTEX
  8
NC_Symbol-B
 10
10.515960
 20
7.366130
 30
0.0
 42
0.048271
  0
VERTEX
  8
NC_Symbol-B
 10
10.461300
 20
7.351050
 30
0.0
  0
VERTEX
  8
NC_Symbol-B
 10
10.461300
 20
7.351050
 30
0.0
 42
0.045680
  0
VERTEX
  8
NC_Symbol-B
 10
10.409460
 20
7.325570
 30
0.0
  0
VERTEX
  8
NC_Symbol-B
 10
10.409460
 20
7.325570
 30
0.0
 42
0.045724
  0
VERTEX
  8
NC_Symbol-B
 10
10.363150
 20
7.291120
 30
0.0
  0
VERTEX
  8
NC_Symbol-B
 10
10.363150
 20
7.291120
 30
0.0
 42
0.048558
  0
VERTEX
  8
NC_Symbol-B
 10
10.324890
 20
7.249450
 30
0.0
  0
VERTEX
  8
NC_Symbol-B
 10
10.324890
 20
7.249450
 30
0.0
 42
0.028859
  0
VERTEX
  8
NC_Symbol-B
 10
10.310460
 20
7.227800
 30
0.0
  0
VERTEX
  8
NC_Symbol-B
 10
10.310460
 20
7.227800
 30
0.0
 42
0.018897
  0
VERTEX
  8
NC_Symbol-B
 10
10.296270
 20
7.201370
 30
0.0
  0
VERTEX
  8
NC_Symbol-B
 10
10.296270
 20
7.201370
 30
0.0
 42
0.018852
  0
VERTEX
  8
NC_Symbol-B
 10
10.284060
 20
7.173820
 30
0.0
  0
VERTEX
  8
NC_Symbol-B
 10
10.284060
 20
7.173820
 30
0.0
 42
0.027790
  0
VERTEX
  8
NC_Symbol-B
 10
10.275650
 20
7.148750
 30
0.0
  0
VERTEX
  8
NC_Symbol-B
 10
10.269660
 20
7.126960
 30
0.0
 42
0.066494
  0
VERTEX
  8
NC_Symbol-B
 10
10.268770
 20
7.120400
 30
0.0
  0
VERTEX
  8
NC_Symbol-B
 10
10.267440
 20
6.627570
 30
0.0
 42
0.415035
  0
VERTEX
  8
NC_Symbol-B
 10
10.292440
 20
6.602500
 30
0.0
  0
SEQEND
  0
POLYLINE
  8
NC_Symbol-B
 66
   1
 10
0.0
 20
0.0
 30
0.0
 70
   1
  0
VERTEX
  8
NC_Symbol-B
 10
14.217500
 20
7.920810
 30
0.0
 42
-0.011368
  0
VERTEX
  8
NC_Symbol-B
 10
14.241940
 20
7.918460
 30
0.0
  0
VERTEX
  8
NC_Symbol-B
 10
14.241940
 20
7.918460
 30
0.0
 42
-0.006040
  0
VERTEX
  8
NC_Symbol-B
 10
14.272100
 20
7.914510
 30
0.0
  0
VERTEX
  8
NC_Symbol-B
 10
14.272100
 20
7.914510
 30
0.0
 42
-0.006016
  0
VERTEX
  8
NC_Symbol-B
 10
14.302720
 20
7.909740
 30
0.0
  0
VERTEX
  8
NC_Symbol-B
 10
14.302720
 20
7.909740
 30
0.0
 42
-0.009599
  0
VERTEX
  8
NC_Symbol-B
 10
14.328750
 20
7.904850
 30
0.0
  0
VERTEX
  8
NC_Symbol-B
 10
14.328750
 20
7.904850
 30
0.0
 42
-0.075659
  0
VERTEX
  8
NC_Symbol-B
 10
14.555910
 20
7.820380
 30
0.0
  0
VERTEX
  8
NC_Symbol-B
 10
14.555910
 20
7.820380
 30
0.0
 42
-0.072306
  0
VERTEX
  8
NC_Symbol-B
 10
14.751640
 20
7.671160
 30
0.0
  0
VERTEX
  8
NC_Symbol-B
 10
14.751640
 20
7.671160
 30
0.0
 42
-0.071736
  0
VERTEX
  8
NC_Symbol-B
 10
14.898010
 20
7.471190
 30
0.0
  0
VERTEX
  8
NC_Symbol-B
 10
14.898010
 20
7.471190
 30
0.0
 42
-0.072543
  0
VERTEX
  8
NC_Symbol-B
 10
14.981220
 20
7.238750
 30
0.0
  0
VERTEX
  8
NC_Symbol-B
 10
14.981220
 20
7.238750
 30
0.0
 42
-0.017765
  0
VERTEX
  8
NC_Symbol-B
 10
14.992000
 20
7.173370
 30
0.0
  0
VERTEX
  8
NC_Symbol-B
 10
14.992000
 20
7.173370
 30
0.0
 42
-0.023677
  0
VERTEX
  8
NC_Symbol-B
 10
14.996850
 20
7.113380
 30
0.0
  0
VERTEX
  8
NC_Symbol-B
 10
14.996850
 20
7.113380
 30
0.0
 42
-0.007898
  0
VERTEX
  8
NC_Symbol-B
 10
14.998500
 20
7.018390
 30
0.0
  0
VERTEX
  8
NC_Symbol-B
 10
14.998500
 20
7.018390
 30
0.0
 42
-0.000406
  0
VERTEX
  8
NC_Symbol-B
 10
14.998750
 20
6.711250
 30
0.0
  0
VERTEX
  8
NC_Symbol-B
 10
14.998750
 20
6.711250
 30
0.0
 42
-0.000229
  0
VERTEX
  8
NC_Symbol-B
 10
14.998640
 20
6.461320
 30
0.0
  0
VERTEX
  8
NC_Symbol-B
 10
14.998640
 20
6.461320
 30
0.0
 42
-0.002269
  0
VERTEX
  8
NC_Symbol-B
 10
14.998060
 20
6.356380
 30
0.0
  0
VERTEX
  8
NC_Symbol-B
 10
14.998060
 20
6.356380
 30
0.0
 42
-0.004925
  0
VERTEX
  8
NC_Symbol-B
 10
14.996880
 20
6.296620
 30
0.0
  0
VERTEX
  8
NC_Symbol-B
 10
14.996880
 20
6.296620
 30
0.0
 42
-0.023346
  0
VERTEX
  8
NC_Symbol-B
 10
14.994270
 20
6.262500
 30
0.0
  0
VERTEX
  8
NC_Symbol-B
 10
14.994270
 20
6.262500
 30
0.0
 42
-0.014346
  0
VERTEX
  8
NC_Symbol-B
 10
14.985780
 20
6.207010
 30
0.0
  0
VERTEX
  8
NC_Symbol-B
 10
14.985780
 20
6.207010
 30
0.0
 42
-0.014549
  0
VERTEX
  8
NC_Symbol-B
 10
14.974160
 20
6.152370
 30
0.0
  0
VERTEX
  8
NC_Symbol-B
 10
14.974160
 20
6.152370
 30
0.0
 42
-0.014764
  0
VERTEX
  8
NC_Symbol-B
 10
14.959580
 20
6.099310
 30
0.0
  0
VERTEX
  8
NC_Symbol-B
 10
14.959580
 20
6.099310
 30
0.0
 42
-0.015947
  0
VERTEX
  8
NC_Symbol-B
 10
14.942220
 20
6.048550
 30
0.0
  0
VERTEX
  8
NC_Symbol-B
 10
14.942220
 20
6.048550
 30
0.0
 42
-0.016545
  0
VERTEX
  8
NC_Symbol-B
 10
14.927940
 20
6.014250
 30
0.0
  0
VERTEX
  8
NC_Symbol-B
 10
14.927940
 20
6.014250
 30
0.0
 42
-0.008262
  0
VERTEX
  8
NC_Symbol-B
 10
14.907730
 20
5.971780
 30
0.0
  0
VERTEX
  8
NC_Symbol-B
 10
14.907730
 20
5.971780
 30
0.0
 42
-0.008262
  0
VERTEX
  8
NC_Symbol-B
 10
14.886130
 20
5.930010
 30
0.0
  0
VERTEX
  8
NC_Symbol-B
 10
14.886130
 20
5.930010
 30
0.0
 42
-0.016563
  0
VERTEX
  8
NC_Symbol-B
 10
14.867450
 20
5.897910
 30
0.0
  0
VERTEX
  8
NC_Symbol-B
 10
14.867450
 20
5.897910
 30
0.0
 42
-0.051234
  0
VERTEX
  8
NC_Symbol-B
 10
14.759940
 20
5.760060
 30
0.0
  0
VERTEX
  8
NC_Symbol-B
 10
14.759940
 20
5.760060
 30
0.0
 42
-0.050771
  0
VERTEX
  8
NC_Symbol-B
 10
14.626350
 20
5.646480
 30
0.0
  0
VERTEX
  8
NC_Symbol-B
 10
14.626350
 20
5.646480
 30
0.0
 42
-0.051180
  0
VERTEX
  8
NC_Symbol-B
 10
14.473700
 20
5.562920
 30
0.0
  0
VERTEX
  8
NC_Symbol-B
 10
14.473700
 20
5.562920
 30
0.0
 42
-0.053852
  0
VERTEX
  8
NC_Symbol-B
 10
14.309820
 20
5.513840
 30
0.0
  0
VERTEX
  8
NC_Symbol-B
 10
14.309820
 20
5.513840
 30
0.0
 42
-0.029003
  0
VERTEX
  8
NC_Symbol-B
 10
14.247700
 20
5.506010
 30
0.0
  0
VERTEX
  8
NC_Symbol-B
 10
14.247700
 20
5.506010
 30
0.0
 42
-0.013226
  0
VERTEX
  8
NC_Symbol-B
 10
14.165930
 20
5.502660
 30
0.0
  0
VERTEX
  8
NC_Symbol-B
 10
14.165930
 20
5.502660
 30
0.0
 42
-0.003275
  0
VERTEX
  8
NC_Symbol-B
 10
14.010120
 20
5.501420
 30
0.0
  0
VERTEX
  8
NC_Symbol-B
 10
14.010120
 20
5.501420
 30
0.0
 42
-0.000114
  0
VERTEX
  8
NC_Symbol-B
 10
13.404370
 20
5.500700
 30
0.0
  0
VERTEX
  8
NC_Symbol-B
 10
12.602520
 20
5.499930
 30
0.0
 42
-0.414448
  0
VERTEX
  8
NC_Symbol-B
 10
12.577500
 20
5.524930
 30
0.0
  0
VERTEX
  8
NC_Symbol-B
 10
12.577500
 20
6.027470
 30
0.0
 42
-0.413979
  0
VERTEX
  8
NC_Symbol-B
 10
12.602480
 20
6.052470
 30
0.0
  0
VERTEX
  8
NC_Symbol-B
 10
14.201250
 20
6.053750
 30
0.0
  0
VERTEX
  8
NC_Symbol-B
 10
14.225510
 20
6.060450
 30
0.0
 42
0.062852
  0
VERTEX
  8
NC_Symbol-B
 10
14.293900
 20
6.088970
 30
0.0
  0
VERTEX
  8
NC_Symbol-B
 10
14.293900
 20
6.088970
 30
0.0
 42
0.061601
  0
VERTEX
  8
NC_Symbol-B
 10
14.353580
 20
6.133740
 30
0.0
  0
VERTEX
  8
NC_Symbol-B
 10
14.353580
 20
6.133740
 30
0.0
 42
0.061363
  0
VERTEX
  8
NC_Symbol-B
 10
14.400730
 20
6.191870
 30
0.0
  0
VERTEX
  8
NC_Symbol-B
 10
14.400730
 20
6.191870
 30
0.0
 42
0.061523
  0
VERTEX
  8
NC_Symbol-B
 10
14.432320
 20
6.259650
 30
0.0
  0
VERTEX
  8
NC_Symbol-B
 10
14.432320
 20
6.259650
 30
0.0
 42
0.043291
  0
VERTEX
  8
NC_Symbol-B
 10
14.440940
 20
6.297020
 30
0.0
  0
VERTEX
  8
NC_Symbol-B
 10
14.440940
 20
6.297020
 30
0.0
 42
0.027335
  0
VERTEX
  8
NC_Symbol-B
 10
14.444760
 20
6.341650
 30
0.0
  0
VERTEX
  8
NC_Symbol-B
 10
14.444760
 20
6.341650
 30
0.0
 42
0.007395
  0
VERTEX
  8
NC_Symbol-B
 10
14.446070
 20
6.422990
 30
0.0
  0
VERTEX
  8
NC_Symbol-B
 10
14.446070
 20
6.422990
 30
0.0
 42
0.000313
  0
VERTEX
  8
NC_Symbol-B
 10
14.446250
 20
6.711250
 30
0.0
  0
VERTEX
  8
NC_Symbol-B
 10
14.446250
 20
6.711250
 30
0.0
 42
0.000299
  0
VERTEX
  8
NC_Symbol-B
 10
14.446120
 20
6.924000
 30
0.0
  0
VERTEX
  8
NC_Symbol-B
 10
14.446120
 20
6.924000
 30
0.0
 42
0.001802
  0
VERTEX
  8
NC_Symbol-B
 10
14.445590
 20
7.034580
 30
0.0
  0
VERTEX
  8
NC_Symbol-B
 10
14.445590
 20
7.034580
 30
0.0
 42
0.001696
  0
VERTEX
  8
NC_Symbol-B
 10
14.444760
 20
7.105060
 30
0.0
  0
VERTEX
  8
NC_Symbol-B
 10
14.444760
 20
7.105060
 30
0.0
 42
0.045119
  0
VERTEX
  8
NC_Symbol-B
 10
14.442780
 20
7.123750
 30
0.0
  0
VERTEX
  8
NC_Symbol-B
 10
14.442780
 20
7.123750
 30
0.0
 42
0.035388
  0
VERTEX
  8
NC_Symbol-B
 10
14.431230
 20
7.166100
 30
0.0
  0
VERTEX
  8
NC_Symbol-B
 10
14.431230
 20
7.166100
 30
0.0
 42
0.033238
  0
VERTEX
  8
NC_Symbol-B
 10
14.413630
 20
7.207340
 30
0.0
  0
VERTEX
  8
NC_Symbol-B
 10
14.413630
 20
7.207340
 30
0.0
 42
0.033306
  0
VERTEX
  8
NC_Symbol-B
 10
14.390760
 20
7.245780
 30
0.0
  0
VERTEX
  8
NC_Symbol-B
 10
14.390760
 20
7.245780
 30
0.0
 42
0.035959
  0
VERTEX
  8
NC_Symbol-B
 10
14.363520
 20
7.279820
 30
0.0
  0
VERTEX
  8
NC_Symbol-B
 10
14.363520
 20
7.279820
 30
0.0
 42
0.036226
  0
VERTEX
  8
NC_Symbol-B
 10
14.339560
 20
7.302200
 30
0.0
  0
VERTEX
  8
NC_Symbol-B
 10
14.339560
 20
7.302200
 30
0.0
 42
0.026356
  0
VERTEX
  8
NC_Symbol-B
 10
14.310010
 20
7.323580
 30
0.0
  0
VERTEX
  8
NC_Symbol-B
 10
14.310010
 20
7.323580
 30
0.0
 42
0.026013
  0
VERTEX
  8
NC_Symbol-B
 10
14.277810
 20
7.342090
 30
0.0
  0
VERTEX
  8
NC_Symbol-B
 10
14.277810
 20
7.342090
 30
0.0
 42
0.031668
  0
VERTEX
  8
NC_Symbol-B
 10
14.245870
 20
7.355830
 30
0.0
  0
VERTEX
  8
NC_Symbol-B
 10
14.245870
 20
7.355830
 30
0.0
 42
0.066272
  0
VERTEX
  8
NC_Symbol-B
 10
14.202630
 20
7.365080
 30
0.0
  0
VERTEX
  8
NC_Symbol-B
 10
14.202630
 20
7.365080
 30
0.0
 42
0.015466
  0
VERTEX
  8
NC_Symbol-B
 10
14.128350
 20
7.368590
 30
0.0
  0
VERTEX
  8
NC_Symbol-B
 10
14.128350
 20
7.368590
 30
0.0
 42
0.003974
  0
VERTEX
  8
NC_Symbol-B
 10
13.980170
 20
7.369850
 30
0.0
  0
VERTEX
  8
NC_Symbol-B
 10
13.980170
 20
7.369850
 30
0.0
 42
0.000128
  0
VERTEX
  8
NC_Symbol-B
 10
13.382220
 20
7.370000
 30
0.0
  0
VERTEX
  8
NC_Symbol-B
 10
12.602500
 20
7.370000
 30
0.0
 42
-0.414214
  0
VERTEX
  8
NC_Symbol-B
 10
12.577500
 20
7.395000
 30
0.0
  0
VERTEX
  8
NC_Symbol-B
 10
12.577500
 20
7.897490
 30
0.0
 42
-0.414331
  0
VERTEX
  8
NC_Symbol-B
 10
12.602510
 20
7.922490
 30
0.0
  0
VERTEX
  8
NC_Symbol-B
 10
13.391870
 20
7.922060
 30
0.0
 42
-0.000094
  0
VERTEX
  8
NC_Symbol-B
 10
13.704920
 20
7.921840
 30
0.0
  0
VERTEX
  8
NC_Symbol-B
 10
13.704920
 20
7.921840
 30
0.0
 42
-0.000153
  0
VERTEX
  8
NC_Symbol-B
 10
13.970330
 20
7.921510
 30
0.0
  0
VERTEX
  8
NC_Symbol-B
 10
14.208390
 20
7.921140
 30
0.0
 42
-0.017817
  0
VERTEX
  8
NC_Symbol-B
 10
14.217500
 20
7.920810
 30
0.0
  0
SEQEND
  0
POLYLINE
  8
NC_Symbol-B
 66
   1
 10
0.0
 20
0.0
 30
0.0
 70
   1
  0
VERTEX
  8
NC_Symbol-B
 10
11.609980
 20
8.362500
 30
0.0
 42
-0.413862
  0
VERTEX
  8
NC_Symbol-B
 10
11.584980
 20
8.387470
 30
0.0
  0
VERTEX
  8
NC_Symbol-B
 10
11.583750
 20
9.281550
 30
0.0
  0
VERTEX
  8
NC_Symbol-B
 10
10.430570
 20
8.367940
 30
0.0
 42
-0.169020
  0
VERTEX
  8
NC_Symbol-B
 10
10.415050
 20
8.362540
 30
0.0
  0
VERTEX
  8
NC_Symbol-B
 10
10.068750
 20
8.362600
 30
0.0
 42
-0.000342
  0
VERTEX
  8
NC_Symbol-B
 10
9.886610
 20
8.362750
 30
0.0
  0
VERTEX
  8
NC_Symbol-B
 10
9.886610
 20
8.362750
 30
0.0
 42
-0.001827
  0
VERTEX
  8
NC_Symbol-B
 10
9.787220
 20
8.363270
 30
0.0
  0
VERTEX
  8
NC_Symbol-B
 10
9.787220
 20
8.363270
 30
0.0
 42
-0.000008
  0
VERTEX
  8
NC_Symbol-B
 10
9.786180
 20
8.363280
 30
0.0
  0
VERTEX
  8
NC_Symbol-B
 10
9.786180
 20
8.363280
 30
0.0
 42
-0.707318
  0
VERTEX
  8
NC_Symbol-B
 10
9.770870
 20
8.407870
 30
0.0
  0
VERTEX
  8
NC_Symbol-B
 10
11.244790
 20
9.575690
 30
0.0
  0
VERTEX
  8
NC_Symbol-B
 10
11.233020
 20
9.585010
 30
0.0
 42
0.000730
  0
VERTEX
  8
NC_Symbol-B
 10
11.223510
 20
9.592510
 30
0.0
  0
VERTEX
  8
NC_Symbol-B
 10
10.467500
 20
10.187430
 30
0.0
 42
-0.000121
  0
VERTEX
  8
NC_Symbol-B
 10
10.178420
 20
10.415010
 30
0.0
  0
VERTEX
  8
NC_Symbol-B
 10
10.178420
 20
10.415010
 30
0.0
 42
-0.000202
  0
VERTEX
  8
NC_Symbol-B
 10
9.934910
 20
10.606960
 30
0.0
  0
VERTEX
  8
NC_Symbol-B
 10
9.766860
 20
10.739550
 30
0.0
 42
-0.708468
  0
VERTEX
  8
NC_Symbol-B
 10
9.782190
 20
10.784180
 30
0.0
  0
VERTEX
  8
NC_Symbol-B
 10
9.782190
 20
10.784180
 30
0.0
 42
-0.000016
  0
VERTEX
  8
NC_Symbol-B
 10
9.811890
 20
10.784370
 30
0.0
  0
VERTEX
  8
NC_Symbol-B
 10
9.811890
 20
10.784370
 30
0.0
 42
-0.001047
  0
VERTEX
  8
NC_Symbol-B
 10
9.924740
 20
10.784850
 30
0.0
  0
VERTEX
  8
NC_Symbol-B
 10
9.924740
 20
10.784850
 30
0.0
 42
-0.000532
  0
VERTEX
  8
NC_Symbol-B
 10
10.066720
 20
10.785000
 30
0.0
  0
VERTEX
  8
NC_Symbol-B
 10
10.412710
 20
10.785000
 30
0.0
 42
-0.168225
  0
VERTEX
  8
NC_Symbol-B
 10
10.428170
 20
10.779650
 30
0.0
  0
VERTEX
  8
NC_Symbol-B
 10
11.583750
 20
9.870230
 30
0.0
  0
VERTEX
  8
NC_Symbol-B
 10
11.586180
 20
10.758880
 30
0.0
 42
-0.412693
  0
VERTEX
  8
NC_Symbol-B
 10
11.611120
 20
10.783810
 30
0.0
  0
VERTEX
  8
NC_Symbol-B
 10
12.112440
 20
10.784960
 30
0.0
 42
-0.414918
  0
VERTEX
  8
NC_Symbol-B
 10
12.137500
 20
10.759960
 30
0.0
  0
VERTEX
  8
NC_Symbol-B
 10
12.137500
 20
8.387500
 30
0.0
 42
-0.414214
  0
VERTEX
  8
NC_Symbol-B
 10
12.112500
 20
8.362500
 30
0.0
  0
SEQEND
  0
POLYLINE
  8
NC_Symbol-B
 66
   1
 10
0.0
 20
0.0
 30
0.0
 70
   1
  0
VERTEX
  8
NC_Symbol-B
 10
13.968810
 20
8.362680
 30
0.0
 42
-0.000429
  0
VERTEX
  8
NC_Symbol-B
 10
13.786250
 20
8.362540
 30
0.0
  0
VERTEX
  8
NC_Symbol-B
 10
13.786250
 20
8.362540
 30
0.0
 42
-0.000390
  0
VERTEX
  8
NC_Symbol-B
 10
13.494190
 20
8.362780
 30
0.0
  0
VERTEX
  8
NC_Symbol-B
 10
13.494190
 20
8.362780
 30
0.0
 42
-0.005748
  0
VERTEX
  8
NC_Symbol-B
 10
13.391570
 20
8.364120
 30
0.0
  0
VERTEX
  8
NC_Symbol-B
 10
13.391570
 20
8.364120
 30
0.0
 42
-0.016529
  0
VERTEX
  8
NC_Symbol-B
 10
13.330500
 20
8.367640
 30
0.0
  0
VERTEX
  8
NC_Symbol-B
 10
13.330500
 20
8.367640
 30
0.0
 42
-0.021519
  0
VERTEX
  8
NC_Symbol-B
 10
13.275000
 20
8.375110
 30
0.0
  0
VERTEX
  8
NC_Symbol-B
 10
13.275000
 20
8.375110
 30
0.0
 42
-0.018507
  0
VERTEX
  8
NC_Symbol-B
 10
13.214600
 20
8.388220
 30
0.0
  0
VERTEX
  8
NC_Symbol-B
 10
13.214600
 20
8.388220
 30
0.0
 42
-0.018181
  0
VERTEX
  8
NC_Symbol-B
 10
13.154970
 20
8.405830
 30
0.0
  0
VERTEX
  8
NC_Symbol-B
 10
13.154970
 20
8.405830
 30
0.0
 42
-0.018111
  0
VERTEX
  8
NC_Symbol-B
 10
13.096560
 20
8.427800
 30
0.0
  0
VERTEX
  8
NC_Symbol-B
 10
13.096560
 20
8.427800
 30
0.0
 42
-0.018027
  0
VERTEX
  8
NC_Symbol-B
 10
13.039790
 20
8.453970
 30
0.0
  0
VERTEX
  8
NC_Symbol-B
 10
13.039790
 20
8.453970
 30
0.0
 42
-0.062600
  0
VERTEX
  8
NC_Symbol-B
 10
12.863490
 20
8.572810
 30
0.0
  0
VERTEX
  8
NC_Symbol-B
 10
12.863490
 20
8.572810
 30
0.0
 42
-0.063115
  0
VERTEX
  8
NC_Symbol-B
 10
12.722630
 20
8.731280
 30
0.0
  0
VERTEX
  8
NC_Symbol-B
 10
12.722630
 20
8.731280
 30
0.0
 42
-0.063345
  0
VERTEX
  8
NC_Symbol-B
 10
12.626160
 20
8.919330
 30
0.0
  0
VERTEX
  8
NC_Symbol-B
 10
12.626160
 20
8.919330
 30
0.0
 42
-0.063876
  0
VERTEX
  8
NC_Symbol-B
 10
12.580180
 20
9.124990
 30
0.0
  0
VERTEX
  8
NC_Symbol-B
 10
12.580180
 20
9.124990
 30
0.0
 42
-0.022085
  0
VERTEX
  8
NC_Symbol-B
 10
12.578860
 20
9.152310
 30
0.0
  0
VERTEX
  8
NC_Symbol-B
 10
12.578860
 20
9.152310
 30
0.0
 42
-0.000224
  0
VERTEX
  8
NC_Symbol-B
 10
12.578160
 20
9.345620
 30
0.0
  0
VERTEX
  8
NC_Symbol-B
 10
12.578160
 20
9.345620
 30
0.0
 42
-0.000589
  0
VERTEX
  8
NC_Symbol-B
 10
12.577660
 20
9.599640
 30
0.0
  0
VERTEX
  8
NC_Symbol-B
 10
12.577660
 20
9.599640
 30
0.0
 42
-0.000199
  0
VERTEX
  8
NC_Symbol-B
 10
12.577510
 20
9.969380
 30
0.0
  0
VERTEX
  8
NC_Symbol-B
 10
12.577500
 20
10.760000
 30
0.0
 42
-0.414214
  0
VERTEX
  8
NC_Symbol-B
 10
12.602500
 20
10.785000
 30
0.0
  0
VERTEX
  8
NC_Symbol-B
 10
13.102500
 20
10.785000
 30
0.0
 42
-0.414214
  0
VERTEX
  8
NC_Symbol-B
 10
13.127500
 20
10.760000
 30
0.0
  0
VERTEX
  8
NC_Symbol-B
 10
13.127500
 20
9.992400
 30
0.0
 42
0.000202
  0
VERTEX
  8
NC_Symbol-B
 10
13.127650
 20
9.630840
 30
0.0
  0
VERTEX
  8
NC_Symbol-B
 10
13.127650
 20
9.630840
 30
0.0
 42
0.000617
  0
VERTEX
  8
NC_Symbol-B
 10
13.128150
 20
9.385600
 30
0.0
  0
VERTEX
  8
NC_Symbol-B
 10
13.128150
 20
9.385600
 30
0.0
 42
0.000210
  0
VERTEX
  8
NC_Symbol-B
 10
13.128830
 20
9.199040
 30
0.0
  0
VERTEX
  8
NC_Symbol-B
 10
13.128830
 20
9.199040
 30
0.0
 42
0.026736
  0
VERTEX
  8
NC_Symbol-B
 10
13.130170
 20
9.175840
 30
0.0
  0
VERTEX
  8
NC_Symbol-B
 10
13.130170
 20
9.175840
 30
0.0
 42
0.076874
  0
VERTEX
  8
NC_Symbol-B
 10
13.152420
 20
9.093690
 30
0.0
  0
VERTEX
  8
NC_Symbol-B
 10
13.152420
 20
9.093690
 30
0.0
 42
0.072397
  0
VERTEX
  8
NC_Symbol-B
 10
13.198740
 20
9.020220
 30
0.0
  0
VERTEX
  8
NC_Symbol-B
 10
13.198740
 20
9.020220
 30
0.0
 42
0.071860
  0
VERTEX
  8
NC_Symbol-B
 10
13.264450
 20
8.962550
 30
0.0
  0
VERTEX
  8
NC_Symbol-B
 10
13.264450
 20
8.962550
 30
0.0
 42
0.073833
  0
VERTEX
  8
NC_Symbol-B
 10
13.343210
 20
8.926480
 30
0.0
  0
VERTEX
  8
NC_Symbol-B
 10
13.343210
 20
8.926480
 30
0.0
 42
0.039264
  0
VERTEX
  8
NC_Symbol-B
 10
13.381110
 20
8.918650
 30
0.0
  0
VERTEX
  8
NC_Symbol-B
 10
13.381110
 20
8.918650
 30
0.0
 42
0.024137
  0
VERTEX
  8
NC_Symbol-B
 10
13.426580
 20
8.915150
 30
0.0
  0
VERTEX
  8
NC_Symbol-B
 10
13.426580
 20
8.915150
 30
0.0
 42
0.006824
  0
VERTEX
  8
NC_Symbol-B
 10
13.508880
 20
8.913930
 30
0.0
  0
VERTEX
  8
NC_Symbol-B
 10
13.508880
 20
8.913930
 30
0.0
 42
0.000315
  0
VERTEX
  8
NC_Symbol-B
 10
13.788750
 20
8.913750
 30
0.0
  0
VERTEX
  8
NC_Symbol-B
 10
13.788750
 20
8.913750
 30
0.0
 42
0.000225
  0
VERTEX
  8
NC_Symbol-B
 10
14.027530
 20
8.913860
 30
0.0
  0
VERTEX
  8
NC_Symbol-B
 10
14.027530
 20
8.913860
 30
0.0
 42
0.002469
  0
VERTEX
  8
NC_Symbol-B
 10
14.123390
 20
8.914420
 30
0.0
  0
VERTEX
  8
NC_Symbol-B
 10
14.123390
 20
8.914420
 30
0.0
 42
0.004660
  0
VERTEX
  8
NC_Symbol-B
 10
14.177310
 20
8.915500
 30
0.0
  0
VERTEX
  8
NC_Symbol-B
 10
14.177310
 20
8.915500
 30
0.0
 42
0.042923
  0
VERTEX
  8
NC_Symbol-B
 10
14.200520
 20
8.918190
 30
0.0
  0
VERTEX
  8
NC_Symbol-B
 10
14.200520
 20
8.918190
 30
0.0
 42
0.066501
  0
VERTEX
  8
NC_Symbol-B
 10
14.285100
 20
8.947520
 30
0.0
  0
VERTEX
  8
NC_Symbol-B
 10
14.285100
 20
8.947520
 30
0.0
 42
0.073334
  0
VERTEX
  8
NC_Symbol-B
 10
14.355930
 20
8.997340
 30
0.0
  0
VERTEX
  8
NC_Symbol-B
 10
14.355930
 20
8.997340
 30
0.0
 42
0.073693
  0
VERTEX
  8
NC_Symbol-B
 10
14.409110
 20
9.065260
 30
0.0
  0
VERTEX
  8
NC_Symbol-B
 10
14.409110
 20
9.065260
 30
0.0
 42
0.067628
  0
VERTEX
  8
NC_Symbol-B
 10
14.441930
 20
9.146920
 30
0.0
  0
VERTEX
  8
NC_Symbol-B
 10
14.441930
 20
9.146920
 30
0.0
 42
-0.006064
  0
VERTEX
  8
NC_Symbol-B
 10
14.442070
 20
9.147510
 30
0.0
  0
VERTEX
  8
NC_Symbol-B
 10
14.442070
 20
9.147510
 30
0.0
 42
0.058834
  0
VERTEX
  8
NC_Symbol-B
 10
14.444690
 20
9.167960
 30
0.0
  0
VERTEX
  8
NC_Symbol-B
 10
14.444690
 20
9.167960
 30
0.0
 42
0.000865
  0
VERTEX
  8
NC_Symbol-B
 10
14.445690
 20
9.289820
 30
0.0
  0
VERTEX
  8
NC_Symbol-B
 10
14.445690
 20
9.289820
 30
0.0
 42
0.001112
  0
VERTEX
  8
NC_Symbol-B
 10
14.446550
 20
9.490790
 30
0.0
  0
VERTEX
  8
NC_Symbol-B
 10
14.446550
 20
9.490790
 30
0.0
 42
0.000110
  0
VERTEX
  8
NC_Symbol-B
 10
14.447440
 20
9.973750
 30
0.0
  0
VERTEX
  8
NC_Symbol-B
 10
14.448710
 20
10.758850
 30
0.0
 42
-0.413044
  0
VERTEX
  8
NC_Symbol-B
 10
14.473650
 20
10.783810
 30
0.0
  0
VERTEX
  8
NC_Symbol-B
 10
14.723200
 20
10.784390
 30
0.0
 42
-0.000430
  0
VERTEX
  8
NC_Symbol-B
 10
14.867420
 20
10.784600
 30
0.0
  0
VERTEX
  8
NC_Symbol-B
 10
14.867420
 20
10.784600
 30
0.0
 42
-0.002473
  0
VERTEX
  8
NC_Symbol-B
 10
14.943480
 20
10.784260
 30
0.0
  0
VERTEX
  8
NC_Symbol-B
 10
14.943480
 20
10.784260
 30
0.0
 42
-0.002300
  0
VERTEX
  8
NC_Symbol-B
 10
14.943710
 20
10.784260
 30
0.0
  0
VERTEX
  8
NC_Symbol-B
 10
14.943710
 20
10.784260
 30
0.0
 42
-0.000398
  0
VERTEX
  8
NC_Symbol-B
 10
14.974660
 20
10.783940
 30
0.0
  0
VERTEX
  8
NC_Symbol-B
 10
14.974660
 20
10.783940
 30
0.0
 42
-0.410954
  0
VERTEX
  8
NC_Symbol-B
 10
14.999390
 20
10.758950
 30
0.0
  0
VERTEX
  8
NC_Symbol-B
 10
14.999510
 20
10.538330
 30
0.0
 42
-0.000233
  0
VERTEX
  8
NC_Symbol-B
 10
14.999520
 20
10.272530
 30
0.0
  0
VERTEX
  8
NC_Symbol-B
 10
14.999520
 20
10.272530
 30
0.0
 42
-0.000141
  0
VERTEX
  8
NC_Symbol-B
 10
14.999300
 20
9.957430
 30
0.0
  0
VERTEX
  8
NC_Symbol-B
 10
14.999300
 20
9.957430
 30
0.0
 42
-0.000124
  0
VERTEX
  8
NC_Symbol-B
 10
14.998550
 20
9.350830
 30
0.0
  0
VERTEX
  8
NC_Symbol-B
 10
14.998550
 20
9.350830
 30
0.0
 42
-0.003578
  0
VERTEX
  8
NC_Symbol-B
 10
14.997210
 20
9.194910
 30
0.0
  0
VERTEX
  8
NC_Symbol-B
 10
14.997210
 20
9.194910
 30
0.0
 42
-0.014505
  0
VERTEX
  8
NC_Symbol-B
 10
14.993500
 20
9.112210
 30
0.0
  0
VERTEX
  8
NC_Symbol-B
 10
14.993500
 20
9.112210
 30
0.0
 42
-0.028311
  0
VERTEX
  8
NC_Symbol-B
 10
14.984920
 20
9.046800
 30
0.0
  0
VERTEX
  8
NC_Symbol-B
 10
14.984920
 20
9.046800
 30
0.0
 42
-0.061805
  0
VERTEX
  8
NC_Symbol-B
 10
14.923030
 20
8.853910
 30
0.0
  0
VERTEX
  8
NC_Symbol-B
 10
14.923030
 20
8.853910
 30
0.0
 42
-0.060446
  0
VERTEX
  8
NC_Symbol-B
 10
14.815530
 20
8.680400
 30
0.0
  0
VERTEX
  8
NC_Symbol-B
 10
14.815530
 20
8.680400
 30
0.0
 42
-0.060287
  0
VERTEX
  8
NC_Symbol-B
 10
14.669370
 20
8.537260
 30
0.0
  0
VERTEX
  8
NC_Symbol-B
 10
14.669370
 20
8.537260
 30
0.0
 42
-0.060895
  0
VERTEX
  8
NC_Symbol-B
 10
14.493750
 20
8.433680
 30
0.0
  0
VERTEX
  8
NC_Symbol-B
 10
14.493750
 20
8.433680
 30
0.0
 42
-0.020889
  0
VERTEX
  8
NC_Symbol-B
 10
14.430450
 20
8.409170
 30
0.0
  0
VERTEX
  8
NC_Symbol-B
 10
14.430450
 20
8.409170
 30
0.0
 42
-0.018966
  0
VERTEX
  8
NC_Symbol-B
 10
14.363260
 20
8.389140
 30
0.0
  0
VERTEX
  8
NC_Symbol-B
 10
14.363260
 20
8.389140
 30
0.0
 42
-0.018969
  0
VERTEX
  8
NC_Symbol-B
 10
14.294750
 20
8.374260
 30
0.0
  0
VERTEX
  8
NC_Symbol-B
 10
14.294750
 20
8.374260
 30
0.0
 42
-0.020906
  0
VERTEX
  8
NC_Symbol-B
 10
14.227510
 20
8.365180
 30
0.0
  0
VERTEX
  8
NC_Symbol-B
 10
14.227510
 20
8.365180
 30
0.0
 42
-0.020934
  0
VERTEX
  8
NC_Symbol-B
 10
14.202810
 20
8.363930
 30
0.0
  0
VERTEX
  8
NC_Symbol-B
 10
14.202810
 20
8.363930
 30
0.0
 42
-0.002300
  0
VERTEX
  8
NC_Symbol-B
 10
14.202580
 20
8.363930
 30
0.0
  0
VERTEX
  8
NC_Symbol-B
 10
14.202580
 20
8.363930
 30
0.0
 42
-0.000656
  0
VERTEX
  8
NC_Symbol-B
 10
14.101850
 20
8.363190
 30
0.0
  0
VERTEX
  8
NC_Symbol-B
 10
14.101850
 20
8.363190
 30
0.0
 42
-0.001080
  0
VERTEX
  8
NC_Symbol-B
 10
13.968810
 20
8.362680
 30
0.0
  0
SEQEND
  0
POLYLINE
  8
HOLE_1_4
 66
   1
 10
0.0
 20
0.0
 30
0.0
 70
   1
  0
VERTEX
  8
HOLE_1_4
 10
1.860000
 20
31.750000
 30
0.0
 42
1.000000
  0
VERTEX
  8
HOLE_1_4
 10
0.960000
 20
31.750000
 30
0.0
 42
1.000000
  0
VERTEX
  8
HOLE_1_4
 10
1.860000
 20
31.750000
 30
0.0
  0
SEQEND
  0
POLYLINE
  8
HOLE_1_4
 66
   1
 10
0.0
 20
0.0
 30
0.0
 70
   1
  0
VERTEX
  8
HOLE_1_4
 10
1.860000
 20
29.210000
 30
0.0
 42
1.000000
  0
VERTEX
  8
HOLE_1_4
 10
0.960000
 20
29.210000
 30
0.0
 42
1.000000
  0
VERTEX
  8
HOLE_1_4
 10
1.860000
 20
29.210000
 30
0.0
  0
SEQEND
  0
POLYLINE
  8
HOLE_1_4
 66
   1
 10
0.0
 20
0.0
 30
0.0
 70
   1
  0
VERTEX
  8
HOLE_1_4
 10
1.860000
 20
26.670000
 30
0.0
 42
1.000000
  0
VERTEX
  8
HOLE_1_4
 10
0.960000
 20
26.670000
 30
0.0
 42
1.000000
  0
VERTEX
  8
HOLE_1_4
 10
1.860000
 20
26.670000
 30
0.0
  0
SEQEND
  0
POLYLINE
  8
HOLE_1_4
 66
   1
 10
0.0
 20
0.0
 30
0.0
 70
   1
  0
VERTEX
  8
HOLE_1_4
 10
1.860000
 20
24.130000
 30
0.0
 42
1.000000
  0
VERTEX
  8
HOLE_1_4
 10
0.960000
 20
24.130000
 30
0.0
 42
1.000000
  0
VERTEX
  8
HOLE_1_4
 10
1.860000
 20
24.130000
 30
0.0
  0
SEQEND
  0
POLYLINE
  8
HOLE_1_4
 66
   1
 10
0.0
 20
0.0
 30
0.0
 70
   1
  0
VERTEX
  8
HOLE_1_4
 10
1.860000
 20
21.590000
 30
0.0
 42
1.000000
  0
VERTEX
  8
HOLE_1_4
 10
0.960000
 20
21.590000
 30
0.0
 42
1.000000
  0
VERTEX
  8
HOLE_1_4
 10
1.860000
 20
21.590000
 30
0.0
  0
SEQEND
  0
POLYLINE
  8
HOLE_1_4
 66
   1
 10
0.0
 20
0.0
 30
0.0
 70
   1
  0
VERTEX
  8
HOLE_1_4
 10
1.860000
 20
19.050000
 30
0.0
 42
1.000000
  0
VERTEX
  8
HOLE_1_4
 10
0.960000
 20
19.050000
 30
0.0
 42
1.000000
  0
VERTEX
  8
HOLE_1_4
 10
1.860000
 20
19.050000
 30
0.0
  0
SEQEND
  0
POLYLINE
  8
HOLE_1_4
 66
   1
 10
0.0
 20
0.0
 30
0.0
 70
   1
  0
VERTEX
  8
HOLE_1_4
 10
1.860000
 20
16.510000
 30
0.0
 42
1.000000
  0
VERTEX
  8
HOLE_1_4
 10
0.960000
 20
16.510000
 30
0.0
 42
1.000000
  0
VERTEX
  8
HOLE_1_4
 10
1.860000
 20
16.510000
 30
0.0
  0
SEQEND
  0
POLYLINE
  8
HOLE_1_4
 66
   1
 10
0.0
 20
0.0
 30
0.0
 70
   1
  0
VERTEX
  8
HOLE_1_4
 10
1.860000
 20
13.970000
 30
0.0
 42
1.000000
  0
VERTEX
  8
HOLE_1_4
 10
0.960000
 20
13.970000
 30
0.0
 42
1.000000
  0
VERTEX
  8
HOLE_1_4
 10
1.860000
 20
13.970000
 30
0.0
  0
SEQEND
  0
POLYLINE
  8
HOLE_1_4
 66
   1
 10
0.0
 20
0.0
 30
0.0
 70
   1
  0
VERTEX
  8
HOLE_1_4
 10
1.860000
 20
11.430000
 30
0.0
 42
1.000000
  0
VERTEX
  8
HOLE_1_4
 10
0.960000
 20
11.430000
 30
0.0
 42
1.000000
  0
VERTEX
  8
HOLE_1_4
 10
1.860000
 20
11.430000
 30
0.0
  0
SEQEND
  0
POLYLINE
  8
HOLE_1_4
 66
   1
 10
0.0
 20
0.0
 30
0.0
 70
   1
  0
VERTEX
  8
HOLE_1_4
 10
1.860000
 20
8.890000
 30
0.0
 42
1.000000
  0
VERTEX
  8
HOLE_1_4
 10
0.960000
 20
8.890000
 30
0.0
 42
1.000000
  0
VERTEX
  8
HOLE_1_4
 10
1.860000
 20
8.890000
 30
0.0
  0
SEQEND
  0
POLYLINE
  8
HOLE_1_4
 66
   1
 10
0.0
 20
0.0
 30
0.0
 70
   1
  0
VERTEX
  8
HOLE_1_4
 10
1.860000
 20
6.350000
 30
0.0
 42
1.000000
  0
VERTEX
  8
HOLE_1_4
 10
0.960000
 20
6.350000
 30
0.0
 42
1.000000
  0
VERTEX
  8
HOLE_1_4
 10
1.860000
 20
6.350000
 30
0.0
  0
SEQEND
  0
POLYLINE
  8
HOLE_1_4
 66
   1
 10
0.0
 20
0.0
 30
0.0
 70
   1
  0
VERTEX
  8
HOLE_1_4
 10
1.860000
 20
3.810000
 30
0.0
 42
1.000000
  0
VERTEX
  8
HOLE_1_4
 10
0.960000
 20
3.810000
 30
0.0
 42
1.000000
  0
VERTEX
  8
HOLE_1_4
 10
1.860000
 20
3.810000
 30
0.0
  0
SEQEND
  0
POLYLINE
  8
HOLE_1_4
 66
   1
 10
0.0
 20
0.0
 30
0.0
 70
   1
  0
VERTEX
  8
HOLE_1_4
 10
1.860000
 20
1.270000
 30
0.0
 42
1.000000
  0
VERTEX
  8
HOLE_1_4
 10
0.960000
 20
1.270000
 30
0.0
 42
1.000000
  0
VERTEX
  8
HOLE_1_4
 10
1.860000
 20
1.270000
 30
0.0
  0
SEQEND
  0
POLYLINE
  8
NC_Symbol-B
 66
   1
 10
0.0
 20
0.0
 30
0.0
 70
   1
  0
VERTEX
  8
NC_Symbol-B
 10
3.344330
 20
31.887430
 30
0.0
 42
-1.000000
  0
VERTEX
  8
NC_Symbol-B
 10
3.417930
 20
31.756730
 30
0.0
  0
VERTEX
  8
NC_Symbol-B
 10
3.210380
 20
31.639840
 30
0.0
 42
-1.000000
  0
VERTEX
  8
NC_Symbol-B
 10
3.136780
 20
31.770540
 30
0.0
  0
SEQEND
  0
POLYLINE
  8
NC_Symbol-B
 66
   1
 10
0.0
 20
0.0
 30
0.0
 70
   1
  0
VERTEX
  8
NC_Symbol-B
 10
3.173580
 20
31.630190
 30
0.0
 42
-1.000000
  0
VERTEX
  8
NC_Symbol-B
 10
3.173580
 20
31.780190
 30
0.0
  0
VERTEX
  8
NC_Symbol-B
 10
3.900000
 20
31.780190
 30
0.0
 42
-1.000000
  0
VERTEX
  8
NC_Symbol-B
 10
3.900000
 20
31.630190
 30
0.0
  0
SEQEND
  0
POLYLINE
  8
NC_Symbol-B
 66
   1
 10
0.0
 20
0.0
 30
0.0
 70
   1
  0
VERTEX
  8
NC_Symbol-B
 10
2.810000
 20
-0.030000
 30
0.0
 42
-0.414214
  0
VERTEX
  8
NC_Symbol-B
 10
2.710000
 20
-0.130000
 30
0.0
  0
VERTEX
  8
NC_Symbol-B
 10
0.110000
 20
-0.130000
 30
0.0
 42
-0.414214
  0
VERTEX
  8
NC_Symbol-B
 10
0.010000
 20
-0.030000
 30
0.0
  0
VERTEX
  8
NC_Symbol-B
 10
0.010000
 20
33.050000
 30
0.0
 42
-0.414214
  0
VERTEX
  8
NC_Symbol-B
 10
0.110000
 20
33.150000
 30
0.0
  0
VERTEX
  8
NC_Symbol-B
 10
2.710000
 20
33.150000
 30
0.0
 42
-0.414214
  0
VERTEX
  8
NC_Symbol-B
 10
2.810000
 20
33.050000
 30
0.0
  0
SEQEND
  0
POLYLINE
  8
NC_Symbol-B
 66
   1
 10
0.0
 20
0.0
 30
0.0
 70
   1
  0
VERTEX
  8
NC_Symbol-B
 10
1.410000
 20
25.230000
 30
0.0
 42
1.000000
  0
VERTEX
  8
NC_Symbol-B
 10
1.410000
 20
23.030000
 30
0.0
 42
1.000000
  0
VERTEX
  8
NC_Symbol-B
 10
1.410000
 20
25.230000
 30
0.0
  0
SEQEND
  0
POLYLINE
  8
NC_Symbol-B
 66
   1
 10
0.0
 20
0.0
 30
0.0
 70
   1
  0
VERTEX
  8
NC_Symbol-B
 10
1.410000
 20
27.770000
 30
0.0
 42
1.000000
  0
VERTEX
  8
NC_Symbol-B
 10
1.410000
 20
25.570000
 30
0.0
 42
1.000000
  0
VERTEX
  8
NC_Symbol-B
 10
1.410000
 20
27.770000
 30
0.0
  0
SEQEND
  0
POLYLINE
  8
NC_Symbol-B
 66
   1
 10
0.0
 20
0.0
 30
0.0
 70
   1
  0
VERTEX
  8
NC_Symbol-B
 10
1.410000
 20
32.850000
 30
0.0
 42
1.000000
  0
VERTEX
  8
NC_Symbol-B
 10
1.410000
 20
30.650000
 30
0.0
 42
1.000000
  0
VERTEX
  8
NC_Symbol-B
 10
1.410000
 20
32.850000
 30
0.0
  0
SEQEND
  0
POLYLINE
  8
NC_Symbol-B
 66
   1
 10
0.0
 20
0.0
 30
0.0
 70
   1
  0
VERTEX
  8
NC_Symbol-B
 10
1.410000
 20
30.310000
 30
0.0
 42
1.000000
  0
VERTEX
  8
NC_Symbol-B
 10
1.410000
 20
28.110000
 30
0.0
 42
1.000000
  0
VERTEX
  8
NC_Symbol-B
 10
1.410000
 20
30.310000
 30
0.0
  0
SEQEND
  0
POLYLINE
  8
NC_Symbol-B
 66
   1
 10
0.0
 20
0.0
 30
0.0
 70
   1
  0
VERTEX
  8
NC_Symbol-B
 10
1.410000
 20
22.690000
 30
0.0
 42
1.000000
  0
VERTEX
  8
NC_Symbol-B
 10
1.410000
 20
20.490000
 30
0.0
 42
1.000000
  0
VERTEX
  8
NC_Symbol-B
 10
1.410000
 20
22.690000
 30
0.0
  0
SEQEND
  0
POLYLINE
  8
NC_Symbol-B
 66
   1
 10
0.0
 20
0.0
 30
0.0
 70
   1
  0
VERTEX
  8
NC_Symbol-B
 10
1.410000
 20
20.150000
 30
0.0
 42
1.000000
  0
VERTEX
  8
NC_Symbol-B
 10
1.410000
 20
17.950000
 30
0.0
 42
1.000000
  0
VERTEX
  8
NC_Symbol-B
 10
1.410000
 20
20.150000
 30
0.0
  0
SEQEND
  0
POLYLINE
  8
NC_Symbol-B
 66
   1
 10
0.0
 20
0.0
 30
0.0
 70
   1
  0
VERTEX
  8
NC_Symbol-B
 10
1.410000
 20
17.610000
 30
0.0
 42
1.000000
  0
VERTEX
  8
NC_Symbol-B
 10
1.410000
 20
15.410000
 30
0.0
 42
1.000000
  0
VERTEX
  8
NC_Symbol-B
 10
1.410000
 20
17.610000
 30
0.0
  0
SEQEND
  0
POLYLINE
  8
NC_Symbol-B
 66
   1
 10
0.0
 20
0.0
 30
0.0
 70
   1
  0
VERTEX
  8
NC_Symbol-B
 10
1.410000
 20
15.070000
 30
0.0
 42
1.000000
  0
VERTEX
  8
NC_Symbol-B
 10
1.410000
 20
12.870000
 30
0.0
 42
1.000000
  0
VERTEX
  8
NC_Symbol-B
 10
1.410000
 20
15.070000
 30
0.0
  0
SEQEND
  0
POLYLINE
  8
NC_Symbol-B
 66
   1
 10
0.0
 20
0.0
 30
0.0
 70
   1
  0
VERTEX
  8
NC_Symbol-B
 10
1.410000
 20
12.530000
 30
0.0
 42
1.000000
  0
VERTEX
  8
NC_Symbol-B
 10
1.410000
 20
10.330000
 30
0.0
 42
1.000000
  0
VERTEX
  8
NC_Symbol-B
 10
1.410000
 20
12.530000
 30
0.0
  0
SEQEND
  0
POLYLINE
  8
NC_Symbol-B
 66
   1
 10
0.0
 20
0.0
 30
0.0
 70
   1
  0
VERTEX
  8
NC_Symbol-B
 10
1.410000
 20
9.990000
 30
0.0
 42
1.000000
  0
VERTEX
  8
NC_Symbol-B
 10
1.410000
 20
7.790000
 30
0.0
 42
1.000000
  0
VERTEX
  8
NC_Symbol-B
 10
1.410000
 20
9.990000
 30
0.0
  0
SEQEND
  0
POLYLINE
  8
NC_Symbol-B
 66
   1
 10
0.0
 20
0.0
 30
0.0
 70
   1
  0
VERTEX
  8
NC_Symbol-B
 10
1.410000
 20
7.450000
 30
0.0
 42
1.000000
  0
VERTEX
  8
NC_Symbol-B
 10
1.410000
 20
5.250000
 30
0.0
 42
1.000000
  0
VERTEX
  8
NC_Symbol-B
 10
1.410000
 20
7.450000
 30
0.0
  0
SEQEND
  0
POLYLINE
  8
NC_Symbol-B
 66
   1
 10
0.0
 20
0.0
 30
0.0
 70
   1
  0
VERTEX
  8
NC_Symbol-B
 10
1.410000
 20
4.910000
 30
0.0
 42
1.000000
  0
VERTEX
  8
NC_Symbol-B
 10
1.410000
 20
2.710000
 30
0.0
 42
1.000000
  0
VERTEX
  8
NC_Symbol-B
 10
1.410000
 20
4.910000
 30
0.0
  0
SEQEND
  0
POLYLINE
  8
NC_Symbol-B
 66
   1
 10
0.0
 20
0.0
 30
0.0
 70
   1
  0
VERTEX
  8
NC_Symbol-B
 10
1.410000
 20
2.370000
 30
0.0
 42
1.000000
  0
VERTEX
  8
NC_Symbol-B
 10
1.410000
 20
0.170000
 30
0.0
 42
1.000000
  0
VERTEX
  8
NC_Symbol-B
 10
1.410000
 20
2.370000
 30
0.0
  0
SEQEND
  0
POLYLINE
  8
NC_Symbol-B
 66
   1
 10
0.0
 20
0.0
 30
0.0
 70
   1
  0
VERTEX
  8
NC_Symbol-B
 10
3.344330
 20
2.087430
 30
0.0
 42
-1.000000
  0
VERTEX
  8
NC_Symbol-B
 10
3.417930
 20
1.956730
 30
0.0
  0
VERTEX
  8
NC_Symbol-B
 10
3.210380
 20
1.839840
 30
0.0
 42
-1.000000
  0
VERTEX
  8
NC_Symbol-B
 10
3.136780
 20
1.970540
 30
0.0
  0
SEQEND
  0
POLYLINE
  8
NC_Symbol-B
 66
   1
 10
0.0
 20
0.0
 30
0.0
 70
   1
  0
VERTEX
  8
NC_Symbol-B
 10
3.173580
 20
1.830190
 30
0.0
 42
-1.000000
  0
VERTEX
  8
NC_Symbol-B
 10
3.173580
 20
1.980190
 30
0.0
  0
VERTEX
  8
NC_Symbol-B
 10
3.900000
 20
1.980190
 30
0.0
 42
-1.000000
  0
VERTEX
  8
NC_Symbol-B
 10
3.900000
 20
1.830190
 30
0.0
  0
SEQEND
  0
POLYLINE
  8
NC_Symbol-B
 66
   1
 10
0.0
 20
0.0
 30
0.0
 70
   1
  0
VERTEX
  8
NC_Symbol-B
 10
3.278910
 20
1.560510
 30
0.0
 42
-1.000000
  0
VERTEX
  8
NC_Symbol-B
 10
3.351270
 20
1.429110
 30
0.0
  0
VERTEX
  8
NC_Symbol-B
 10
3.303380
 20
1.402740
 30
0.0
  0
VERTEX
  8
NC_Symbol-B
 10
3.268010
 20
1.368650
 30
0.0
  0
VERTEX
  8
NC_Symbol-B
 10
3.248580
 20
1.304480
 30
0.0
  0
VERTEX
  8
NC_Symbol-B
 10
3.248580
 20
1.207650
 30
0.0
  0
VERTEX
  8
NC_Symbol-B
 10
3.269650
 20
1.120680
 30
0.0
  0
VERTEX
  8
NC_Symbol-B
 10
3.303380
 20
1.088170
 30
0.0
  0
VERTEX
  8
NC_Symbol-B
 10
3.334380
 20
1.071100
 30
0.0
  0
VERTEX
  8
NC_Symbol-B
 10
3.380710
 20
1.071100
 30
0.0
  0
VERTEX
  8
NC_Symbol-B
 10
3.414260
 20
1.089580
 30
0.0
  0
VERTEX
  8
NC_Symbol-B
 10
3.423780
 20
1.097440
 30
0.0
  0
VERTEX
  8
NC_Symbol-B
 10
3.438210
 20
1.129220
 30
0.0
  0
VERTEX
  8
NC_Symbol-B
 10
3.438210
 20
1.292210
 30
0.0
 42
-1.000000
  0
VERTEX
  8
NC_Symbol-B
 10
3.588210
 20
1.292210
 30
0.0
  0
VERTEX
  8
NC_Symbol-B
 10
3.588210
 20
1.112990
 30
0.0
 42
-0.106935
  0
VERTEX
  8
NC_Symbol-B
 10
3.581500
 20
1.081990
 30
0.0
  0
VERTEX
  8
NC_Symbol-B
 10
3.553200
 20
1.019650
 30
0.0
 42
-0.114077
  0
VERTEX
  8
NC_Symbol-B
 10
3.532670
 20
0.992820
 30
0.0
  0
VERTEX
  8
NC_Symbol-B
 10
3.504360
 20
0.969440
 30
0.0
 42
-0.046773
  0
VERTEX
  8
NC_Symbol-B
 10
3.492780
 20
0.961570
 30
0.0
  0
VERTEX
  8
NC_Symbol-B
 10
3.436180
 20
0.930400
 30
0.0
 42
-0.126514
  0
VERTEX
  8
NC_Symbol-B
 10
3.400000
 20
0.921100
 30
0.0
  0
VERTEX
  8
NC_Symbol-B
 10
3.315090
 20
0.921100
 30
0.0
 42
-0.126514
  0
VERTEX
  8
NC_Symbol-B
 10
3.278910
 20
0.930400
 30
0.0
  0
VERTEX
  8
NC_Symbol-B
 10
3.222310
 20
0.961570
 30
0.0
 42
-0.066009
  0
VERTEX
  8
NC_Symbol-B
 10
3.206440
 20
0.973270
 30
0.0
  0
VERTEX
  8
NC_Symbol-B
 10
3.149840
 20
1.027820
 30
0.0
 42
-0.142473
  0
VERTEX
  8
NC_Symbol-B
 10
3.129000
 20
1.064160
 30
0.0
  0
VERTEX
  8
NC_Symbol-B
 10
3.100690
 20
1.181040
 30
0.0
 42
-0.059495
  0
VERTEX
  8
NC_Symbol-B
 10
3.098580
 20
1.198700
 30
0.0
  0
VERTEX
  8
NC_Symbol-B
 10
3.098580
 20
1.315580
 30
0.0
 42
-0.073621
  0
VERTEX
  8
NC_Symbol-B
 10
3.101800
 20
1.337310
 30
0.0
  0
VERTEX
  8
NC_Symbol-B
 10
3.130110
 20
1.430820
 30
0.0
 42
-0.128149
  0
VERTEX
  8
NC_Symbol-B
 10
3.149840
 20
1.463090
 30
0.0
  0
VERTEX
  8
NC_Symbol-B
 10
3.206440
 20
1.517640
 30
0.0
 42
-0.066009
  0
VERTEX
  8
NC_Symbol-B
 10
3.222310
 20
1.529340
 30
0.0
  0
SEQEND
  0
POLYLINE
  8
NC_Symbol-B
 66
   1
 10
0.0
 20
0.0
 30
0.0
 70
   1
  0
VERTEX
  8
NC_Symbol-B
 10
3.439960
 20
1.096870
 30
0.0
 42
-1.000000
  0
VERTEX
  8
NC_Symbol-B
 10
3.586460
 20
1.129110
 30
0.0
  0
VERTEX
  8
NC_Symbol-B
 10
3.599250
 20
1.071000
 30
0.0
  0
VERTEX
  8
NC_Symbol-B
 10
3.641560
 20
1.039940
 30
0.0
  0
VERTEX
  8
NC_Symbol-B
 10
3.716860
 20
1.039940
 30
0.0
  0
VERTEX
  8
NC_Symbol-B
 10
3.774420
 20
1.061070
 30
0.0
  0
VERTEX
  8
NC_Symbol-B
 10
3.802510
 20
1.088130
 30
0.0
  0
VERTEX
  8
NC_Symbol-B
 10
3.825000
 20
1.205800
 30
0.0
  0
VERTEX
  8
NC_Symbol-B
 10
3.825000
 20
1.304480
 30
0.0
  0
VERTEX
  8
NC_Symbol-B
 10
3.806980
 20
1.364020
 30
0.0
  0
VERTEX
  8
NC_Symbol-B
 10
3.713220
 20
1.435020
 30
0.0
 42
-1.000000
  0
VERTEX
  8
NC_Symbol-B
 10
3.803760
 20
1.554600
 30
0.0
  0
VERTEX
  8
NC_Symbol-B
 10
3.916970
 20
1.468880
 30
0.0
 42
-0.158522
  0
VERTEX
  8
NC_Symbol-B
 10
3.943480
 20
1.430810
 30
0.0
  0
VERTEX
  8
NC_Symbol-B
 10
3.971780
 20
1.337300
 30
0.0
 42
-0.073588
  0
VERTEX
  8
NC_Symbol-B
 10
3.975000
 20
1.315580
 30
0.0
  0
VERTEX
  8
NC_Symbol-B
 10
3.975000
 20
1.198700
 30
0.0
 42
-0.047247
  0
VERTEX
  8
NC_Symbol-B
 10
3.973670
 20
1.184620
 30
0.0
  0
VERTEX
  8
NC_Symbol-B
 10
3.945370
 20
1.036570
 30
0.0
 42
-0.155011
  0
VERTEX
  8
NC_Symbol-B
 10
3.923740
 20
0.996640
 30
0.0
  0
VERTEX
  8
NC_Symbol-B
 10
3.867130
 20
0.942090
 30
0.0
 42
-0.104149
  0
VERTEX
  8
NC_Symbol-B
 10
3.840930
 20
0.925690
 30
0.0
  0
VERTEX
  8
NC_Symbol-B
 10
3.756030
 20
0.894530
 30
0.0
 42
-0.088162
  0
VERTEX
  8
NC_Symbol-B
 10
3.730190
 20
0.889940
 30
0.0
  0
VERTEX
  8
NC_Symbol-B
 10
3.616980
 20
0.889940
 30
0.0
 42
-0.159638
  0
VERTEX
  8
NC_Symbol-B
 10
3.572600
 20
0.904480
 30
0.0
  0
VERTEX
  8
NC_Symbol-B
 10
3.487700
 20
0.966810
 30
0.0
 42
-0.182225
  0
VERTEX
  8
NC_Symbol-B
 10
3.458830
 20
1.011150
 30
0.0
  0
SEQEND
  0
POLYLINE
  8
NC_Resist-B
 66
   1
 10
0.0
 20
0.0
 30
0.0
 70
   1
  0
VERTEX
  8
NC_Resist-B
 10
2.310000
 20
31.750000
 30
0.0
 42
1.000000
  0
VERTEX
  8
NC_Resist-B
 10
0.510000
 20
31.750000
 30
0.0
 42
1.000000
  0
VERTEX
  8
NC_Resist-B
 10
2.310000
 20
31.750000
 30
0.0
  0
SEQEND
  0
POLYLINE
  8
NC_Resist-B
 66
   1
 10
0.0
 20
0.0
 30
0.0
 70
   1
  0
VERTEX
  8
NC_Resist-B
 10
2.310000
 20
29.210000
 30
0.0
 42
1.000000
  0
VERTEX
  8
NC_Resist-B
 10
0.510000
 20
29.210000
 30
0.0
 42
1.000000
  0
VERTEX
  8
NC_Resist-B
 10
2.310000
 20
29.210000
 30
0.0
  0
SEQEND
  0
POLYLINE
  8
NC_Resist-B
 66
   1
 10
0.0
 20
0.0
 30
0.0
 70
   1
  0
VERTEX
  8
NC_Resist-B
 10
2.310000
 20
26.670000
 30
0.0
 42
1.000000
  0
VERTEX
  8
NC_Resist-B
 10
0.510000
 20
26.670000
 30
0.0
 42
1.000000
  0
VERTEX
  8
NC_Resist-B
 10
2.310000
 20
26.670000
 30
0.0
  0
SEQEND
  0
POLYLINE
  8
NC_Resist-B
 66
   1
 10
0.0
 20
0.0
 30
0.0
 70
   1
  0
VERTEX
  8
NC_Resist-B
 10
2.310000
 20
24.130000
 30
0.0
 42
1.000000
  0
VERTEX
  8
NC_Resist-B
 10
0.510000
 20
24.130000
 30
0.0
 42
1.000000
  0
VERTEX
  8
NC_Resist-B
 10
2.310000
 20
24.130000
 30
0.0
  0
SEQEND
  0
POLYLINE
  8
NC_Resist-B
 66
   1
 10
0.0
 20
0.0
 30
0.0
 70
   1
  0
VERTEX
  8
NC_Resist-B
 10
2.310000
 20
21.590000
 30
0.0
 42
1.000000
  0
VERTEX
  8
NC_Resist-B
 10
0.510000
 20
21.590000
 30
0.0
 42
1.000000
  0
VERTEX
  8
NC_Resist-B
 10
2.310000
 20
21.590000
 30
0.0
  0
SEQEND
  0
POLYLINE
  8
NC_Resist-B
 66
   1
 10
0.0
 20
0.0
 30
0.0
 70
   1
  0
VERTEX
  8
NC_Resist-B
 10
2.310000
 20
19.050000
 30
0.0
 42
1.000000
  0
VERTEX
  8
NC_Resist-B
 10
0.510000
 20
19.050000
 30
0.0
 42
1.000000
  0
VERTEX
  8
NC_Resist-B
 10
2.310000
 20
19.050000
 30
0.0
  0
SEQEND
  0
POLYLINE
  8
NC_Resist-B
 66
   1
 10
0.0
 20
0.0
 30
0.0
 70
   1
  0
VERTEX
  8
NC_Resist-B
 10
2.310000
 20
16.510000
 30
0.0
 42
1.000000
  0
VERTEX
  8
NC_Resist-B
 10
0.510000
 20
16.510000
 30
0.0
 42
1.000000
  0
VERTEX
  8
NC_Resist-B
 10
2.310000
 20
16.510000
 30
0.0
  0
SEQEND
  0
POLYLINE
  8
NC_Resist-B
 66
   1
 10
0.0
 20
0.0
 30
0.0
 70
   1
  0
VERTEX
  8
NC_Resist-B
 10
2.310000
 20
13.970000
 30
0.0
 42
1.000000
  0
VERTEX
  8
NC_Resist-B
 10
0.510000
 20
13.970000
 30
0.0
 42
1.000000
  0
VERTEX
  8
NC_Resist-B
 10
2.310000
 20
13.970000
 30
0.0
  0
SEQEND
  0
POLYLINE
  8
NC_Resist-B
 66
   1
 10
0.0
 20
0.0
 30
0.0
 70
   1
  0
VERTEX
  8
NC_Resist-B
 10
2.310000
 20
11.430000
 30
0.0
 42
1.000000
  0
VERTEX
  8
NC_Resist-B
 10
0.510000
 20
11.430000
 30
0.0
 42
1.000000
  0
VERTEX
  8
NC_Resist-B
 10
2.310000
 20
11.430000
 30
0.0
  0
SEQEND
  0
POLYLINE
  8
NC_Resist-B
 66
   1
 10
0.0
 20
0.0
 30
0.0
 70
   1
  0
VERTEX
  8
NC_Resist-B
 10
2.310000
 20
8.890000
 30
0.0
 42
1.000000
  0
VERTEX
  8
NC_Resist-B
 10
0.510000
 20
8.890000
 30
0.0
 42
1.000000
  0
VERTEX
  8
NC_Resist-B
 10
2.310000
 20
8.890000
 30
0.0
  0
SEQEND
  0
POLYLINE
  8
NC_Resist-B
 66
   1
 10
0.0
 20
0.0
 30
0.0
 70
   1
  0
VERTEX
  8
NC_Resist-B
 10
2.310000
 20
6.350000
 30
0.0
 42
1.000000
  0
VERTEX
  8
NC_Resist-B
 10
0.510000
 20
6.350000
 30
0.0
 42
1.000000
  0
VERTEX
  8
NC_Resist-B
 10
2.310000
 20
6.350000
 30
0.0
  0
SEQEND
  0
POLYLINE
  8
NC_Resist-B
 66
   1
 10
0.0
 20
0.0
 30
0.0
 70
   1
  0
VERTEX
  8
NC_Resist-B
 10
2.310000
 20
3.810000
 30
0.0
 42
1.000000
  0
VERTEX
  8
NC_Resist-B
 10
0.510000
 20
3.810000
 30
0.0
 42
1.000000
  0
VERTEX
  8
NC_Resist-B
 10
2.310000
 20
3.810000
 30
0.0
  0
SEQEND
  0
POLYLINE
  8
NC_Resist-B
 66
   1
 10
0.0
 20
0.0
 30
0.0
 70
   1
  0
VERTEX
  8
NC_Resist-B
 10
2.310000
 20
1.270000
 30
0.0
 42
1.000000
  0
VERTEX
  8
NC_Resist-B
 10
0.510000
 20
1.270000
 30
0.0
 42
1.000000
  0
VERTEX
  8
NC_Resist-B
 10
2.310000
 20
1.270000
 30
0.0
  0
SEQEND
  0
POLYLINE
  8
HOLE_1_4
 66
   1
 10
0.0
 20
0.0
 30
0.0
 70
   1
  0
VERTEX
  8
HOLE_1_4
 10
19.640000
 20
31.750000
 30
0.0
 42
1.000000
  0
VERTEX
  8
HOLE_1_4
 10
18.740000
 20
31.750000
 30
0.0
 42
1.000000
  0
VERTEX
  8
HOLE_1_4
 10
19.640000
 20
31.750000
 30
0.0
  0
SEQEND
  0
POLYLINE
  8
HOLE_1_4
 66
   1
 10
0.0
 20
0.0
 30
0.0
 70
   1
  0
VERTEX
  8
HOLE_1_4
 10
19.640000
 20
29.210000
 30
0.0
 42
1.000000
  0
VERTEX
  8
HOLE_1_4
 10
18.740000
 20
29.210000
 30
0.0
 42
1.000000
  0
VERTEX
  8
HOLE_1_4
 10
19.640000
 20
29.210000
 30
0.0
  0
SEQEND
  0
POLYLINE
  8
HOLE_1_4
 66
   1
 10
0.0
 20
0.0
 30
0.0
 70
   1
  0
VERTEX
  8
HOLE_1_4
 10
19.640000
 20
26.670000
 30
0.0
 42
1.000000
  0
VERTEX
  8
HOLE_1_4
 10
18.740000
 20
26.670000
 30
0.0
 42
1.000000
  0
VERTEX
  8
HOLE_1_4
 10
19.640000
 20
26.670000
 30
0.0
  0
SEQEND
  0
POLYLINE
  8
HOLE_1_4
 66
   1
 10
0.0
 20
0.0
 30
0.0
 70
   1
  0
VERTEX
  8
HOLE_1_4
 10
19.640000
 20
24.130000
 30
0.0
 42
1.000000
  0
VERTEX
  8
HOLE_1_4
 10
18.740000
 20
24.130000
 30
0.0
 42
1.000000
  0
VERTEX
  8
HOLE_1_4
 10
19.640000
 20
24.130000
 30
0.0
  0
SEQEND
  0
POLYLINE
  8
HOLE_1_4
 66
   1
 10
0.0
 20
0.0
 30
0.0
 70
   1
  0
VERTEX
  8
HOLE_1_4
 10
19.640000
 20
21.590000
 30
0.0
 42
1.000000
  0
VERTEX
  8
HOLE_1_4
 10
18.740000
 20
21.590000
 30
0.0
 42
1.000000
  0
VERTEX
  8
HOLE_1_4
 10
19.640000
 20
21.590000
 30
0.0
  0
SEQEND
  0
POLYLINE
  8
HOLE_1_4
 66
   1
 10
0.0
 20
0.0
 30
0.0
 70
   1
  0
VERTEX
  8
HOLE_1_4
 10
19.640000
 20
19.050000
 30
0.0
 42
1.000000
  0
VERTEX
  8
HOLE_1_4
 10
18.740000
 20
19.050000
 30
0.0
 42
1.000000
  0
VERTEX
  8
HOLE_1_4
 10
19.640000
 20
19.050000
 30
0.0
  0
SEQEND
  0
POLYLINE
  8
HOLE_1_4
 66
   1
 10
0.0
 20
0.0
 30
0.0
 70
   1
  0
VERTEX
  8
HOLE_1_4
 10
19.640000
 20
16.510000
 30
0.0
 42
1.000000
  0
VERTEX
  8
HOLE_1_4
 10
18.740000
 20
16.510000
 30
0.0
 42
1.000000
  0
VERTEX
  8
HOLE_1_4
 10
19.640000
 20
16.510000
 30
0.0
  0
SEQEND
  0
POLYLINE
  8
HOLE_1_4
 66
   1
 10
0.0
 20
0.0
 30
0.0
 70
   1
  0
VERTEX
  8
HOLE_1_4
 10
19.640000
 20
13.970000
 30
0.0
 42
1.000000
  0
VERTEX
  8
HOLE_1_4
 10
18.740000
 20
13.970000
 30
0.0
 42
1.000000
  0
VERTEX
  8
HOLE_1_4
 10
19.640000
 20
13.970000
 30
0.0
  0
SEQEND
  0
POLYLINE
  8
HOLE_1_4
 66
   1
 10
0.0
 20
0.0
 30
0.0
 70
   1
  0
VERTEX
  8
HOLE_1_4
 10
19.640000
 20
11.430000
 30
0.0
 42
1.000000
  0
VERTEX
  8
HOLE_1_4
 10
18.740000
 20
11.430000
 30
0.0
 42
1.000000
  0
VERTEX
  8
HOLE_1_4
 10
19.640000
 20
11.430000
 30
0.0
  0
SEQEND
  0
POLYLINE
  8
HOLE_1_4
 66
   1
 10
0.0
 20
0.0
 30
0.0
 70
   1
  0
VERTEX
  8
HOLE_1_4
 10
19.640000
 20
8.890000
 30
0.0
 42
1.000000
  0
VERTEX
  8
HOLE_1_4
 10
18.740000
 20
8.890000
 30
0.0
 42
1.000000
  0
VERTEX
  8
HOLE_1_4
 10
19.640000
 20
8.890000
 30
0.0
  0
SEQEND
  0
POLYLINE
  8
HOLE_1_4
 66
   1
 10
0.0
 20
0.0
 30
0.0
 70
   1
  0
VERTEX
  8
HOLE_1_4
 10
19.640000
 20
6.350000
 30
0.0
 42
1.000000
  0
VERTEX
  8
HOLE_1_4
 10
18.740000
 20
6.350000
 30
0.0
 42
1.000000
  0
VERTEX
  8
HOLE_1_4
 10
19.640000
 20
6.350000
 30
0.0
  0
SEQEND
  0
POLYLINE
  8
HOLE_1_4
 66
   1
 10
0.0
 20
0.0
 30
0.0
 70
   1
  0
VERTEX
  8
HOLE_1_4
 10
19.640000
 20
3.810000
 30
0.0
 42
1.000000
  0
VERTEX
  8
HOLE_1_4
 10
18.740000
 20
3.810000
 30
0.0
 42
1.000000
  0
VERTEX
  8
HOLE_1_4
 10
19.640000
 20
3.810000
 30
0.0
  0
SEQEND
  0
POLYLINE
  8
HOLE_1_4
 66
   1
 10
0.0
 20
0.0
 30
0.0
 70
   1
  0
VERTEX
  8
HOLE_1_4
 10
19.640000
 20
1.270000
 30
0.0
 42
1.000000
  0
VERTEX
  8
HOLE_1_4
 10
18.740000
 20
1.270000
 30
0.0
 42
1.000000
  0
VERTEX
  8
HOLE_1_4
 10
19.640000
 20
1.270000
 30
0.0
  0
SEQEND
  0
POLYLINE
  8
NC_Symbol-B
 66
   1
 10
0.0
 20
0.0
 30
0.0
 70
   1
  0
VERTEX
  8
NC_Symbol-B
 10
16.844330
 20
31.887430
 30
0.0
 42
-1.000000
  0
VERTEX
  8
NC_Symbol-B
 10
16.917930
 20
31.756730
 30
0.0
  0
VERTEX
  8
NC_Symbol-B
 10
16.710380
 20
31.639840
 30
0.0
 42
-1.000000
  0
VERTEX
  8
NC_Symbol-B
 10
16.636780
 20
31.770540
 30
0.0
  0
SEQEND
  0
POLYLINE
  8
NC_Symbol-B
 66
   1
 10
0.0
 20
0.0
 30
0.0
 70
   1
  0
VERTEX
  8
NC_Symbol-B
 10
16.673580
 20
31.630190
 30
0.0
 42
-1.000000
  0
VERTEX
  8
NC_Symbol-B
 10
16.673580
 20
31.780190
 30
0.0
  0
VERTEX
  8
NC_Symbol-B
 10
17.400000
 20
31.780190
 30
0.0
 42
-1.000000
  0
VERTEX
  8
NC_Symbol-B
 10
17.400000
 20
31.630190
 30
0.0
  0
SEQEND
  0
POLYLINE
  8
NC_Symbol-B
 66
   1
 10
0.0
 20
0.0
 30
0.0
 70
   1
  0
VERTEX
  8
NC_Symbol-B
 10
20.590000
 20
-0.030000
 30
0.0
 42
-0.414214
  0
VERTEX
  8
NC_Symbol-B
 10
20.490000
 20
-0.130000
 30
0.0
  0
VERTEX
  8
NC_Symbol-B
 10
17.890000
 20
-0.130000
 30
0.0
 42
-0.414214
  0
VERTEX
  8
NC_Symbol-B
 10
17.790000
 20
-0.030000
 30
0.0
  0
VERTEX
  8
NC_Symbol-B
 10
17.790000
 20
33.050000
 30
0.0
 42
-0.414214
  0
VERTEX
  8
NC_Symbol-B
 10
17.890000
 20
33.150000
 30
0.0
  0
VERTEX
  8
NC_Symbol-B
 10
20.490000
 20
33.150000
 30
0.0
 42
-0.414214
  0
VERTEX
  8
NC_Symbol-B
 10
20.590000
 20
33.050000
 30
0.0
  0
SEQEND
  0
POLYLINE
  8
NC_Symbol-B
 66
   1
 10
0.0
 20
0.0
 30
0.0
 70
   1
  0
VERTEX
  8
NC_Symbol-B
 10
19.190000
 20
25.230000
 30
0.0
 42
1.000000
  0
VERTEX
  8
NC_Symbol-B
 10
19.190000
 20
23.030000
 30
0.0
 42
1.000000
  0
VERTEX
  8
NC_Symbol-B
 10
19.190000
 20
25.230000
 30
0.0
  0
SEQEND
  0
POLYLINE
  8
NC_Symbol-B
 66
   1
 10
0.0
 20
0.0
 30
0.0
 70
   1
  0
VERTEX
  8
NC_Symbol-B
 10
19.190000
 20
27.770000
 30
0.0
 42
1.000000
  0
VERTEX
  8
NC_Symbol-B
 10
19.190000
 20
25.570000
 30
0.0
 42
1.000000
  0
VERTEX
  8
NC_Symbol-B
 10
19.190000
 20
27.770000
 30
0.0
  0
SEQEND
  0
POLYLINE
  8
NC_Symbol-B
 66
   1
 10
0.0
 20
0.0
 30
0.0
 70
   1
  0
VERTEX
  8
NC_Symbol-B
 10
19.190000
 20
32.850000
 30
0.0
 42
1.000000
  0
VERTEX
  8
NC_Symbol-B
 10
19.190000
 20
30.650000
 30
0.0
 42
1.000000
  0
VERTEX
  8
NC_Symbol-B
 10
19.190000
 20
32.850000
 30
0.0
  0
SEQEND
  0
POLYLINE
  8
NC_Symbol-B
 66
   1
 10
0.0
 20
0.0
 30
0.0
 70
   1
  0
VERTEX
  8
NC_Symbol-B
 10
19.190000
 20
30.310000
 30
0.0
 42
1.000000
  0
VERTEX
  8
NC_Symbol-B
 10
19.190000
 20
28.110000
 30
0.0
 42
1.000000
  0
VERTEX
  8
NC_Symbol-B
 10
19.190000
 20
30.310000
 30
0.0
  0
SEQEND
  0
POLYLINE
  8
NC_Symbol-B
 66
   1
 10
0.0
 20
0.0
 30
0.0
 70
   1
  0
VERTEX
  8
NC_Symbol-B
 10
19.190000
 20
22.690000
 30
0.0
 42
1.000000
  0
VERTEX
  8
NC_Symbol-B
 10
19.190000
 20
20.490000
 30
0.0
 42
1.000000
  0
VERTEX
  8
NC_Symbol-B
 10
19.190000
 20
22.690000
 30
0.0
  0
SEQEND
  0
POLYLINE
  8
NC_Symbol-B
 66
   1
 10
0.0
 20
0.0
 30
0.0
 70
   1
  0
VERTEX
  8
NC_Symbol-B
 10
19.190000
 20
20.150000
 30
0.0
 42
1.000000
  0
VERTEX
  8
NC_Symbol-B
 10
19.190000
 20
17.950000
 30
0.0
 42
1.000000
  0
VERTEX
  8
NC_Symbol-B
 10
19.190000
 20
20.150000
 30
0.0
  0
SEQEND
  0
POLYLINE
  8
NC_Symbol-B
 66
   1
 10
0.0
 20
0.0
 30
0.0
 70
   1
  0
VERTEX
  8
NC_Symbol-B
 10
19.190000
 20
17.610000
 30
0.0
 42
1.000000
  0
VERTEX
  8
NC_Symbol-B
 10
19.190000
 20
15.410000
 30
0.0
 42
1.000000
  0
VERTEX
  8
NC_Symbol-B
 10
19.190000
 20
17.610000
 30
0.0
  0
SEQEND
  0
POLYLINE
  8
NC_Symbol-B
 66
   1
 10
0.0
 20
0.0
 30
0.0
 70
   1
  0
VERTEX
  8
NC_Symbol-B
 10
19.190000
 20
15.070000
 30
0.0
 42
1.000000
  0
VERTEX
  8
NC_Symbol-B
 10
19.190000
 20
12.870000
 30
0.0
 42
1.000000
  0
VERTEX
  8
NC_Symbol-B
 10
19.190000
 20
15.070000
 30
0.0
  0
SEQEND
  0
POLYLINE
  8
NC_Symbol-B
 66
   1
 10
0.0
 20
0.0
 30
0.0
 70
   1
  0
VERTEX
  8
NC_Symbol-B
 10
19.190000
 20
12.530000
 30
0.0
 42
1.000000
  0
VERTEX
  8
NC_Symbol-B
 10
19.190000
 20
10.330000
 30
0.0
 42
1.000000
  0
VERTEX
  8
NC_Symbol-B
 10
19.190000
 20
12.530000
 30
0.0
  0
SEQEND
  0
POLYLINE
  8
NC_Symbol-B
 66
   1
 10
0.0
 20
0.0
 30
0.0
 70
   1
  0
VERTEX
  8
NC_Symbol-B
 10
19.190000
 20
9.990000
 30
0.0
 42
1.000000
  0
VERTEX
  8
NC_Symbol-B
 10
19.190000
 20
7.790000
 30
0.0
 42
1.000000
  0
VERTEX
  8
NC_Symbol-B
 10
19.190000
 20
9.990000
 30
0.0
  0
SEQEND
  0
POLYLINE
  8
NC_Symbol-B
 66
   1
 10
0.0
 20
0.0
 30
0.0
 70
   1
  0
VERTEX
  8
NC_Symbol-B
 10
19.190000
 20
7.450000
 30
0.0
 42
1.000000
  0
VERTEX
  8
NC_Symbol-B
 10
19.190000
 20
5.250000
 30
0.0
 42
1.000000
  0
VERTEX
  8
NC_Symbol-B
 10
19.190000
 20
7.450000
 30
0.0
  0
SEQEND
  0
POLYLINE
  8
NC_Symbol-B
 66
   1
 10
0.0
 20
0.0
 30
0.0
 70
   1
  0
VERTEX
  8
NC_Symbol-B
 10
19.190000
 20
4.910000
 30
0.0
 42
1.000000
  0
VERTEX
  8
NC_Symbol-B
 10
19.190000
 20
2.710000
 30
0.0
 42
1.000000
  0
VERTEX
  8
NC_Symbol-B
 10
19.190000
 20
4.910000
 30
0.0
  0
SEQEND
  0
POLYLINE
  8
NC_Symbol-B
 66
   1
 10
0.0
 20
0.0
 30
0.0
 70
   1
  0
VERTEX
  8
NC_Symbol-B
 10
19.190000
 20
2.370000
 30
0.0
 42
1.000000
  0
VERTEX
  8
NC_Symbol-B
 10
19.190000
 20
0.170000
 30
0.0
 42
1.000000
  0
VERTEX
  8
NC_Symbol-B
 10
19.190000
 20
2.370000
 30
0.0
  0
SEQEND
  0
POLYLINE
  8
NC_Symbol-B
 66
   1
 10
0.0
 20
0.0
 30
0.0
 70
   1
  0
VERTEX
  8
NC_Symbol-B
 10
16.844330
 20
2.087430
 30
0.0
 42
-1.000000
  0
VERTEX
  8
NC_Symbol-B
 10
16.917930
 20
1.956730
 30
0.0
  0
VERTEX
  8
NC_Symbol-B
 10
16.710380
 20
1.839840
 30
0.0
 42
-1.000000
  0
VERTEX
  8
NC_Symbol-B
 10
16.636780
 20
1.970540
 30
0.0
  0
SEQEND
  0
POLYLINE
  8
NC_Symbol-B
 66
   1
 10
0.0
 20
0.0
 30
0.0
 70
   1
  0
VERTEX
  8
NC_Symbol-B
 10
16.673580
 20
1.830190
 30
0.0
 42
-1.000000
  0
VERTEX
  8
NC_Symbol-B
 10
16.673580
 20
1.980190
 30
0.0
  0
VERTEX
  8
NC_Symbol-B
 10
17.400000
 20
1.980190
 30
0.0
 42
-1.000000
  0
VERTEX
  8
NC_Symbol-B
 10
17.400000
 20
1.830190
 30
0.0
  0
SEQEND
  0
POLYLINE
  8
NC_Symbol-B
 66
   1
 10
0.0
 20
0.0
 30
0.0
 70
   1
  0
VERTEX
  8
NC_Symbol-B
 10
16.778910
 20
1.560510
 30
0.0
 42
-1.000000
  0
VERTEX
  8
NC_Symbol-B
 10
16.851270
 20
1.429110
 30
0.0
  0
VERTEX
  8
NC_Symbol-B
 10
16.803380
 20
1.402740
 30
0.0
  0
VERTEX
  8
NC_Symbol-B
 10
16.768010
 20
1.368650
 30
0.0
  0
VERTEX
  8
NC_Symbol-B
 10
16.748580
 20
1.304480
 30
0.0
  0
VERTEX
  8
NC_Symbol-B
 10
16.748580
 20
1.207650
 30
0.0
  0
VERTEX
  8
NC_Symbol-B
 10
16.769650
 20
1.120680
 30
0.0
  0
VERTEX
  8
NC_Symbol-B
 10
16.803380
 20
1.088170
 30
0.0
  0
VERTEX
  8
NC_Symbol-B
 10
16.834380
 20
1.071100
 30
0.0
  0
VERTEX
  8
NC_Symbol-B
 10
16.880710
 20
1.071100
 30
0.0
  0
VERTEX
  8
NC_Symbol-B
 10
16.914260
 20
1.089580
 30
0.0
  0
VERTEX
  8
NC_Symbol-B
 10
16.923780
 20
1.097440
 30
0.0
  0
VERTEX
  8
NC_Symbol-B
 10
16.938210
 20
1.129220
 30
0.0
  0
VERTEX
  8
NC_Symbol-B
 10
16.938210
 20
1.292210
 30
0.0
 42
-1.000000
  0
VERTEX
  8
NC_Symbol-B
 10
17.088210
 20
1.292210
 30
0.0
  0
VERTEX
  8
NC_Symbol-B
 10
17.088210
 20
1.112990
 30
0.0
 42
-0.106935
  0
VERTEX
  8
NC_Symbol-B
 10
17.081500
 20
1.081990
 30
0.0
  0
VERTEX
  8
NC_Symbol-B
 10
17.053200
 20
1.019650
 30
0.0
 42
-0.114077
  0
VERTEX
  8
NC_Symbol-B
 10
17.032670
 20
0.992820
 30
0.0
  0
VERTEX
  8
NC_Symbol-B
 10
17.004360
 20
0.969440
 30
0.0
 42
-0.046773
  0
VERTEX
  8
NC_Symbol-B
 10
16.992780
 20
0.961570
 30
0.0
  0
VERTEX
  8
NC_Symbol-B
 10
16.936180
 20
0.930400
 30
0.0
 42
-0.126514
  0
VERTEX
  8
NC_Symbol-B
 10
16.900000
 20
0.921100
 30
0.0
  0
VERTEX
  8
NC_Symbol-B
 10
16.815090
 20
0.921100
 30
0.0
 42
-0.126514
  0
VERTEX
  8
NC_Symbol-B
 10
16.778910
 20
0.930400
 30
0.0
  0
VERTEX
  8
NC_Symbol-B
 10
16.722310
 20
0.961570
 30
0.0
 42
-0.066009
  0
VERTEX
  8
NC_Symbol-B
 10
16.706440
 20
0.973270
 30
0.0
  0
VERTEX
  8
NC_Symbol-B
 10
16.649840
 20
1.027820
 30
0.0
 42
-0.142473
  0
VERTEX
  8
NC_Symbol-B
 10
16.629000
 20
1.064160
 30
0.0
  0
VERTEX
  8
NC_Symbol-B
 10
16.600690
 20
1.181040
 30
0.0
 42
-0.059495
  0
VERTEX
  8
NC_Symbol-B
 10
16.598580
 20
1.198700
 30
0.0
  0
VERTEX
  8
NC_Symbol-B
 10
16.598580
 20
1.315580
 30
0.0
 42
-0.073621
  0
VERTEX
  8
NC_Symbol-B
 10
16.601800
 20
1.337310
 30
0.0
  0
VERTEX
  8
NC_Symbol-B
 10
16.630110
 20
1.430820
 30
0.0
 42
-0.128149
  0
VERTEX
  8
NC_Symbol-B
 10
16.649840
 20
1.463090
 30
0.0
  0
VERTEX
  8
NC_Symbol-B
 10
16.706440
 20
1.517640
 30
0.0
 42
-0.066009
  0
VERTEX
  8
NC_Symbol-B
 10
16.722310
 20
1.529340
 30
0.0
  0
SEQEND
  0
POLYLINE
  8
NC_Symbol-B
 66
   1
 10
0.0
 20
0.0
 30
0.0
 70
   1
  0
VERTEX
  8
NC_Symbol-B
 10
16.939960
 20
1.096870
 30
0.0
 42
-1.000000
  0
VERTEX
  8
NC_Symbol-B
 10
17.086460
 20
1.129110
 30
0.0
  0
VERTEX
  8
NC_Symbol-B
 10
17.099250
 20
1.071000
 30
0.0
  0
VERTEX
  8
NC_Symbol-B
 10
17.141560
 20
1.039940
 30
0.0
  0
VERTEX
  8
NC_Symbol-B
 10
17.216860
 20
1.039940
 30
0.0
  0
VERTEX
  8
NC_Symbol-B
 10
17.274420
 20
1.061070
 30
0.0
  0
VERTEX
  8
NC_Symbol-B
 10
17.302510
 20
1.088130
 30
0.0
  0
VERTEX
  8
NC_Symbol-B
 10
17.325000
 20
1.205800
 30
0.0
  0
VERTEX
  8
NC_Symbol-B
 10
17.325000
 20
1.304480
 30
0.0
  0
VERTEX
  8
NC_Symbol-B
 10
17.306980
 20
1.364020
 30
0.0
  0
VERTEX
  8
NC_Symbol-B
 10
17.213220
 20
1.435020
 30
0.0
 42
-1.000000
  0
VERTEX
  8
NC_Symbol-B
 10
17.303760
 20
1.554600
 30
0.0
  0
VERTEX
  8
NC_Symbol-B
 10
17.416970
 20
1.468880
 30
0.0
 42
-0.158522
  0
VERTEX
  8
NC_Symbol-B
 10
17.443480
 20
1.430810
 30
0.0
  0
VERTEX
  8
NC_Symbol-B
 10
17.471780
 20
1.337300
 30
0.0
 42
-0.073588
  0
VERTEX
  8
NC_Symbol-B
 10
17.475000
 20
1.315580
 30
0.0
  0
VERTEX
  8
NC_Symbol-B
 10
17.475000
 20
1.198700
 30
0.0
 42
-0.047247
  0
VERTEX
  8
NC_Symbol-B
 10
17.473670
 20
1.184620
 30
0.0
  0
VERTEX
  8
NC_Symbol-B
 10
17.445370
 20
1.036570
 30
0.0
 42
-0.155011
  0
VERTEX
  8
NC_Symbol-B
 10
17.423740
 20
0.996640
 30
0.0
  0
VERTEX
  8
NC_Symbol-B
 10
17.367130
 20
0.942090
 30
0.0
 42
-0.104149
  0
VERTEX
  8
NC_Symbol-B
 10
17.340930
 20
0.925690
 30
0.0
  0
VERTEX
  8
NC_Symbol-B
 10
17.256030
 20
0.894530
 30
0.0
 42
-0.088162
  0
VERTEX
  8
NC_Symbol-B
 10
17.230190
 20
0.889940
 30
0.0
  0
VERTEX
  8
NC_Symbol-B
 10
17.116980
 20
0.889940
 30
0.0
 42
-0.159638
  0
VERTEX
  8
NC_Symbol-B
 10
17.072600
 20
0.904480
 30
0.0
  0
VERTEX
  8
NC_Symbol-B
 10
16.987700
 20
0.966810
 30
0.0
 42
-0.182225
  0
VERTEX
  8
NC_Symbol-B
 10
16.958830
 20
1.011150
 30
0.0
  0
SEQEND
  0
POLYLINE
  8
NC_Resist-B
 66
   1
 10
0.0
 20
0.0
 30
0.0
 70
   1
  0
VERTEX
  8
NC_Resist-B
 10
20.090000
 20
31.750000
 30
0.0
 42
1.000000
  0
VERTEX
  8
NC_Resist-B
 10
18.290000
 20
31.750000
 30
0.0
 42
1.000000
  0
VERTEX
  8
NC_Resist-B
 10
20.090000
 20
31.750000
 30
0.0
  0
SEQEND
  0
POLYLINE
  8
NC_Resist-B
 66
   1
 10
0.0
 20
0.0
 30
0.0
 70
   1
  0
VERTEX
  8
NC_Resist-B
 10
20.090000
 20
29.210000
 30
0.0
 42
1.000000
  0
VERTEX
  8
NC_Resist-B
 10
18.290000
 20
29.210000
 30
0.0
 42
1.000000
  0
VERTEX
  8
NC_Resist-B
 10
20.090000
 20
29.210000
 30
0.0
  0
SEQEND
  0
POLYLINE
  8
NC_Resist-B
 66
   1
 10
0.0
 20
0.0
 30
0.0
 70
   1
  0
VERTEX
  8
NC_Resist-B
 10
20.090000
 20
26.670000
 30
0.0
 42
1.000000
  0
VERTEX
  8
NC_Resist-B
 10
18.290000
 20
26.670000
 30
0.0
 42
1.000000
  0
VERTEX
  8
NC_Resist-B
 10
20.090000
 20
26.670000
 30
0.0
  0
SEQEND
  0
POLYLINE
  8
NC_Resist-B
 66
   1
 10
0.0
 20
0.0
 30
0.0
 70
   1
  0
VERTEX
  8
NC_Resist-B
 10
20.090000
 20
24.130000
 30
0.0
 42
1.000000
  0
VERTEX
  8
NC_Resist-B
 10
18.290000
 20
24.130000
 30
0.0
 42
1.000000
  0
VERTEX
  8
NC_Resist-B
 10
20.090000
 20
24.130000
 30
0.0
  0
SEQEND
  0
POLYLINE
  8
NC_Resist-B
 66
   1
 10
0.0
 20
0.0
 30
0.0
 70
   1
  0
VERTEX
  8
NC_Resist-B
 10
20.090000
 20
21.590000
 30
0.0
 42
1.000000
  0
VERTEX
  8
NC_Resist-B
 10
18.290000
 20
21.590000
 30
0.0
 42
1.000000
  0
VERTEX
  8
NC_Resist-B
 10
20.090000
 20
21.590000
 30
0.0
  0
SEQEND
  0
POLYLINE
  8
NC_Resist-B
 66
   1
 10
0.0
 20
0.0
 30
0.0
 70
   1
  0
VERTEX
  8
NC_Resist-B
 10
20.090000
 20
19.050000
 30
0.0
 42
1.000000
  0
VERTEX
  8
NC_Resist-B
 10
18.290000
 20
19.050000
 30
0.0
 42
1.000000
  0
VERTEX
  8
NC_Resist-B
 10
20.090000
 20
19.050000
 30
0.0
  0
SEQEND
  0
POLYLINE
  8
NC_Resist-B
 66
   1
 10
0.0
 20
0.0
 30
0.0
 70
   1
  0
VERTEX
  8
NC_Resist-B
 10
20.090000
 20
16.510000
 30
0.0
 42
1.000000
  0
VERTEX
  8
NC_Resist-B
 10
18.290000
 20
16.510000
 30
0.0
 42
1.000000
  0
VERTEX
  8
NC_Resist-B
 10
20.090000
 20
16.510000
 30
0.0
  0
SEQEND
  0
POLYLINE
  8
NC_Resist-B
 66
   1
 10
0.0
 20
0.0
 30
0.0
 70
   1
  0
VERTEX
  8
NC_Resist-B
 10
20.090000
 20
13.970000
 30
0.0
 42
1.000000
  0
VERTEX
  8
NC_Resist-B
 10
18.290000
 20
13.970000
 30
0.0
 42
1.000000
  0
VERTEX
  8
NC_Resist-B
 10
20.090000
 20
13.970000
 30
0.0
  0
SEQEND
  0
POLYLINE
  8
NC_Resist-B
 66
   1
 10
0.0
 20
0.0
 30
0.0
 70
   1
  0
VERTEX
  8
NC_Resist-B
 10
20.090000
 20
11.430000
 30
0.0
 42
1.000000
  0
VERTEX
  8
NC_Resist-B
 10
18.290000
 20
11.430000
 30
0.0
 42
1.000000
  0
VERTEX
  8
NC_Resist-B
 10
20.090000
 20
11.430000
 30
0.0
  0
SEQEND
  0
POLYLINE
  8
NC_Resist-B
 66
   1
 10
0.0
 20
0.0
 30
0.0
 70
   1
  0
VERTEX
  8
NC_Resist-B
 10
20.090000
 20
8.890000
 30
0.0
 42
1.000000
  0
VERTEX
  8
NC_Resist-B
 10
18.290000
 20
8.890000
 30
0.0
 42
1.000000
  0
VERTEX
  8
NC_Resist-B
 10
20.090000
 20
8.890000
 30
0.0
  0
SEQEND
  0
POLYLINE
  8
NC_Resist-B
 66
   1
 10
0.0
 20
0.0
 30
0.0
 70
   1
  0
VERTEX
  8
NC_Resist-B
 10
20.090000
 20
6.350000
 30
0.0
 42
1.000000
  0
VERTEX
  8
NC_Resist-B
 10
18.290000
 20
6.350000
 30
0.0
 42
1.000000
  0
VERTEX
  8
NC_Resist-B
 10
20.090000
 20
6.350000
 30
0.0
  0
SEQEND
  0
POLYLINE
  8
NC_Resist-B
 66
   1
 10
0.0
 20
0.0
 30
0.0
 70
   1
  0
VERTEX
  8
NC_Resist-B
 10
20.090000
 20
3.810000
 30
0.0
 42
1.000000
  0
VERTEX
  8
NC_Resist-B
 10
18.290000
 20
3.810000
 30
0.0
 42
1.000000
  0
VERTEX
  8
NC_Resist-B
 10
20.090000
 20
3.810000
 30
0.0
  0
SEQEND
  0
POLYLINE
  8
NC_Resist-B
 66
   1
 10
0.0
 20
0.0
 30
0.0
 70
   1
  0
VERTEX
  8
NC_Resist-B
 10
20.090000
 20
1.270000
 30
0.0
 42
1.000000
  0
VERTEX
  8
NC_Resist-B
 10
18.290000
 20
1.270000
 30
0.0
 42
1.000000
  0
VERTEX
  8
NC_Resist-B
 10
20.090000
 20
1.270000
 30
0.0
  0
SEQEND
  0
POLYLINE
  8
HOLE_1_4
 66
   1
 10
0.0
 20
0.0
 30
0.0
 70
   1
  0
VERTEX
  8
HOLE_1_4
 10
16.000000
 20
11.750000
 30
0.0
 42
-1.000000
  0
VERTEX
  8
HOLE_1_4
 10
16.000000
 20
12.350000
 30
0.0
  0
VERTEX
  8
HOLE_1_4
 10
16.600000
 20
12.350000
 30
0.0
 42
-1.000000
  0
VERTEX
  8
HOLE_1_4
 10
16.600000
 20
11.750000
 30
0.0
  0
SEQEND
  0
POLYLINE
  8
NC_Resist-B
 66
   1
 10
0.0
 20
0.0
 30
0.0
 70
   1
  0
VERTEX
  8
NC_Resist-B
 10
16.600000
 20
12.650000
 30
0.0
 42
-1.000000
  0
VERTEX
  8
NC_Resist-B
 10
16.600000
 20
11.450000
 30
0.0
  0
VERTEX
  8
NC_Resist-B
 10
16.000000
 20
11.450000
 30
0.0
 42
-1.000000
  0
VERTEX
  8
NC_Resist-B
 10
16.000000
 20
12.650000
 30
0.0
  0
SEQEND
  0
POLYLINE
  8
HOLE_1_4
 66
   1
 10
0.0
 20
0.0
 30
0.0
 70
   1
  0
VERTEX
  8
HOLE_1_4
 10
7.500000
 20
11.750000
 30
0.0
 42
-1.000000
  0
VERTEX
  8
HOLE_1_4
 10
7.500000
 20
12.350000
 30
0.0
  0
VERTEX
  8
HOLE_1_4
 10
8.100000
 20
12.350000
 30
0.0
 42
-1.000000
  0
VERTEX
  8
HOLE_1_4
 10
8.100000
 20
11.750000
 30
0.0
  0
SEQEND
  0
POLYLINE
  8
NC_Resist-B
 66
   1
 10
0.0
 20
0.0
 30
0.0
 70
   1
  0
VERTEX
  8
NC_Resist-B
 10
8.100000
 20
12.650000
 30
0.0
 42
-1.000000
  0
VERTEX
  8
NC_Resist-B
 10
8.100000
 20
11.450000
 30
0.0
  0
VERTEX
  8
NC_Resist-B
 10
7.500000
 20
11.450000
 30
0.0
 42
-1.000000
  0
VERTEX
  8
NC_Resist-B
 10
7.500000
 20
12.650000
 30
0.0
  0
SEQEND
  0
POLYLINE
  8
HOLE_1_4
 66
   1
 10
0.0
 20
0.0
 30
0.0
 70
   1
  0
VERTEX
  8
HOLE_1_4
 10
8.000000
 20
4.050000
 30
0.0
 42
-1.000000
  0
VERTEX
  8
HOLE_1_4
 10
8.000000
 20
4.650000
 30
0.0
  0
VERTEX
  8
HOLE_1_4
 10
8.600000
 20
4.650000
 30
0.0
 42
-1.000000
  0
VERTEX
  8
HOLE_1_4
 10
8.600000
 20
4.050000
 30
0.0
  0
SEQEND
  0
POLYLINE
  8
NC_Resist-B
 66
   1
 10
0.0
 20
0.0
 30
0.0
 70
   1
  0
VERTEX
  8
NC_Resist-B
 10
8.600000
 20
4.950000
 30
0.0
 42
-1.000000
  0
VERTEX
  8
NC_Resist-B
 10
8.600000
 20
3.750000
 30
0.0
  0
VERTEX
  8
NC_Resist-B
 10
8.000000
 20
3.750000
 30
0.0
 42
-1.000000
  0
VERTEX
  8
NC_Resist-B
 10
8.000000
 20
4.950000
 30
0.0
  0
SEQEND
  0
POLYLINE
  8
HOLE_1_4
 66
   1
 10
0.0
 20
0.0
 30
0.0
 70
   1
  0
VERTEX
  8
HOLE_1_4
 10
16.000000
 20
4.050000
 30
0.0
 42
-1.000000
  0
VERTEX
  8
HOLE_1_4
 10
16.000000
 20
4.650000
 30
0.0
  0
VERTEX
  8
HOLE_1_4
 10
16.600000
 20
4.650000
 30
0.0
 42
-1.000000
  0
VERTEX
  8
HOLE_1_4
 10
16.600000
 20
4.050000
 30
0.0
  0
SEQEND
  0
POLYLINE
  8
NC_Resist-B
 66
   1
 10
0.0
 20
0.0
 30
0.0
 70
   1
  0
VERTEX
  8
NC_Resist-B
 10
16.600000
 20
4.950000
 30
0.0
 42
-1.000000
  0
VERTEX
  8
NC_Resist-B
 10
16.600000
 20
3.750000
 30
0.0
  0
VERTEX
  8
NC_Resist-B
 10
16.000000
 20
3.750000
 30
0.0
 42
-1.000000
  0
VERTEX
  8
NC_Resist-B
 10
16.000000
 20
4.950000
 30
0.0
  0
SEQEND
  0
ENDSEC
  0
EOF
