  0
SECTION
  2
HEADER
  9
$ACADVER
  1
AC1009
  9
$ACADMAINTVER
 70
   0
  9
$DWGCODEPAGE
  3
ANSI_932
  9
$INSBASE
 10
0.0
 20
0.0
 30
0.0
  9
$EXTMIN
 10
0.000000
 20
0.000000
 30
0.0
  9
$EXTMAX
 10
27.200000
 20
27.200000
 30
0.0
  9
$LIMMIN
 10
0.0
 20
0.0
  9
$LIMMAX
 10
12.0
 20
9.0
  9
$ORTHOMODE
 70
	0
  9
$REGENMODE
 70
	1
  9
$FILLMODE
 70
	1
  9
$QTEXTMODE
 70
	0
  9
$MIRRTEXT
 70
	1
  9
$DRAGMODE
 70
	2
  9
$LTSCALE
 40
1.0
  9
$OSMODE
 70
	0
  9
$ATTMODE
 70
	1
  9
$TEXTSIZE
 40
0.2
  9
$TRACEWID
 40
0.05
  9
$TEXTSTYLE
  7
STANDARD
  9
$CLAYER
  8
0
  9
$CELTYPE
  6
BYLAYER
  9
$CECOLOR
 62
	256
  9
$CELTSCALE
 40
1.0
  9
$DELOBJ
 70
	1
  9
$DISPSILH
 70
	0
  9
$LUNITS
 70
	2
  9
$LUPREC
 70
	6
  9
$SKETCHINC
 40
0.1
  9
$FILLETRAD
 40
0.5
  9
$AUNITS
 70
	0
  9
$AUPREC
 70
	6
  9
$MENU
  1
acad
  9
$ELEVATION
 40
0.0
  9
$PELEVATION
 40
0.0
  9
$THICKNESS
 40
0.0
  9
$LIMCHECK
 70
	0
  9
$BLIPMODE
 70
	0
  9
$CHAMFERA
 40
0.5
  9
$CHAMFERB
 40
0.5
  9
$CHAMFERC
 40
1.0
  9
$CHAMFERD
 40
0.0
  9
$SKPOLY
 70
	0
  9
$TDCREATE
 40
0.0
  9
$TDUPDATE
 40
0.0
  9
$TDINDWG
 40
0.0
  9
$TDUSRTIMER
 40
0.0
  9
$USRTIMER
 70
	0
  9
$ANGBASE
 50
0.0
  9
$ANGDIR
 70
	0
  9
$PDMODE
 70
	0
  9
$PDSIZE
 40
0.0
  9
$PLINEWID
 40
0.0
  9
$COORDS
 70
	1
  9
$SPLFRAME
 70
	0
  9
$SPLINETYPE
 70
	6
  9
$SPLINESEGS
 70
	8
  9
$ATTDIA
 70
	0
  9
$ATTREQ
 70
	1
  9
$HANDLING
 70
   1
  0
ENDSEC
  0
SECTION
  2
TABLES
  0
TABLE
  2
LAYER
 70
4
  0
LAYER
  2
0
 70
   0
 62
  7
  6
CONTINUOUS
  0
LAYER
  2
OUTLINE
 70
   0
 62
  7
  6
CONTINUOUS
  0
LAYER
  2
HOLE_1_6
 70
   0
 62
  7
  6
CONTINUOUS
  0
LAYER
  2
NC_Resist-A
 70
   0
 62
  221
  6
CONTINUOUS
  0
LAYER
  2
NC_Symbol-A
 70
   0
 62
  140
  6
CONTINUOUS
  0
ENDTAB
  0
TABLE
  2
LTYPE
 70
1
  0
ENDTAB
  0
TABLE
  2
STYLE
 70
1
  0
STYLE
  2
STANDARD
 70
0
 40
0.0
 41
1.0
 50
0.0
 71
0
 42
1.0
  3
txt
  4
EXTFONT
  0
ENDTAB
  0
ENDSEC
  0
SECTION
  2
BLOCKS
  0
ENDSEC
  0
SECTION
  2
ENTITIES
  0
POLYLINE
  8
HOLE_1_6
 66
   1
 10
0.0
 20
0.0
 30
0.0
 70
   1
  0
VERTEX
  8
HOLE_1_6
 10
3.000000
 20
26.000000
 30
0.0
 42
1.000000
  0
VERTEX
  8
HOLE_1_6
 10
1.000000
 20
26.000000
 30
0.0
 42
1.000000
  0
VERTEX
  8
HOLE_1_6
 10
3.000000
 20
26.000000
 30
0.0
  0
SEQEND
  0
POLYLINE
  8
HOLE_1_6
 66
   1
 10
0.0
 20
0.0
 30
0.0
 70
   1
  0
VERTEX
  8
HOLE_1_6
 10
27.000000
 20
26.000000
 30
0.0
 42
1.000000
  0
VERTEX
  8
HOLE_1_6
 10
25.000000
 20
26.000000
 30
0.0
 42
1.000000
  0
VERTEX
  8
HOLE_1_6
 10
27.000000
 20
26.000000
 30
0.0
  0
SEQEND
  0
POLYLINE
  8
HOLE_1_6
 66
   1
 10
0.0
 20
0.0
 30
0.0
 70
   1
  0
VERTEX
  8
HOLE_1_6
 10
27.000000
 20
2.000000
 30
0.0
 42
1.000000
  0
VERTEX
  8
HOLE_1_6
 10
25.000000
 20
2.000000
 30
0.0
 42
1.000000
  0
VERTEX
  8
HOLE_1_6
 10
27.000000
 20
2.000000
 30
0.0
  0
SEQEND
  0
POLYLINE
  8
HOLE_1_6
 66
   1
 10
0.0
 20
0.0
 30
0.0
 70
   1
  0
VERTEX
  8
HOLE_1_6
 10
3.000000
 20
2.000000
 30
0.0
 42
1.000000
  0
VERTEX
  8
HOLE_1_6
 10
1.000000
 20
2.000000
 30
0.0
 42
1.000000
  0
VERTEX
  8
HOLE_1_6
 10
3.000000
 20
2.000000
 30
0.0
  0
SEQEND
  0
POLYLINE
  8
HOLE_1_6
 66
   1
 10
0.0
 20
0.0
 30
0.0
 70
   1
  0
VERTEX
  8
HOLE_1_6
 10
9.500000
 20
9.500000
 30
0.0
 42
1.000000
  0
VERTEX
  8
HOLE_1_6
 10
5.500000
 20
9.500000
 30
0.0
 42
1.000000
  0
VERTEX
  8
HOLE_1_6
 10
9.500000
 20
9.500000
 30
0.0
  0
SEQEND
  0
POLYLINE
  8
HOLE_1_6
 66
   1
 10
0.0
 20
0.0
 30
0.0
 70
   1
  0
VERTEX
  8
HOLE_1_6
 10
22.500000
 20
9.500000
 30
0.0
 42
1.000000
  0
VERTEX
  8
HOLE_1_6
 10
18.500000
 20
9.500000
 30
0.0
 42
1.000000
  0
VERTEX
  8
HOLE_1_6
 10
22.500000
 20
9.500000
 30
0.0
  0
SEQEND
  0
POLYLINE
  8
HOLE_1_6
 66
   1
 10
0.0
 20
0.0
 30
0.0
 70
   1
  0
VERTEX
  8
HOLE_1_6
 10
19.150000
 20
12.000000
 30
0.0
 42
1.000000
  0
VERTEX
  8
HOLE_1_6
 10
17.850000
 20
12.000000
 30
0.0
 42
1.000000
  0
VERTEX
  8
HOLE_1_6
 10
19.150000
 20
12.000000
 30
0.0
  0
SEQEND
  0
POLYLINE
  8
HOLE_1_6
 66
   1
 10
0.0
 20
0.0
 30
0.0
 70
   1
  0
VERTEX
  8
HOLE_1_6
 10
10.150000
 20
5.100000
 30
0.0
 42
1.000000
  0
VERTEX
  8
HOLE_1_6
 10
8.850000
 20
5.100000
 30
0.0
 42
1.000000
  0
VERTEX
  8
HOLE_1_6
 10
10.150000
 20
5.100000
 30
0.0
  0
SEQEND
  0
POLYLINE
  8
OUTLINE
 66
   1
 10
0.0
 20
0.0
 30
0.0
 70
   1
  0
VERTEX
  8
OUTLINE
 10
-1.000000
 20
26.000000
 30
0.0
 42
-0.414214
  0
VERTEX
  8
OUTLINE
 10
2.000000
 20
29.000000
 30
0.0
  0
VERTEX
  8
OUTLINE
 10
26.000000
 20
29.000000
 30
0.0
 42
-0.414214
  0
VERTEX
  8
OUTLINE
 10
29.000000
 20
26.000000
 30
0.0
  0
VERTEX
  8
OUTLINE
 10
29.000000
 20
2.000000
 30
0.0
 42
-0.414214
  0
VERTEX
  8
OUTLINE
 10
26.000000
 20
-1.000000
 30
0.0
  0
VERTEX
  8
OUTLINE
 10
2.000000
 20
-1.000000
 30
0.0
 42
-0.414214
  0
VERTEX
  8
OUTLINE
 10
-1.000000
 20
2.000000
 30
0.0
  0
SEQEND
  0
POLYLINE
  8
NC_Symbol-A
 66
   1
 10
0.0
 20
0.0
 30
0.0
 70
   1
  0
VERTEX
  8
NC_Symbol-A
 10
1.882220
 20
14.951720
 30
0.0
 42
-1.000000
  0
VERTEX
  8
NC_Symbol-A
 10
1.993260
 20
14.850880
 30
0.0
  0
VERTEX
  8
NC_Symbol-A
 10
1.921610
 20
14.771970
 30
0.0
  0
VERTEX
  8
NC_Symbol-A
 10
1.885380
 20
14.612370
 30
0.0
  0
VERTEX
  8
NC_Symbol-A
 10
1.885380
 20
14.538370
 30
0.0
  0
VERTEX
  8
NC_Symbol-A
 10
1.919720
 20
14.424910
 30
0.0
  0
VERTEX
  8
NC_Symbol-A
 10
1.938420
 20
14.404320
 30
0.0
  0
VERTEX
  8
NC_Symbol-A
 10
2.035970
 20
14.368510
 30
0.0
  0
VERTEX
  8
NC_Symbol-A
 10
2.088270
 20
14.368510
 30
0.0
  0
VERTEX
  8
NC_Symbol-A
 10
2.134460
 20
14.393950
 30
0.0
  0
VERTEX
  8
NC_Symbol-A
 10
2.163460
 20
14.457820
 30
0.0
  0
VERTEX
  8
NC_Symbol-A
 10
2.204220
 20
14.637380
 30
0.0
 42
-0.017696
  0
VERTEX
  8
NC_Symbol-A
 10
2.205580
 20
14.642510
 30
0.0
  0
VERTEX
  8
NC_Symbol-A
 10
2.248030
 20
14.782770
 30
0.0
 42
-0.043342
  0
VERTEX
  8
NC_Symbol-A
 10
2.252850
 20
14.794820
 30
0.0
  0
VERTEX
  8
NC_Symbol-A
 10
2.323610
 20
14.935080
 30
0.0
 42
-0.190177
  0
VERTEX
  8
NC_Symbol-A
 10
2.364720
 20
14.971710
 30
0.0
  0
VERTEX
  8
NC_Symbol-A
 10
2.492070
 20
15.018460
 30
0.0
 42
-0.088195
  0
VERTEX
  8
NC_Symbol-A
 10
2.517920
 20
15.023050
 30
0.0
  0
VERTEX
  8
NC_Symbol-A
 10
2.602830
 20
15.023050
 30
0.0
 42
-0.088162
  0
VERTEX
  8
NC_Symbol-A
 10
2.628670
 20
15.018460
 30
0.0
  0
VERTEX
  8
NC_Symbol-A
 10
2.756030
 20
14.971710
 30
0.0
 42
-0.121076
  0
VERTEX
  8
NC_Symbol-A
 10
2.785720
 20
14.951710
 30
0.0
  0
VERTEX
  8
NC_Symbol-A
 10
2.870620
 20
14.858200
 30
0.0
 42
-0.077870
  0
VERTEX
  8
NC_Symbol-A
 10
2.883380
 20
14.838800
 30
0.0
  0
VERTEX
  8
NC_Symbol-A
 10
2.968290
 20
14.651790
 30
0.0
 42
-0.106969
  0
VERTEX
  8
NC_Symbol-A
 10
2.975000
 20
14.620780
 30
0.0
  0
VERTEX
  8
NC_Symbol-A
 10
2.975000
 20
14.527270
 30
0.0
 42
-0.055853
  0
VERTEX
  8
NC_Symbol-A
 10
2.973140
 20
14.510670
 30
0.0
  0
VERTEX
  8
NC_Symbol-A
 10
2.930690
 20
14.323660
 30
0.0
 42
-0.129239
  0
VERTEX
  8
NC_Symbol-A
 10
2.913070
 20
14.289840
 30
0.0
  0
VERTEX
  8
NC_Symbol-A
 10
2.785710
 20
14.149580
 30
0.0
 42
-1.000000
  0
VERTEX
  8
NC_Symbol-A
 10
2.674670
 20
14.250420
 30
0.0
  0
VERTEX
  8
NC_Symbol-A
 10
2.788770
 20
14.376080
 30
0.0
  0
VERTEX
  8
NC_Symbol-A
 10
2.825000
 20
14.535680
 30
0.0
  0
VERTEX
  8
NC_Symbol-A
 10
2.825000
 20
14.604550
 30
0.0
  0
VERTEX
  8
NC_Symbol-A
 10
2.751660
 20
14.766080
 30
0.0
  0
VERTEX
  8
NC_Symbol-A
 10
2.687050
 20
14.837240
 30
0.0
  0
VERTEX
  8
NC_Symbol-A
 10
2.589500
 20
14.873050
 30
0.0
  0
VERTEX
  8
NC_Symbol-A
 10
2.531250
 20
14.873050
 30
0.0
  0
VERTEX
  8
NC_Symbol-A
 10
2.444200
 20
14.841090
 30
0.0
  0
VERTEX
  8
NC_Symbol-A
 10
2.389710
 20
14.733080
 30
0.0
  0
VERTEX
  8
NC_Symbol-A
 10
2.349910
 20
14.601590
 30
0.0
  0
VERTEX
  8
NC_Symbol-A
 10
2.308050
 20
14.417170
 30
0.0
 42
-0.050812
  0
VERTEX
  8
NC_Symbol-A
 10
2.303200
 20
14.402760
 30
0.0
  0
VERTEX
  8
NC_Symbol-A
 10
2.260740
 20
14.309250
 30
0.0
 42
-0.161686
  0
VERTEX
  8
NC_Symbol-A
 10
2.228630
 20
14.274560
 30
0.0
  0
VERTEX
  8
NC_Symbol-A
 10
2.143730
 20
14.227810
 30
0.0
 42
-0.126514
  0
VERTEX
  8
NC_Symbol-A
 10
2.107550
 20
14.218510
 30
0.0
  0
VERTEX
  8
NC_Symbol-A
 10
2.022640
 20
14.218510
 30
0.0
 42
-0.088162
  0
VERTEX
  8
NC_Symbol-A
 10
1.996800
 20
14.223100
 30
0.0
  0
VERTEX
  8
NC_Symbol-A
 10
1.869440
 20
14.269850
 30
0.0
 42
-0.121056
  0
VERTEX
  8
NC_Symbol-A
 10
1.839750
 20
14.289840
 30
0.0
  0
VERTEX
  8
NC_Symbol-A
 10
1.797300
 20
14.336590
 30
0.0
 42
-0.111269
  0
VERTEX
  8
NC_Symbol-A
 10
1.781050
 20
14.365280
 30
0.0
  0
VERTEX
  8
NC_Symbol-A
 10
1.738600
 20
14.505540
 30
0.0
 42
-0.073621
  0
VERTEX
  8
NC_Symbol-A
 10
1.735380
 20
14.527270
 30
0.0
  0
VERTEX
  8
NC_Symbol-A
 10
1.735380
 20
14.620780
 30
0.0
 42
-0.055853
  0
VERTEX
  8
NC_Symbol-A
 10
1.737240
 20
14.637380
 30
0.0
  0
VERTEX
  8
NC_Symbol-A
 10
1.779690
 20
14.824390
 30
0.0
 42
-0.129239
  0
VERTEX
  8
NC_Symbol-A
 10
1.797310
 20
14.858210
 30
0.0
  0
SEQEND
  0
POLYLINE
  8
NC_Symbol-A
 66
   1
 10
0.0
 20
0.0
 30
0.0
 70
   1
  0
VERTEX
  8
NC_Symbol-A
 10
2.900000
 20
15.375000
 30
0.0
 42
-1.000000
  0
VERTEX
  8
NC_Symbol-A
 10
2.900000
 20
15.225000
 30
0.0
  0
VERTEX
  8
NC_Symbol-A
 10
1.810380
 20
15.225000
 30
0.0
 42
-0.414214
  0
VERTEX
  8
NC_Symbol-A
 10
1.735380
 20
15.300000
 30
0.0
  0
VERTEX
  8
NC_Symbol-A
 10
1.735380
 20
15.790910
 30
0.0
 42
-0.120226
  0
VERTEX
  8
NC_Symbol-A
 10
1.743810
 20
15.825450
 30
0.0
  0
VERTEX
  8
NC_Symbol-A
 10
1.786260
 20
15.907270
 30
0.0
 42
-0.064758
  0
VERTEX
  8
NC_Symbol-A
 10
1.797310
 20
15.923150
 30
0.0
  0
VERTEX
  8
NC_Symbol-A
 10
1.882220
 20
16.016650
 30
0.0
 42
-0.110906
  0
VERTEX
  8
NC_Symbol-A
 10
1.909110
 20
16.035550
 30
0.0
  0
VERTEX
  8
NC_Symbol-A
 10
1.994010
 20
16.070620
 30
0.0
 42
-0.098232
  0
VERTEX
  8
NC_Symbol-A
 10
2.022640
 20
16.076300
 30
0.0
  0
VERTEX
  8
NC_Symbol-A
 10
2.150000
 20
16.076300
 30
0.0
 42
-0.112738
  0
VERTEX
  8
NC_Symbol-A
 10
2.182560
 20
16.068870
 30
0.0
  0
VERTEX
  8
NC_Symbol-A
 10
2.352370
 20
15.987050
 30
0.0
 42
-0.209988
  0
VERTEX
  8
NC_Symbol-A
 10
2.391590
 20
15.941200
 30
0.0
  0
VERTEX
  8
NC_Symbol-A
 10
2.419890
 20
15.847690
 30
0.0
 42
-0.073588
  0
VERTEX
  8
NC_Symbol-A
 10
2.423110
 20
15.825970
 30
0.0
  0
VERTEX
  8
NC_Symbol-A
 10
2.423110
 20
15.300000
 30
0.0
 42
-1.000000
  0
VERTEX
  8
NC_Symbol-A
 10
2.273110
 20
15.300000
 30
0.0
  0
VERTEX
  8
NC_Symbol-A
 10
2.273110
 20
15.814870
 30
0.0
  0
VERTEX
  8
NC_Symbol-A
 10
2.257570
 20
15.866220
 30
0.0
  0
VERTEX
  8
NC_Symbol-A
 10
2.132870
 20
15.926300
 30
0.0
  0
VERTEX
  8
NC_Symbol-A
 10
2.037520
 20
15.926300
 30
0.0
  0
VERTEX
  8
NC_Symbol-A
 10
1.981940
 20
15.903340
 30
0.0
  0
VERTEX
  8
NC_Symbol-A
 10
1.914910
 20
15.829530
 30
0.0
  0
VERTEX
  8
NC_Symbol-A
 10
1.885380
 20
15.772610
 30
0.0
  0
VERTEX
  8
NC_Symbol-A
 10
1.885380
 20
15.375000
 30
0.0
  0
SEQEND
  0
POLYLINE
  8
NC_Symbol-A
 66
   1
 10
0.0
 20
0.0
 30
0.0
 70
   1
  0
VERTEX
  8
NC_Symbol-A
 10
2.900000
 20
16.475000
 30
0.0
 42
-1.000000
  0
VERTEX
  8
NC_Symbol-A
 10
2.900000
 20
16.325000
 30
0.0
  0
VERTEX
  8
NC_Symbol-A
 10
1.810380
 20
16.325000
 30
0.0
 42
-0.414214
  0
VERTEX
  8
NC_Symbol-A
 10
1.735380
 20
16.400000
 30
0.0
  0
VERTEX
  8
NC_Symbol-A
 10
1.735380
 20
16.890910
 30
0.0
 42
-0.120226
  0
VERTEX
  8
NC_Symbol-A
 10
1.743810
 20
16.925450
 30
0.0
  0
VERTEX
  8
NC_Symbol-A
 10
1.786260
 20
17.007270
 30
0.0
 42
-0.064758
  0
VERTEX
  8
NC_Symbol-A
 10
1.797310
 20
17.023150
 30
0.0
  0
VERTEX
  8
NC_Symbol-A
 10
1.882220
 20
17.116650
 30
0.0
 42
-0.110906
  0
VERTEX
  8
NC_Symbol-A
 10
1.909110
 20
17.135550
 30
0.0
  0
VERTEX
  8
NC_Symbol-A
 10
1.994010
 20
17.170620
 30
0.0
 42
-0.098232
  0
VERTEX
  8
NC_Symbol-A
 10
2.022640
 20
17.176300
 30
0.0
  0
VERTEX
  8
NC_Symbol-A
 10
2.150000
 20
17.176300
 30
0.0
 42
-0.112738
  0
VERTEX
  8
NC_Symbol-A
 10
2.182560
 20
17.168870
 30
0.0
  0
VERTEX
  8
NC_Symbol-A
 10
2.352370
 20
17.087050
 30
0.0
 42
-0.209988
  0
VERTEX
  8
NC_Symbol-A
 10
2.391590
 20
17.041200
 30
0.0
  0
VERTEX
  8
NC_Symbol-A
 10
2.419890
 20
16.947690
 30
0.0
 42
-0.073588
  0
VERTEX
  8
NC_Symbol-A
 10
2.423110
 20
16.925970
 30
0.0
  0
VERTEX
  8
NC_Symbol-A
 10
2.423110
 20
16.400000
 30
0.0
 42
-1.000000
  0
VERTEX
  8
NC_Symbol-A
 10
2.273110
 20
16.400000
 30
0.0
  0
VERTEX
  8
NC_Symbol-A
 10
2.273110
 20
16.914870
 30
0.0
  0
VERTEX
  8
NC_Symbol-A
 10
2.257570
 20
16.966220
 30
0.0
  0
VERTEX
  8
NC_Symbol-A
 10
2.132870
 20
17.026300
 30
0.0
  0
VERTEX
  8
NC_Symbol-A
 10
2.037520
 20
17.026300
 30
0.0
  0
VERTEX
  8
NC_Symbol-A
 10
1.981940
 20
17.003340
 30
0.0
  0
VERTEX
  8
NC_Symbol-A
 10
1.914910
 20
16.929530
 30
0.0
  0
VERTEX
  8
NC_Symbol-A
 10
1.885380
 20
16.872610
 30
0.0
  0
VERTEX
  8
NC_Symbol-A
 10
1.885380
 20
16.475000
 30
0.0
  0
SEQEND
  0
POLYLINE
  8
NC_Symbol-A
 66
   1
 10
0.0
 20
0.0
 30
0.0
 70
   1
  0
VERTEX
  8
NC_Symbol-A
 10
2.384290
 20
16.778460
 30
0.0
 42
-1.000000
  0
VERTEX
  8
NC_Symbol-A
 10
2.311930
 20
16.909860
 30
0.0
  0
VERTEX
  8
NC_Symbol-A
 10
2.863820
 20
17.213750
 30
0.0
 42
-1.000000
  0
VERTEX
  8
NC_Symbol-A
 10
2.936180
 20
17.082350
 30
0.0
  0
SEQEND
  0
POLYLINE
  8
NC_Symbol-A
 66
   1
 10
0.0
 20
0.0
 30
0.0
 70
   1
  0
VERTEX
  8
NC_Symbol-A
 10
1.735380
 20
18.294810
 30
0.0
 42
-1.000000
  0
VERTEX
  8
NC_Symbol-A
 10
1.885380
 20
18.294810
 30
0.0
  0
VERTEX
  8
NC_Symbol-A
 10
1.885380
 20
17.575000
 30
0.0
  0
VERTEX
  8
NC_Symbol-A
 10
2.825000
 20
17.575000
 30
0.0
  0
VERTEX
  8
NC_Symbol-A
 10
2.825000
 20
18.294810
 30
0.0
 42
-1.000000
  0
VERTEX
  8
NC_Symbol-A
 10
2.975000
 20
18.294810
 30
0.0
  0
VERTEX
  8
NC_Symbol-A
 10
2.975000
 20
17.500000
 30
0.0
 42
-0.414214
  0
VERTEX
  8
NC_Symbol-A
 10
2.900000
 20
17.425000
 30
0.0
  0
VERTEX
  8
NC_Symbol-A
 10
1.810380
 20
17.425000
 30
0.0
 42
-0.414214
  0
VERTEX
  8
NC_Symbol-A
 10
1.735380
 20
17.500000
 30
0.0
  0
SEQEND
  0
POLYLINE
  8
NC_Symbol-A
 66
   1
 10
0.0
 20
0.0
 30
0.0
 70
   1
  0
VERTEX
  8
NC_Symbol-A
 10
2.423110
 20
17.500000
 30
0.0
 42
-1.000000
  0
VERTEX
  8
NC_Symbol-A
 10
2.273110
 20
17.500000
 30
0.0
  0
VERTEX
  8
NC_Symbol-A
 10
2.273110
 20
18.166230
 30
0.0
 42
-1.000000
  0
VERTEX
  8
NC_Symbol-A
 10
2.423110
 20
18.166230
 30
0.0
  0
SEQEND
  0
POLYLINE
  8
NC_Symbol-A
 66
   1
 10
0.0
 20
0.0
 30
0.0
 70
   1
  0
VERTEX
  8
NC_Symbol-A
 10
1.882220
 20
19.351720
 30
0.0
 42
-1.000000
  0
VERTEX
  8
NC_Symbol-A
 10
1.993260
 20
19.250880
 30
0.0
  0
VERTEX
  8
NC_Symbol-A
 10
1.921610
 20
19.171970
 30
0.0
  0
VERTEX
  8
NC_Symbol-A
 10
1.885380
 20
19.012370
 30
0.0
  0
VERTEX
  8
NC_Symbol-A
 10
1.885380
 20
18.938370
 30
0.0
  0
VERTEX
  8
NC_Symbol-A
 10
1.919720
 20
18.824910
 30
0.0
  0
VERTEX
  8
NC_Symbol-A
 10
1.938420
 20
18.804320
 30
0.0
  0
VERTEX
  8
NC_Symbol-A
 10
2.035970
 20
18.768510
 30
0.0
  0
VERTEX
  8
NC_Symbol-A
 10
2.088270
 20
18.768510
 30
0.0
  0
VERTEX
  8
NC_Symbol-A
 10
2.134460
 20
18.793950
 30
0.0
  0
VERTEX
  8
NC_Symbol-A
 10
2.163460
 20
18.857820
 30
0.0
  0
VERTEX
  8
NC_Symbol-A
 10
2.204220
 20
19.037380
 30
0.0
 42
-0.017696
  0
VERTEX
  8
NC_Symbol-A
 10
2.205580
 20
19.042510
 30
0.0
  0
VERTEX
  8
NC_Symbol-A
 10
2.248030
 20
19.182770
 30
0.0
 42
-0.043342
  0
VERTEX
  8
NC_Symbol-A
 10
2.252850
 20
19.194820
 30
0.0
  0
VERTEX
  8
NC_Symbol-A
 10
2.323610
 20
19.335080
 30
0.0
 42
-0.190177
  0
VERTEX
  8
NC_Symbol-A
 10
2.364720
 20
19.371710
 30
0.0
  0
VERTEX
  8
NC_Symbol-A
 10
2.492070
 20
19.418460
 30
0.0
 42
-0.088195
  0
VERTEX
  8
NC_Symbol-A
 10
2.517920
 20
19.423050
 30
0.0
  0
VERTEX
  8
NC_Symbol-A
 10
2.602830
 20
19.423050
 30
0.0
 42
-0.088162
  0
VERTEX
  8
NC_Symbol-A
 10
2.628670
 20
19.418460
 30
0.0
  0
VERTEX
  8
NC_Symbol-A
 10
2.756030
 20
19.371710
 30
0.0
 42
-0.121076
  0
VERTEX
  8
NC_Symbol-A
 10
2.785720
 20
19.351710
 30
0.0
  0
VERTEX
  8
NC_Symbol-A
 10
2.870620
 20
19.258200
 30
0.0
 42
-0.077870
  0
VERTEX
  8
NC_Symbol-A
 10
2.883380
 20
19.238800
 30
0.0
  0
VERTEX
  8
NC_Symbol-A
 10
2.968290
 20
19.051790
 30
0.0
 42
-0.106969
  0
VERTEX
  8
NC_Symbol-A
 10
2.975000
 20
19.020780
 30
0.0
  0
VERTEX
  8
NC_Symbol-A
 10
2.975000
 20
18.927270
 30
0.0
 42
-0.055853
  0
VERTEX
  8
NC_Symbol-A
 10
2.973140
 20
18.910670
 30
0.0
  0
VERTEX
  8
NC_Symbol-A
 10
2.930690
 20
18.723660
 30
0.0
 42
-0.129239
  0
VERTEX
  8
NC_Symbol-A
 10
2.913070
 20
18.689840
 30
0.0
  0
VERTEX
  8
NC_Symbol-A
 10
2.785710
 20
18.549580
 30
0.0
 42
-1.000000
  0
VERTEX
  8
NC_Symbol-A
 10
2.674670
 20
18.650420
 30
0.0
  0
VERTEX
  8
NC_Symbol-A
 10
2.788770
 20
18.776080
 30
0.0
  0
VERTEX
  8
NC_Symbol-A
 10
2.825000
 20
18.935680
 30
0.0
  0
VERTEX
  8
NC_Symbol-A
 10
2.825000
 20
19.004550
 30
0.0
  0
VERTEX
  8
NC_Symbol-A
 10
2.751660
 20
19.166080
 30
0.0
  0
VERTEX
  8
NC_Symbol-A
 10
2.687050
 20
19.237240
 30
0.0
  0
VERTEX
  8
NC_Symbol-A
 10
2.589500
 20
19.273050
 30
0.0
  0
VERTEX
  8
NC_Symbol-A
 10
2.531250
 20
19.273050
 30
0.0
  0
VERTEX
  8
NC_Symbol-A
 10
2.444200
 20
19.241090
 30
0.0
  0
VERTEX
  8
NC_Symbol-A
 10
2.389710
 20
19.133080
 30
0.0
  0
VERTEX
  8
NC_Symbol-A
 10
2.349910
 20
19.001590
 30
0.0
  0
VERTEX
  8
NC_Symbol-A
 10
2.308050
 20
18.817170
 30
0.0
 42
-0.050812
  0
VERTEX
  8
NC_Symbol-A
 10
2.303200
 20
18.802760
 30
0.0
  0
VERTEX
  8
NC_Symbol-A
 10
2.260740
 20
18.709250
 30
0.0
 42
-0.161686
  0
VERTEX
  8
NC_Symbol-A
 10
2.228630
 20
18.674560
 30
0.0
  0
VERTEX
  8
NC_Symbol-A
 10
2.143730
 20
18.627810
 30
0.0
 42
-0.126514
  0
VERTEX
  8
NC_Symbol-A
 10
2.107550
 20
18.618510
 30
0.0
  0
VERTEX
  8
NC_Symbol-A
 10
2.022640
 20
18.618510
 30
0.0
 42
-0.088162
  0
VERTEX
  8
NC_Symbol-A
 10
1.996800
 20
18.623100
 30
0.0
  0
VERTEX
  8
NC_Symbol-A
 10
1.869440
 20
18.669850
 30
0.0
 42
-0.121056
  0
VERTEX
  8
NC_Symbol-A
 10
1.839750
 20
18.689840
 30
0.0
  0
VERTEX
  8
NC_Symbol-A
 10
1.797300
 20
18.736590
 30
0.0
 42
-0.111269
  0
VERTEX
  8
NC_Symbol-A
 10
1.781050
 20
18.765280
 30
0.0
  0
VERTEX
  8
NC_Symbol-A
 10
1.738600
 20
18.905540
 30
0.0
 42
-0.073621
  0
VERTEX
  8
NC_Symbol-A
 10
1.735380
 20
18.927270
 30
0.0
  0
VERTEX
  8
NC_Symbol-A
 10
1.735380
 20
19.020780
 30
0.0
 42
-0.055853
  0
VERTEX
  8
NC_Symbol-A
 10
1.737240
 20
19.037380
 30
0.0
  0
VERTEX
  8
NC_Symbol-A
 10
1.779690
 20
19.224390
 30
0.0
 42
-0.129239
  0
VERTEX
  8
NC_Symbol-A
 10
1.797310
 20
19.258210
 30
0.0
  0
SEQEND
  0
POLYLINE
  8
NC_Symbol-A
 66
   1
 10
0.0
 20
0.0
 30
0.0
 70
   1
  0
VERTEX
  8
NC_Symbol-A
 10
1.735380
 20
20.494810
 30
0.0
 42
-1.000000
  0
VERTEX
  8
NC_Symbol-A
 10
1.885380
 20
20.494810
 30
0.0
  0
VERTEX
  8
NC_Symbol-A
 10
1.885380
 20
19.775000
 30
0.0
  0
VERTEX
  8
NC_Symbol-A
 10
2.825000
 20
19.775000
 30
0.0
  0
VERTEX
  8
NC_Symbol-A
 10
2.825000
 20
20.494810
 30
0.0
 42
-1.000000
  0
VERTEX
  8
NC_Symbol-A
 10
2.975000
 20
20.494810
 30
0.0
  0
VERTEX
  8
NC_Symbol-A
 10
2.975000
 20
19.700000
 30
0.0
 42
-0.414214
  0
VERTEX
  8
NC_Symbol-A
 10
2.900000
 20
19.625000
 30
0.0
  0
VERTEX
  8
NC_Symbol-A
 10
1.810380
 20
19.625000
 30
0.0
 42
-0.414214
  0
VERTEX
  8
NC_Symbol-A
 10
1.735380
 20
19.700000
 30
0.0
  0
SEQEND
  0
POLYLINE
  8
NC_Symbol-A
 66
   1
 10
0.0
 20
0.0
 30
0.0
 70
   1
  0
VERTEX
  8
NC_Symbol-A
 10
2.423110
 20
19.700000
 30
0.0
 42
-1.000000
  0
VERTEX
  8
NC_Symbol-A
 10
2.273110
 20
19.700000
 30
0.0
  0
VERTEX
  8
NC_Symbol-A
 10
2.273110
 20
20.366230
 30
0.0
 42
-1.000000
  0
VERTEX
  8
NC_Symbol-A
 10
2.423110
 20
20.366230
 30
0.0
  0
SEQEND
  0
POLYLINE
  8
NC_Symbol-A
 66
   1
 10
0.0
 20
0.0
 30
0.0
 70
   1
  0
VERTEX
  8
NC_Symbol-A
 10
2.900000
 20
20.875000
 30
0.0
 42
-1.000000
  0
VERTEX
  8
NC_Symbol-A
 10
2.900000
 20
20.725000
 30
0.0
  0
VERTEX
  8
NC_Symbol-A
 10
1.810380
 20
20.725000
 30
0.0
 42
-0.725784
  0
VERTEX
  8
NC_Symbol-A
 10
1.766180
 20
20.860590
 30
0.0
  0
VERTEX
  8
NC_Symbol-A
 10
2.669910
 20
21.519810
 30
0.0
  0
VERTEX
  8
NC_Symbol-A
 10
1.810380
 20
21.519810
 30
0.0
 42
-1.000000
  0
VERTEX
  8
NC_Symbol-A
 10
1.810380
 20
21.669810
 30
0.0
  0
VERTEX
  8
NC_Symbol-A
 10
2.900000
 20
21.669810
 30
0.0
 42
-0.725784
  0
VERTEX
  8
NC_Symbol-A
 10
2.944200
 20
21.534220
 30
0.0
  0
VERTEX
  8
NC_Symbol-A
 10
2.040470
 20
20.875000
 30
0.0
  0
SEQEND
  0
POLYLINE
  8
NC_Symbol-A
 66
   1
 10
0.0
 20
0.0
 30
0.0
 70
   1
  0
VERTEX
  8
NC_Symbol-A
 10
1.882220
 20
22.651720
 30
0.0
 42
-1.000000
  0
VERTEX
  8
NC_Symbol-A
 10
1.993260
 20
22.550880
 30
0.0
  0
VERTEX
  8
NC_Symbol-A
 10
1.921610
 20
22.471970
 30
0.0
  0
VERTEX
  8
NC_Symbol-A
 10
1.885380
 20
22.312370
 30
0.0
  0
VERTEX
  8
NC_Symbol-A
 10
1.885380
 20
22.238370
 30
0.0
  0
VERTEX
  8
NC_Symbol-A
 10
1.919720
 20
22.124910
 30
0.0
  0
VERTEX
  8
NC_Symbol-A
 10
1.938420
 20
22.104320
 30
0.0
  0
VERTEX
  8
NC_Symbol-A
 10
2.035970
 20
22.068510
 30
0.0
  0
VERTEX
  8
NC_Symbol-A
 10
2.088270
 20
22.068510
 30
0.0
  0
VERTEX
  8
NC_Symbol-A
 10
2.134460
 20
22.093950
 30
0.0
  0
VERTEX
  8
NC_Symbol-A
 10
2.163460
 20
22.157820
 30
0.0
  0
VERTEX
  8
NC_Symbol-A
 10
2.204220
 20
22.337380
 30
0.0
 42
-0.017696
  0
VERTEX
  8
NC_Symbol-A
 10
2.205580
 20
22.342510
 30
0.0
  0
VERTEX
  8
NC_Symbol-A
 10
2.248030
 20
22.482770
 30
0.0
 42
-0.043342
  0
VERTEX
  8
NC_Symbol-A
 10
2.252850
 20
22.494820
 30
0.0
  0
VERTEX
  8
NC_Symbol-A
 10
2.323610
 20
22.635080
 30
0.0
 42
-0.190177
  0
VERTEX
  8
NC_Symbol-A
 10
2.364720
 20
22.671710
 30
0.0
  0
VERTEX
  8
NC_Symbol-A
 10
2.492070
 20
22.718460
 30
0.0
 42
-0.088195
  0
VERTEX
  8
NC_Symbol-A
 10
2.517920
 20
22.723050
 30
0.0
  0
VERTEX
  8
NC_Symbol-A
 10
2.602830
 20
22.723050
 30
0.0
 42
-0.088162
  0
VERTEX
  8
NC_Symbol-A
 10
2.628670
 20
22.718460
 30
0.0
  0
VERTEX
  8
NC_Symbol-A
 10
2.756030
 20
22.671710
 30
0.0
 42
-0.121076
  0
VERTEX
  8
NC_Symbol-A
 10
2.785720
 20
22.651710
 30
0.0
  0
VERTEX
  8
NC_Symbol-A
 10
2.870620
 20
22.558200
 30
0.0
 42
-0.077870
  0
VERTEX
  8
NC_Symbol-A
 10
2.883380
 20
22.538800
 30
0.0
  0
VERTEX
  8
NC_Symbol-A
 10
2.968290
 20
22.351790
 30
0.0
 42
-0.106969
  0
VERTEX
  8
NC_Symbol-A
 10
2.975000
 20
22.320780
 30
0.0
  0
VERTEX
  8
NC_Symbol-A
 10
2.975000
 20
22.227270
 30
0.0
 42
-0.055853
  0
VERTEX
  8
NC_Symbol-A
 10
2.973140
 20
22.210670
 30
0.0
  0
VERTEX
  8
NC_Symbol-A
 10
2.930690
 20
22.023660
 30
0.0
 42
-0.129239
  0
VERTEX
  8
NC_Symbol-A
 10
2.913070
 20
21.989840
 30
0.0
  0
VERTEX
  8
NC_Symbol-A
 10
2.785710
 20
21.849580
 30
0.0
 42
-1.000000
  0
VERTEX
  8
NC_Symbol-A
 10
2.674670
 20
21.950420
 30
0.0
  0
VERTEX
  8
NC_Symbol-A
 10
2.788770
 20
22.076080
 30
0.0
  0
VERTEX
  8
NC_Symbol-A
 10
2.825000
 20
22.235680
 30
0.0
  0
VERTEX
  8
NC_Symbol-A
 10
2.825000
 20
22.304550
 30
0.0
  0
VERTEX
  8
NC_Symbol-A
 10
2.751660
 20
22.466080
 30
0.0
  0
VERTEX
  8
NC_Symbol-A
 10
2.687050
 20
22.537240
 30
0.0
  0
VERTEX
  8
NC_Symbol-A
 10
2.589500
 20
22.573050
 30
0.0
  0
VERTEX
  8
NC_Symbol-A
 10
2.531250
 20
22.573050
 30
0.0
  0
VERTEX
  8
NC_Symbol-A
 10
2.444200
 20
22.541090
 30
0.0
  0
VERTEX
  8
NC_Symbol-A
 10
2.389710
 20
22.433080
 30
0.0
  0
VERTEX
  8
NC_Symbol-A
 10
2.349910
 20
22.301590
 30
0.0
  0
VERTEX
  8
NC_Symbol-A
 10
2.308050
 20
22.117170
 30
0.0
 42
-0.050812
  0
VERTEX
  8
NC_Symbol-A
 10
2.303200
 20
22.102760
 30
0.0
  0
VERTEX
  8
NC_Symbol-A
 10
2.260740
 20
22.009250
 30
0.0
 42
-0.161686
  0
VERTEX
  8
NC_Symbol-A
 10
2.228630
 20
21.974560
 30
0.0
  0
VERTEX
  8
NC_Symbol-A
 10
2.143730
 20
21.927810
 30
0.0
 42
-0.126514
  0
VERTEX
  8
NC_Symbol-A
 10
2.107550
 20
21.918510
 30
0.0
  0
VERTEX
  8
NC_Symbol-A
 10
2.022640
 20
21.918510
 30
0.0
 42
-0.088162
  0
VERTEX
  8
NC_Symbol-A
 10
1.996800
 20
21.923100
 30
0.0
  0
VERTEX
  8
NC_Symbol-A
 10
1.869440
 20
21.969850
 30
0.0
 42
-0.121056
  0
VERTEX
  8
NC_Symbol-A
 10
1.839750
 20
21.989840
 30
0.0
  0
VERTEX
  8
NC_Symbol-A
 10
1.797300
 20
22.036590
 30
0.0
 42
-0.111269
  0
VERTEX
  8
NC_Symbol-A
 10
1.781050
 20
22.065280
 30
0.0
  0
VERTEX
  8
NC_Symbol-A
 10
1.738600
 20
22.205540
 30
0.0
 42
-0.073621
  0
VERTEX
  8
NC_Symbol-A
 10
1.735380
 20
22.227270
 30
0.0
  0
VERTEX
  8
NC_Symbol-A
 10
1.735380
 20
22.320780
 30
0.0
 42
-0.055853
  0
VERTEX
  8
NC_Symbol-A
 10
1.737240
 20
22.337380
 30
0.0
  0
VERTEX
  8
NC_Symbol-A
 10
1.779690
 20
22.524390
 30
0.0
 42
-0.129239
  0
VERTEX
  8
NC_Symbol-A
 10
1.797310
 20
22.558210
 30
0.0
  0
SEQEND
  0
POLYLINE
  8
NC_Symbol-A
 66
   1
 10
0.0
 20
0.0
 30
0.0
 70
   1
  0
VERTEX
  8
NC_Symbol-A
 10
1.735380
 20
23.794810
 30
0.0
 42
-1.000000
  0
VERTEX
  8
NC_Symbol-A
 10
1.885380
 20
23.794810
 30
0.0
  0
VERTEX
  8
NC_Symbol-A
 10
1.885380
 20
23.075000
 30
0.0
  0
VERTEX
  8
NC_Symbol-A
 10
2.825000
 20
23.075000
 30
0.0
  0
VERTEX
  8
NC_Symbol-A
 10
2.825000
 20
23.794810
 30
0.0
 42
-1.000000
  0
VERTEX
  8
NC_Symbol-A
 10
2.975000
 20
23.794810
 30
0.0
  0
VERTEX
  8
NC_Symbol-A
 10
2.975000
 20
23.000000
 30
0.0
 42
-0.414214
  0
VERTEX
  8
NC_Symbol-A
 10
2.900000
 20
22.925000
 30
0.0
  0
VERTEX
  8
NC_Symbol-A
 10
1.810380
 20
22.925000
 30
0.0
 42
-0.414214
  0
VERTEX
  8
NC_Symbol-A
 10
1.735380
 20
23.000000
 30
0.0
  0
SEQEND
  0
POLYLINE
  8
NC_Symbol-A
 66
   1
 10
0.0
 20
0.0
 30
0.0
 70
   1
  0
VERTEX
  8
NC_Symbol-A
 10
2.423110
 20
23.000000
 30
0.0
 42
-1.000000
  0
VERTEX
  8
NC_Symbol-A
 10
2.273110
 20
23.000000
 30
0.0
  0
VERTEX
  8
NC_Symbol-A
 10
2.273110
 20
23.666230
 30
0.0
 42
-1.000000
  0
VERTEX
  8
NC_Symbol-A
 10
2.423110
 20
23.666230
 30
0.0
  0
SEQEND
  0
POLYLINE
  8
NC_Symbol-A
 66
   1
 10
0.0
 20
0.0
 30
0.0
 70
   1
  0
VERTEX
  8
NC_Symbol-A
 10
6.750000
 20
24.525000
 30
0.0
 42
-1.000000
  0
VERTEX
  8
NC_Symbol-A
 10
6.750000
 20
24.375000
 30
0.0
  0
VERTEX
  8
NC_Symbol-A
 10
6.750000
 20
24.375000
 30
0.0
 42
1.000000
  0
VERTEX
  8
NC_Symbol-A
 10
6.750000
 20
26.125000
 30
0.0
 42
1.000000
  0
VERTEX
  8
NC_Symbol-A
 10
6.750000
 20
24.375000
 30
0.0
  0
VERTEX
  8
NC_Symbol-A
 10
6.750000
 20
24.375000
 30
0.0
 42
-1.000000
  0
VERTEX
  8
NC_Symbol-A
 10
6.750000
 20
24.525000
 30
0.0
  0
VERTEX
  8
NC_Symbol-A
 10
6.750000
 20
24.525000
 30
0.0
 42
1.000000
  0
VERTEX
  8
NC_Symbol-A
 10
6.750000
 20
25.975000
 30
0.0
 42
1.000000
  0
VERTEX
  8
NC_Symbol-A
 10
6.750000
 20
24.525000
 30
0.0
  0
SEQEND
  0
POLYLINE
  8
NC_Symbol-A
 66
   1
 10
0.0
 20
0.0
 30
0.0
 70
   1
  0
VERTEX
  8
NC_Symbol-A
 10
6.936140
 20
25.592370
 30
0.0
 42
-1.000000
  0
VERTEX
  8
NC_Symbol-A
 10
7.077060
 20
25.540970
 30
0.0
  0
VERTEX
  8
NC_Symbol-A
 10
6.812120
 20
24.814550
 30
0.0
 42
-0.699716
  0
VERTEX
  8
NC_Symbol-A
 10
6.671200
 20
24.814550
 30
0.0
  0
VERTEX
  8
NC_Symbol-A
 10
6.406270
 20
25.540970
 30
0.0
 42
-1.000000
  0
VERTEX
  8
NC_Symbol-A
 10
6.547190
 20
25.592370
 30
0.0
  0
VERTEX
  8
NC_Symbol-A
 10
6.741660
 20
25.059140
 30
0.0
  0
SEQEND
  0
POLYLINE
  8
NC_Symbol-A
 66
   1
 10
0.0
 20
0.0
 30
0.0
 70
   1
  0
VERTEX
  8
NC_Symbol-A
 10
6.928680
 20
25.415250
 30
0.0
 42
-1.000000
  0
VERTEX
  8
NC_Symbol-A
 10
6.928680
 20
25.265250
 30
0.0
  0
VERTEX
  8
NC_Symbol-A
 10
6.554650
 20
25.265250
 30
0.0
 42
-1.000000
  0
VERTEX
  8
NC_Symbol-A
 10
6.554650
 20
25.415250
 30
0.0
  0
SEQEND
  0
POLYLINE
  8
NC_Symbol-A
 66
   1
 10
0.0
 20
0.0
 30
0.0
 70
   1
  0
VERTEX
  8
NC_Symbol-A
 10
25.370700
 20
4.840320
 30
0.0
 42
-1.000000
  0
VERTEX
  8
NC_Symbol-A
 10
25.459480
 20
4.719420
 30
0.0
  0
VERTEX
  8
NC_Symbol-A
 10
25.391760
 20
4.669690
 30
0.0
  0
VERTEX
  8
NC_Symbol-A
 10
25.348580
 20
4.562710
 30
0.0
  0
VERTEX
  8
NC_Symbol-A
 10
25.348580
 20
4.528790
 30
0.0
  0
VERTEX
  8
NC_Symbol-A
 10
25.392580
 20
4.413720
 30
0.0
  0
VERTEX
  8
NC_Symbol-A
 10
25.477190
 20
4.349660
 30
0.0
  0
VERTEX
  8
NC_Symbol-A
 10
25.566740
 20
4.325000
 30
0.0
  0
VERTEX
  8
NC_Symbol-A
 10
25.706840
 20
4.325000
 30
0.0
  0
VERTEX
  8
NC_Symbol-A
 10
25.796400
 20
4.349660
 30
0.0
  0
VERTEX
  8
NC_Symbol-A
 10
25.881010
 20
4.413720
 30
0.0
  0
VERTEX
  8
NC_Symbol-A
 10
25.925000
 20
4.528790
 30
0.0
  0
VERTEX
  8
NC_Symbol-A
 10
25.925000
 20
4.562710
 30
0.0
  0
VERTEX
  8
NC_Symbol-A
 10
25.883840
 20
4.664710
 30
0.0
  0
VERTEX
  8
NC_Symbol-A
 10
25.794010
 20
4.714170
 30
0.0
 42
-1.000000
  0
VERTEX
  8
NC_Symbol-A
 10
25.866370
 20
4.845570
 30
0.0
  0
VERTEX
  8
NC_Symbol-A
 10
25.979580
 20
4.783230
 30
0.0
 42
-0.172647
  0
VERTEX
  8
NC_Symbol-A
 10
26.012950
 20
4.745600
 30
0.0
  0
VERTEX
  8
NC_Symbol-A
 10
26.069550
 20
4.605340
 30
0.0
 42
-0.096196
  0
VERTEX
  8
NC_Symbol-A
 10
26.075000
 20
4.577270
 30
0.0
  0
VERTEX
  8
NC_Symbol-A
 10
26.075000
 20
4.514940
 30
0.0
 42
-0.091533
  0
VERTEX
  8
NC_Symbol-A
 10
26.070060
 20
4.488160
 30
0.0
  0
VERTEX
  8
NC_Symbol-A
 10
26.013460
 20
4.340100
 30
0.0
 42
-0.140344
  0
VERTEX
  8
NC_Symbol-A
 10
25.988670
 20
4.307080
 30
0.0
  0
VERTEX
  8
NC_Symbol-A
 10
25.875460
 20
4.221370
 30
0.0
 42
-0.095112
  0
VERTEX
  8
NC_Symbol-A
 10
25.850100
 20
4.208860
 30
0.0
  0
VERTEX
  8
NC_Symbol-A
 10
25.736890
 20
4.177690
 30
0.0
 42
-0.067273
  0
VERTEX
  8
NC_Symbol-A
 10
25.716980
 20
4.175000
 30
0.0
  0
VERTEX
  8
NC_Symbol-A
 10
25.556600
 20
4.175000
 30
0.0
 42
-0.067273
  0
VERTEX
  8
NC_Symbol-A
 10
25.536690
 20
4.177690
 30
0.0
  0
VERTEX
  8
NC_Symbol-A
 10
25.423490
 20
4.208860
 30
0.0
 42
-0.095112
  0
VERTEX
  8
NC_Symbol-A
 10
25.398130
 20
4.221370
 30
0.0
  0
VERTEX
  8
NC_Symbol-A
 10
25.284920
 20
4.307080
 30
0.0
 42
-0.140323
  0
VERTEX
  8
NC_Symbol-A
 10
25.260140
 20
4.340100
 30
0.0
  0
VERTEX
  8
NC_Symbol-A
 10
25.203530
 20
4.488160
 30
0.0
 42
-0.091539
  0
VERTEX
  8
NC_Symbol-A
 10
25.198580
 20
4.514940
 30
0.0
  0
VERTEX
  8
NC_Symbol-A
 10
25.198580
 20
4.577270
 30
0.0
 42
-0.096196
  0
VERTEX
  8
NC_Symbol-A
 10
25.204030
 20
4.605340
 30
0.0
  0
VERTEX
  8
NC_Symbol-A
 10
25.260640
 20
4.745600
 30
0.0
 42
-0.139340
  0
VERTEX
  8
NC_Symbol-A
 10
25.285800
 20
4.777980
 30
0.0
  0
SEQEND
  0
POLYLINE
  8
NC_Symbol-A
 66
   1
 10
0.0
 20
0.0
 30
0.0
 70
   1
  0
VERTEX
  8
NC_Symbol-A
 10
26.044200
 20
5.110590
 30
0.0
 42
-1.000000
  0
VERTEX
  8
NC_Symbol-A
 10
25.955800
 20
4.989410
 30
0.0
  0
VERTEX
  8
NC_Symbol-A
 10
25.229380
 20
5.519280
 30
0.0
 42
-1.000000
  0
VERTEX
  8
NC_Symbol-A
 10
25.317780
 20
5.640460
 30
0.0
  0
SEQEND
  0
POLYLINE
  8
NC_Symbol-A
 66
   1
 10
0.0
 20
0.0
 30
0.0
 70
   1
  0
VERTEX
  8
NC_Symbol-A
 10
25.317780
 20
4.989410
 30
0.0
 42
-1.000000
  0
VERTEX
  8
NC_Symbol-A
 10
25.229380
 20
5.110590
 30
0.0
  0
VERTEX
  8
NC_Symbol-A
 10
25.955800
 20
5.640460
 30
0.0
 42
-1.000000
  0
VERTEX
  8
NC_Symbol-A
 10
26.044200
 20
5.519280
 30
0.0
  0
SEQEND
  0
POLYLINE
  8
NC_Symbol-A
 66
   1
 10
0.0
 20
0.0
 30
0.0
 70
   1
  0
VERTEX
  8
NC_Symbol-A
 10
26.000000
 20
5.925000
 30
0.0
 42
-1.000000
  0
VERTEX
  8
NC_Symbol-A
 10
26.000000
 20
5.775000
 30
0.0
  0
VERTEX
  8
NC_Symbol-A
 10
25.273580
 20
5.775000
 30
0.0
 42
-0.414214
  0
VERTEX
  8
NC_Symbol-A
 10
25.198580
 20
5.850000
 30
0.0
  0
VERTEX
  8
NC_Symbol-A
 10
25.198580
 20
6.177270
 30
0.0
 42
-0.113231
  0
VERTEX
  8
NC_Symbol-A
 10
25.206080
 20
6.209960
 30
0.0
  0
VERTEX
  8
NC_Symbol-A
 10
25.262690
 20
6.326850
 30
0.0
 42
-0.088472
  0
VERTEX
  8
NC_Symbol-A
 10
25.278150
 20
6.348170
 30
0.0
  0
VERTEX
  8
NC_Symbol-A
 10
25.334750
 20
6.402710
 30
0.0
 42
-0.065989
  0
VERTEX
  8
NC_Symbol-A
 10
25.350620
 20
6.414400
 30
0.0
  0
VERTEX
  8
NC_Symbol-A
 10
25.407230
 20
6.445570
 30
0.0
 42
-0.126480
  0
VERTEX
  8
NC_Symbol-A
 10
25.443400
 20
6.454870
 30
0.0
  0
VERTEX
  8
NC_Symbol-A
 10
25.830190
 20
6.454870
 30
0.0
 42
-0.126514
  0
VERTEX
  8
NC_Symbol-A
 10
25.866370
 20
6.445570
 30
0.0
  0
VERTEX
  8
NC_Symbol-A
 10
25.922970
 20
6.414400
 30
0.0
 42
-0.065961
  0
VERTEX
  8
NC_Symbol-A
 10
25.938830
 20
6.402710
 30
0.0
  0
VERTEX
  8
NC_Symbol-A
 10
25.995440
 20
6.348170
 30
0.0
 42
-0.088472
  0
VERTEX
  8
NC_Symbol-A
 10
26.010900
 20
6.326850
 30
0.0
  0
VERTEX
  8
NC_Symbol-A
 10
26.067500
 20
6.209960
 30
0.0
 42
-0.113231
  0
VERTEX
  8
NC_Symbol-A
 10
26.075000
 20
6.177270
 30
0.0
  0
VERTEX
  8
NC_Symbol-A
 10
26.075000
 20
5.850000
 30
0.0
 42
-1.000000
  0
VERTEX
  8
NC_Symbol-A
 10
25.925000
 20
5.850000
 30
0.0
  0
VERTEX
  8
NC_Symbol-A
 10
25.925000
 20
6.160070
 30
0.0
  0
VERTEX
  8
NC_Symbol-A
 10
25.881730
 20
6.249430
 30
0.0
  0
VERTEX
  8
NC_Symbol-A
 10
25.841910
 20
6.287800
 30
0.0
  0
VERTEX
  8
NC_Symbol-A
 10
25.810900
 20
6.304870
 30
0.0
  0
VERTEX
  8
NC_Symbol-A
 10
25.462680
 20
6.304870
 30
0.0
  0
VERTEX
  8
NC_Symbol-A
 10
25.431670
 20
6.287800
 30
0.0
  0
VERTEX
  8
NC_Symbol-A
 10
25.391860
 20
6.249430
 30
0.0
  0
VERTEX
  8
NC_Symbol-A
 10
25.348580
 20
6.160060
 30
0.0
  0
VERTEX
  8
NC_Symbol-A
 10
25.348580
 20
5.925000
 30
0.0
  0
SEQEND
  0
POLYLINE
  8
NC_Symbol-A
 66
   1
 10
0.0
 20
0.0
 30
0.0
 70
   1
  0
VERTEX
  8
NC_Symbol-A
 10
25.198580
 20
7.117530
 30
0.0
 42
-1.000000
  0
VERTEX
  8
NC_Symbol-A
 10
25.348580
 20
7.117530
 30
0.0
  0
VERTEX
  8
NC_Symbol-A
 10
25.348580
 20
6.756170
 30
0.0
  0
VERTEX
  8
NC_Symbol-A
 10
25.496780
 20
6.756170
 30
0.0
  0
VERTEX
  8
NC_Symbol-A
 10
25.488310
 20
6.774830
 30
0.0
 42
-0.106969
  0
VERTEX
  8
NC_Symbol-A
 10
25.481600
 20
6.805840
 30
0.0
  0
VERTEX
  8
NC_Symbol-A
 10
25.481600
 20
6.930520
 30
0.0
 42
-0.073621
  0
VERTEX
  8
NC_Symbol-A
 10
25.484820
 20
6.952250
 30
0.0
  0
VERTEX
  8
NC_Symbol-A
 10
25.513130
 20
7.045760
 30
0.0
 42
-0.088707
  0
VERTEX
  8
NC_Symbol-A
 10
25.525110
 20
7.069290
 30
0.0
  0
VERTEX
  8
NC_Symbol-A
 10
25.572280
 20
7.131620
 30
0.0
 42
-0.072506
  0
VERTEX
  8
NC_Symbol-A
 10
25.587690
 20
7.146810
 30
0.0
  0
VERTEX
  8
NC_Symbol-A
 10
25.672590
 20
7.209150
 30
0.0
 42
-0.159683
  0
VERTEX
  8
NC_Symbol-A
 10
25.716980
 20
7.223700
 30
0.0
  0
VERTEX
  8
NC_Symbol-A
 10
25.830190
 20
7.223700
 30
0.0
 42
-0.159683
  0
VERTEX
  8
NC_Symbol-A
 10
25.874580
 20
7.209150
 30
0.0
  0
VERTEX
  8
NC_Symbol-A
 10
25.959480
 20
7.146810
 30
0.0
 42
-0.098579
  0
VERTEX
  8
NC_Symbol-A
 10
25.979250
 20
7.125200
 30
0.0
  0
VERTEX
  8
NC_Symbol-A
 10
26.035860
 20
7.031700
 30
0.0
 42
-0.062710
  0
VERTEX
  8
NC_Symbol-A
 10
26.043480
 20
7.014580
 30
0.0
  0
VERTEX
  8
NC_Symbol-A
 10
26.071780
 20
6.921070
 30
0.0
 42
-0.073588
  0
VERTEX
  8
NC_Symbol-A
 10
26.075000
 20
6.899350
 30
0.0
  0
VERTEX
  8
NC_Symbol-A
 10
26.075000
 20
6.837010
 30
0.0
 42
-0.106935
  0
VERTEX
  8
NC_Symbol-A
 10
26.068290
 20
6.806010
 30
0.0
  0
VERTEX
  8
NC_Symbol-A
 10
26.011690
 20
6.681340
 30
0.0
 42
-0.077945
  0
VERTEX
  8
NC_Symbol-A
 10
25.998920
 20
6.661920
 30
0.0
  0
VERTEX
  8
NC_Symbol-A
 10
25.942310
 20
6.599580
 30
0.0
 42
-1.000000
  0
VERTEX
  8
NC_Symbol-A
 10
25.831270
 20
6.700420
 30
0.0
  0
VERTEX
  8
NC_Symbol-A
 10
25.879970
 20
6.754050
 30
0.0
  0
VERTEX
  8
NC_Symbol-A
 10
25.925000
 20
6.853240
 30
0.0
  0
VERTEX
  8
NC_Symbol-A
 10
25.925000
 20
6.888250
 30
0.0
  0
VERTEX
  8
NC_Symbol-A
 10
25.902650
 20
6.962100
 30
0.0
  0
VERTEX
  8
NC_Symbol-A
 10
25.858670
 20
7.034740
 30
0.0
  0
VERTEX
  8
NC_Symbol-A
 10
25.805610
 20
7.073700
 30
0.0
  0
VERTEX
  8
NC_Symbol-A
 10
25.741560
 20
7.073700
 30
0.0
  0
VERTEX
  8
NC_Symbol-A
 10
25.685280
 20
7.032380
 30
0.0
  0
VERTEX
  8
NC_Symbol-A
 10
25.652810
 20
6.989460
 30
0.0
  0
VERTEX
  8
NC_Symbol-A
 10
25.631600
 20
6.919420
 30
0.0
  0
VERTEX
  8
NC_Symbol-A
 10
25.631600
 20
6.822070
 30
0.0
  0
VERTEX
  8
NC_Symbol-A
 10
25.681500
 20
6.712180
 30
0.0
 42
-0.545351
  0
VERTEX
  8
NC_Symbol-A
 10
25.613210
 20
6.606170
 30
0.0
  0
VERTEX
  8
NC_Symbol-A
 10
25.273580
 20
6.606170
 30
0.0
 42
-0.414214
  0
VERTEX
  8
NC_Symbol-A
 10
25.198580
 20
6.681170
 30
0.0
  0
SEQEND
  0
POLYLINE
  8
NC_Symbol-A
 66
   1
 10
0.0
 20
0.0
 30
0.0
 70
   1
  0
VERTEX
  8
NC_Symbol-A
 10
25.302960
 20
7.999110
 30
0.0
 42
-1.000000
  0
VERTEX
  8
NC_Symbol-A
 10
25.414020
 20
7.898290
 30
0.0
  0
VERTEX
  8
NC_Symbol-A
 10
25.392270
 20
7.874330
 30
0.0
  0
VERTEX
  8
NC_Symbol-A
 10
25.371230
 20
7.833770
 30
0.0
  0
VERTEX
  8
NC_Symbol-A
 10
25.348580
 20
7.765210
 30
0.0
  0
VERTEX
  8
NC_Symbol-A
 10
25.348580
 20
7.664660
 30
0.0
  0
VERTEX
  8
NC_Symbol-A
 10
25.369720
 20
7.600660
 30
0.0
  0
VERTEX
  8
NC_Symbol-A
 10
25.393060
 20
7.566920
 30
0.0
  0
VERTEX
  8
NC_Symbol-A
 10
25.420840
 20
7.548560
 30
0.0
  0
VERTEX
  8
NC_Symbol-A
 10
25.485030
 20
7.525000
 30
0.0
  0
VERTEX
  8
NC_Symbol-A
 10
25.788560
 20
7.525000
 30
0.0
  0
VERTEX
  8
NC_Symbol-A
 10
25.855600
 20
7.549610
 30
0.0
  0
VERTEX
  8
NC_Symbol-A
 10
25.887300
 20
7.567070
 30
0.0
  0
VERTEX
  8
NC_Symbol-A
 10
25.902360
 20
7.596090
 30
0.0
  0
VERTEX
  8
NC_Symbol-A
 10
25.925000
 20
7.664660
 30
0.0
  0
VERTEX
  8
NC_Symbol-A
 10
25.925000
 20
7.765210
 30
0.0
  0
VERTEX
  8
NC_Symbol-A
 10
25.902360
 20
7.833780
 30
0.0
  0
VERTEX
  8
NC_Symbol-A
 10
25.887300
 20
7.862800
 30
0.0
  0
VERTEX
  8
NC_Symbol-A
 10
25.855600
 20
7.880260
 30
0.0
  0
VERTEX
  8
NC_Symbol-A
 10
25.788560
 20
7.904870
 30
0.0
  0
VERTEX
  8
NC_Symbol-A
 10
25.764570
 20
7.904870
 30
0.0
  0
VERTEX
  8
NC_Symbol-A
 10
25.736620
 20
7.889480
 30
0.0
  0
VERTEX
  8
NC_Symbol-A
 10
25.710130
 20
7.858850
 30
0.0
  0
VERTEX
  8
NC_Symbol-A
 10
25.688210
 20
7.768320
 30
0.0
  0
VERTEX
  8
NC_Symbol-A
 10
25.688210
 20
7.658610
 30
0.0
  0
VERTEX
  8
NC_Symbol-A
 10
25.702130
 20
7.572360
 30
0.0
  0
VERTEX
  8
NC_Symbol-A
 10
25.733560
 20
7.542070
 30
0.0
  0
VERTEX
  8
NC_Symbol-A
 10
25.781460
 20
7.515700
 30
0.0
 42
-1.000000
  0
VERTEX
  8
NC_Symbol-A
 10
25.709100
 20
7.384300
 30
0.0
  0
VERTEX
  8
NC_Symbol-A
 10
25.652500
 20
7.415470
 30
0.0
 42
-0.065961
  0
VERTEX
  8
NC_Symbol-A
 10
25.636640
 20
7.427160
 30
0.0
  0
VERTEX
  8
NC_Symbol-A
 10
25.580040
 20
7.481700
 30
0.0
 42
-0.162393
  0
VERTEX
  8
NC_Symbol-A
 10
25.558040
 20
7.523760
 30
0.0
  0
VERTEX
  8
NC_Symbol-A
 10
25.539170
 20
7.640650
 30
0.0
 42
-0.040026
  0
VERTEX
  8
NC_Symbol-A
 10
25.538210
 20
7.652600
 30
0.0
  0
VERTEX
  8
NC_Symbol-A
 10
25.538210
 20
7.777270
 30
0.0
 42
-0.059462
  0
VERTEX
  8
NC_Symbol-A
 10
25.540320
 20
7.794920
 30
0.0
  0
VERTEX
  8
NC_Symbol-A
 10
25.568620
 20
7.911810
 30
0.0
 42
-0.119424
  0
VERTEX
  8
NC_Symbol-A
 10
25.584780
 20
7.943220
 30
0.0
  0
VERTEX
  8
NC_Symbol-A
 10
25.631950
 20
7.997760
 30
0.0
 42
-0.088836
  0
VERTEX
  8
NC_Symbol-A
 10
25.652500
 20
8.014400
 30
0.0
  0
VERTEX
  8
NC_Symbol-A
 10
25.709100
 20
8.045570
 30
0.0
 42
-0.126514
  0
VERTEX
  8
NC_Symbol-A
 10
25.745280
 20
8.054870
 30
0.0
  0
VERTEX
  8
NC_Symbol-A
 10
25.801890
 20
8.054870
 30
0.0
 42
-0.088201
  0
VERTEX
  8
NC_Symbol-A
 10
25.827740
 20
8.050270
 30
0.0
  0
VERTEX
  8
NC_Symbol-A
 10
25.912640
 20
8.019100
 30
0.0
 42
-0.037854
  0
VERTEX
  8
NC_Symbol-A
 10
25.922960
 20
8.014400
 30
0.0
  0
VERTEX
  8
NC_Symbol-A
 10
25.979570
 20
7.983230
 30
0.0
 42
-0.148301
  0
VERTEX
  8
NC_Symbol-A
 10
26.009970
 20
7.952070
 30
0.0
  0
VERTEX
  8
NC_Symbol-A
 10
26.038270
 20
7.897530
 30
0.0
 42
-0.039964
  0
VERTEX
  8
NC_Symbol-A
 10
26.042920
 20
7.886500
 30
0.0
  0
VERTEX
  8
NC_Symbol-A
 10
26.071220
 20
7.800780
 30
0.0
 42
-0.079880
  0
VERTEX
  8
NC_Symbol-A
 10
26.075000
 20
7.777270
 30
0.0
  0
VERTEX
  8
NC_Symbol-A
 10
26.075000
 20
7.652600
 30
0.0
 42
-0.079880
  0
VERTEX
  8
NC_Symbol-A
 10
26.071220
 20
7.629090
 30
0.0
  0
VERTEX
  8
NC_Symbol-A
 10
26.042920
 20
7.543370
 30
0.0
 42
-0.039964
  0
VERTEX
  8
NC_Symbol-A
 10
26.038270
 20
7.532340
 30
0.0
  0
VERTEX
  8
NC_Symbol-A
 10
26.009970
 20
7.477800
 30
0.0
 42
-0.148301
  0
VERTEX
  8
NC_Symbol-A
 10
25.979570
 20
7.446640
 30
0.0
  0
VERTEX
  8
NC_Symbol-A
 10
25.922960
 20
7.415470
 30
0.0
 42
-0.037854
  0
VERTEX
  8
NC_Symbol-A
 10
25.912640
 20
7.410770
 30
0.0
  0
VERTEX
  8
NC_Symbol-A
 10
25.827740
 20
7.379600
 30
0.0
 42
-0.088201
  0
VERTEX
  8
NC_Symbol-A
 10
25.801890
 20
7.375000
 30
0.0
  0
VERTEX
  8
NC_Symbol-A
 10
25.471700
 20
7.375000
 30
0.0
 42
-0.088195
  0
VERTEX
  8
NC_Symbol-A
 10
25.445850
 20
7.379590
 30
0.0
  0
VERTEX
  8
NC_Symbol-A
 10
25.360940
 20
7.410760
 30
0.0
 42
-0.058095
  0
VERTEX
  8
NC_Symbol-A
 10
25.345440
 20
7.418600
 30
0.0
  0
VERTEX
  8
NC_Symbol-A
 10
25.298270
 20
7.449770
 30
0.0
 42
-0.095697
  0
VERTEX
  8
NC_Symbol-A
 10
25.277940
 20
7.469670
 30
0.0
  0
VERTEX
  8
NC_Symbol-A
 10
25.240210
 20
7.524210
 30
0.0
 42
-0.071682
  0
VERTEX
  8
NC_Symbol-A
 10
25.230670
 20
7.543360
 30
0.0
  0
VERTEX
  8
NC_Symbol-A
 10
25.202360
 20
7.629080
 30
0.0
 42
-0.079913
  0
VERTEX
  8
NC_Symbol-A
 10
25.198580
 20
7.652600
 30
0.0
  0
VERTEX
  8
NC_Symbol-A
 10
25.198580
 20
7.777270
 30
0.0
 42
-0.079913
  0
VERTEX
  8
NC_Symbol-A
 10
25.202360
 20
7.800790
 30
0.0
  0
VERTEX
  8
NC_Symbol-A
 10
25.230670
 20
7.886510
 30
0.0
 42
-0.039933
  0
VERTEX
  8
NC_Symbol-A
 10
25.235320
 20
7.897530
 30
0.0
  0
VERTEX
  8
NC_Symbol-A
 10
25.263620
 20
7.952070
 30
0.0
 42
-0.064711
  0
VERTEX
  8
NC_Symbol-A
 10
25.274660
 20
7.967940
 30
0.0
  0
SEQEND
  0
POLYLINE
  8
NC_Symbol-A
 66
   1
 10
0.0
 20
0.0
 30
0.0
 70
   1
  0
VERTEX
  8
NC_Symbol-A
 10
25.528300
 20
8.245130
 30
0.0
 42
-1.000000
  0
VERTEX
  8
NC_Symbol-A
 10
25.528300
 20
8.395130
 30
0.0
  0
VERTEX
  8
NC_Symbol-A
 10
25.737620
 20
8.395130
 30
0.0
  0
VERTEX
  8
NC_Symbol-A
 10
25.836400
 20
8.415530
 30
0.0
  0
VERTEX
  8
NC_Symbol-A
 10
25.873300
 20
8.430770
 30
0.0
  0
VERTEX
  8
NC_Symbol-A
 10
25.912610
 20
8.468640
 30
0.0
  0
VERTEX
  8
NC_Symbol-A
 10
25.925000
 20
8.489110
 30
0.0
  0
VERTEX
  8
NC_Symbol-A
 10
25.925000
 20
8.540760
 30
0.0
  0
VERTEX
  8
NC_Symbol-A
 10
25.912610
 20
8.561230
 30
0.0
  0
VERTEX
  8
NC_Symbol-A
 10
25.873300
 20
8.599100
 30
0.0
  0
VERTEX
  8
NC_Symbol-A
 10
25.836400
 20
8.614340
 30
0.0
  0
VERTEX
  8
NC_Symbol-A
 10
25.737620
 20
8.634740
 30
0.0
  0
VERTEX
  8
NC_Symbol-A
 10
25.535960
 20
8.634740
 30
0.0
  0
VERTEX
  8
NC_Symbol-A
 10
25.437180
 20
8.614340
 30
0.0
  0
VERTEX
  8
NC_Symbol-A
 10
25.400280
 20
8.599100
 30
0.0
  0
VERTEX
  8
NC_Symbol-A
 10
25.360980
 20
8.561220
 30
0.0
  0
VERTEX
  8
NC_Symbol-A
 10
25.348580
 20
8.540750
 30
0.0
  0
VERTEX
  8
NC_Symbol-A
 10
25.348580
 20
8.489120
 30
0.0
  0
VERTEX
  8
NC_Symbol-A
 10
25.360980
 20
8.468650
 30
0.0
  0
VERTEX
  8
NC_Symbol-A
 10
25.400280
 20
8.430770
 30
0.0
  0
VERTEX
  8
NC_Symbol-A
 10
25.437180
 20
8.415530
 30
0.0
  0
VERTEX
  8
NC_Symbol-A
 10
25.543470
 20
8.393580
 30
0.0
 42
-1.000000
  0
VERTEX
  8
NC_Symbol-A
 10
25.513130
 20
8.246680
 30
0.0
  0
VERTEX
  8
NC_Symbol-A
 10
25.399920
 20
8.270060
 30
0.0
 42
-0.047003
  0
VERTEX
  8
NC_Symbol-A
 10
25.386470
 20
8.274190
 30
0.0
  0
VERTEX
  8
NC_Symbol-A
 10
25.329870
 20
8.297560
 30
0.0
 42
-0.094141
  0
VERTEX
  8
NC_Symbol-A
 10
25.306440
 20
8.312880
 30
0.0
  0
VERTEX
  8
NC_Symbol-A
 10
25.249840
 20
8.367430
 30
0.0
 42
-0.064902
  0
VERTEX
  8
NC_Symbol-A
 10
25.237740
 20
8.382580
 30
0.0
  0
VERTEX
  8
NC_Symbol-A
 10
25.209430
 20
8.429330
 30
0.0
 42
-0.136978
  0
VERTEX
  8
NC_Symbol-A
 10
25.198580
 20
8.468180
 30
0.0
  0
VERTEX
  8
NC_Symbol-A
 10
25.198580
 20
8.561690
 30
0.0
 42
-0.136978
  0
VERTEX
  8
NC_Symbol-A
 10
25.209430
 20
8.600540
 30
0.0
  0
VERTEX
  8
NC_Symbol-A
 10
25.237740
 20
8.647290
 30
0.0
 42
-0.064902
  0
VERTEX
  8
NC_Symbol-A
 10
25.249840
 20
8.662440
 30
0.0
  0
VERTEX
  8
NC_Symbol-A
 10
25.306440
 20
8.716990
 30
0.0
 42
-0.094141
  0
VERTEX
  8
NC_Symbol-A
 10
25.329870
 20
8.732310
 30
0.0
  0
VERTEX
  8
NC_Symbol-A
 10
25.386470
 20
8.755680
 30
0.0
 42
-0.047003
  0
VERTEX
  8
NC_Symbol-A
 10
25.399920
 20
8.759810
 30
0.0
  0
VERTEX
  8
NC_Symbol-A
 10
25.513130
 20
8.783190
 30
0.0
 42
-0.050962
  0
VERTEX
  8
NC_Symbol-A
 10
25.528300
 20
8.784740
 30
0.0
  0
VERTEX
  8
NC_Symbol-A
 10
25.745280
 20
8.784740
 30
0.0
 42
-0.050962
  0
VERTEX
  8
NC_Symbol-A
 10
25.760450
 20
8.783190
 30
0.0
  0
VERTEX
  8
NC_Symbol-A
 10
25.873660
 20
8.759810
 30
0.0
 42
-0.047003
  0
VERTEX
  8
NC_Symbol-A
 10
25.887110
 20
8.755680
 30
0.0
  0
VERTEX
  8
NC_Symbol-A
 10
25.943710
 20
8.732310
 30
0.0
 42
-0.094093
  0
VERTEX
  8
NC_Symbol-A
 10
25.967130
 20
8.717000
 30
0.0
  0
VERTEX
  8
NC_Symbol-A
 10
26.023740
 20
8.662450
 30
0.0
 42
-0.064997
  0
VERTEX
  8
NC_Symbol-A
 10
26.035860
 20
8.647280
 30
0.0
  0
VERTEX
  8
NC_Symbol-A
 10
26.064160
 20
8.600530
 30
0.0
 42
-0.136935
  0
VERTEX
  8
NC_Symbol-A
 10
26.075000
 20
8.561690
 30
0.0
  0
VERTEX
  8
NC_Symbol-A
 10
26.075000
 20
8.468180
 30
0.0
 42
-0.136935
  0
VERTEX
  8
NC_Symbol-A
 10
26.064160
 20
8.429340
 30
0.0
  0
VERTEX
  8
NC_Symbol-A
 10
26.035860
 20
8.382590
 30
0.0
 42
-0.064997
  0
VERTEX
  8
NC_Symbol-A
 10
26.023740
 20
8.367420
 30
0.0
  0
VERTEX
  8
NC_Symbol-A
 10
25.967130
 20
8.312870
 30
0.0
 42
-0.094093
  0
VERTEX
  8
NC_Symbol-A
 10
25.943710
 20
8.297560
 30
0.0
  0
VERTEX
  8
NC_Symbol-A
 10
25.887110
 20
8.274190
 30
0.0
 42
-0.047003
  0
VERTEX
  8
NC_Symbol-A
 10
25.873660
 20
8.270060
 30
0.0
  0
VERTEX
  8
NC_Symbol-A
 10
25.760450
 20
8.246680
 30
0.0
 42
-0.050962
  0
VERTEX
  8
NC_Symbol-A
 10
25.745280
 20
8.245130
 30
0.0
  0
SEQEND
  0
POLYLINE
  8
NC_Symbol-A
 66
   1
 10
0.0
 20
0.0
 30
0.0
 70
   1
  0
VERTEX
  8
NC_Symbol-A
 10
25.451270
 20
9.115700
 30
0.0
 42
-1.000000
  0
VERTEX
  8
NC_Symbol-A
 10
25.378910
 20
8.984300
 30
0.0
  0
VERTEX
  8
NC_Symbol-A
 10
25.322310
 20
9.015470
 30
0.0
 42
-0.082769
  0
VERTEX
  8
NC_Symbol-A
 10
25.302960
 20
9.030760
 30
0.0
  0
VERTEX
  8
NC_Symbol-A
 10
25.246360
 20
9.093100
 30
0.0
 42
-0.077842
  0
VERTEX
  8
NC_Symbol-A
 10
25.233600
 20
9.112490
 30
0.0
  0
VERTEX
  8
NC_Symbol-A
 10
25.205290
 20
9.174820
 30
0.0
 42
-0.107003
  0
VERTEX
  8
NC_Symbol-A
 10
25.198580
 20
9.205840
 30
0.0
  0
VERTEX
  8
NC_Symbol-A
 10
25.198580
 20
9.392860
 30
0.0
 42
-0.107003
  0
VERTEX
  8
NC_Symbol-A
 10
25.205290
 20
9.423880
 30
0.0
  0
VERTEX
  8
NC_Symbol-A
 10
25.233600
 20
9.486210
 30
0.0
 42
-0.077842
  0
VERTEX
  8
NC_Symbol-A
 10
25.246360
 20
9.505600
 30
0.0
  0
VERTEX
  8
NC_Symbol-A
 10
25.302960
 20
9.567940
 30
0.0
 42
-0.082769
  0
VERTEX
  8
NC_Symbol-A
 10
25.322310
 20
9.583230
 30
0.0
  0
VERTEX
  8
NC_Symbol-A
 10
25.378910
 20
9.614400
 30
0.0
 42
-0.126514
  0
VERTEX
  8
NC_Symbol-A
 10
25.415090
 20
9.623700
 30
0.0
  0
VERTEX
  8
NC_Symbol-A
 10
25.528300
 20
9.623700
 30
0.0
 42
-0.126480
  0
VERTEX
  8
NC_Symbol-A
 10
25.564470
 20
9.614400
 30
0.0
  0
VERTEX
  8
NC_Symbol-A
 10
25.621080
 20
9.583230
 30
0.0
 42
-0.085602
  0
VERTEX
  8
NC_Symbol-A
 10
25.641000
 20
9.567320
 30
0.0
  0
VERTEX
  8
NC_Symbol-A
 10
25.925000
 20
9.247440
 30
0.0
  0
VERTEX
  8
NC_Symbol-A
 10
25.925000
 20
9.548700
 30
0.0
 42
-1.000000
  0
VERTEX
  8
NC_Symbol-A
 10
26.075000
 20
9.548700
 30
0.0
  0
VERTEX
  8
NC_Symbol-A
 10
26.075000
 20
9.050000
 30
0.0
 42
-0.689898
  0
VERTEX
  8
NC_Symbol-A
 10
25.943910
 20
9.000210
 30
0.0
  0
VERTEX
  8
NC_Symbol-A
 10
25.537410
 20
9.458070
 30
0.0
  0
VERTEX
  8
NC_Symbol-A
 10
25.509020
 20
9.473700
 30
0.0
  0
VERTEX
  8
NC_Symbol-A
 10
25.434380
 20
9.473700
 30
0.0
  0
VERTEX
  8
NC_Symbol-A
 10
25.405620
 20
9.457860
 30
0.0
  0
VERTEX
  8
NC_Symbol-A
 10
25.365320
 20
9.413480
 30
0.0
  0
VERTEX
  8
NC_Symbol-A
 10
25.348580
 20
9.376630
 30
0.0
  0
VERTEX
  8
NC_Symbol-A
 10
25.348580
 20
9.222070
 30
0.0
  0
VERTEX
  8
NC_Symbol-A
 10
25.365320
 20
9.185220
 30
0.0
  0
VERTEX
  8
NC_Symbol-A
 10
25.405620
 20
9.140840
 30
0.0
  0
SEQEND
  0
POLYLINE
  8
NC_Symbol-A
 66
   1
 10
0.0
 20
0.0
 30
0.0
 70
   1
  0
VERTEX
  8
NC_Symbol-A
 10
26.000000
 20
9.925000
 30
0.0
 42
-1.000000
  0
VERTEX
  8
NC_Symbol-A
 10
26.000000
 20
9.775000
 30
0.0
  0
VERTEX
  8
NC_Symbol-A
 10
25.273580
 20
9.775000
 30
0.0
 42
-0.414214
  0
VERTEX
  8
NC_Symbol-A
 10
25.198580
 20
9.850000
 30
0.0
  0
VERTEX
  8
NC_Symbol-A
 10
25.198580
 20
10.177270
 30
0.0
 42
-0.120260
  0
VERTEX
  8
NC_Symbol-A
 10
25.207010
 20
10.211820
 30
0.0
  0
VERTEX
  8
NC_Symbol-A
 10
25.235320
 20
10.266370
 30
0.0
 42
-0.064683
  0
VERTEX
  8
NC_Symbol-A
 10
25.246360
 20
10.282230
 30
0.0
  0
VERTEX
  8
NC_Symbol-A
 10
25.302960
 20
10.344570
 30
0.0
 42
-0.110983
  0
VERTEX
  8
NC_Symbol-A
 10
25.329870
 20
10.363480
 30
0.0
  0
VERTEX
  8
NC_Symbol-A
 10
25.386470
 20
10.386850
 30
0.0
 42
-0.098199
  0
VERTEX
  8
NC_Symbol-A
 10
25.415090
 20
10.392530
 30
0.0
  0
VERTEX
  8
NC_Symbol-A
 10
25.500000
 20
10.392530
 30
0.0
 42
-0.112704
  0
VERTEX
  8
NC_Symbol-A
 10
25.532550
 20
10.385100
 30
0.0
  0
VERTEX
  8
NC_Symbol-A
 10
25.645760
 20
10.330560
 30
0.0
 42
-0.209984
  0
VERTEX
  8
NC_Symbol-A
 10
25.684990
 20
10.284720
 30
0.0
  0
VERTEX
  8
NC_Symbol-A
 10
25.703860
 20
10.222380
 30
0.0
 42
-0.073621
  0
VERTEX
  8
NC_Symbol-A
 10
25.707080
 20
10.200650
 30
0.0
  0
VERTEX
  8
NC_Symbol-A
 10
25.707080
 20
9.850000
 30
0.0
 42
-1.000000
  0
VERTEX
  8
NC_Symbol-A
 10
25.557080
 20
9.850000
 30
0.0
  0
VERTEX
  8
NC_Symbol-A
 10
25.557080
 20
10.189550
 30
0.0
  0
VERTEX
  8
NC_Symbol-A
 10
25.550970
 20
10.209720
 30
0.0
  0
VERTEX
  8
NC_Symbol-A
 10
25.482880
 20
10.242530
 30
0.0
  0
VERTEX
  8
NC_Symbol-A
 10
25.429960
 20
10.242530
 30
0.0
  0
VERTEX
  8
NC_Symbol-A
 10
25.402690
 20
10.231270
 30
0.0
  0
VERTEX
  8
NC_Symbol-A
 10
25.363970
 20
10.188620
 30
0.0
  0
VERTEX
  8
NC_Symbol-A
 10
25.348580
 20
10.158970
 30
0.0
  0
VERTEX
  8
NC_Symbol-A
 10
25.348580
 20
9.925000
 30
0.0
  0
SEQEND
  0
POLYLINE
  8
NC_Symbol-A
 66
   1
 10
0.0
 20
0.0
 30
0.0
 70
   1
  0
VERTEX
  8
NC_Symbol-A
 10
25.287040
 20
10.576220
 30
0.0
 42
-1.000000
  0
VERTEX
  8
NC_Symbol-A
 10
25.260120
 20
10.723780
 30
0.0
  0
VERTEX
  8
NC_Symbol-A
 10
25.708270
 20
10.805510
 30
0.0
  0
VERTEX
  8
NC_Symbol-A
 10
25.531730
 20
10.867550
 30
0.0
 42
-0.702697
  0
VERTEX
  8
NC_Symbol-A
 10
25.530630
 20
11.008670
 30
0.0
  0
VERTEX
  8
NC_Symbol-A
 10
25.716760
 20
11.077360
 30
0.0
  0
VERTEX
  8
NC_Symbol-A
 10
25.260120
 20
11.160640
 30
0.0
 42
-1.000000
  0
VERTEX
  8
NC_Symbol-A
 10
25.287040
 20
11.308200
 30
0.0
  0
VERTEX
  8
NC_Symbol-A
 10
26.013460
 20
11.175730
 30
0.0
 42
-0.763141
  0
VERTEX
  8
NC_Symbol-A
 10
26.025970
 20
11.031590
 30
0.0
  0
VERTEX
  8
NC_Symbol-A
 10
25.777890
 20
10.940030
 30
0.0
  0
VERTEX
  8
NC_Symbol-A
 10
26.024870
 20
10.853230
 30
0.0
 42
-0.769401
  0
VERTEX
  8
NC_Symbol-A
 10
26.013460
 20
10.708690
 30
0.0
  0
SEQEND
  0
POLYLINE
  8
NC_Symbol-A
 66
   1
 10
0.0
 20
0.0
 30
0.0
 70
   1
  0
VERTEX
  8
NC_Symbol-A
 10
26.000000
 20
11.563960
 30
0.0
 42
-1.000000
  0
VERTEX
  8
NC_Symbol-A
 10
26.000000
 20
11.413960
 30
0.0
  0
VERTEX
  8
NC_Symbol-A
 10
25.273580
 20
11.413960
 30
0.0
 42
-0.414214
  0
VERTEX
  8
NC_Symbol-A
 10
25.198580
 20
11.488960
 30
0.0
  0
VERTEX
  8
NC_Symbol-A
 10
25.198580
 20
11.816230
 30
0.0
 42
-0.120260
  0
VERTEX
  8
NC_Symbol-A
 10
25.207010
 20
11.850780
 30
0.0
  0
VERTEX
  8
NC_Symbol-A
 10
25.235320
 20
11.905330
 30
0.0
 42
-0.064683
  0
VERTEX
  8
NC_Symbol-A
 10
25.246360
 20
11.921190
 30
0.0
  0
VERTEX
  8
NC_Symbol-A
 10
25.302960
 20
11.983530
 30
0.0
 42
-0.110983
  0
VERTEX
  8
NC_Symbol-A
 10
25.329870
 20
12.002440
 30
0.0
  0
VERTEX
  8
NC_Symbol-A
 10
25.386470
 20
12.025810
 30
0.0
 42
-0.098199
  0
VERTEX
  8
NC_Symbol-A
 10
25.415090
 20
12.031490
 30
0.0
  0
VERTEX
  8
NC_Symbol-A
 10
25.500000
 20
12.031490
 30
0.0
 42
-0.112704
  0
VERTEX
  8
NC_Symbol-A
 10
25.532550
 20
12.024060
 30
0.0
  0
VERTEX
  8
NC_Symbol-A
 10
25.645760
 20
11.969520
 30
0.0
 42
-0.209984
  0
VERTEX
  8
NC_Symbol-A
 10
25.684990
 20
11.923680
 30
0.0
  0
VERTEX
  8
NC_Symbol-A
 10
25.703860
 20
11.861340
 30
0.0
 42
-0.073621
  0
VERTEX
  8
NC_Symbol-A
 10
25.707080
 20
11.839610
 30
0.0
  0
VERTEX
  8
NC_Symbol-A
 10
25.707080
 20
11.488960
 30
0.0
 42
-1.000000
  0
VERTEX
  8
NC_Symbol-A
 10
25.557080
 20
11.488960
 30
0.0
  0
VERTEX
  8
NC_Symbol-A
 10
25.557080
 20
11.828510
 30
0.0
  0
VERTEX
  8
NC_Symbol-A
 10
25.550970
 20
11.848680
 30
0.0
  0
VERTEX
  8
NC_Symbol-A
 10
25.482880
 20
11.881490
 30
0.0
  0
VERTEX
  8
NC_Symbol-A
 10
25.429960
 20
11.881490
 30
0.0
  0
VERTEX
  8
NC_Symbol-A
 10
25.402690
 20
11.870230
 30
0.0
  0
VERTEX
  8
NC_Symbol-A
 10
25.363970
 20
11.827580
 30
0.0
  0
VERTEX
  8
NC_Symbol-A
 10
25.348580
 20
11.797930
 30
0.0
  0
VERTEX
  8
NC_Symbol-A
 10
25.348580
 20
11.563960
 30
0.0
  0
SEQEND
  0
POLYLINE
  8
NC_Symbol-A
 66
   1
 10
0.0
 20
0.0
 30
0.0
 70
   1
  0
VERTEX
  8
NC_Symbol-A
 10
25.700370
 20
11.808610
 30
0.0
 42
-1.000000
  0
VERTEX
  8
NC_Symbol-A
 10
25.563790
 20
11.870610
 30
0.0
  0
VERTEX
  8
NC_Symbol-A
 10
25.592090
 20
11.932950
 30
0.0
 42
-0.094741
  0
VERTEX
  8
NC_Symbol-A
 10
25.608340
 20
11.955960
 30
0.0
  0
VERTEX
  8
NC_Symbol-A
 10
25.664940
 20
12.010500
 30
0.0
 42
-0.065961
  0
VERTEX
  8
NC_Symbol-A
 10
25.680800
 20
12.022190
 30
0.0
  0
VERTEX
  8
NC_Symbol-A
 10
25.737400
 20
12.053360
 30
0.0
 42
-0.126514
  0
VERTEX
  8
NC_Symbol-A
 10
25.773580
 20
12.062660
 30
0.0
  0
VERTEX
  8
NC_Symbol-A
 10
25.858490
 20
12.062660
 30
0.0
 42
-0.126514
  0
VERTEX
  8
NC_Symbol-A
 10
25.894670
 20
12.053360
 30
0.0
  0
VERTEX
  8
NC_Symbol-A
 10
25.951270
 20
12.022190
 30
0.0
 42
-0.065961
  0
VERTEX
  8
NC_Symbol-A
 10
25.967130
 20
12.010500
 30
0.0
  0
VERTEX
  8
NC_Symbol-A
 10
26.023740
 20
11.955960
 30
0.0
 42
-0.094741
  0
VERTEX
  8
NC_Symbol-A
 10
26.039990
 20
11.932950
 30
0.0
  0
VERTEX
  8
NC_Symbol-A
 10
26.068290
 20
11.870610
 30
0.0
 42
-0.106935
  0
VERTEX
  8
NC_Symbol-A
 10
26.075000
 20
11.839610
 30
0.0
  0
VERTEX
  8
NC_Symbol-A
 10
26.075000
 20
11.488960
 30
0.0
 42
-1.000000
  0
VERTEX
  8
NC_Symbol-A
 10
25.925000
 20
11.488960
 30
0.0
  0
VERTEX
  8
NC_Symbol-A
 10
25.925000
 20
11.823380
 30
0.0
  0
VERTEX
  8
NC_Symbol-A
 10
25.909340
 20
11.857890
 30
0.0
  0
VERTEX
  8
NC_Symbol-A
 10
25.870210
 20
11.895590
 30
0.0
  0
VERTEX
  8
NC_Symbol-A
 10
25.839200
 20
11.912660
 30
0.0
  0
VERTEX
  8
NC_Symbol-A
 10
25.792870
 20
11.912660
 30
0.0
  0
VERTEX
  8
NC_Symbol-A
 10
25.761860
 20
11.895590
 30
0.0
  0
VERTEX
  8
NC_Symbol-A
 10
25.722750
 20
11.857890
 30
0.0
  0
SEQEND
  0
POLYLINE
  8
NC_Symbol-A
 66
   1
 10
0.0
 20
0.0
 30
0.0
 70
   1
  0
VERTEX
  8
NC_Symbol-A
 10
25.370700
 20
12.879280
 30
0.0
 42
-1.000000
  0
VERTEX
  8
NC_Symbol-A
 10
25.459480
 20
12.758380
 30
0.0
  0
VERTEX
  8
NC_Symbol-A
 10
25.391760
 20
12.708650
 30
0.0
  0
VERTEX
  8
NC_Symbol-A
 10
25.348580
 20
12.601670
 30
0.0
  0
VERTEX
  8
NC_Symbol-A
 10
25.348580
 20
12.567750
 30
0.0
  0
VERTEX
  8
NC_Symbol-A
 10
25.392580
 20
12.452680
 30
0.0
  0
VERTEX
  8
NC_Symbol-A
 10
25.477190
 20
12.388620
 30
0.0
  0
VERTEX
  8
NC_Symbol-A
 10
25.566740
 20
12.363960
 30
0.0
  0
VERTEX
  8
NC_Symbol-A
 10
25.706840
 20
12.363960
 30
0.0
  0
VERTEX
  8
NC_Symbol-A
 10
25.796400
 20
12.388620
 30
0.0
  0
VERTEX
  8
NC_Symbol-A
 10
25.881010
 20
12.452680
 30
0.0
  0
VERTEX
  8
NC_Symbol-A
 10
25.925000
 20
12.567750
 30
0.0
  0
VERTEX
  8
NC_Symbol-A
 10
25.925000
 20
12.601670
 30
0.0
  0
VERTEX
  8
NC_Symbol-A
 10
25.883840
 20
12.703670
 30
0.0
  0
VERTEX
  8
NC_Symbol-A
 10
25.794010
 20
12.753130
 30
0.0
 42
-1.000000
  0
VERTEX
  8
NC_Symbol-A
 10
25.866370
 20
12.884530
 30
0.0
  0
VERTEX
  8
NC_Symbol-A
 10
25.979580
 20
12.822190
 30
0.0
 42
-0.172647
  0
VERTEX
  8
NC_Symbol-A
 10
26.012950
 20
12.784560
 30
0.0
  0
VERTEX
  8
NC_Symbol-A
 10
26.069550
 20
12.644300
 30
0.0
 42
-0.096196
  0
VERTEX
  8
NC_Symbol-A
 10
26.075000
 20
12.616230
 30
0.0
  0
VERTEX
  8
NC_Symbol-A
 10
26.075000
 20
12.553900
 30
0.0
 42
-0.091533
  0
VERTEX
  8
NC_Symbol-A
 10
26.070060
 20
12.527120
 30
0.0
  0
VERTEX
  8
NC_Symbol-A
 10
26.013460
 20
12.379060
 30
0.0
 42
-0.140344
  0
VERTEX
  8
NC_Symbol-A
 10
25.988670
 20
12.346040
 30
0.0
  0
VERTEX
  8
NC_Symbol-A
 10
25.875460
 20
12.260330
 30
0.0
 42
-0.095112
  0
VERTEX
  8
NC_Symbol-A
 10
25.850100
 20
12.247820
 30
0.0
  0
VERTEX
  8
NC_Symbol-A
 10
25.736890
 20
12.216650
 30
0.0
 42
-0.067273
  0
VERTEX
  8
NC_Symbol-A
 10
25.716980
 20
12.213960
 30
0.0
  0
VERTEX
  8
NC_Symbol-A
 10
25.556600
 20
12.213960
 30
0.0
 42
-0.067273
  0
VERTEX
  8
NC_Symbol-A
 10
25.536690
 20
12.216650
 30
0.0
  0
VERTEX
  8
NC_Symbol-A
 10
25.423490
 20
12.247820
 30
0.0
 42
-0.095112
  0
VERTEX
  8
NC_Symbol-A
 10
25.398130
 20
12.260330
 30
0.0
  0
VERTEX
  8
NC_Symbol-A
 10
25.284920
 20
12.346040
 30
0.0
 42
-0.140323
  0
VERTEX
  8
NC_Symbol-A
 10
25.260140
 20
12.379060
 30
0.0
  0
VERTEX
  8
NC_Symbol-A
 10
25.203530
 20
12.527120
 30
0.0
 42
-0.091539
  0
VERTEX
  8
NC_Symbol-A
 10
25.198580
 20
12.553900
 30
0.0
  0
VERTEX
  8
NC_Symbol-A
 10
25.198580
 20
12.616230
 30
0.0
 42
-0.096196
  0
VERTEX
  8
NC_Symbol-A
 10
25.204030
 20
12.644300
 30
0.0
  0
VERTEX
  8
NC_Symbol-A
 10
25.260640
 20
12.784560
 30
0.0
 42
-0.139340
  0
VERTEX
  8
NC_Symbol-A
 10
25.285800
 20
12.816940
 30
0.0
  0
SEQEND
  0
POLYLINE
  8
NC_Symbol-A
 66
   1
 10
0.0
 20
0.0
 30
0.0
 70
   1
  0
VERTEX
  8
NC_Symbol-A
 10
26.025700
 20
13.159420
 30
0.0
 42
-1.000000
  0
VERTEX
  8
NC_Symbol-A
 10
25.974300
 20
13.018500
 30
0.0
  0
VERTEX
  8
NC_Symbol-A
 10
25.247880
 20
13.283440
 30
0.0
 42
-0.699716
  0
VERTEX
  8
NC_Symbol-A
 10
25.247880
 20
13.424360
 30
0.0
  0
VERTEX
  8
NC_Symbol-A
 10
25.974300
 20
13.689290
 30
0.0
 42
-1.000000
  0
VERTEX
  8
NC_Symbol-A
 10
26.025700
 20
13.548370
 30
0.0
  0
VERTEX
  8
NC_Symbol-A
 10
25.492470
 20
13.353900
 30
0.0
  0
SEQEND
  0
POLYLINE
  8
NC_Symbol-A
 66
   1
 10
0.0
 20
0.0
 30
0.0
 70
   1
  0
VERTEX
  8
NC_Symbol-A
 10
25.848580
 20
13.166880
 30
0.0
 42
-1.000000
  0
VERTEX
  8
NC_Symbol-A
 10
25.698580
 20
13.166880
 30
0.0
  0
VERTEX
  8
NC_Symbol-A
 10
25.698580
 20
13.540910
 30
0.0
 42
-1.000000
  0
VERTEX
  8
NC_Symbol-A
 10
25.848580
 20
13.540910
 30
0.0
  0
SEQEND
  0
POLYLINE
  8
NC_Symbol-A
 66
   1
 10
0.0
 20
0.0
 30
0.0
 70
   1
  0
VERTEX
  8
NC_Symbol-A
 10
26.000000
 20
13.963960
 30
0.0
 42
-1.000000
  0
VERTEX
  8
NC_Symbol-A
 10
26.000000
 20
13.813960
 30
0.0
  0
VERTEX
  8
NC_Symbol-A
 10
25.273580
 20
13.813960
 30
0.0
 42
-0.721828
  0
VERTEX
  8
NC_Symbol-A
 10
25.228760
 20
13.949090
 30
0.0
  0
VERTEX
  8
NC_Symbol-A
 10
25.535950
 20
14.178070
 30
0.0
  0
VERTEX
  8
NC_Symbol-A
 10
25.227990
 20
14.413830
 30
0.0
 42
-0.716973
  0
VERTEX
  8
NC_Symbol-A
 10
25.273580
 20
14.548380
 30
0.0
  0
VERTEX
  8
NC_Symbol-A
 10
26.000000
 20
14.548380
 30
0.0
 42
-1.000000
  0
VERTEX
  8
NC_Symbol-A
 10
26.000000
 20
14.398380
 30
0.0
  0
VERTEX
  8
NC_Symbol-A
 10
25.494930
 20
14.398380
 30
0.0
  0
VERTEX
  8
NC_Symbol-A
 10
25.705970
 20
14.236820
 30
0.0
 42
-0.497802
  0
VERTEX
  8
NC_Symbol-A
 10
25.705200
 20
14.117140
 30
0.0
  0
VERTEX
  8
NC_Symbol-A
 10
25.499700
 20
13.963960
 30
0.0
  0
SEQEND
  0
POLYLINE
  8
NC_Symbol-A
 66
   1
 10
0.0
 20
0.0
 30
0.0
 70
   1
  0
VERTEX
  8
NC_Symbol-A
 10
25.451270
 20
14.793620
 30
0.0
 42
-1.000000
  0
VERTEX
  8
NC_Symbol-A
 10
25.378910
 20
14.662220
 30
0.0
  0
VERTEX
  8
NC_Symbol-A
 10
25.322310
 20
14.693390
 30
0.0
 42
-0.082769
  0
VERTEX
  8
NC_Symbol-A
 10
25.302960
 20
14.708680
 30
0.0
  0
VERTEX
  8
NC_Symbol-A
 10
25.246360
 20
14.771020
 30
0.0
 42
-0.077870
  0
VERTEX
  8
NC_Symbol-A
 10
25.233600
 20
14.790420
 30
0.0
  0
VERTEX
  8
NC_Symbol-A
 10
25.205290
 20
14.852760
 30
0.0
 42
-0.106969
  0
VERTEX
  8
NC_Symbol-A
 10
25.198580
 20
14.883770
 30
0.0
  0
VERTEX
  8
NC_Symbol-A
 10
25.198580
 20
15.070780
 30
0.0
 42
-0.106969
  0
VERTEX
  8
NC_Symbol-A
 10
25.205290
 20
15.101790
 30
0.0
  0
VERTEX
  8
NC_Symbol-A
 10
25.233600
 20
15.164130
 30
0.0
 42
-0.077917
  0
VERTEX
  8
NC_Symbol-A
 10
25.246370
 20
15.183540
 30
0.0
  0
VERTEX
  8
NC_Symbol-A
 10
25.302970
 20
15.245870
 30
0.0
 42
-0.082722
  0
VERTEX
  8
NC_Symbol-A
 10
25.322310
 20
15.261150
 30
0.0
  0
VERTEX
  8
NC_Symbol-A
 10
25.378910
 20
15.292320
 30
0.0
 42
-0.126514
  0
VERTEX
  8
NC_Symbol-A
 10
25.415090
 20
15.301620
 30
0.0
  0
VERTEX
  8
NC_Symbol-A
 10
25.528300
 20
15.301620
 30
0.0
 42
-0.126480
  0
VERTEX
  8
NC_Symbol-A
 10
25.564470
 20
15.292320
 30
0.0
  0
VERTEX
  8
NC_Symbol-A
 10
25.621080
 20
15.261150
 30
0.0
 42
-0.085602
  0
VERTEX
  8
NC_Symbol-A
 10
25.641000
 20
15.245240
 30
0.0
  0
VERTEX
  8
NC_Symbol-A
 10
25.925000
 20
14.925360
 30
0.0
  0
VERTEX
  8
NC_Symbol-A
 10
25.925000
 20
15.226620
 30
0.0
 42
-1.000000
  0
VERTEX
  8
NC_Symbol-A
 10
26.075000
 20
15.226620
 30
0.0
  0
VERTEX
  8
NC_Symbol-A
 10
26.075000
 20
14.727920
 30
0.0
 42
-0.689898
  0
VERTEX
  8
NC_Symbol-A
 10
25.943910
 20
14.678130
 30
0.0
  0
VERTEX
  8
NC_Symbol-A
 10
25.537410
 20
15.135990
 30
0.0
  0
VERTEX
  8
NC_Symbol-A
 10
25.509020
 20
15.151620
 30
0.0
  0
VERTEX
  8
NC_Symbol-A
 10
25.434380
 20
15.151620
 30
0.0
  0
VERTEX
  8
NC_Symbol-A
 10
25.405610
 20
15.135780
 30
0.0
  0
VERTEX
  8
NC_Symbol-A
 10
25.365320
 20
15.091400
 30
0.0
  0
VERTEX
  8
NC_Symbol-A
 10
25.348580
 20
15.054550
 30
0.0
  0
VERTEX
  8
NC_Symbol-A
 10
25.348580
 20
14.900000
 30
0.0
  0
VERTEX
  8
NC_Symbol-A
 10
25.365320
 20
14.863140
 30
0.0
  0
VERTEX
  8
NC_Symbol-A
 10
25.405620
 20
14.818760
 30
0.0
  0
SEQEND
  0
POLYLINE
  8
NC_Symbol-A
 66
   1
 10
0.0
 20
0.0
 30
0.0
 70
   1
  0
VERTEX
  8
NC_Symbol-A
 10
6.250000
 20
17.898270
 30
0.0
 42
1.000000
  0
VERTEX
  8
NC_Symbol-A
 10
6.250000
 20
22.901730
 30
0.0
 42
1.000000
  0
VERTEX
  8
NC_Symbol-A
 10
6.250000
 20
17.898270
 30
0.0
  0
SEQEND
  0
POLYLINE
  8
NC_Symbol-A
 66
   1
 10
0.0
 20
0.0
 30
0.0
 70
   1
  0
VERTEX
  8
NC_Symbol-A
 10
6.213270
 20
18.639750
 30
0.0
 42
0.003700
  0
VERTEX
  8
NC_Symbol-A
 10
6.213640
 20
18.639750
 30
0.0
  0
VERTEX
  8
NC_Symbol-A
 10
6.213640
 20
18.639750
 30
0.0
 42
0.042782
  0
VERTEX
  8
NC_Symbol-A
 10
6.521960
 20
18.665870
 30
0.0
  0
VERTEX
  8
NC_Symbol-A
 10
6.521960
 20
18.665870
 30
0.0
 42
0.003846
  0
VERTEX
  8
NC_Symbol-A
 10
6.522340
 20
18.665930
 30
0.0
  0
VERTEX
  8
NC_Symbol-A
 10
6.522340
 20
18.665930
 30
0.0
 42
0.044234
  0
VERTEX
  8
NC_Symbol-A
 10
6.716490
 20
18.720430
 30
0.0
  0
VERTEX
  8
NC_Symbol-A
 10
6.716490
 20
18.720430
 30
0.0
 42
0.152007
  0
VERTEX
  8
NC_Symbol-A
 10
7.111820
 20
19.025430
 30
0.0
  0
VERTEX
  8
NC_Symbol-A
 10
7.111820
 20
19.025430
 30
0.0
 42
0.006490
  0
VERTEX
  8
NC_Symbol-A
 10
7.112180
 20
19.025970
 30
0.0
  0
VERTEX
  8
NC_Symbol-A
 10
7.112180
 20
19.025970
 30
0.0
 42
0.121050
  0
VERTEX
  8
NC_Symbol-A
 10
7.244780
 20
19.394560
 30
0.0
  0
VERTEX
  8
NC_Symbol-A
 10
7.244780
 20
19.394560
 30
0.0
 42
0.020294
  0
VERTEX
  8
NC_Symbol-A
 10
7.253190
 20
19.529670
 30
0.0
  0
VERTEX
  8
NC_Symbol-A
 10
7.253190
 20
19.529670
 30
0.0
 42
0.027419
  0
VERTEX
  8
NC_Symbol-A
 10
7.249880
 20
19.611810
 30
0.0
  0
VERTEX
  8
NC_Symbol-A
 10
7.249880
 20
19.611810
 30
0.0
 42
-0.011337
  0
VERTEX
  8
NC_Symbol-A
 10
7.249790
 20
19.612940
 30
0.0
  0
VERTEX
  8
NC_Symbol-A
 10
7.249790
 20
19.612940
 30
0.0
 42
0.028070
  0
VERTEX
  8
NC_Symbol-A
 10
7.244310
 20
19.664440
 30
0.0
  0
VERTEX
  8
NC_Symbol-A
 10
7.244310
 20
19.664440
 30
0.0
 42
-0.011315
  0
VERTEX
  8
NC_Symbol-A
 10
7.244150
 20
19.665560
 30
0.0
  0
VERTEX
  8
NC_Symbol-A
 10
7.244150
 20
19.665560
 30
0.0
 42
0.053461
  0
VERTEX
  8
NC_Symbol-A
 10
7.211260
 20
19.810000
 30
0.0
  0
VERTEX
  8
NC_Symbol-A
 10
7.211260
 20
19.810000
 30
0.0
 42
0.117248
  0
VERTEX
  8
NC_Symbol-A
 10
7.022110
 20
20.116360
 30
0.0
  0
VERTEX
  8
NC_Symbol-A
 10
7.022110
 20
20.116360
 30
0.0
 42
0.085020
  0
VERTEX
  8
NC_Symbol-A
 10
6.636300
 20
20.384320
 30
0.0
  0
VERTEX
  8
NC_Symbol-A
 10
6.636300
 20
20.384320
 30
0.0
 42
-0.308340
  0
VERTEX
  8
NC_Symbol-A
 10
6.621940
 20
20.408540
 30
0.0
  0
VERTEX
  8
NC_Symbol-A
 10
6.621940
 20
20.408540
 30
0.0
 42
0.682263
  0
VERTEX
  8
NC_Symbol-A
 10
5.992910
 20
20.701710
 30
0.0
  0
VERTEX
  8
NC_Symbol-A
 10
5.992910
 20
20.701710
 30
0.0
 42
-0.319548
  0
VERTEX
  8
NC_Symbol-A
 10
5.964210
 20
20.697590
 30
0.0
  0
VERTEX
  8
NC_Symbol-A
 10
5.964210
 20
20.697590
 30
0.0
 42
-0.070664
  0
VERTEX
  8
NC_Symbol-A
 10
5.729500
 20
20.864110
 30
0.0
  0
VERTEX
  8
NC_Symbol-A
 10
5.729500
 20
20.864110
 30
0.0
 42
-0.006152
  0
VERTEX
  8
NC_Symbol-A
 10
5.729060
 20
20.864540
 30
0.0
  0
VERTEX
  8
NC_Symbol-A
 10
5.729060
 20
20.864540
 30
0.0
 42
-0.059406
  0
VERTEX
  8
NC_Symbol-A
 10
5.652650
 20
20.961110
 30
0.0
  0
VERTEX
  8
NC_Symbol-A
 10
5.652650
 20
20.961110
 30
0.0
 42
-0.012642
  0
VERTEX
  8
NC_Symbol-A
 10
5.652010
 20
20.962200
 30
0.0
  0
VERTEX
  8
NC_Symbol-A
 10
5.652010
 20
20.962200
 30
0.0
 42
-0.058349
  0
VERTEX
  8
NC_Symbol-A
 10
5.601910
 20
21.086390
 30
0.0
  0
VERTEX
  8
NC_Symbol-A
 10
5.601910
 20
21.086390
 30
0.0
 42
-0.006185
  0
VERTEX
  8
NC_Symbol-A
 10
5.601760
 20
21.086990
 30
0.0
  0
VERTEX
  8
NC_Symbol-A
 10
5.601760
 20
21.086990
 30
0.0
 42
-0.061901
  0
VERTEX
  8
NC_Symbol-A
 10
5.582780
 20
21.246660
 30
0.0
  0
VERTEX
  8
NC_Symbol-A
 10
5.582780
 20
21.246660
 30
0.0
 42
0.012911
  0
VERTEX
  8
NC_Symbol-A
 10
5.582520
 20
21.259720
 30
0.0
  0
VERTEX
  8
NC_Symbol-A
 10
5.582500
 20
21.259710
 30
0.0
 42
-0.259171
  0
VERTEX
  8
NC_Symbol-A
 10
5.800330
 20
21.698380
 30
0.0
  0
VERTEX
  8
NC_Symbol-A
 10
5.800330
 20
21.698380
 30
0.0
 42
0.003528
  0
VERTEX
  8
NC_Symbol-A
 10
5.803260
 20
21.700420
 30
0.0
  0
VERTEX
  8
NC_Symbol-A
 10
5.803260
 20
21.700420
 30
0.0
 42
-0.033306
  0
VERTEX
  8
NC_Symbol-A
 10
5.867040
 20
21.739540
 30
0.0
  0
VERTEX
  8
NC_Symbol-A
 10
5.867040
 20
21.739540
 30
0.0
 42
-0.006307
  0
VERTEX
  8
NC_Symbol-A
 10
5.867600
 20
21.739830
 30
0.0
  0
VERTEX
  8
NC_Symbol-A
 10
5.867600
 20
21.739830
 30
0.0
 42
-0.081125
  0
VERTEX
  8
NC_Symbol-A
 10
6.157550
 20
21.828480
 30
0.0
  0
VERTEX
  8
NC_Symbol-A
 10
6.157550
 20
21.828480
 30
0.0
 42
-0.020114
  0
VERTEX
  8
NC_Symbol-A
 10
6.271770
 20
21.838820
 30
0.0
  0
VERTEX
  8
NC_Symbol-A
 10
6.271770
 20
21.838820
 30
0.0
 42
-0.046998
  0
VERTEX
  8
NC_Symbol-A
 10
6.572080
 20
21.823740
 30
0.0
  0
VERTEX
  8
NC_Symbol-A
 10
6.572220
 20
21.823710
 30
0.0
 42
-0.028330
  0
VERTEX
  8
NC_Symbol-A
 10
6.747870
 20
21.788070
 30
0.0
  0
VERTEX
  8
NC_Symbol-A
 10
6.747870
 20
21.788070
 30
0.0
 42
-0.444839
  0
VERTEX
  8
NC_Symbol-A
 10
6.764920
 20
21.755080
 30
0.0
  0
VERTEX
  8
NC_Symbol-A
 10
6.742100
 20
21.694460
 30
0.0
 42
0.414364
  0
VERTEX
  8
NC_Symbol-A
 10
6.756700
 20
21.662250
 30
0.0
  0
VERTEX
  8
NC_Symbol-A
 10
7.185810
 20
21.500990
 30
0.0
 42
0.414063
  0
VERTEX
  8
NC_Symbol-A
 10
7.218000
 20
21.515590
 30
0.0
  0
VERTEX
  8
NC_Symbol-A
 10
7.377720
 20
21.940600
 30
0.0
 42
0.414282
  0
VERTEX
  8
NC_Symbol-A
 10
7.363110
 20
21.972800
 30
0.0
  0
VERTEX
  8
NC_Symbol-A
 10
6.934100
 20
22.134030
 30
0.0
 42
0.414214
  0
VERTEX
  8
NC_Symbol-A
 10
6.901900
 20
22.119430
 30
0.0
  0
VERTEX
  8
NC_Symbol-A
 10
6.872030
 20
22.039950
 30
0.0
 42
-0.389352
  0
VERTEX
  8
NC_Symbol-A
 10
6.841870
 20
22.024670
 30
0.0
  0
VERTEX
  8
NC_Symbol-A
 10
6.841870
 20
22.024670
 30
0.0
 42
0.032531
  0
VERTEX
  8
NC_Symbol-A
 10
6.608400
 20
22.074080
 30
0.0
  0
VERTEX
  8
NC_Symbol-A
 10
6.608400
 20
22.074080
 30
0.0
 42
0.047209
  0
VERTEX
  8
NC_Symbol-A
 10
6.259140
 20
22.091460
 30
0.0
  0
VERTEX
  8
NC_Symbol-A
 10
6.259140
 20
22.091460
 30
0.0
 42
0.020284
  0
VERTEX
  8
NC_Symbol-A
 10
6.123530
 20
22.079160
 30
0.0
  0
VERTEX
  8
NC_Symbol-A
 10
6.123530
 20
22.079160
 30
0.0
 42
0.081781
  0
VERTEX
  8
NC_Symbol-A
 10
5.752810
 20
21.965270
 30
0.0
  0
VERTEX
  8
NC_Symbol-A
 10
5.752810
 20
21.965270
 30
0.0
 42
0.004472
  0
VERTEX
  8
NC_Symbol-A
 10
5.752410
 20
21.965070
 30
0.0
  0
VERTEX
  8
NC_Symbol-A
 10
5.752410
 20
21.965070
 30
0.0
 42
0.034253
  0
VERTEX
  8
NC_Symbol-A
 10
5.657180
 20
21.906950
 30
0.0
  0
VERTEX
  8
NC_Symbol-A
 10
5.657180
 20
21.906950
 30
0.0
 42
-0.003441
  0
VERTEX
  8
NC_Symbol-A
 10
5.656900
 20
21.906750
 30
0.0
  0
VERTEX
  8
NC_Symbol-A
 10
5.656900
 20
21.906750
 30
0.0
 42
0.258950
  0
VERTEX
  8
NC_Symbol-A
 10
5.329780
 20
21.248600
 30
0.0
  0
VERTEX
  8
NC_Symbol-A
 10
5.329780
 20
21.248600
 30
0.0
 42
-0.012606
  0
VERTEX
  8
NC_Symbol-A
 10
5.329810
 20
21.247340
 30
0.0
  0
VERTEX
  8
NC_Symbol-A
 10
5.329810
 20
21.247340
 30
0.0
 42
0.062524
  0
VERTEX
  8
NC_Symbol-A
 10
5.356860
 20
21.023550
 30
0.0
  0
VERTEX
  8
NC_Symbol-A
 10
5.356860
 20
21.023550
 30
0.0
 42
0.004342
  0
VERTEX
  8
NC_Symbol-A
 10
5.356970
 20
21.023130
 30
0.0
  0
VERTEX
  8
NC_Symbol-A
 10
5.356970
 20
21.023130
 30
0.0
 42
0.061368
  0
VERTEX
  8
NC_Symbol-A
 10
5.433100
 20
20.835320
 30
0.0
  0
VERTEX
  8
NC_Symbol-A
 10
5.433100
 20
20.835320
 30
0.0
 42
0.008559
  0
VERTEX
  8
NC_Symbol-A
 10
5.433530
 20
20.834580
 30
0.0
  0
VERTEX
  8
NC_Symbol-A
 10
5.433530
 20
20.834580
 30
0.0
 42
0.062827
  0
VERTEX
  8
NC_Symbol-A
 10
5.553290
 20
20.682590
 30
0.0
  0
VERTEX
  8
NC_Symbol-A
 10
5.553290
 20
20.682590
 30
0.0
 42
0.074666
  0
VERTEX
  8
NC_Symbol-A
 10
5.863630
 20
20.464970
 30
0.0
  0
VERTEX
  8
NC_Symbol-A
 10
5.863630
 20
20.464970
 30
0.0
 42
-0.291676
  0
VERTEX
  8
NC_Symbol-A
 10
5.877460
 20
20.441920
 30
0.0
  0
VERTEX
  8
NC_Symbol-A
 10
5.877460
 20
20.441920
 30
0.0
 42
0.656585
  0
VERTEX
  8
NC_Symbol-A
 10
6.497490
 20
20.153290
 30
0.0
  0
VERTEX
  8
NC_Symbol-A
 10
6.497490
 20
20.153290
 30
0.0
 42
-0.298185
  0
VERTEX
  8
NC_Symbol-A
 10
6.524580
 20
20.157290
 30
0.0
  0
VERTEX
  8
NC_Symbol-A
 10
6.524580
 20
20.157290
 30
0.0
 42
-0.086081
  0
VERTEX
  8
NC_Symbol-A
 10
6.844630
 20
19.936090
 30
0.0
  0
VERTEX
  8
NC_Symbol-A
 10
6.844630
 20
19.936090
 30
0.0
 42
-0.116442
  0
VERTEX
  8
NC_Symbol-A
 10
6.971120
 20
19.730500
 30
0.0
  0
VERTEX
  8
NC_Symbol-A
 10
6.971120
 20
19.730500
 30
0.0
 42
0.002760
  0
VERTEX
  8
NC_Symbol-A
 10
6.972000
 20
19.727850
 30
0.0
  0
VERTEX
  8
NC_Symbol-A
 10
6.972000
 20
19.727850
 30
0.0
 42
-0.053659
  0
VERTEX
  8
NC_Symbol-A
 10
6.992970
 20
19.635660
 30
0.0
  0
VERTEX
  8
NC_Symbol-A
 10
6.992970
 20
19.635660
 30
0.0
 42
0.011796
  0
VERTEX
  8
NC_Symbol-A
 10
6.994620
 20
19.623840
 30
0.0
  0
VERTEX
  8
NC_Symbol-A
 10
6.994620
 20
19.623840
 30
0.0
 42
-0.028641
  0
VERTEX
  8
NC_Symbol-A
 10
6.997150
 20
19.600090
 30
0.0
  0
VERTEX
  8
NC_Symbol-A
 10
6.997150
 20
19.600090
 30
0.0
 42
0.011793
  0
VERTEX
  8
NC_Symbol-A
 10
6.998010
 20
19.588190
 30
0.0
  0
VERTEX
  8
NC_Symbol-A
 10
6.998010
 20
19.588190
 30
0.0
 42
-0.027149
  0
VERTEX
  8
NC_Symbol-A
 10
7.000270
 20
19.534290
 30
0.0
  0
VERTEX
  8
NC_Symbol-A
 10
7.000270
 20
19.534290
 30
0.0
 42
-0.020141
  0
VERTEX
  8
NC_Symbol-A
 10
6.993150
 20
19.420530
 30
0.0
  0
VERTEX
  8
NC_Symbol-A
 10
6.993150
 20
19.420530
 30
0.0
 42
-0.119362
  0
VERTEX
  8
NC_Symbol-A
 10
6.903320
 20
19.168750
 30
0.0
  0
VERTEX
  8
NC_Symbol-A
 10
6.903320
 20
19.168750
 30
0.0
 42
-0.009349
  0
VERTEX
  8
NC_Symbol-A
 10
6.902790
 20
19.167980
 30
0.0
  0
VERTEX
  8
NC_Symbol-A
 10
6.902790
 20
19.167980
 30
0.0
 42
-0.150483
  0
VERTEX
  8
NC_Symbol-A
 10
6.628550
 20
18.957620
 30
0.0
  0
VERTEX
  8
NC_Symbol-A
 10
6.628550
 20
18.957620
 30
0.0
 42
0.000949
  0
VERTEX
  8
NC_Symbol-A
 10
6.628460
 20
18.957590
 30
0.0
  0
VERTEX
  8
NC_Symbol-A
 10
6.626890
 20
18.957000
 30
0.0
 42
0.000671
  0
VERTEX
  8
NC_Symbol-A
 10
6.626830
 20
18.956970
 30
0.0
  0
VERTEX
  8
NC_Symbol-A
 10
6.626830
 20
18.956970
 30
0.0
 42
-0.043673
  0
VERTEX
  8
NC_Symbol-A
 10
6.477640
 20
18.914930
 30
0.0
  0
VERTEX
  8
NC_Symbol-A
 10
6.477640
 20
18.914930
 30
0.0
 42
-0.042221
  0
VERTEX
  8
NC_Symbol-A
 10
6.215850
 20
18.892720
 30
0.0
  0
VERTEX
  8
NC_Symbol-A
 10
6.215850
 20
18.892720
 30
0.0
 42
-0.004400
  0
VERTEX
  8
NC_Symbol-A
 10
6.215410
 20
18.892720
 30
0.0
  0
VERTEX
  8
NC_Symbol-A
 10
6.215410
 20
18.892720
 30
0.0
 42
-0.066051
  0
VERTEX
  8
NC_Symbol-A
 10
5.736920
 20
18.964630
 30
0.0
  0
VERTEX
  8
NC_Symbol-A
 10
5.736920
 20
18.964630
 30
0.0
 42
-0.437176
  0
VERTEX
  8
NC_Symbol-A
 10
5.720450
 20
18.997430
 30
0.0
  0
VERTEX
  8
NC_Symbol-A
 10
5.753710
 20
19.086120
 30
0.0
 42
0.414049
  0
VERTEX
  8
NC_Symbol-A
 10
5.739090
 20
19.118300
 30
0.0
  0
VERTEX
  8
NC_Symbol-A
 10
5.310040
 20
19.279360
 30
0.0
 42
0.414131
  0
VERTEX
  8
NC_Symbol-A
 10
5.277850
 20
19.264750
 30
0.0
  0
VERTEX
  8
NC_Symbol-A
 10
5.118220
 20
18.839700
 30
0.0
 42
0.414351
  0
VERTEX
  8
NC_Symbol-A
 10
5.132840
 20
18.807500
 30
0.0
  0
VERTEX
  8
NC_Symbol-A
 10
5.562020
 20
18.646440
 30
0.0
 42
0.414268
  0
VERTEX
  8
NC_Symbol-A
 10
5.594210
 20
18.661070
 30
0.0
  0
VERTEX
  8
NC_Symbol-A
 10
5.613710
 20
18.713040
 30
0.0
 42
-0.394836
  0
VERTEX
  8
NC_Symbol-A
 10
5.644320
 20
18.728200
 30
0.0
  0
VERTEX
  8
NC_Symbol-A
 10
5.644320
 20
18.728200
 30
0.0
 42
0.069125
  0
VERTEX
  8
NC_Symbol-A
 10
6.213270
 20
18.639750
 30
0.0
  0
SEQEND
  0
POLYLINE
  8
NC_Resist-A
 66
   1
 10
0.0
 20
0.0
 30
0.0
 70
   1
  0
VERTEX
  8
NC_Resist-A
 10
7.500000
 20
7.300000
 30
0.0
 42
1.000000
  0
VERTEX
  8
NC_Resist-A
 10
7.500000
 20
11.700000
 30
0.0
 42
1.000000
  0
VERTEX
  8
NC_Resist-A
 10
7.500000
 20
7.300000
 30
0.0
  0
SEQEND
  0
POLYLINE
  8
NC_Resist-A
 66
   1
 10
0.0
 20
0.0
 30
0.0
 70
   1
  0
VERTEX
  8
NC_Resist-A
 10
9.500000
 20
4.250000
 30
0.0
 42
1.000000
  0
VERTEX
  8
NC_Resist-A
 10
9.500000
 20
5.950000
 30
0.0
 42
1.000000
  0
VERTEX
  8
NC_Resist-A
 10
9.500000
 20
4.250000
 30
0.0
  0
SEQEND
  0
POLYLINE
  8
NC_Resist-A
 66
   1
 10
0.0
 20
0.0
 30
0.0
 70
   1
  0
VERTEX
  8
NC_Resist-A
 10
20.500000
 20
7.300000
 30
0.0
 42
1.000000
  0
VERTEX
  8
NC_Resist-A
 10
20.500000
 20
11.700000
 30
0.0
 42
1.000000
  0
VERTEX
  8
NC_Resist-A
 10
20.500000
 20
7.300000
 30
0.0
  0
SEQEND
  0
POLYLINE
  8
NC_Resist-A
 66
   1
 10
0.0
 20
0.0
 30
0.0
 70
   1
  0
VERTEX
  8
NC_Resist-A
 10
18.500000
 20
11.150000
 30
0.0
 42
1.000000
  0
VERTEX
  8
NC_Resist-A
 10
18.500000
 20
12.850000
 30
0.0
 42
1.000000
  0
VERTEX
  8
NC_Resist-A
 10
18.500000
 20
11.150000
 30
0.0
  0
SEQEND
  0
POLYLINE
  8
NC_Resist-A
 66
   1
 10
0.0
 20
0.0
 30
0.0
 70
   1
  0
VERTEX
  8
NC_Resist-A
 10
26.000000
 20
24.800000
 30
0.0
 42
1.000000
  0
VERTEX
  8
NC_Resist-A
 10
26.000000
 20
27.200000
 30
0.0
 42
1.000000
  0
VERTEX
  8
NC_Resist-A
 10
26.000000
 20
24.800000
 30
0.0
  0
SEQEND
  0
POLYLINE
  8
NC_Resist-A
 66
   1
 10
0.0
 20
0.0
 30
0.0
 70
   1
  0
VERTEX
  8
NC_Resist-A
 10
2.000000
 20
24.800000
 30
0.0
 42
1.000000
  0
VERTEX
  8
NC_Resist-A
 10
2.000000
 20
27.200000
 30
0.0
 42
1.000000
  0
VERTEX
  8
NC_Resist-A
 10
2.000000
 20
24.800000
 30
0.0
  0
SEQEND
  0
POLYLINE
  8
NC_Resist-A
 66
   1
 10
0.0
 20
0.0
 30
0.0
 70
   1
  0
VERTEX
  8
NC_Resist-A
 10
2.000000
 20
0.800000
 30
0.0
 42
1.000000
  0
VERTEX
  8
NC_Resist-A
 10
2.000000
 20
3.200000
 30
0.0
 42
1.000000
  0
VERTEX
  8
NC_Resist-A
 10
2.000000
 20
0.800000
 30
0.0
  0
SEQEND
  0
POLYLINE
  8
NC_Resist-A
 66
   1
 10
0.0
 20
0.0
 30
0.0
 70
   1
  0
VERTEX
  8
NC_Resist-A
 10
26.000000
 20
0.800000
 30
0.0
 42
1.000000
  0
VERTEX
  8
NC_Resist-A
 10
26.000000
 20
3.200000
 30
0.0
 42
1.000000
  0
VERTEX
  8
NC_Resist-A
 10
26.000000
 20
0.800000
 30
0.0
  0
SEQEND
  0
POLYLINE
  8
NC_Symbol-A
 66
   1
 10
0.0
 20
0.0
 30
0.0
 70
   1
  0
VERTEX
  8
NC_Symbol-A
 10
19.601390
 20
20.111960
 30
0.0
 42
-0.016085
  0
VERTEX
  8
NC_Symbol-A
 10
19.598180
 20
20.112160
 30
0.0
  0
VERTEX
  8
NC_Symbol-A
 10
19.536180
 20
20.117900
 30
0.0
 42
-0.017246
  0
VERTEX
  8
NC_Symbol-A
 10
19.532760
 20
20.118340
 30
0.0
  0
VERTEX
  8
NC_Symbol-A
 10
19.459270
 20
20.130290
 30
0.0
 42
-0.010278
  0
VERTEX
  8
NC_Symbol-A
 10
19.457250
 20
20.130670
 30
0.0
  0
VERTEX
  8
NC_Symbol-A
 10
19.379350
 20
20.146650
 30
0.0
 42
-0.016303
  0
VERTEX
  8
NC_Symbol-A
 10
19.376180
 20
20.147410
 30
0.0
  0
VERTEX
  8
NC_Symbol-A
 10
19.222520
 20
20.189520
 30
0.0
 42
-0.019631
  0
VERTEX
  8
NC_Symbol-A
 10
19.218780
 20
20.190710
 30
0.0
  0
VERTEX
  8
NC_Symbol-A
 10
19.142450
 20
20.218220
 30
0.0
 42
-0.012110
  0
VERTEX
  8
NC_Symbol-A
 10
19.140190
 20
20.219090
 30
0.0
  0
VERTEX
  8
NC_Symbol-A
 10
19.089650
 20
20.240120
 30
0.0
  0
VERTEX
  8
NC_Symbol-A
 10
19.069010
 20
20.243760
 30
0.0
  0
VERTEX
  8
NC_Symbol-A
 10
19.055900
 20
20.236570
 30
0.0
  0
VERTEX
  8
NC_Symbol-A
 10
19.046990
 20
20.216050
 30
0.0
  0
VERTEX
  8
NC_Symbol-A
 10
19.046990
 20
20.198940
 30
0.0
 42
-0.414214
  0
VERTEX
  8
NC_Symbol-A
 10
18.996990
 20
20.148940
 30
0.0
  0
VERTEX
  8
NC_Symbol-A
 10
18.900000
 20
20.148940
 30
0.0
 42
-0.414214
  0
VERTEX
  8
NC_Symbol-A
 10
18.850000
 20
20.198940
 30
0.0
  0
VERTEX
  8
NC_Symbol-A
 10
18.850000
 20
20.595470
 30
0.0
 42
-0.414214
  0
VERTEX
  8
NC_Symbol-A
 10
18.900000
 20
20.645470
 30
0.0
  0
VERTEX
  8
NC_Symbol-A
 10
18.985190
 20
20.645470
 30
0.0
 42
-0.364664
  0
VERTEX
  8
NC_Symbol-A
 10
19.034450
 20
20.604030
 30
0.0
  0
VERTEX
  8
NC_Symbol-A
 10
19.040260
 20
20.570620
 30
0.0
  0
VERTEX
  8
NC_Symbol-A
 10
19.056540
 20
20.531630
 30
0.0
  0
VERTEX
  8
NC_Symbol-A
 10
19.073050
 20
20.505370
 30
0.0
  0
VERTEX
  8
NC_Symbol-A
 10
19.120870
 20
20.455000
 30
0.0
  0
VERTEX
  8
NC_Symbol-A
 10
19.169620
 20
20.417130
 30
0.0
  0
VERTEX
  8
NC_Symbol-A
 10
19.232130
 20
20.382540
 30
0.0
  0
VERTEX
  8
NC_Symbol-A
 10
19.294100
 20
20.357730
 30
0.0
  0
VERTEX
  8
NC_Symbol-A
 10
19.350460
 20
20.340460
 30
0.0
  0
VERTEX
  8
NC_Symbol-A
 10
19.429950
 20
20.321240
 30
0.0
  0
VERTEX
  8
NC_Symbol-A
 10
19.550510
 20
20.300440
 30
0.0
  0
VERTEX
  8
NC_Symbol-A
 10
19.675720
 20
20.291630
 30
0.0
  0
VERTEX
  8
NC_Symbol-A
 10
19.792300
 20
20.297880
 30
0.0
  0
VERTEX
  8
NC_Symbol-A
 10
19.883230
 20
20.312660
 30
0.0
  0
VERTEX
  8
NC_Symbol-A
 10
19.961230
 20
20.334360
 30
0.0
  0
VERTEX
  8
NC_Symbol-A
 10
19.996220
 20
20.347880
 30
0.0
  0
VERTEX
  8
NC_Symbol-A
 10
20.015770
 20
20.355860
 30
0.0
  0
VERTEX
  8
NC_Symbol-A
 10
20.046510
 20
20.373350
 30
0.0
  0
VERTEX
  8
NC_Symbol-A
 10
20.073480
 20
20.397730
 30
0.0
  0
VERTEX
  8
NC_Symbol-A
 10
20.094400
 20
20.432680
 30
0.0
  0
VERTEX
  8
NC_Symbol-A
 10
20.102810
 20
20.479900
 30
0.0
  0
VERTEX
  8
NC_Symbol-A
 10
20.091580
 20
20.533030
 30
0.0
  0
VERTEX
  8
NC_Symbol-A
 10
20.063050
 20
20.568000
 30
0.0
  0
VERTEX
  8
NC_Symbol-A
 10
20.013930
 20
20.593690
 30
0.0
  0
VERTEX
  8
NC_Symbol-A
 10
19.965260
 20
20.607390
 30
0.0
  0
VERTEX
  8
NC_Symbol-A
 10
19.910020
 20
20.618170
 30
0.0
  0
VERTEX
  8
NC_Symbol-A
 10
19.833300
 20
20.628950
 30
0.0
  0
VERTEX
  8
NC_Symbol-A
 10
19.713850
 20
20.642770
 30
0.0
  0
VERTEX
  8
NC_Symbol-A
 10
19.581640
 20
20.656780
 30
0.0
 42
-0.004832
  0
VERTEX
  8
NC_Symbol-A
 10
19.580680
 20
20.656890
 30
0.0
  0
VERTEX
  8
NC_Symbol-A
 10
19.374730
 20
20.682710
 30
0.0
 42
-0.007878
  0
VERTEX
  8
NC_Symbol-A
 10
19.373170
 20
20.682930
 30
0.0
  0
VERTEX
  8
NC_Symbol-A
 10
19.262930
 20
20.700290
 30
0.0
 42
-0.008015
  0
VERTEX
  8
NC_Symbol-A
 10
19.261350
 20
20.700560
 30
0.0
  0
VERTEX
  8
NC_Symbol-A
 10
19.181830
 20
20.715710
 30
0.0
 42
-0.022156
  0
VERTEX
  8
NC_Symbol-A
 10
19.177520
 20
20.716730
 30
0.0
  0
VERTEX
  8
NC_Symbol-A
 10
19.084850
 20
20.743050
 30
0.0
 42
-0.034900
  0
VERTEX
  8
NC_Symbol-A
 10
19.078290
 20
20.745410
 30
0.0
  0
VERTEX
  8
NC_Symbol-A
 10
19.012530
 20
20.774490
 30
0.0
 42
-0.040810
  0
VERTEX
  8
NC_Symbol-A
 10
19.005370
 20
20.778380
 30
0.0
  0
VERTEX
  8
NC_Symbol-A
 10
18.947850
 20
20.816030
 30
0.0
 42
-0.034732
  0
VERTEX
  8
NC_Symbol-A
 10
18.942320
 20
20.820220
 30
0.0
  0
VERTEX
  8
NC_Symbol-A
 10
18.908380
 20
20.849890
 30
0.0
 42
-0.066625
  0
VERTEX
  8
NC_Symbol-A
 10
18.899640
 20
20.859870
 30
0.0
  0
VERTEX
  8
NC_Symbol-A
 10
18.844360
 20
20.943080
 30
0.0
 42
-0.068504
  0
VERTEX
  8
NC_Symbol-A
 10
18.838430
 20
20.955360
 30
0.0
  0
VERTEX
  8
NC_Symbol-A
 10
18.819720
 20
21.013190
 30
0.0
 42
-0.052421
  0
VERTEX
  8
NC_Symbol-A
 10
18.817560
 20
21.023420
 30
0.0
  0
VERTEX
  8
NC_Symbol-A
 10
18.811370
 20
21.083100
 30
0.0
 42
-0.064386
  0
VERTEX
  8
NC_Symbol-A
 10
18.811690
 20
21.095920
 30
0.0
  0
VERTEX
  8
NC_Symbol-A
 10
18.825040
 20
21.182040
 30
0.0
 42
-0.081058
  0
VERTEX
  8
NC_Symbol-A
 10
18.830040
 20
21.197350
 30
0.0
  0
VERTEX
  8
NC_Symbol-A
 10
18.865590
 20
21.266090
 30
0.0
 42
-0.080153
  0
VERTEX
  8
NC_Symbol-A
 10
18.875070
 20
21.278890
 30
0.0
  0
VERTEX
  8
NC_Symbol-A
 10
18.950100
 20
21.352160
 30
0.0
 42
-0.064578
  0
VERTEX
  8
NC_Symbol-A
 10
18.960380
 20
21.359890
 30
0.0
  0
VERTEX
  8
NC_Symbol-A
 10
19.060410
 20
21.416590
 30
0.0
 42
-0.038327
  0
VERTEX
  8
NC_Symbol-A
 10
19.067340
 20
21.419840
 30
0.0
  0
VERTEX
  8
NC_Symbol-A
 10
19.164160
 20
21.456550
 30
0.0
 42
-0.025855
  0
VERTEX
  8
NC_Symbol-A
 10
19.169080
 20
21.458130
 30
0.0
  0
VERTEX
  8
NC_Symbol-A
 10
19.271640
 20
21.485320
 30
0.0
 42
-0.025513
  0
VERTEX
  8
NC_Symbol-A
 10
19.276630
 20
21.486370
 30
0.0
  0
VERTEX
  8
NC_Symbol-A
 10
19.410350
 20
21.507540
 30
0.0
 42
-0.026213
  0
VERTEX
  8
NC_Symbol-A
 10
19.415560
 20
21.508090
 30
0.0
  0
VERTEX
  8
NC_Symbol-A
 10
19.545110
 20
21.514850
 30
0.0
 42
-0.030028
  0
VERTEX
  8
NC_Symbol-A
 10
19.551110
 20
21.514810
 30
0.0
  0
VERTEX
  8
NC_Symbol-A
 10
19.718580
 20
21.503410
 30
0.0
 42
-0.029919
  0
VERTEX
  8
NC_Symbol-A
 10
19.724510
 20
21.502650
 30
0.0
  0
VERTEX
  8
NC_Symbol-A
 10
19.871920
 20
21.474650
 30
0.0
 42
-0.023662
  0
VERTEX
  8
NC_Symbol-A
 10
19.876520
 20
21.473550
 30
0.0
  0
VERTEX
  8
NC_Symbol-A
 10
19.981180
 20
21.443200
 30
0.0
 42
-0.019202
  0
VERTEX
  8
NC_Symbol-A
 10
19.984820
 20
21.441980
 30
0.0
  0
VERTEX
  8
NC_Symbol-A
 10
20.067020
 20
21.411130
 30
0.0
 42
-0.018988
  0
VERTEX
  8
NC_Symbol-A
 10
20.070520
 20
21.409660
 30
0.0
  0
VERTEX
  8
NC_Symbol-A
 10
20.127920
 20
21.382980
 30
0.0
  0
VERTEX
  8
NC_Symbol-A
 10
20.148810
 20
21.376430
 30
0.0
  0
VERTEX
  8
NC_Symbol-A
 10
20.163950
 20
21.380270
 30
0.0
  0
VERTEX
  8
NC_Symbol-A
 10
20.176280
 20
21.402860
 30
0.0
  0
VERTEX
  8
NC_Symbol-A
 10
20.176280
 20
21.403060
 30
0.0
 42
-0.414214
  0
VERTEX
  8
NC_Symbol-A
 10
20.226280
 20
21.453060
 30
0.0
  0
VERTEX
  8
NC_Symbol-A
 10
20.303860
 20
21.453060
 30
0.0
 42
-0.414214
  0
VERTEX
  8
NC_Symbol-A
 10
20.353860
 20
21.403060
 30
0.0
  0
VERTEX
  8
NC_Symbol-A
 10
20.353860
 20
21.070840
 30
0.0
 42
-0.414214
  0
VERTEX
  8
NC_Symbol-A
 10
20.303860
 20
21.020840
 30
0.0
  0
VERTEX
  8
NC_Symbol-A
 10
20.228710
 20
21.020840
 30
0.0
 42
-0.307079
  0
VERTEX
  8
NC_Symbol-A
 10
20.182260
 20
21.052340
 30
0.0
  0
VERTEX
  8
NC_Symbol-A
 10
20.158260
 20
21.112600
 30
0.0
  0
VERTEX
  8
NC_Symbol-A
 10
20.126960
 20
21.155640
 30
0.0
  0
VERTEX
  8
NC_Symbol-A
 10
20.096320
 20
21.185630
 30
0.0
  0
VERTEX
  8
NC_Symbol-A
 10
20.053370
 20
21.215550
 30
0.0
  0
VERTEX
  8
NC_Symbol-A
 10
19.996380
 20
21.245230
 30
0.0
  0
VERTEX
  8
NC_Symbol-A
 10
19.926180
 20
21.272470
 30
0.0
  0
VERTEX
  8
NC_Symbol-A
 10
19.841970
 20
21.296620
 30
0.0
  0
VERTEX
  8
NC_Symbol-A
 10
19.717320
 20
21.318980
 30
0.0
  0
VERTEX
  8
NC_Symbol-A
 10
19.576420
 20
21.327230
 30
0.0
  0
VERTEX
  8
NC_Symbol-A
 10
19.388980
 20
21.312130
 30
0.0
  0
VERTEX
  8
NC_Symbol-A
 10
19.288830
 20
21.288400
 30
0.0
  0
VERTEX
  8
NC_Symbol-A
 10
19.213890
 20
21.255380
 30
0.0
  0
VERTEX
  8
NC_Symbol-A
 10
19.167950
 20
21.214740
 30
0.0
  0
VERTEX
  8
NC_Symbol-A
 10
19.146840
 20
21.152250
 30
0.0
  0
VERTEX
  8
NC_Symbol-A
 10
19.153200
 20
21.119210
 30
0.0
  0
VERTEX
  8
NC_Symbol-A
 10
19.169110
 20
21.094820
 30
0.0
  0
VERTEX
  8
NC_Symbol-A
 10
19.195680
 20
21.074510
 30
0.0
  0
VERTEX
  8
NC_Symbol-A
 10
19.220230
 20
21.064070
 30
0.0
  0
VERTEX
  8
NC_Symbol-A
 10
19.288130
 20
21.048920
 30
0.0
  0
VERTEX
  8
NC_Symbol-A
 10
19.377790
 20
21.035900
 30
0.0
  0
VERTEX
  8
NC_Symbol-A
 10
19.502720
 20
21.022040
 30
0.0
  0
VERTEX
  8
NC_Symbol-A
 10
19.614380
 20
21.010820
 30
0.0
 42
-0.003771
  0
VERTEX
  8
NC_Symbol-A
 10
19.615130
 20
21.010740
 30
0.0
  0
VERTEX
  8
NC_Symbol-A
 10
19.701600
 20
21.000730
 30
0.0
 42
-0.004130
  0
VERTEX
  8
NC_Symbol-A
 10
19.702420
 20
21.000630
 30
0.0
  0
VERTEX
  8
NC_Symbol-A
 10
19.807780
 20
20.986640
 30
0.0
 42
-0.004038
  0
VERTEX
  8
NC_Symbol-A
 10
19.808580
 20
20.986530
 30
0.0
  0
VERTEX
  8
NC_Symbol-A
 10
19.900800
 20
20.972780
 30
0.0
 42
-0.005269
  0
VERTEX
  8
NC_Symbol-A
 10
19.901840
 20
20.972610
 30
0.0
  0
VERTEX
  8
NC_Symbol-A
 10
19.986100
 20
20.958230
 30
0.0
 42
-0.009415
  0
VERTEX
  8
NC_Symbol-A
 10
19.987950
 20
20.957880
 30
0.0
  0
VERTEX
  8
NC_Symbol-A
 10
20.053650
 20
20.944100
 30
0.0
 42
-0.020430
  0
VERTEX
  8
NC_Symbol-A
 10
20.057610
 20
20.943100
 30
0.0
  0
VERTEX
  8
NC_Symbol-A
 10
20.126370
 20
20.922710
 30
0.0
 42
-0.022022
  0
VERTEX
  8
NC_Symbol-A
 10
20.130530
 20
20.921270
 30
0.0
  0
VERTEX
  8
NC_Symbol-A
 10
20.209470
 20
20.890070
 30
0.0
 42
-0.031233
  0
VERTEX
  8
NC_Symbol-A
 10
20.215120
 20
20.887420
 30
0.0
  0
VERTEX
  8
NC_Symbol-A
 10
20.268420
 20
20.858210
 30
0.0
 42
-0.042637
  0
VERTEX
  8
NC_Symbol-A
 10
20.275510
 20
20.853500
 30
0.0
  0
VERTEX
  8
NC_Symbol-A
 10
20.336650
 20
20.804890
 30
0.0
 42
-0.043479
  0
VERTEX
  8
NC_Symbol-A
 10
20.342950
 20
20.798920
 30
0.0
  0
VERTEX
  8
NC_Symbol-A
 10
20.361460
 20
20.778050
 30
0.0
 42
-0.031997
  0
VERTEX
  8
NC_Symbol-A
 10
20.365380
 20
20.773000
 30
0.0
  0
VERTEX
  8
NC_Symbol-A
 10
20.390720
 20
20.735760
 30
0.0
 42
-0.047907
  0
VERTEX
  8
NC_Symbol-A
 10
20.395320
 20
20.727380
 30
0.0
  0
VERTEX
  8
NC_Symbol-A
 10
20.425250
 20
20.657770
 30
0.0
 42
-0.066251
  0
VERTEX
  8
NC_Symbol-A
 10
20.428820
 20
20.645070
 30
0.0
  0
VERTEX
  8
NC_Symbol-A
 10
20.442100
 20
20.551910
 30
0.0
 42
-0.067305
  0
VERTEX
  8
NC_Symbol-A
 10
20.442190
 20
20.538510
 30
0.0
  0
VERTEX
  8
NC_Symbol-A
 10
20.432580
 20
20.463370
 30
0.0
 42
-0.063646
  0
VERTEX
  8
NC_Symbol-A
 10
20.429390
 20
20.451100
 30
0.0
  0
VERTEX
  8
NC_Symbol-A
 10
20.405970
 20
20.392730
 30
0.0
 42
-0.060755
  0
VERTEX
  8
NC_Symbol-A
 10
20.400140
 20
20.382120
 30
0.0
  0
VERTEX
  8
NC_Symbol-A
 10
20.360240
 20
20.326740
 30
0.0
 42
-0.049538
  0
VERTEX
  8
NC_Symbol-A
 10
20.353700
 20
20.319330
 30
0.0
  0
VERTEX
  8
NC_Symbol-A
 10
20.319020
 20
20.287110
 30
0.0
 42
-0.046594
  0
VERTEX
  8
NC_Symbol-A
 10
20.311650
 20
20.281440
 30
0.0
  0
VERTEX
  8
NC_Symbol-A
 10
20.215340
 20
20.220720
 30
0.0
 42
-0.048255
  0
VERTEX
  8
NC_Symbol-A
 10
20.206740
 20
20.216390
 30
0.0
  0
VERTEX
  8
NC_Symbol-A
 10
20.079830
 20
20.167200
 30
0.0
 42
-0.024475
  0
VERTEX
  8
NC_Symbol-A
 10
20.075190
 20
20.165650
 30
0.0
  0
VERTEX
  8
NC_Symbol-A
 10
20.021450
 20
20.150670
 30
0.0
 42
-0.011194
  0
VERTEX
  8
NC_Symbol-A
 10
20.019280
 20
20.150120
 30
0.0
  0
VERTEX
  8
NC_Symbol-A
 10
19.951100
 20
20.134380
 30
0.0
 42
-0.020720
  0
VERTEX
  8
NC_Symbol-A
 10
19.947030
 20
20.133610
 30
0.0
  0
VERTEX
  8
NC_Symbol-A
 10
19.834100
 20
20.117230
 30
0.0
 42
-0.024673
  0
VERTEX
  8
NC_Symbol-A
 10
19.829190
 20
20.116770
 30
0.0
  0
VERTEX
  8
NC_Symbol-A
 10
19.678590
 20
20.109940
 30
0.0
 42
-0.018307
  0
VERTEX
  8
NC_Symbol-A
 10
19.674930
 20
20.109910
 30
0.0
  0
SEQEND
  0
POLYLINE
  8
NC_Symbol-A
 66
   1
 10
0.0
 20
0.0
 30
0.0
 70
   1
  0
VERTEX
  8
NC_Symbol-A
 10
20.861410
 20
20.430030
 30
0.0
 42
-0.048263
  0
VERTEX
  8
NC_Symbol-A
 10
20.855600
 20
20.437710
 30
0.0
  0
VERTEX
  8
NC_Symbol-A
 10
20.801250
 20
20.526230
 30
0.0
 42
-0.053449
  0
VERTEX
  8
NC_Symbol-A
 10
20.796680
 20
20.535860
 30
0.0
  0
VERTEX
  8
NC_Symbol-A
 10
20.753170
 20
20.660030
 30
0.0
 42
-0.057037
  0
VERTEX
  8
NC_Symbol-A
 10
20.750660
 20
20.671120
 30
0.0
  0
VERTEX
  8
NC_Symbol-A
 10
20.736260
 20
20.802530
 30
0.0
 42
-0.049574
  0
VERTEX
  8
NC_Symbol-A
 10
20.736160
 20
20.812420
 30
0.0
  0
VERTEX
  8
NC_Symbol-A
 10
20.745240
 20
20.914130
 30
0.0
 42
-0.044802
  0
VERTEX
  8
NC_Symbol-A
 10
20.746830
 20
20.922930
 30
0.0
  0
VERTEX
  8
NC_Symbol-A
 10
20.773880
 20
21.021410
 30
0.0
 42
-0.051829
  0
VERTEX
  8
NC_Symbol-A
 10
20.777640
 20
21.031040
 30
0.0
  0
VERTEX
  8
NC_Symbol-A
 10
20.838380
 20
21.149130
 30
0.0
 42
-0.059382
  0
VERTEX
  8
NC_Symbol-A
 10
20.845000
 20
21.158940
 30
0.0
  0
VERTEX
  8
NC_Symbol-A
 10
20.934250
 20
21.262280
 30
0.0
 42
-0.058450
  0
VERTEX
  8
NC_Symbol-A
 10
20.942840
 20
21.270150
 30
0.0
  0
VERTEX
  8
NC_Symbol-A
 10
21.062280
 20
21.356310
 30
0.0
 42
-0.046518
  0
VERTEX
  8
NC_Symbol-A
 10
21.070280
 20
21.361020
 30
0.0
  0
VERTEX
  8
NC_Symbol-A
 10
21.218220
 20
21.430460
 30
0.0
 42
-0.042663
  0
VERTEX
  8
NC_Symbol-A
 10
21.226210
 20
21.433410
 30
0.0
  0
VERTEX
  8
NC_Symbol-A
 10
21.442250
 20
21.492830
 30
0.0
 42
-0.044100
  0
VERTEX
  8
NC_Symbol-A
 10
21.450910
 20
21.494410
 30
0.0
  0
VERTEX
  8
NC_Symbol-A
 10
21.678230
 20
21.515360
 30
0.0
 42
-0.037709
  0
VERTEX
  8
NC_Symbol-A
 10
21.685760
 20
21.515490
 30
0.0
  0
VERTEX
  8
NC_Symbol-A
 10
21.873610
 20
21.504440
 30
0.0
 42
-0.034212
  0
VERTEX
  8
NC_Symbol-A
 10
21.880390
 20
21.503580
 30
0.0
  0
VERTEX
  8
NC_Symbol-A
 10
22.050710
 20
21.469860
 30
0.0
 42
-0.037243
  0
VERTEX
  8
NC_Symbol-A
 10
22.057880
 20
21.467880
 30
0.0
  0
VERTEX
  8
NC_Symbol-A
 10
22.187540
 20
21.421370
 30
0.0
 42
-0.038126
  0
VERTEX
  8
NC_Symbol-A
 10
22.194490
 20
21.418260
 30
0.0
  0
VERTEX
  8
NC_Symbol-A
 10
22.311910
 20
21.354580
 30
0.0
 42
-0.040075
  0
VERTEX
  8
NC_Symbol-A
 10
22.318620
 20
21.350220
 30
0.0
  0
VERTEX
  8
NC_Symbol-A
 10
22.423930
 20
21.268980
 30
0.0
 42
-0.043998
  0
VERTEX
  8
NC_Symbol-A
 10
22.430390
 20
21.263030
 30
0.0
  0
VERTEX
  8
NC_Symbol-A
 10
22.502960
 20
21.183200
 30
0.0
 42
-0.048091
  0
VERTEX
  8
NC_Symbol-A
 10
22.508700
 20
21.175510
 30
0.0
  0
VERTEX
  8
NC_Symbol-A
 10
22.562320
 20
21.087150
 30
0.0
 42
-0.052866
  0
VERTEX
  8
NC_Symbol-A
 10
22.566810
 20
21.077610
 30
0.0
  0
VERTEX
  8
NC_Symbol-A
 10
22.609790
 20
20.953790
 30
0.0
 42
-0.056353
  0
VERTEX
  8
NC_Symbol-A
 10
22.612260
 20
20.942830
 30
0.0
  0
VERTEX
  8
NC_Symbol-A
 10
22.626510
 20
20.812440
 30
0.0
 42
-0.049876
  0
VERTEX
  8
NC_Symbol-A
 10
22.626600
 20
20.802490
 30
0.0
  0
VERTEX
  8
NC_Symbol-A
 10
22.617500
 20
20.702420
 30
0.0
 42
-0.043826
  0
VERTEX
  8
NC_Symbol-A
 10
22.615950
 20
20.693810
 30
0.0
  0
VERTEX
  8
NC_Symbol-A
 10
22.588890
 20
20.594470
 30
0.0
 42
-0.049690
  0
VERTEX
  8
NC_Symbol-A
 10
22.585350
 20
20.585210
 30
0.0
  0
VERTEX
  8
NC_Symbol-A
 10
22.525110
 20
20.464990
 30
0.0
 42
-0.058724
  0
VERTEX
  8
NC_Symbol-A
 10
22.518680
 20
20.455210
 30
0.0
  0
VERTEX
  8
NC_Symbol-A
 10
22.431180
 20
20.351130
 30
0.0
 42
-0.058206
  0
VERTEX
  8
NC_Symbol-A
 10
22.422730
 20
20.343180
 30
0.0
  0
VERTEX
  8
NC_Symbol-A
 10
22.301380
 20
20.252980
 30
0.0
 42
-0.048140
  0
VERTEX
  8
NC_Symbol-A
 10
22.293160
 20
20.248010
 30
0.0
  0
VERTEX
  8
NC_Symbol-A
 10
22.147940
 20
20.178450
 30
0.0
 42
-0.046054
  0
VERTEX
  8
NC_Symbol-A
 10
22.139320
 20
20.175260
 30
0.0
  0
VERTEX
  8
NC_Symbol-A
 10
21.926550
 20
20.118060
 30
0.0
 42
-0.044758
  0
VERTEX
  8
NC_Symbol-A
 10
21.917750
 20
20.116520
 30
0.0
  0
VERTEX
  8
NC_Symbol-A
 10
21.685740
 20
20.097060
 30
0.0
 42
-0.037554
  0
VERTEX
  8
NC_Symbol-A
 10
21.678240
 20
20.097000
 30
0.0
  0
VERTEX
  8
NC_Symbol-A
 10
21.496550
 20
20.109100
 30
0.0
 42
-0.034762
  0
VERTEX
  8
NC_Symbol-A
 10
21.489670
 20
20.110040
 30
0.0
  0
VERTEX
  8
NC_Symbol-A
 10
21.318080
 20
20.145810
 30
0.0
 42
-0.034898
  0
VERTEX
  8
NC_Symbol-A
 10
21.311370
 20
20.147700
 30
0.0
  0
VERTEX
  8
NC_Symbol-A
 10
21.178140
 20
20.195570
 30
0.0
 42
-0.035460
  0
VERTEX
  8
NC_Symbol-A
 10
21.171660
 20
20.198430
 30
0.0
  0
VERTEX
  8
NC_Symbol-A
 10
21.051880
 20
20.261790
 30
0.0
 42
-0.039692
  0
VERTEX
  8
NC_Symbol-A
 10
21.045190
 20
20.266040
 30
0.0
  0
VERTEX
  8
NC_Symbol-A
 10
20.941730
 20
20.343920
 30
0.0
 42
-0.045547
  0
VERTEX
  8
NC_Symbol-A
 10
20.934990
 20
20.350020
 30
0.0
  0
SEQEND
  0
POLYLINE
  8
NC_Symbol-A
 66
   1
 10
0.0
 20
0.0
 30
0.0
 70
   1
  0
VERTEX
  8
NC_Symbol-A
 10
21.354150
 20
20.378650
 30
0.0
  0
VERTEX
  8
NC_Symbol-A
 10
21.437310
 20
20.333500
 30
0.0
  0
VERTEX
  8
NC_Symbol-A
 10
21.555320
 20
20.296570
 30
0.0
  0
VERTEX
  8
NC_Symbol-A
 10
21.681990
 20
20.283950
 30
0.0
  0
VERTEX
  8
NC_Symbol-A
 10
21.782290
 20
20.291640
 30
0.0
  0
VERTEX
  8
NC_Symbol-A
 10
21.877270
 20
20.314410
 30
0.0
  0
VERTEX
  8
NC_Symbol-A
 10
21.987230
 20
20.364460
 30
0.0
  0
VERTEX
  8
NC_Symbol-A
 10
22.081010
 20
20.437260
 30
0.0
  0
VERTEX
  8
NC_Symbol-A
 10
22.139160
 20
20.506090
 30
0.0
  0
VERTEX
  8
NC_Symbol-A
 10
22.182290
 20
20.581810
 30
0.0
  0
VERTEX
  8
NC_Symbol-A
 10
22.216140
 20
20.688570
 30
0.0
  0
VERTEX
  8
NC_Symbol-A
 10
22.227230
 20
20.807470
 30
0.0
  0
VERTEX
  8
NC_Symbol-A
 10
22.219990
 20
20.900070
 30
0.0
  0
VERTEX
  8
NC_Symbol-A
 10
22.198470
 20
20.988060
 30
0.0
  0
VERTEX
  8
NC_Symbol-A
 10
22.150820
 20
21.090420
 30
0.0
  0
VERTEX
  8
NC_Symbol-A
 10
22.081010
 20
21.178420
 30
0.0
  0
VERTEX
  8
NC_Symbol-A
 10
22.009110
 20
21.236510
 30
0.0
  0
VERTEX
  8
NC_Symbol-A
 10
21.925960
 20
21.281410
 30
0.0
  0
VERTEX
  8
NC_Symbol-A
 10
21.808110
 20
21.318260
 30
0.0
  0
VERTEX
  8
NC_Symbol-A
 10
21.681990
 20
21.330900
 30
0.0
  0
VERTEX
  8
NC_Symbol-A
 10
21.582100
 20
21.323120
 30
0.0
  0
VERTEX
  8
NC_Symbol-A
 10
21.486650
 20
21.300230
 30
0.0
  0
VERTEX
  8
NC_Symbol-A
 10
21.375870
 20
21.250320
 30
0.0
  0
VERTEX
  8
NC_Symbol-A
 10
21.282240
 20
21.178420
 30
0.0
  0
VERTEX
  8
NC_Symbol-A
 10
21.225830
 20
21.110600
 30
0.0
  0
VERTEX
  8
NC_Symbol-A
 10
21.182880
 20
21.033330
 30
0.0
  0
VERTEX
  8
NC_Symbol-A
 10
21.148210
 20
20.924430
 30
0.0
  0
VERTEX
  8
NC_Symbol-A
 10
21.136510
 20
20.807470
 30
0.0
  0
VERTEX
  8
NC_Symbol-A
 10
21.143800
 20
20.715300
 30
0.0
  0
VERTEX
  8
NC_Symbol-A
 10
21.165410
 20
20.627500
 30
0.0
  0
VERTEX
  8
NC_Symbol-A
 10
21.212970
 20
20.525200
 30
0.0
  0
VERTEX
  8
NC_Symbol-A
 10
21.282240
 20
20.437260
 30
0.0
  0
SEQEND
  0
POLYLINE
  8
NC_Symbol-A
 66
   1
 10
0.0
 20
0.0
 30
0.0
 70
   1
  0
VERTEX
  8
NC_Symbol-A
 10
22.884380
 20
20.175000
 30
0.0
 42
-0.414214
  0
VERTEX
  8
NC_Symbol-A
 10
22.834380
 20
20.225000
 30
0.0
  0
VERTEX
  8
NC_Symbol-A
 10
22.834380
 20
20.282480
 30
0.0
 42
-0.414214
  0
VERTEX
  8
NC_Symbol-A
 10
22.884380
 20
20.332480
 30
0.0
  0
VERTEX
  8
NC_Symbol-A
 10
23.004500
 20
20.332480
 30
0.0
  0
VERTEX
  8
NC_Symbol-A
 10
23.040820
 20
20.342630
 30
0.0
  0
VERTEX
  8
NC_Symbol-A
 10
23.058800
 20
20.368270
 30
0.0
  0
VERTEX
  8
NC_Symbol-A
 10
23.064860
 20
20.402160
 30
0.0
  0
VERTEX
  8
NC_Symbol-A
 10
23.065460
 20
20.437100
 30
0.0
  0
VERTEX
  8
NC_Symbol-A
 10
23.065460
 20
21.175010
 30
0.0
  0
VERTEX
  8
NC_Symbol-A
 10
23.061990
 20
21.215600
 30
0.0
  0
VERTEX
  8
NC_Symbol-A
 10
23.044020
 20
21.251660
 30
0.0
  0
VERTEX
  8
NC_Symbol-A
 10
23.012310
 20
21.271290
 30
0.0
  0
VERTEX
  8
NC_Symbol-A
 10
22.959100
 20
21.278750
 30
0.0
  0
VERTEX
  8
NC_Symbol-A
 10
22.871070
 20
21.278750
 30
0.0
 42
-0.414214
  0
VERTEX
  8
NC_Symbol-A
 10
22.821070
 20
21.328750
 30
0.0
  0
VERTEX
  8
NC_Symbol-A
 10
22.821070
 20
21.386480
 30
0.0
 42
-0.414214
  0
VERTEX
  8
NC_Symbol-A
 10
22.871070
 20
21.436480
 30
0.0
  0
VERTEX
  8
NC_Symbol-A
 10
23.421600
 20
21.436480
 30
0.0
 42
-0.185586
  0
VERTEX
  8
NC_Symbol-A
 10
23.455090
 20
21.423600
 30
0.0
  0
VERTEX
  8
NC_Symbol-A
 10
24.307360
 20
20.654510
 30
0.0
  0
VERTEX
  8
NC_Symbol-A
 10
24.308890
 20
21.180970
 30
0.0
  0
VERTEX
  8
NC_Symbol-A
 10
24.304250
 20
21.229770
 30
0.0
  0
VERTEX
  8
NC_Symbol-A
 10
24.287450
 20
21.261150
 30
0.0
  0
VERTEX
  8
NC_Symbol-A
 10
24.261410
 20
21.274560
 30
0.0
  0
VERTEX
  8
NC_Symbol-A
 10
24.220580
 20
21.278860
 30
0.0
  0
VERTEX
  8
NC_Symbol-A
 10
24.107680
 20
21.278860
 30
0.0
 42
-0.414214
  0
VERTEX
  8
NC_Symbol-A
 10
24.057680
 20
21.328860
 30
0.0
  0
VERTEX
  8
NC_Symbol-A
 10
24.057680
 20
21.386340
 30
0.0
 42
-0.414214
  0
VERTEX
  8
NC_Symbol-A
 10
24.107680
 20
21.436340
 30
0.0
  0
VERTEX
  8
NC_Symbol-A
 10
24.748540
 20
21.436340
 30
0.0
 42
-0.414214
  0
VERTEX
  8
NC_Symbol-A
 10
24.798540
 20
21.386340
 30
0.0
  0
VERTEX
  8
NC_Symbol-A
 10
24.798540
 20
21.328860
 30
0.0
 42
-0.414214
  0
VERTEX
  8
NC_Symbol-A
 10
24.748540
 20
21.278860
 30
0.0
  0
VERTEX
  8
NC_Symbol-A
 10
24.639570
 20
21.278860
 30
0.0
  0
VERTEX
  8
NC_Symbol-A
 10
24.590930
 20
21.272590
 30
0.0
  0
VERTEX
  8
NC_Symbol-A
 10
24.566940
 20
21.251580
 30
0.0
  0
VERTEX
  8
NC_Symbol-A
 10
24.559600
 20
21.222620
 30
0.0
  0
VERTEX
  8
NC_Symbol-A
 10
24.557680
 20
21.180970
 30
0.0
  0
VERTEX
  8
NC_Symbol-A
 10
24.560580
 20
20.225060
 30
0.0
 42
-0.415094
  0
VERTEX
  8
NC_Symbol-A
 10
24.510580
 20
20.174910
 30
0.0
  0
VERTEX
  8
NC_Symbol-A
 10
24.326030
 20
20.174910
 30
0.0
 42
-0.184247
  0
VERTEX
  8
NC_Symbol-A
 10
24.292730
 20
20.187610
 30
0.0
  0
VERTEX
  8
NC_Symbol-A
 10
23.309200
 20
21.065690
 30
0.0
  0
VERTEX
  8
NC_Symbol-A
 10
23.309120
 20
20.433540
 30
0.0
  0
VERTEX
  8
NC_Symbol-A
 10
23.311280
 20
20.388750
 30
0.0
  0
VERTEX
  8
NC_Symbol-A
 10
23.320410
 20
20.357230
 30
0.0
  0
VERTEX
  8
NC_Symbol-A
 10
23.342620
 20
20.338610
 30
0.0
  0
VERTEX
  8
NC_Symbol-A
 10
23.384030
 20
20.332480
 30
0.0
  0
VERTEX
  8
NC_Symbol-A
 10
23.512010
 20
20.332480
 30
0.0
 42
-0.414214
  0
VERTEX
  8
NC_Symbol-A
 10
23.562010
 20
20.282480
 30
0.0
  0
VERTEX
  8
NC_Symbol-A
 10
23.562010
 20
20.225000
 30
0.0
 42
-0.414214
  0
VERTEX
  8
NC_Symbol-A
 10
23.512010
 20
20.175000
 30
0.0
  0
SEQEND
  0
POLYLINE
  8
NC_Symbol-A
 66
   1
 10
0.0
 20
0.0
 30
0.0
 70
   1
  0
VERTEX
  8
NC_Symbol-A
 10
25.760260
 20
21.436400
 30
0.0
 42
-0.414214
  0
VERTEX
  8
NC_Symbol-A
 10
25.810260
 20
21.386400
 30
0.0
  0
VERTEX
  8
NC_Symbol-A
 10
25.810260
 20
21.329020
 30
0.0
 42
-0.414214
  0
VERTEX
  8
NC_Symbol-A
 10
25.760260
 20
21.279020
 30
0.0
  0
VERTEX
  8
NC_Symbol-A
 10
25.705510
 20
21.279020
 30
0.0
  0
VERTEX
  8
NC_Symbol-A
 10
25.689360
 20
21.275030
 30
0.0
  0
VERTEX
  8
NC_Symbol-A
 10
25.678910
 20
21.264340
 30
0.0
  0
VERTEX
  8
NC_Symbol-A
 10
25.676870
 20
21.248870
 30
0.0
  0
VERTEX
  8
NC_Symbol-A
 10
25.685940
 20
21.230520
 30
0.0
  0
VERTEX
  8
NC_Symbol-A
 10
25.851110
 20
21.032620
 30
0.0
 42
-0.000283
  0
VERTEX
  8
NC_Symbol-A
 10
25.851150
 20
21.032580
 30
0.0
  0
VERTEX
  8
NC_Symbol-A
 10
25.980620
 20
20.877150
 30
0.0
  0
VERTEX
  8
NC_Symbol-A
 10
25.985160
 20
20.873840
 30
0.0
  0
VERTEX
  8
NC_Symbol-A
 10
25.987260
 20
20.874920
 30
0.0
  0
VERTEX
  8
NC_Symbol-A
 10
25.991170
 20
20.878040
 30
0.0
  0
VERTEX
  8
NC_Symbol-A
 10
25.998380
 20
20.886350
 30
0.0
  0
VERTEX
  8
NC_Symbol-A
 10
26.015210
 20
20.905950
 30
0.0
  0
VERTEX
  8
NC_Symbol-A
 10
26.061100
 20
20.959590
 30
0.0
  0
VERTEX
  8
NC_Symbol-A
 10
26.112840
 20
21.020180
 30
0.0
  0
VERTEX
  8
NC_Symbol-A
 10
26.219690
 20
21.145450
 30
0.0
  0
VERTEX
  8
NC_Symbol-A
 10
26.291780
 20
21.230050
 30
0.0
  0
VERTEX
  8
NC_Symbol-A
 10
26.297960
 20
21.244790
 30
0.0
  0
VERTEX
  8
NC_Symbol-A
 10
26.295560
 20
21.260760
 30
0.0
  0
VERTEX
  8
NC_Symbol-A
 10
26.284830
 20
21.273580
 30
0.0
  0
VERTEX
  8
NC_Symbol-A
 10
26.266010
 20
21.278830
 30
0.0
  0
VERTEX
  8
NC_Symbol-A
 10
26.208490
 20
21.278830
 30
0.0
 42
-0.414214
  0
VERTEX
  8
NC_Symbol-A
 10
26.158490
 20
21.328830
 30
0.0
  0
VERTEX
  8
NC_Symbol-A
 10
26.158490
 20
21.386400
 30
0.0
 42
-0.414214
  0
VERTEX
  8
NC_Symbol-A
 10
26.208490
 20
21.436400
 30
0.0
  0
VERTEX
  8
NC_Symbol-A
 10
26.820580
 20
21.436400
 30
0.0
 42
-0.414214
  0
VERTEX
  8
NC_Symbol-A
 10
26.870580
 20
21.386400
 30
0.0
  0
VERTEX
  8
NC_Symbol-A
 10
26.870580
 20
21.328830
 30
0.0
 42
-0.414214
  0
VERTEX
  8
NC_Symbol-A
 10
26.820580
 20
21.278830
 30
0.0
  0
VERTEX
  8
NC_Symbol-A
 10
26.711530
 20
21.278830
 30
0.0
  0
VERTEX
  8
NC_Symbol-A
 10
26.669890
 20
21.275720
 30
0.0
  0
VERTEX
  8
NC_Symbol-A
 10
26.637230
 20
21.263930
 30
0.0
  0
VERTEX
  8
NC_Symbol-A
 10
26.586890
 20
21.219080
 30
0.0
  0
VERTEX
  8
NC_Symbol-A
 10
26.518830
 20
21.141560
 30
0.0
  0
VERTEX
  8
NC_Symbol-A
 10
26.107040
 20
20.672080
 30
0.0
  0
VERTEX
  8
NC_Symbol-A
 10
26.101560
 20
20.658440
 30
0.0
  0
VERTEX
  8
NC_Symbol-A
 10
26.101240
 20
20.648740
 30
0.0
  0
VERTEX
  8
NC_Symbol-A
 10
26.101240
 20
20.399910
 30
0.0
  0
VERTEX
  8
NC_Symbol-A
 10
26.102310
 20
20.380390
 30
0.0
  0
VERTEX
  8
NC_Symbol-A
 10
26.103460
 20
20.370740
 30
0.0
  0
VERTEX
  8
NC_Symbol-A
 10
26.104650
 20
20.365850
 30
0.0
  0
VERTEX
  8
NC_Symbol-A
 10
26.119420
 20
20.346070
 30
0.0
  0
VERTEX
  8
NC_Symbol-A
 10
26.138770
 20
20.335600
 30
0.0
  0
VERTEX
  8
NC_Symbol-A
 10
26.150150
 20
20.334150
 30
0.0
  0
VERTEX
  8
NC_Symbol-A
 10
26.163440
 20
20.333390
 30
0.0
  0
VERTEX
  8
NC_Symbol-A
 10
26.182170
 20
20.332860
 30
0.0
  0
VERTEX
  8
NC_Symbol-A
 10
26.294930
 20
20.332860
 30
0.0
 42
-0.414214
  0
VERTEX
  8
NC_Symbol-A
 10
26.344930
 20
20.282860
 30
0.0
  0
VERTEX
  8
NC_Symbol-A
 10
26.344930
 20
20.225340
 30
0.0
 42
-0.414214
  0
VERTEX
  8
NC_Symbol-A
 10
26.294930
 20
20.175340
 30
0.0
  0
VERTEX
  8
NC_Symbol-A
 10
25.530530
 20
20.175340
 30
0.0
 42
-0.414214
  0
VERTEX
  8
NC_Symbol-A
 10
25.480530
 20
20.225340
 30
0.0
  0
VERTEX
  8
NC_Symbol-A
 10
25.480530
 20
20.282820
 30
0.0
 42
-0.414448
  0
VERTEX
  8
NC_Symbol-A
 10
25.530570
 20
20.332820
 30
0.0
  0
VERTEX
  8
NC_Symbol-A
 10
25.634770
 20
20.332740
 30
0.0
  0
VERTEX
  8
NC_Symbol-A
 10
25.660370
 20
20.333600
 30
0.0
  0
VERTEX
  8
NC_Symbol-A
 10
25.672660
 20
20.334530
 30
0.0
  0
VERTEX
  8
NC_Symbol-A
 10
25.678560
 20
20.335500
 30
0.0
  0
VERTEX
  8
NC_Symbol-A
 10
25.702060
 20
20.349780
 30
0.0
  0
VERTEX
  8
NC_Symbol-A
 10
25.712730
 20
20.365740
 30
0.0
  0
VERTEX
  8
NC_Symbol-A
 10
25.714510
 20
20.375020
 30
0.0
  0
VERTEX
  8
NC_Symbol-A
 10
25.715440
 20
20.385460
 30
0.0
  0
VERTEX
  8
NC_Symbol-A
 10
25.716100
 20
20.399800
 30
0.0
  0
VERTEX
  8
NC_Symbol-A
 10
25.716180
 20
20.648740
 30
0.0
  0
VERTEX
  8
NC_Symbol-A
 10
25.714150
 20
20.658090
 30
0.0
  0
VERTEX
  8
NC_Symbol-A
 10
25.705590
 20
20.670600
 30
0.0
  0
VERTEX
  8
NC_Symbol-A
 10
25.699970
 20
20.677280
 30
0.0
  0
VERTEX
  8
NC_Symbol-A
 10
25.690600
 20
20.688120
 30
0.0
  0
VERTEX
  8
NC_Symbol-A
 10
25.664450
 20
20.718130
 30
0.0
  0
VERTEX
  8
NC_Symbol-A
 10
25.594220
 20
20.798230
 30
0.0
  0
VERTEX
  8
NC_Symbol-A
 10
25.515320
 20
20.887970
 30
0.0
  0
VERTEX
  8
NC_Symbol-A
 10
25.431090
 20
20.983610
 30
0.0
  0
VERTEX
  8
NC_Symbol-A
 10
25.351100
 20
21.074310
 30
0.0
  0
VERTEX
  8
NC_Symbol-A
 10
25.284940
 20
21.149230
 30
0.0
  0
VERTEX
  8
NC_Symbol-A
 10
25.248880
 20
21.189950
 30
0.0
  0
VERTEX
  8
NC_Symbol-A
 10
25.231890
 20
21.208960
 30
0.0
  0
VERTEX
  8
NC_Symbol-A
 10
25.206200
 20
21.234290
 30
0.0
  0
VERTEX
  8
NC_Symbol-A
 10
25.171040
 20
21.259090
 30
0.0
  0
VERTEX
  8
NC_Symbol-A
 10
25.136430
 20
21.273290
 30
0.0
  0
VERTEX
  8
NC_Symbol-A
 10
25.095380
 20
21.278830
 30
0.0
  0
VERTEX
  8
NC_Symbol-A
 10
24.991470
 20
21.278830
 30
0.0
 42
-0.414214
  0
VERTEX
  8
NC_Symbol-A
 10
24.941470
 20
21.328830
 30
0.0
  0
VERTEX
  8
NC_Symbol-A
 10
24.941470
 20
21.386400
 30
0.0
 42
-0.414214
  0
VERTEX
  8
NC_Symbol-A
 10
24.991470
 20
21.436400
 30
0.0
  0
SEQEND
  0
POLYLINE
  8
NC_Symbol-A
 66
   1
 10
0.0
 20
0.0
 30
0.0
 70
   1
  0
VERTEX
  8
NC_Symbol-A
 10
18.099030
 20
22.668010
 30
0.0
 42
-0.523712
  0
VERTEX
  8
NC_Symbol-A
 10
18.052210
 20
22.600450
 30
0.0
  0
VERTEX
  8
NC_Symbol-A
 10
17.752210
 20
22.600450
 30
0.0
 42
-0.523712
  0
VERTEX
  8
NC_Symbol-A
 10
17.705390
 20
22.668010
 30
0.0
  0
VERTEX
  8
NC_Symbol-A
 10
17.855390
 20
23.068010
 30
0.0
 42
-0.693150
  0
VERTEX
  8
NC_Symbol-A
 10
17.949030
 20
23.068010
 30
0.0
  0
SEQEND
  0
POLYLINE
  8
NC_Symbol-A
 66
   1
 10
0.0
 20
0.0
 30
0.0
 70
   1
  0
VERTEX
  8
NC_Symbol-A
 10
9.350000
 20
24.810000
 30
0.0
 42
-1.000000
  0
VERTEX
  8
NC_Symbol-A
 10
9.150000
 20
24.810000
 30
0.0
  0
VERTEX
  8
NC_Symbol-A
 10
9.150000
 20
26.460000
 30
0.0
 42
-1.000000
  0
VERTEX
  8
NC_Symbol-A
 10
9.350000
 20
26.460000
 30
0.0
  0
SEQEND
  0
POLYLINE
  8
NC_Symbol-A
 66
   1
 10
0.0
 20
0.0
 30
0.0
 70
   1
  0
VERTEX
  8
NC_Symbol-A
 10
9.250000
 20
26.360000
 30
0.0
 42
-1.000000
  0
VERTEX
  8
NC_Symbol-A
 10
9.250000
 20
26.560000
 30
0.0
  0
VERTEX
  8
NC_Symbol-A
 10
9.950000
 20
26.560000
 30
0.0
 42
-1.000000
  0
VERTEX
  8
NC_Symbol-A
 10
9.950000
 20
26.360000
 30
0.0
  0
SEQEND
  0
POLYLINE
  8
NC_Symbol-A
 66
   1
 10
0.0
 20
0.0
 30
0.0
 70
   1
  0
VERTEX
  8
NC_Symbol-A
 10
9.560000
 20
24.710000
 30
0.0
 42
-1.000000
  0
VERTEX
  8
NC_Symbol-A
 10
9.360000
 20
24.710000
 30
0.0
  0
VERTEX
  8
NC_Symbol-A
 10
9.360000
 20
24.810000
 30
0.0
 42
-1.000000
  0
VERTEX
  8
NC_Symbol-A
 10
9.560000
 20
24.810000
 30
0.0
  0
SEQEND
  0
POLYLINE
  8
NC_Symbol-A
 66
   1
 10
0.0
 20
0.0
 30
0.0
 70
   1
  0
VERTEX
  8
NC_Symbol-A
 10
9.460000
 20
24.910000
 30
0.0
 42
-1.000000
  0
VERTEX
  8
NC_Symbol-A
 10
9.460000
 20
24.710000
 30
0.0
  0
VERTEX
  8
NC_Symbol-A
 10
9.250000
 20
24.710000
 30
0.0
 42
-1.000000
  0
VERTEX
  8
NC_Symbol-A
 10
9.250000
 20
24.910000
 30
0.0
  0
SEQEND
  0
POLYLINE
  8
NC_Symbol-A
 66
   1
 10
0.0
 20
0.0
 30
0.0
 70
   1
  0
VERTEX
  8
NC_Symbol-A
 10
18.650000
 20
26.460000
 30
0.0
 42
-1.000000
  0
VERTEX
  8
NC_Symbol-A
 10
18.850000
 20
26.460000
 30
0.0
  0
VERTEX
  8
NC_Symbol-A
 10
18.850000
 20
24.810000
 30
0.0
 42
-1.000000
  0
VERTEX
  8
NC_Symbol-A
 10
18.650000
 20
24.810000
 30
0.0
  0
SEQEND
  0
POLYLINE
  8
NC_Symbol-A
 66
   1
 10
0.0
 20
0.0
 30
0.0
 70
   1
  0
VERTEX
  8
NC_Symbol-A
 10
18.050000
 20
26.360000
 30
0.0
 42
-1.000000
  0
VERTEX
  8
NC_Symbol-A
 10
18.050000
 20
26.560000
 30
0.0
  0
VERTEX
  8
NC_Symbol-A
 10
18.750000
 20
26.560000
 30
0.0
 42
-1.000000
  0
VERTEX
  8
NC_Symbol-A
 10
18.750000
 20
26.360000
 30
0.0
  0
SEQEND
  0
POLYLINE
  8
NC_Symbol-A
 66
   1
 10
0.0
 20
0.0
 30
0.0
 70
   1
  0
VERTEX
  8
NC_Symbol-A
 10
18.440000
 20
24.810000
 30
0.0
 42
-1.000000
  0
VERTEX
  8
NC_Symbol-A
 10
18.640000
 20
24.810000
 30
0.0
  0
VERTEX
  8
NC_Symbol-A
 10
18.640000
 20
24.710000
 30
0.0
 42
-1.000000
  0
VERTEX
  8
NC_Symbol-A
 10
18.440000
 20
24.710000
 30
0.0
  0
SEQEND
  0
POLYLINE
  8
NC_Symbol-A
 66
   1
 10
0.0
 20
0.0
 30
0.0
 70
   1
  0
VERTEX
  8
NC_Symbol-A
 10
18.750000
 20
24.910000
 30
0.0
 42
-1.000000
  0
VERTEX
  8
NC_Symbol-A
 10
18.750000
 20
24.710000
 30
0.0
  0
VERTEX
  8
NC_Symbol-A
 10
18.540000
 20
24.710000
 30
0.0
 42
-1.000000
  0
VERTEX
  8
NC_Symbol-A
 10
18.540000
 20
24.910000
 30
0.0
  0
SEQEND
  0
POLYLINE
  8
NC_Resist-A
 66
   1
 10
0.0
 20
0.0
 30
0.0
 70
   1
  0
VERTEX
  8
NC_Resist-A
 10
17.750000
 20
23.960000
 30
0.0
 42
-0.414214
  0
VERTEX
  8
NC_Resist-A
 10
17.800000
 20
24.010000
 30
0.0
  0
VERTEX
  8
NC_Resist-A
 10
18.000000
 20
24.010000
 30
0.0
 42
-0.414214
  0
VERTEX
  8
NC_Resist-A
 10
18.050000
 20
23.960000
 30
0.0
  0
VERTEX
  8
NC_Resist-A
 10
18.050000
 20
23.360000
 30
0.0
 42
-0.414214
  0
VERTEX
  8
NC_Resist-A
 10
18.000000
 20
23.310000
 30
0.0
  0
VERTEX
  8
NC_Resist-A
 10
17.800000
 20
23.310000
 30
0.0
 42
-0.414214
  0
VERTEX
  8
NC_Resist-A
 10
17.750000
 20
23.360000
 30
0.0
  0
SEQEND
  0
POLYLINE
  8
NC_Resist-A
 66
   1
 10
0.0
 20
0.0
 30
0.0
 70
   1
  0
VERTEX
  8
NC_Resist-A
 10
17.450000
 20
26.860000
 30
0.0
 42
-0.414214
  0
VERTEX
  8
NC_Resist-A
 10
17.500000
 20
26.910000
 30
0.0
  0
VERTEX
  8
NC_Resist-A
 10
17.700000
 20
26.910000
 30
0.0
 42
-0.414214
  0
VERTEX
  8
NC_Resist-A
 10
17.750000
 20
26.860000
 30
0.0
  0
VERTEX
  8
NC_Resist-A
 10
17.750000
 20
26.310000
 30
0.0
 42
-0.414214
  0
VERTEX
  8
NC_Resist-A
 10
17.700000
 20
26.260000
 30
0.0
  0
VERTEX
  8
NC_Resist-A
 10
17.500000
 20
26.260000
 30
0.0
 42
-0.414214
  0
VERTEX
  8
NC_Resist-A
 10
17.450000
 20
26.310000
 30
0.0
  0
SEQEND
  0
POLYLINE
  8
NC_Resist-A
 66
   1
 10
0.0
 20
0.0
 30
0.0
 70
   1
  0
VERTEX
  8
NC_Resist-A
 10
17.150000
 20
23.960000
 30
0.0
 42
-0.414214
  0
VERTEX
  8
NC_Resist-A
 10
17.200000
 20
24.010000
 30
0.0
  0
VERTEX
  8
NC_Resist-A
 10
17.400000
 20
24.010000
 30
0.0
 42
-0.414214
  0
VERTEX
  8
NC_Resist-A
 10
17.450000
 20
23.960000
 30
0.0
  0
VERTEX
  8
NC_Resist-A
 10
17.450000
 20
23.360000
 30
0.0
 42
-0.414214
  0
VERTEX
  8
NC_Resist-A
 10
17.400000
 20
23.310000
 30
0.0
  0
VERTEX
  8
NC_Resist-A
 10
17.200000
 20
23.310000
 30
0.0
 42
-0.414214
  0
VERTEX
  8
NC_Resist-A
 10
17.150000
 20
23.360000
 30
0.0
  0
SEQEND
  0
POLYLINE
  8
NC_Resist-A
 66
   1
 10
0.0
 20
0.0
 30
0.0
 70
   1
  0
VERTEX
  8
NC_Resist-A
 10
16.850000
 20
26.860000
 30
0.0
 42
-0.414214
  0
VERTEX
  8
NC_Resist-A
 10
16.900000
 20
26.910000
 30
0.0
  0
VERTEX
  8
NC_Resist-A
 10
17.100000
 20
26.910000
 30
0.0
 42
-0.414214
  0
VERTEX
  8
NC_Resist-A
 10
17.150000
 20
26.860000
 30
0.0
  0
VERTEX
  8
NC_Resist-A
 10
17.150000
 20
26.310000
 30
0.0
 42
-0.414214
  0
VERTEX
  8
NC_Resist-A
 10
17.100000
 20
26.260000
 30
0.0
  0
VERTEX
  8
NC_Resist-A
 10
16.900000
 20
26.260000
 30
0.0
 42
-0.414214
  0
VERTEX
  8
NC_Resist-A
 10
16.850000
 20
26.310000
 30
0.0
  0
SEQEND
  0
POLYLINE
  8
NC_Resist-A
 66
   1
 10
0.0
 20
0.0
 30
0.0
 70
   1
  0
VERTEX
  8
NC_Resist-A
 10
16.550000
 20
23.960000
 30
0.0
 42
-0.414214
  0
VERTEX
  8
NC_Resist-A
 10
16.600000
 20
24.010000
 30
0.0
  0
VERTEX
  8
NC_Resist-A
 10
16.800000
 20
24.010000
 30
0.0
 42
-0.414214
  0
VERTEX
  8
NC_Resist-A
 10
16.850000
 20
23.960000
 30
0.0
  0
VERTEX
  8
NC_Resist-A
 10
16.850000
 20
23.360000
 30
0.0
 42
-0.414214
  0
VERTEX
  8
NC_Resist-A
 10
16.800000
 20
23.310000
 30
0.0
  0
VERTEX
  8
NC_Resist-A
 10
16.600000
 20
23.310000
 30
0.0
 42
-0.414214
  0
VERTEX
  8
NC_Resist-A
 10
16.550000
 20
23.360000
 30
0.0
  0
SEQEND
  0
POLYLINE
  8
NC_Resist-A
 66
   1
 10
0.0
 20
0.0
 30
0.0
 70
   1
  0
VERTEX
  8
NC_Resist-A
 10
16.250000
 20
26.860000
 30
0.0
 42
-0.414214
  0
VERTEX
  8
NC_Resist-A
 10
16.300000
 20
26.910000
 30
0.0
  0
VERTEX
  8
NC_Resist-A
 10
16.500000
 20
26.910000
 30
0.0
 42
-0.414214
  0
VERTEX
  8
NC_Resist-A
 10
16.550000
 20
26.860000
 30
0.0
  0
VERTEX
  8
NC_Resist-A
 10
16.550000
 20
26.310000
 30
0.0
 42
-0.414214
  0
VERTEX
  8
NC_Resist-A
 10
16.500000
 20
26.260000
 30
0.0
  0
VERTEX
  8
NC_Resist-A
 10
16.300000
 20
26.260000
 30
0.0
 42
-0.414214
  0
VERTEX
  8
NC_Resist-A
 10
16.250000
 20
26.310000
 30
0.0
  0
SEQEND
  0
POLYLINE
  8
NC_Resist-A
 66
   1
 10
0.0
 20
0.0
 30
0.0
 70
   1
  0
VERTEX
  8
NC_Resist-A
 10
15.950000
 20
23.960000
 30
0.0
 42
-0.414214
  0
VERTEX
  8
NC_Resist-A
 10
16.000000
 20
24.010000
 30
0.0
  0
VERTEX
  8
NC_Resist-A
 10
16.200000
 20
24.010000
 30
0.0
 42
-0.414214
  0
VERTEX
  8
NC_Resist-A
 10
16.250000
 20
23.960000
 30
0.0
  0
VERTEX
  8
NC_Resist-A
 10
16.250000
 20
23.360000
 30
0.0
 42
-0.414214
  0
VERTEX
  8
NC_Resist-A
 10
16.200000
 20
23.310000
 30
0.0
  0
VERTEX
  8
NC_Resist-A
 10
16.000000
 20
23.310000
 30
0.0
 42
-0.414214
  0
VERTEX
  8
NC_Resist-A
 10
15.950000
 20
23.360000
 30
0.0
  0
SEQEND
  0
POLYLINE
  8
NC_Resist-A
 66
   1
 10
0.0
 20
0.0
 30
0.0
 70
   1
  0
VERTEX
  8
NC_Resist-A
 10
15.650000
 20
26.860000
 30
0.0
 42
-0.414214
  0
VERTEX
  8
NC_Resist-A
 10
15.700000
 20
26.910000
 30
0.0
  0
VERTEX
  8
NC_Resist-A
 10
15.900000
 20
26.910000
 30
0.0
 42
-0.414214
  0
VERTEX
  8
NC_Resist-A
 10
15.950000
 20
26.860000
 30
0.0
  0
VERTEX
  8
NC_Resist-A
 10
15.950000
 20
26.310000
 30
0.0
 42
-0.414214
  0
VERTEX
  8
NC_Resist-A
 10
15.900000
 20
26.260000
 30
0.0
  0
VERTEX
  8
NC_Resist-A
 10
15.700000
 20
26.260000
 30
0.0
 42
-0.414214
  0
VERTEX
  8
NC_Resist-A
 10
15.650000
 20
26.310000
 30
0.0
  0
SEQEND
  0
POLYLINE
  8
NC_Resist-A
 66
   1
 10
0.0
 20
0.0
 30
0.0
 70
   1
  0
VERTEX
  8
NC_Resist-A
 10
15.350000
 20
23.960000
 30
0.0
 42
-0.414214
  0
VERTEX
  8
NC_Resist-A
 10
15.400000
 20
24.010000
 30
0.0
  0
VERTEX
  8
NC_Resist-A
 10
15.600000
 20
24.010000
 30
0.0
 42
-0.414214
  0
VERTEX
  8
NC_Resist-A
 10
15.650000
 20
23.960000
 30
0.0
  0
VERTEX
  8
NC_Resist-A
 10
15.650000
 20
23.360000
 30
0.0
 42
-0.414214
  0
VERTEX
  8
NC_Resist-A
 10
15.600000
 20
23.310000
 30
0.0
  0
VERTEX
  8
NC_Resist-A
 10
15.400000
 20
23.310000
 30
0.0
 42
-0.414214
  0
VERTEX
  8
NC_Resist-A
 10
15.350000
 20
23.360000
 30
0.0
  0
SEQEND
  0
POLYLINE
  8
NC_Resist-A
 66
   1
 10
0.0
 20
0.0
 30
0.0
 70
   1
  0
VERTEX
  8
NC_Resist-A
 10
15.050000
 20
26.860000
 30
0.0
 42
-0.414214
  0
VERTEX
  8
NC_Resist-A
 10
15.100000
 20
26.910000
 30
0.0
  0
VERTEX
  8
NC_Resist-A
 10
15.300000
 20
26.910000
 30
0.0
 42
-0.414214
  0
VERTEX
  8
NC_Resist-A
 10
15.350000
 20
26.860000
 30
0.0
  0
VERTEX
  8
NC_Resist-A
 10
15.350000
 20
26.310000
 30
0.0
 42
-0.414214
  0
VERTEX
  8
NC_Resist-A
 10
15.300000
 20
26.260000
 30
0.0
  0
VERTEX
  8
NC_Resist-A
 10
15.100000
 20
26.260000
 30
0.0
 42
-0.414214
  0
VERTEX
  8
NC_Resist-A
 10
15.050000
 20
26.310000
 30
0.0
  0
SEQEND
  0
POLYLINE
  8
NC_Resist-A
 66
   1
 10
0.0
 20
0.0
 30
0.0
 70
   1
  0
VERTEX
  8
NC_Resist-A
 10
14.750000
 20
23.960000
 30
0.0
 42
-0.414214
  0
VERTEX
  8
NC_Resist-A
 10
14.800000
 20
24.010000
 30
0.0
  0
VERTEX
  8
NC_Resist-A
 10
15.000000
 20
24.010000
 30
0.0
 42
-0.414214
  0
VERTEX
  8
NC_Resist-A
 10
15.050000
 20
23.960000
 30
0.0
  0
VERTEX
  8
NC_Resist-A
 10
15.050000
 20
23.360000
 30
0.0
 42
-0.414214
  0
VERTEX
  8
NC_Resist-A
 10
15.000000
 20
23.310000
 30
0.0
  0
VERTEX
  8
NC_Resist-A
 10
14.800000
 20
23.310000
 30
0.0
 42
-0.414214
  0
VERTEX
  8
NC_Resist-A
 10
14.750000
 20
23.360000
 30
0.0
  0
SEQEND
  0
POLYLINE
  8
NC_Resist-A
 66
   1
 10
0.0
 20
0.0
 30
0.0
 70
   1
  0
VERTEX
  8
NC_Resist-A
 10
14.450000
 20
26.860000
 30
0.0
 42
-0.414214
  0
VERTEX
  8
NC_Resist-A
 10
14.500000
 20
26.910000
 30
0.0
  0
VERTEX
  8
NC_Resist-A
 10
14.700000
 20
26.910000
 30
0.0
 42
-0.414214
  0
VERTEX
  8
NC_Resist-A
 10
14.750000
 20
26.860000
 30
0.0
  0
VERTEX
  8
NC_Resist-A
 10
14.750000
 20
26.310000
 30
0.0
 42
-0.414214
  0
VERTEX
  8
NC_Resist-A
 10
14.700000
 20
26.260000
 30
0.0
  0
VERTEX
  8
NC_Resist-A
 10
14.500000
 20
26.260000
 30
0.0
 42
-0.414214
  0
VERTEX
  8
NC_Resist-A
 10
14.450000
 20
26.310000
 30
0.0
  0
SEQEND
  0
POLYLINE
  8
NC_Resist-A
 66
   1
 10
0.0
 20
0.0
 30
0.0
 70
   1
  0
VERTEX
  8
NC_Resist-A
 10
14.150000
 20
23.960000
 30
0.0
 42
-0.414214
  0
VERTEX
  8
NC_Resist-A
 10
14.200000
 20
24.010000
 30
0.0
  0
VERTEX
  8
NC_Resist-A
 10
14.400000
 20
24.010000
 30
0.0
 42
-0.414214
  0
VERTEX
  8
NC_Resist-A
 10
14.450000
 20
23.960000
 30
0.0
  0
VERTEX
  8
NC_Resist-A
 10
14.450000
 20
23.360000
 30
0.0
 42
-0.414214
  0
VERTEX
  8
NC_Resist-A
 10
14.400000
 20
23.310000
 30
0.0
  0
VERTEX
  8
NC_Resist-A
 10
14.200000
 20
23.310000
 30
0.0
 42
-0.414214
  0
VERTEX
  8
NC_Resist-A
 10
14.150000
 20
23.360000
 30
0.0
  0
SEQEND
  0
POLYLINE
  8
NC_Resist-A
 66
   1
 10
0.0
 20
0.0
 30
0.0
 70
   1
  0
VERTEX
  8
NC_Resist-A
 10
13.850000
 20
26.860000
 30
0.0
 42
-0.414214
  0
VERTEX
  8
NC_Resist-A
 10
13.900000
 20
26.910000
 30
0.0
  0
VERTEX
  8
NC_Resist-A
 10
14.100000
 20
26.910000
 30
0.0
 42
-0.414214
  0
VERTEX
  8
NC_Resist-A
 10
14.150000
 20
26.860000
 30
0.0
  0
VERTEX
  8
NC_Resist-A
 10
14.150000
 20
26.310000
 30
0.0
 42
-0.414214
  0
VERTEX
  8
NC_Resist-A
 10
14.100000
 20
26.260000
 30
0.0
  0
VERTEX
  8
NC_Resist-A
 10
13.900000
 20
26.260000
 30
0.0
 42
-0.414214
  0
VERTEX
  8
NC_Resist-A
 10
13.850000
 20
26.310000
 30
0.0
  0
SEQEND
  0
POLYLINE
  8
NC_Resist-A
 66
   1
 10
0.0
 20
0.0
 30
0.0
 70
   1
  0
VERTEX
  8
NC_Resist-A
 10
13.550000
 20
23.960000
 30
0.0
 42
-0.414214
  0
VERTEX
  8
NC_Resist-A
 10
13.600000
 20
24.010000
 30
0.0
  0
VERTEX
  8
NC_Resist-A
 10
13.800000
 20
24.010000
 30
0.0
 42
-0.414214
  0
VERTEX
  8
NC_Resist-A
 10
13.850000
 20
23.960000
 30
0.0
  0
VERTEX
  8
NC_Resist-A
 10
13.850000
 20
23.360000
 30
0.0
 42
-0.414214
  0
VERTEX
  8
NC_Resist-A
 10
13.800000
 20
23.310000
 30
0.0
  0
VERTEX
  8
NC_Resist-A
 10
13.600000
 20
23.310000
 30
0.0
 42
-0.414214
  0
VERTEX
  8
NC_Resist-A
 10
13.550000
 20
23.360000
 30
0.0
  0
SEQEND
  0
POLYLINE
  8
NC_Resist-A
 66
   1
 10
0.0
 20
0.0
 30
0.0
 70
   1
  0
VERTEX
  8
NC_Resist-A
 10
13.250000
 20
26.860000
 30
0.0
 42
-0.414214
  0
VERTEX
  8
NC_Resist-A
 10
13.300000
 20
26.910000
 30
0.0
  0
VERTEX
  8
NC_Resist-A
 10
13.500000
 20
26.910000
 30
0.0
 42
-0.414214
  0
VERTEX
  8
NC_Resist-A
 10
13.550000
 20
26.860000
 30
0.0
  0
VERTEX
  8
NC_Resist-A
 10
13.550000
 20
26.310000
 30
0.0
 42
-0.414214
  0
VERTEX
  8
NC_Resist-A
 10
13.500000
 20
26.260000
 30
0.0
  0
VERTEX
  8
NC_Resist-A
 10
13.300000
 20
26.260000
 30
0.0
 42
-0.414214
  0
VERTEX
  8
NC_Resist-A
 10
13.250000
 20
26.310000
 30
0.0
  0
SEQEND
  0
POLYLINE
  8
NC_Resist-A
 66
   1
 10
0.0
 20
0.0
 30
0.0
 70
   1
  0
VERTEX
  8
NC_Resist-A
 10
12.950000
 20
23.960000
 30
0.0
 42
-0.414214
  0
VERTEX
  8
NC_Resist-A
 10
13.000000
 20
24.010000
 30
0.0
  0
VERTEX
  8
NC_Resist-A
 10
13.200000
 20
24.010000
 30
0.0
 42
-0.414214
  0
VERTEX
  8
NC_Resist-A
 10
13.250000
 20
23.960000
 30
0.0
  0
VERTEX
  8
NC_Resist-A
 10
13.250000
 20
23.360000
 30
0.0
 42
-0.414214
  0
VERTEX
  8
NC_Resist-A
 10
13.200000
 20
23.310000
 30
0.0
  0
VERTEX
  8
NC_Resist-A
 10
13.000000
 20
23.310000
 30
0.0
 42
-0.414214
  0
VERTEX
  8
NC_Resist-A
 10
12.950000
 20
23.360000
 30
0.0
  0
SEQEND
  0
POLYLINE
  8
NC_Resist-A
 66
   1
 10
0.0
 20
0.0
 30
0.0
 70
   1
  0
VERTEX
  8
NC_Resist-A
 10
12.650000
 20
26.860000
 30
0.0
 42
-0.414214
  0
VERTEX
  8
NC_Resist-A
 10
12.700000
 20
26.910000
 30
0.0
  0
VERTEX
  8
NC_Resist-A
 10
12.900000
 20
26.910000
 30
0.0
 42
-0.414214
  0
VERTEX
  8
NC_Resist-A
 10
12.950000
 20
26.860000
 30
0.0
  0
VERTEX
  8
NC_Resist-A
 10
12.950000
 20
26.310000
 30
0.0
 42
-0.414214
  0
VERTEX
  8
NC_Resist-A
 10
12.900000
 20
26.260000
 30
0.0
  0
VERTEX
  8
NC_Resist-A
 10
12.700000
 20
26.260000
 30
0.0
 42
-0.414214
  0
VERTEX
  8
NC_Resist-A
 10
12.650000
 20
26.310000
 30
0.0
  0
SEQEND
  0
POLYLINE
  8
NC_Resist-A
 66
   1
 10
0.0
 20
0.0
 30
0.0
 70
   1
  0
VERTEX
  8
NC_Resist-A
 10
12.350000
 20
23.960000
 30
0.0
 42
-0.414214
  0
VERTEX
  8
NC_Resist-A
 10
12.400000
 20
24.010000
 30
0.0
  0
VERTEX
  8
NC_Resist-A
 10
12.600000
 20
24.010000
 30
0.0
 42
-0.414214
  0
VERTEX
  8
NC_Resist-A
 10
12.650000
 20
23.960000
 30
0.0
  0
VERTEX
  8
NC_Resist-A
 10
12.650000
 20
23.360000
 30
0.0
 42
-0.414214
  0
VERTEX
  8
NC_Resist-A
 10
12.600000
 20
23.310000
 30
0.0
  0
VERTEX
  8
NC_Resist-A
 10
12.400000
 20
23.310000
 30
0.0
 42
-0.414214
  0
VERTEX
  8
NC_Resist-A
 10
12.350000
 20
23.360000
 30
0.0
  0
SEQEND
  0
POLYLINE
  8
NC_Resist-A
 66
   1
 10
0.0
 20
0.0
 30
0.0
 70
   1
  0
VERTEX
  8
NC_Resist-A
 10
12.050000
 20
26.860000
 30
0.0
 42
-0.414214
  0
VERTEX
  8
NC_Resist-A
 10
12.100000
 20
26.910000
 30
0.0
  0
VERTEX
  8
NC_Resist-A
 10
12.300000
 20
26.910000
 30
0.0
 42
-0.414214
  0
VERTEX
  8
NC_Resist-A
 10
12.350000
 20
26.860000
 30
0.0
  0
VERTEX
  8
NC_Resist-A
 10
12.350000
 20
26.310000
 30
0.0
 42
-0.414214
  0
VERTEX
  8
NC_Resist-A
 10
12.300000
 20
26.260000
 30
0.0
  0
VERTEX
  8
NC_Resist-A
 10
12.100000
 20
26.260000
 30
0.0
 42
-0.414214
  0
VERTEX
  8
NC_Resist-A
 10
12.050000
 20
26.310000
 30
0.0
  0
SEQEND
  0
POLYLINE
  8
NC_Resist-A
 66
   1
 10
0.0
 20
0.0
 30
0.0
 70
   1
  0
VERTEX
  8
NC_Resist-A
 10
11.750000
 20
23.960000
 30
0.0
 42
-0.414214
  0
VERTEX
  8
NC_Resist-A
 10
11.800000
 20
24.010000
 30
0.0
  0
VERTEX
  8
NC_Resist-A
 10
12.000000
 20
24.010000
 30
0.0
 42
-0.414214
  0
VERTEX
  8
NC_Resist-A
 10
12.050000
 20
23.960000
 30
0.0
  0
VERTEX
  8
NC_Resist-A
 10
12.050000
 20
23.360000
 30
0.0
 42
-0.414214
  0
VERTEX
  8
NC_Resist-A
 10
12.000000
 20
23.310000
 30
0.0
  0
VERTEX
  8
NC_Resist-A
 10
11.800000
 20
23.310000
 30
0.0
 42
-0.414214
  0
VERTEX
  8
NC_Resist-A
 10
11.750000
 20
23.360000
 30
0.0
  0
SEQEND
  0
POLYLINE
  8
NC_Resist-A
 66
   1
 10
0.0
 20
0.0
 30
0.0
 70
   1
  0
VERTEX
  8
NC_Resist-A
 10
11.450000
 20
26.860000
 30
0.0
 42
-0.414214
  0
VERTEX
  8
NC_Resist-A
 10
11.500000
 20
26.910000
 30
0.0
  0
VERTEX
  8
NC_Resist-A
 10
11.700000
 20
26.910000
 30
0.0
 42
-0.414214
  0
VERTEX
  8
NC_Resist-A
 10
11.750000
 20
26.860000
 30
0.0
  0
VERTEX
  8
NC_Resist-A
 10
11.750000
 20
26.310000
 30
0.0
 42
-0.414214
  0
VERTEX
  8
NC_Resist-A
 10
11.700000
 20
26.260000
 30
0.0
  0
VERTEX
  8
NC_Resist-A
 10
11.500000
 20
26.260000
 30
0.0
 42
-0.414214
  0
VERTEX
  8
NC_Resist-A
 10
11.450000
 20
26.310000
 30
0.0
  0
SEQEND
  0
POLYLINE
  8
NC_Resist-A
 66
   1
 10
0.0
 20
0.0
 30
0.0
 70
   1
  0
VERTEX
  8
NC_Resist-A
 10
11.150000
 20
23.960000
 30
0.0
 42
-0.414214
  0
VERTEX
  8
NC_Resist-A
 10
11.200000
 20
24.010000
 30
0.0
  0
VERTEX
  8
NC_Resist-A
 10
11.400000
 20
24.010000
 30
0.0
 42
-0.414214
  0
VERTEX
  8
NC_Resist-A
 10
11.450000
 20
23.960000
 30
0.0
  0
VERTEX
  8
NC_Resist-A
 10
11.450000
 20
23.360000
 30
0.0
 42
-0.414214
  0
VERTEX
  8
NC_Resist-A
 10
11.400000
 20
23.310000
 30
0.0
  0
VERTEX
  8
NC_Resist-A
 10
11.200000
 20
23.310000
 30
0.0
 42
-0.414214
  0
VERTEX
  8
NC_Resist-A
 10
11.150000
 20
23.360000
 30
0.0
  0
SEQEND
  0
POLYLINE
  8
NC_Resist-A
 66
   1
 10
0.0
 20
0.0
 30
0.0
 70
   1
  0
VERTEX
  8
NC_Resist-A
 10
10.850000
 20
26.860000
 30
0.0
 42
-0.414214
  0
VERTEX
  8
NC_Resist-A
 10
10.900000
 20
26.910000
 30
0.0
  0
VERTEX
  8
NC_Resist-A
 10
11.100000
 20
26.910000
 30
0.0
 42
-0.414214
  0
VERTEX
  8
NC_Resist-A
 10
11.150000
 20
26.860000
 30
0.0
  0
VERTEX
  8
NC_Resist-A
 10
11.150000
 20
26.310000
 30
0.0
 42
-0.414214
  0
VERTEX
  8
NC_Resist-A
 10
11.100000
 20
26.260000
 30
0.0
  0
VERTEX
  8
NC_Resist-A
 10
10.900000
 20
26.260000
 30
0.0
 42
-0.414214
  0
VERTEX
  8
NC_Resist-A
 10
10.850000
 20
26.310000
 30
0.0
  0
SEQEND
  0
POLYLINE
  8
NC_Resist-A
 66
   1
 10
0.0
 20
0.0
 30
0.0
 70
   1
  0
VERTEX
  8
NC_Resist-A
 10
10.550000
 20
23.960000
 30
0.0
 42
-0.414214
  0
VERTEX
  8
NC_Resist-A
 10
10.600000
 20
24.010000
 30
0.0
  0
VERTEX
  8
NC_Resist-A
 10
10.800000
 20
24.010000
 30
0.0
 42
-0.414214
  0
VERTEX
  8
NC_Resist-A
 10
10.850000
 20
23.960000
 30
0.0
  0
VERTEX
  8
NC_Resist-A
 10
10.850000
 20
23.360000
 30
0.0
 42
-0.414214
  0
VERTEX
  8
NC_Resist-A
 10
10.800000
 20
23.310000
 30
0.0
  0
VERTEX
  8
NC_Resist-A
 10
10.600000
 20
23.310000
 30
0.0
 42
-0.414214
  0
VERTEX
  8
NC_Resist-A
 10
10.550000
 20
23.360000
 30
0.0
  0
SEQEND
  0
POLYLINE
  8
NC_Resist-A
 66
   1
 10
0.0
 20
0.0
 30
0.0
 70
   1
  0
VERTEX
  8
NC_Resist-A
 10
10.250000
 20
26.860000
 30
0.0
 42
-0.414214
  0
VERTEX
  8
NC_Resist-A
 10
10.300000
 20
26.910000
 30
0.0
  0
VERTEX
  8
NC_Resist-A
 10
10.500000
 20
26.910000
 30
0.0
 42
-0.414214
  0
VERTEX
  8
NC_Resist-A
 10
10.550000
 20
26.860000
 30
0.0
  0
VERTEX
  8
NC_Resist-A
 10
10.550000
 20
26.310000
 30
0.0
 42
-0.414214
  0
VERTEX
  8
NC_Resist-A
 10
10.500000
 20
26.260000
 30
0.0
  0
VERTEX
  8
NC_Resist-A
 10
10.300000
 20
26.260000
 30
0.0
 42
-0.414214
  0
VERTEX
  8
NC_Resist-A
 10
10.250000
 20
26.310000
 30
0.0
  0
SEQEND
  0
POLYLINE
  8
NC_Resist-A
 66
   1
 10
0.0
 20
0.0
 30
0.0
 70
   1
  0
VERTEX
  8
NC_Resist-A
 10
9.950000
 20
23.960000
 30
0.0
 42
-0.414214
  0
VERTEX
  8
NC_Resist-A
 10
10.000000
 20
24.010000
 30
0.0
  0
VERTEX
  8
NC_Resist-A
 10
10.200000
 20
24.010000
 30
0.0
 42
-0.414214
  0
VERTEX
  8
NC_Resist-A
 10
10.250000
 20
23.960000
 30
0.0
  0
VERTEX
  8
NC_Resist-A
 10
10.250000
 20
23.360000
 30
0.0
 42
-0.414214
  0
VERTEX
  8
NC_Resist-A
 10
10.200000
 20
23.310000
 30
0.0
  0
VERTEX
  8
NC_Resist-A
 10
10.000000
 20
23.310000
 30
0.0
 42
-0.414214
  0
VERTEX
  8
NC_Resist-A
 10
9.950000
 20
23.360000
 30
0.0
  0
SEQEND
  0
POLYLINE
  8
NC_Resist-A
 66
   1
 10
0.0
 20
0.0
 30
0.0
 70
   1
  0
VERTEX
  8
NC_Resist-A
 10
18.340000
 20
24.360000
 30
0.0
 42
-0.414214
  0
VERTEX
  8
NC_Resist-A
 10
18.390000
 20
24.410000
 30
0.0
  0
VERTEX
  8
NC_Resist-A
 10
18.790000
 20
24.410000
 30
0.0
 42
-0.414214
  0
VERTEX
  8
NC_Resist-A
 10
18.840000
 20
24.360000
 30
0.0
  0
VERTEX
  8
NC_Resist-A
 10
18.840000
 20
23.660000
 30
0.0
 42
-0.414214
  0
VERTEX
  8
NC_Resist-A
 10
18.790000
 20
23.610000
 30
0.0
  0
VERTEX
  8
NC_Resist-A
 10
18.390000
 20
23.610000
 30
0.0
 42
-0.414214
  0
VERTEX
  8
NC_Resist-A
 10
18.340000
 20
23.660000
 30
0.0
  0
SEQEND
  0
POLYLINE
  8
NC_Resist-A
 66
   1
 10
0.0
 20
0.0
 30
0.0
 70
   1
  0
VERTEX
  8
NC_Resist-A
 10
9.160000
 20
24.360000
 30
0.0
 42
-0.414214
  0
VERTEX
  8
NC_Resist-A
 10
9.210000
 20
24.410000
 30
0.0
  0
VERTEX
  8
NC_Resist-A
 10
9.610000
 20
24.410000
 30
0.0
 42
-0.414214
  0
VERTEX
  8
NC_Resist-A
 10
9.660000
 20
24.360000
 30
0.0
  0
VERTEX
  8
NC_Resist-A
 10
9.660000
 20
23.660000
 30
0.0
 42
-0.414214
  0
VERTEX
  8
NC_Resist-A
 10
9.610000
 20
23.610000
 30
0.0
  0
VERTEX
  8
NC_Resist-A
 10
9.210000
 20
23.610000
 30
0.0
 42
-0.414214
  0
VERTEX
  8
NC_Resist-A
 10
9.160000
 20
23.660000
 30
0.0
  0
SEQEND
  0
POLYLINE
  8
NC_Resist-A
 66
   1
 10
0.0
 20
0.0
 30
0.0
 70
   1
  0
VERTEX
  8
NC_Resist-A
 10
8.950000
 20
21.950000
 30
0.0
 42
-0.414214
  0
VERTEX
  8
NC_Resist-A
 10
8.900000
 20
21.900000
 30
0.0
  0
VERTEX
  8
NC_Resist-A
 10
8.650000
 20
21.900000
 30
0.0
 42
-0.414214
  0
VERTEX
  8
NC_Resist-A
 10
8.600000
 20
21.950000
 30
0.0
  0
VERTEX
  8
NC_Resist-A
 10
8.600000
 20
22.000000
 30
0.0
 42
-0.414214
  0
VERTEX
  8
NC_Resist-A
 10
8.650000
 20
22.050000
 30
0.0
  0
VERTEX
  8
NC_Resist-A
 10
8.650000
 20
22.050000
 30
0.0
  0
VERTEX
  8
NC_Resist-A
 10
8.650000
 20
22.250000
 30
0.0
  0
VERTEX
  8
NC_Resist-A
 10
8.650000
 20
22.250000
 30
0.0
 42
-0.414214
  0
VERTEX
  8
NC_Resist-A
 10
8.600000
 20
22.300000
 30
0.0
  0
VERTEX
  8
NC_Resist-A
 10
8.600000
 20
22.350000
 30
0.0
 42
-0.414214
  0
VERTEX
  8
NC_Resist-A
 10
8.650000
 20
22.400000
 30
0.0
  0
VERTEX
  8
NC_Resist-A
 10
8.900000
 20
22.400000
 30
0.0
 42
-0.414214
  0
VERTEX
  8
NC_Resist-A
 10
8.950000
 20
22.350000
 30
0.0
  0
SEQEND
  0
POLYLINE
  8
NC_Resist-A
 66
   1
 10
0.0
 20
0.0
 30
0.0
 70
   1
  0
VERTEX
  8
NC_Resist-A
 10
9.350000
 20
22.350000
 30
0.0
 42
-0.414214
  0
VERTEX
  8
NC_Resist-A
 10
9.400000
 20
22.400000
 30
0.0
  0
VERTEX
  8
NC_Resist-A
 10
9.650000
 20
22.400000
 30
0.0
 42
-0.414214
  0
VERTEX
  8
NC_Resist-A
 10
9.700000
 20
22.350000
 30
0.0
  0
VERTEX
  8
NC_Resist-A
 10
9.700000
 20
22.300000
 30
0.0
 42
-0.414214
  0
VERTEX
  8
NC_Resist-A
 10
9.650000
 20
22.250000
 30
0.0
  0
VERTEX
  8
NC_Resist-A
 10
9.650000
 20
22.250000
 30
0.0
  0
VERTEX
  8
NC_Resist-A
 10
9.650000
 20
22.050000
 30
0.0
  0
VERTEX
  8
NC_Resist-A
 10
9.650000
 20
22.050000
 30
0.0
 42
-0.414214
  0
VERTEX
  8
NC_Resist-A
 10
9.700000
 20
22.000000
 30
0.0
  0
VERTEX
  8
NC_Resist-A
 10
9.700000
 20
21.950000
 30
0.0
 42
-0.414214
  0
VERTEX
  8
NC_Resist-A
 10
9.650000
 20
21.900000
 30
0.0
  0
VERTEX
  8
NC_Resist-A
 10
9.400000
 20
21.900000
 30
0.0
 42
-0.414214
  0
VERTEX
  8
NC_Resist-A
 10
9.350000
 20
21.950000
 30
0.0
  0
SEQEND
  0
ENDSEC
  0
EOF
