  0
SECTION
  2
HEADER
  9
$ACADVER
  1
AC1009
  9
$ACADMAINTVER
 70
   0
  9
$DWGCODEPAGE
  3
ANSI_932
  9
$INSBASE
 10
0.0
 20
0.0
 30
0.0
  9
$EXTMIN
 10
0.000000
 20
0.000000
 30
0.0
  9
$EXTMAX
 10
24.400000
 20
22.959750
 30
0.0
  9
$LIMMIN
 10
0.0
 20
0.0
  9
$LIMMAX
 10
12.0
 20
9.0
  9
$ORTHOMODE
 70
	0
  9
$REGENMODE
 70
	1
  9
$FILLMODE
 70
	1
  9
$QTEXTMODE
 70
	0
  9
$MIRRTEXT
 70
	1
  9
$DRAGMODE
 70
	2
  9
$LTSCALE
 40
1.0
  9
$OSMODE
 70
	0
  9
$ATTMODE
 70
	1
  9
$TEXTSIZE
 40
0.2
  9
$TRACEWID
 40
0.05
  9
$TEXTSTYLE
  7
STANDARD
  9
$CLAYER
  8
0
  9
$CELTYPE
  6
BYLAYER
  9
$CECOLOR
 62
	256
  9
$CELTSCALE
 40
1.0
  9
$DELOBJ
 70
	1
  9
$DISPSILH
 70
	0
  9
$LUNITS
 70
	2
  9
$LUPREC
 70
	6
  9
$SKETCHINC
 40
0.1
  9
$FILLETRAD
 40
0.5
  9
$AUNITS
 70
	0
  9
$AUPREC
 70
	6
  9
$MENU
  1
acad
  9
$ELEVATION
 40
0.0
  9
$PELEVATION
 40
0.0
  9
$THICKNESS
 40
0.0
  9
$LIMCHECK
 70
	0
  9
$BLIPMODE
 70
	0
  9
$CHAMFERA
 40
0.5
  9
$CHAMFERB
 40
0.5
  9
$CHAMFERC
 40
1.0
  9
$CHAMFERD
 40
0.0
  9
$SKPOLY
 70
	0
  9
$TDCREATE
 40
0.0
  9
$TDUPDATE
 40
0.0
  9
$TDINDWG
 40
0.0
  9
$TDUSRTIMER
 40
0.0
  9
$USRTIMER
 70
	0
  9
$ANGBASE
 50
0.0
  9
$ANGDIR
 70
	0
  9
$PDMODE
 70
	0
  9
$PDSIZE
 40
0.0
  9
$PLINEWID
 40
0.0
  9
$COORDS
 70
	1
  9
$SPLFRAME
 70
	0
  9
$SPLINETYPE
 70
	6
  9
$SPLINESEGS
 70
	8
  9
$ATTDIA
 70
	0
  9
$ATTREQ
 70
	1
  9
$HANDLING
 70
   1
  0
ENDSEC
  0
SECTION
  2
TABLES
  0
TABLE
  2
LAYER
 70
4
  0
LAYER
  2
0
 70
   0
 62
  7
  6
CONTINUOUS
  0
LAYER
  2
OUTLINE
 70
   0
 62
  7
  6
CONTINUOUS
  0
LAYER
  2
HOLE_1_2
 70
   0
 62
  7
  6
CONTINUOUS
  0
LAYER
  2
NC_Resist-A
 70
   0
 62
  221
  6
CONTINUOUS
  0
LAYER
  2
NC_Symbol-A
 70
   0
 62
  140
  6
CONTINUOUS
  0
ENDTAB
  0
TABLE
  2
LTYPE
 70
1
  0
ENDTAB
  0
TABLE
  2
STYLE
 70
1
  0
STYLE
  2
STANDARD
 70
0
 40
0.0
 41
1.0
 50
0.0
 71
0
 42
1.0
  3
txt
  4
EXTFONT
  0
ENDTAB
  0
ENDSEC
  0
SECTION
  2
BLOCKS
  0
ENDSEC
  0
SECTION
  2
ENTITIES
  0
POLYLINE
  8
HOLE_1_2
 66
   1
 10
0.0
 20
0.0
 30
0.0
 70
   1
  0
VERTEX
  8
HOLE_1_2
 10
3.150000
 20
14.500000
 30
0.0
 42
1.000000
  0
VERTEX
  8
HOLE_1_2
 10
0.850000
 20
14.500000
 30
0.0
 42
1.000000
  0
VERTEX
  8
HOLE_1_2
 10
3.150000
 20
14.500000
 30
0.0
  0
SEQEND
  0
POLYLINE
  8
HOLE_1_2
 66
   1
 10
0.0
 20
0.0
 30
0.0
 70
   1
  0
VERTEX
  8
HOLE_1_2
 10
24.150000
 20
14.500000
 30
0.0
 42
1.000000
  0
VERTEX
  8
HOLE_1_2
 10
21.850000
 20
14.500000
 30
0.0
 42
1.000000
  0
VERTEX
  8
HOLE_1_2
 10
24.150000
 20
14.500000
 30
0.0
  0
SEQEND
  0
POLYLINE
  8
HOLE_1_2
 66
   1
 10
0.0
 20
0.0
 30
0.0
 70
   1
  0
VERTEX
  8
HOLE_1_2
 10
3.150000
 20
2.000000
 30
0.0
 42
1.000000
  0
VERTEX
  8
HOLE_1_2
 10
0.850000
 20
2.000000
 30
0.0
 42
1.000000
  0
VERTEX
  8
HOLE_1_2
 10
3.150000
 20
2.000000
 30
0.0
  0
SEQEND
  0
POLYLINE
  8
HOLE_1_2
 66
   1
 10
0.0
 20
0.0
 30
0.0
 70
   1
  0
VERTEX
  8
HOLE_1_2
 10
24.150000
 20
2.000000
 30
0.0
 42
1.000000
  0
VERTEX
  8
HOLE_1_2
 10
21.850000
 20
2.000000
 30
0.0
 42
1.000000
  0
VERTEX
  8
HOLE_1_2
 10
24.150000
 20
2.000000
 30
0.0
  0
SEQEND
  0
POLYLINE
  8
OUTLINE
 66
   1
 10
0.0
 20
0.0
 30
0.0
 70
   1
  0
VERTEX
  8
OUTLINE
 10
25.000000
 20
2.000000
 30
0.0
 42
-0.414214
  0
VERTEX
  8
OUTLINE
 10
23.000000
 20
0.000000
 30
0.0
  0
VERTEX
  8
OUTLINE
 10
2.000000
 20
0.000000
 30
0.0
 42
-0.414214
  0
VERTEX
  8
OUTLINE
 10
0.000000
 20
2.000000
 30
0.0
  0
VERTEX
  8
OUTLINE
 10
0.000000
 20
22.000000
 30
0.0
 42
-0.414214
  0
VERTEX
  8
OUTLINE
 10
2.000000
 20
24.000000
 30
0.0
  0
VERTEX
  8
OUTLINE
 10
23.000000
 20
24.000000
 30
0.0
 42
-0.414214
  0
VERTEX
  8
OUTLINE
 10
25.000000
 20
22.000000
 30
0.0
  0
SEQEND
  0
POLYLINE
  8
NC_Symbol-A
 66
   1
 10
0.0
 20
0.0
 30
0.0
 70
   1
  0
VERTEX
  8
NC_Symbol-A
 10
8.575000
 20
10.500000
 30
0.0
 42
-1.000000
  0
VERTEX
  8
NC_Symbol-A
 10
8.425000
 20
10.500000
 30
0.0
  0
VERTEX
  8
NC_Symbol-A
 10
8.425000
 20
18.500000
 30
0.0
 42
-0.414214
  0
VERTEX
  8
NC_Symbol-A
 10
8.500000
 20
18.575000
 30
0.0
  0
VERTEX
  8
NC_Symbol-A
 10
16.500000
 20
18.575000
 30
0.0
 42
-0.414214
  0
VERTEX
  8
NC_Symbol-A
 10
16.575000
 20
18.500000
 30
0.0
  0
VERTEX
  8
NC_Symbol-A
 10
16.575000
 20
10.500000
 30
0.0
 42
-0.414214
  0
VERTEX
  8
NC_Symbol-A
 10
16.500000
 20
10.425000
 30
0.0
  0
VERTEX
  8
NC_Symbol-A
 10
8.500000
 20
10.425000
 30
0.0
 42
-1.000000
  0
VERTEX
  8
NC_Symbol-A
 10
8.500000
 20
10.575000
 30
0.0
  0
VERTEX
  8
NC_Symbol-A
 10
16.425000
 20
10.575000
 30
0.0
  0
VERTEX
  8
NC_Symbol-A
 10
16.425000
 20
18.425000
 30
0.0
  0
VERTEX
  8
NC_Symbol-A
 10
8.575000
 20
18.425000
 30
0.0
  0
SEQEND
  0
POLYLINE
  8
NC_Symbol-A
 66
   1
 10
0.0
 20
0.0
 30
0.0
 70
   1
  0
VERTEX
  8
NC_Symbol-A
 10
8.425000
 20
10.500000
 30
0.0
 42
-1.000000
  0
VERTEX
  8
NC_Symbol-A
 10
8.575000
 20
10.500000
 30
0.0
  0
VERTEX
  8
NC_Symbol-A
 10
8.575000
 20
4.750000
 30
0.0
 42
-1.000000
  0
VERTEX
  8
NC_Symbol-A
 10
8.425000
 20
4.750000
 30
0.0
  0
SEQEND
  0
POLYLINE
  8
NC_Symbol-A
 66
   1
 10
0.0
 20
0.0
 30
0.0
 70
   1
  0
VERTEX
  8
NC_Symbol-A
 10
16.425000
 20
10.500000
 30
0.0
 42
-1.000000
  0
VERTEX
  8
NC_Symbol-A
 10
16.575000
 20
10.500000
 30
0.0
  0
VERTEX
  8
NC_Symbol-A
 10
16.575000
 20
4.750000
 30
0.0
 42
-1.000000
  0
VERTEX
  8
NC_Symbol-A
 10
16.425000
 20
4.750000
 30
0.0
  0
SEQEND
  0
POLYLINE
  8
NC_Symbol-A
 66
   1
 10
0.0
 20
0.0
 30
0.0
 70
   1
  0
VERTEX
  8
NC_Symbol-A
 10
12.500000
 20
17.425000
 30
0.0
 42
-1.000000
  0
VERTEX
  8
NC_Symbol-A
 10
12.500000
 20
17.575000
 30
0.0
  0
VERTEX
  8
NC_Symbol-A
 10
12.500000
 20
17.575000
 30
0.0
 42
1.000000
  0
VERTEX
  8
NC_Symbol-A
 10
12.500000
 20
11.425000
 30
0.0
 42
1.000000
  0
VERTEX
  8
NC_Symbol-A
 10
12.500000
 20
17.575000
 30
0.0
  0
VERTEX
  8
NC_Symbol-A
 10
12.500000
 20
17.575000
 30
0.0
 42
-1.000000
  0
VERTEX
  8
NC_Symbol-A
 10
12.500000
 20
17.425000
 30
0.0
  0
VERTEX
  8
NC_Symbol-A
 10
12.500000
 20
17.425000
 30
0.0
 42
1.000000
  0
VERTEX
  8
NC_Symbol-A
 10
12.500000
 20
11.575000
 30
0.0
 42
1.000000
  0
VERTEX
  8
NC_Symbol-A
 10
12.500000
 20
17.425000
 30
0.0
  0
SEQEND
  0
POLYLINE
  8
NC_Symbol-A
 66
   1
 10
0.0
 20
0.0
 30
0.0
 70
   1
  0
VERTEX
  8
NC_Symbol-A
 10
7.000000
 20
13.975000
 30
0.0
 42
-1.000000
  0
VERTEX
  8
NC_Symbol-A
 10
7.000000
 20
14.125000
 30
0.0
  0
VERTEX
  8
NC_Symbol-A
 10
7.000000
 20
14.125000
 30
0.0
 42
1.000000
  0
VERTEX
  8
NC_Symbol-A
 10
7.000000
 20
12.375000
 30
0.0
 42
1.000000
  0
VERTEX
  8
NC_Symbol-A
 10
7.000000
 20
14.125000
 30
0.0
  0
VERTEX
  8
NC_Symbol-A
 10
7.000000
 20
14.125000
 30
0.0
 42
-1.000000
  0
VERTEX
  8
NC_Symbol-A
 10
7.000000
 20
13.975000
 30
0.0
  0
VERTEX
  8
NC_Symbol-A
 10
7.000000
 20
13.975000
 30
0.0
 42
1.000000
  0
VERTEX
  8
NC_Symbol-A
 10
7.000000
 20
12.525000
 30
0.0
 42
1.000000
  0
VERTEX
  8
NC_Symbol-A
 10
7.000000
 20
13.975000
 30
0.0
  0
SEQEND
  0
POLYLINE
  8
NC_Symbol-A
 66
   1
 10
0.0
 20
0.0
 30
0.0
 70
   1
  0
VERTEX
  8
NC_Symbol-A
 10
6.813860
 20
12.907630
 30
0.0
 42
-1.000000
  0
VERTEX
  8
NC_Symbol-A
 10
6.672940
 20
12.959030
 30
0.0
  0
VERTEX
  8
NC_Symbol-A
 10
6.937880
 20
13.685450
 30
0.0
 42
-0.699716
  0
VERTEX
  8
NC_Symbol-A
 10
7.078800
 20
13.685450
 30
0.0
  0
VERTEX
  8
NC_Symbol-A
 10
7.343730
 20
12.959030
 30
0.0
 42
-1.000000
  0
VERTEX
  8
NC_Symbol-A
 10
7.202810
 20
12.907630
 30
0.0
  0
VERTEX
  8
NC_Symbol-A
 10
7.008340
 20
13.440860
 30
0.0
  0
SEQEND
  0
POLYLINE
  8
NC_Symbol-A
 66
   1
 10
0.0
 20
0.0
 30
0.0
 70
   1
  0
VERTEX
  8
NC_Symbol-A
 10
6.821320
 20
13.084750
 30
0.0
 42
-1.000000
  0
VERTEX
  8
NC_Symbol-A
 10
6.821320
 20
13.234750
 30
0.0
  0
VERTEX
  8
NC_Symbol-A
 10
7.195350
 20
13.234750
 30
0.0
 42
-1.000000
  0
VERTEX
  8
NC_Symbol-A
 10
7.195350
 20
13.084750
 30
0.0
  0
SEQEND
  0
POLYLINE
  8
NC_Symbol-A
 66
   1
 10
0.0
 20
0.0
 30
0.0
 70
   1
  0
VERTEX
  8
NC_Symbol-A
 10
1.284000
 20
21.381740
 30
0.0
 42
0.460148
  0
VERTEX
  8
NC_Symbol-A
 10
1.243000
 20
21.347920
 30
0.0
  0
VERTEX
  8
NC_Symbol-A
 10
1.243000
 20
21.289710
 30
0.0
 42
-0.414214
  0
VERTEX
  8
NC_Symbol-A
 10
1.218000
 20
21.264710
 30
0.0
  0
VERTEX
  8
NC_Symbol-A
 10
1.023750
 20
21.264710
 30
0.0
 42
-0.414214
  0
VERTEX
  8
NC_Symbol-A
 10
0.998750
 20
21.289710
 30
0.0
  0
VERTEX
  8
NC_Symbol-A
 10
0.998750
 20
21.855410
 30
0.0
 42
-0.414214
  0
VERTEX
  8
NC_Symbol-A
 10
1.023750
 20
21.880410
 30
0.0
  0
VERTEX
  8
NC_Symbol-A
 10
1.195200
 20
21.880410
 30
0.0
 42
-0.384494
  0
VERTEX
  8
NC_Symbol-A
 10
1.220070
 20
21.857970
 30
0.0
  0
VERTEX
  8
NC_Symbol-A
 10
1.220070
 20
21.857970
 30
0.0
 42
0.274148
  0
VERTEX
  8
NC_Symbol-A
 10
1.428380
 20
21.576810
 30
0.0
  0
VERTEX
  8
NC_Symbol-A
 10
1.428380
 20
21.576810
 30
0.0
 42
-0.012623
  0
VERTEX
  8
NC_Symbol-A
 10
1.429530
 20
21.576290
 30
0.0
  0
VERTEX
  8
NC_Symbol-A
 10
1.429530
 20
21.576290
 30
0.0
 42
0.166944
  0
VERTEX
  8
NC_Symbol-A
 10
2.303120
 20
21.473150
 30
0.0
  0
VERTEX
  8
NC_Symbol-A
 10
2.303120
 20
21.473150
 30
0.0
 42
-0.040316
  0
VERTEX
  8
NC_Symbol-A
 10
2.307110
 20
21.473680
 30
0.0
  0
VERTEX
  8
NC_Symbol-A
 10
2.307110
 20
21.473680
 30
0.0
 42
0.232021
  0
VERTEX
  8
NC_Symbol-A
 10
2.534350
 20
21.600240
 30
0.0
  0
VERTEX
  8
NC_Symbol-A
 10
2.534350
 20
21.600240
 30
0.0
 42
0.522947
  0
VERTEX
  8
NC_Symbol-A
 10
2.431170
 20
21.819870
 30
0.0
  0
VERTEX
  8
NC_Symbol-A
 10
2.431170
 20
21.819870
 30
0.0
 42
-0.017264
  0
VERTEX
  8
NC_Symbol-A
 10
2.429480
 20
21.820220
 30
0.0
  0
VERTEX
  8
NC_Symbol-A
 10
2.429480
 20
21.820220
 30
0.0
 42
0.041970
  0
VERTEX
  8
NC_Symbol-A
 10
2.040740
 20
21.880180
 30
0.0
  0
VERTEX
  8
NC_Symbol-A
 10
2.040740
 20
21.880180
 30
0.0
 42
-0.020268
  0
VERTEX
  8
NC_Symbol-A
 10
1.463160
 20
21.956860
 30
0.0
  0
VERTEX
  8
NC_Symbol-A
 10
1.463160
 20
21.956860
 30
0.0
 42
-0.207230
  0
VERTEX
  8
NC_Symbol-A
 10
1.029860
 20
22.181330
 30
0.0
  0
VERTEX
  8
NC_Symbol-A
 10
1.029880
 20
22.181330
 30
0.0
 42
-0.419276
  0
VERTEX
  8
NC_Symbol-A
 10
1.123000
 20
22.758200
 30
0.0
  0
VERTEX
  8
NC_Symbol-A
 10
1.123000
 20
22.758200
 30
0.0
 42
-0.015230
  0
VERTEX
  8
NC_Symbol-A
 10
1.124270
 20
22.759040
 30
0.0
  0
VERTEX
  8
NC_Symbol-A
 10
1.124270
 20
22.759040
 30
0.0
 42
-0.147189
  0
VERTEX
  8
NC_Symbol-A
 10
1.864350
 20
22.958610
 30
0.0
  0
VERTEX
  8
NC_Symbol-A
 10
1.864350
 20
22.958610
 30
0.0
 42
-0.111830
  0
VERTEX
  8
NC_Symbol-A
 10
2.599250
 20
22.788370
 30
0.0
  0
VERTEX
  8
NC_Symbol-A
 10
2.599250
 20
22.788370
 30
0.0
 42
0.520113
  0
VERTEX
  8
NC_Symbol-A
 10
2.643260
 20
22.819470
 30
0.0
  0
VERTEX
  8
NC_Symbol-A
 10
2.643260
 20
22.819470
 30
0.0
 42
-0.000900
  0
VERTEX
  8
NC_Symbol-A
 10
2.643260
 20
22.819560
 30
0.0
  0
VERTEX
  8
NC_Symbol-A
 10
2.643270
 20
22.856810
 30
0.0
 42
-0.414214
  0
VERTEX
  8
NC_Symbol-A
 10
2.668270
 20
22.881810
 30
0.0
  0
VERTEX
  8
NC_Symbol-A
 10
2.838520
 20
22.881810
 30
0.0
 42
-0.414214
  0
VERTEX
  8
NC_Symbol-A
 10
2.863520
 20
22.856810
 30
0.0
  0
VERTEX
  8
NC_Symbol-A
 10
2.863520
 20
22.370870
 30
0.0
 42
-0.414214
  0
VERTEX
  8
NC_Symbol-A
 10
2.838520
 20
22.345870
 30
0.0
  0
VERTEX
  8
NC_Symbol-A
 10
2.685530
 20
22.345870
 30
0.0
 42
-0.334224
  0
VERTEX
  8
NC_Symbol-A
 10
2.661510
 20
22.363950
 30
0.0
  0
VERTEX
  8
NC_Symbol-A
 10
2.661510
 20
22.363950
 30
0.0
 42
0.236560
  0
VERTEX
  8
NC_Symbol-A
 10
2.422700
 20
22.622970
 30
0.0
  0
VERTEX
  8
NC_Symbol-A
 10
2.422700
 20
22.622970
 30
0.0
 42
0.165410
  0
VERTEX
  8
NC_Symbol-A
 10
1.556600
 20
22.681820
 30
0.0
  0
VERTEX
  8
NC_Symbol-A
 10
1.556600
 20
22.681820
 30
0.0
 42
-0.014994
  0
VERTEX
  8
NC_Symbol-A
 10
1.555140
 20
22.681480
 30
0.0
  0
VERTEX
  8
NC_Symbol-A
 10
1.555140
 20
22.681480
 30
0.0
 42
0.176899
  0
VERTEX
  8
NC_Symbol-A
 10
1.387650
 20
22.578710
 30
0.0
  0
VERTEX
  8
NC_Symbol-A
 10
1.387650
 20
22.578710
 30
0.0
 42
0.478399
  0
VERTEX
  8
NC_Symbol-A
 10
1.435880
 20
22.408060
 30
0.0
  0
VERTEX
  8
NC_Symbol-A
 10
1.435880
 20
22.408060
 30
0.0
 42
0.060276
  0
VERTEX
  8
NC_Symbol-A
 10
1.555930
 20
22.378340
 30
0.0
  0
VERTEX
  8
NC_Symbol-A
 10
1.555930
 20
22.378340
 30
0.0
 42
0.008814
  0
VERTEX
  8
NC_Symbol-A
 10
2.159000
 20
22.307250
 30
0.0
  0
VERTEX
  8
NC_Symbol-A
 10
2.159000
 20
22.307250
 30
0.0
 42
-0.005533
  0
VERTEX
  8
NC_Symbol-A
 10
2.159550
 20
22.307190
 30
0.0
  0
VERTEX
  8
NC_Symbol-A
 10
2.159550
 20
22.307190
 30
0.0
 42
-0.026580
  0
VERTEX
  8
NC_Symbol-A
 10
2.518660
 20
22.243650
 30
0.0
  0
VERTEX
  8
NC_Symbol-A
 10
2.518660
 20
22.243650
 30
0.0
 42
-0.109018
  0
VERTEX
  8
NC_Symbol-A
 10
2.828240
 20
22.091790
 30
0.0
  0
VERTEX
  8
NC_Symbol-A
 10
2.828240
 20
22.091790
 30
0.0
 42
-0.018793
  0
VERTEX
  8
NC_Symbol-A
 10
2.829660
 20
22.090560
 30
0.0
  0
VERTEX
  8
NC_Symbol-A
 10
2.829660
 20
22.090560
 30
0.0
 42
-0.217063
  0
VERTEX
  8
NC_Symbol-A
 10
2.973830
 20
21.744840
 30
0.0
  0
VERTEX
  8
NC_Symbol-A
 10
2.973830
 20
21.744840
 30
0.0
 42
-0.243399
  0
VERTEX
  8
NC_Symbol-A
 10
2.798610
 20
21.418750
 30
0.0
  0
VERTEX
  8
NC_Symbol-A
 10
2.798610
 20
21.418750
 30
0.0
 42
-0.129934
  0
VERTEX
  8
NC_Symbol-A
 10
2.270070
 20
21.231100
 30
0.0
  0
VERTEX
  8
NC_Symbol-A
 10
2.270070
 20
21.231100
 30
0.0
 42
-0.140079
  0
VERTEX
  8
NC_Symbol-A
 10
1.284000
 20
21.381740
 30
0.0
  0
SEQEND
  0
POLYLINE
  8
NC_Symbol-A
 66
   1
 10
0.0
 20
0.0
 30
0.0
 70
   1
  0
VERTEX
  8
NC_Symbol-A
 10
3.639280
 20
21.468540
 30
0.0
 42
-0.232853
  0
VERTEX
  8
NC_Symbol-A
 10
3.339100
 20
22.027190
 30
0.0
  0
VERTEX
  8
NC_Symbol-A
 10
3.339100
 20
22.027190
 30
0.0
 42
-0.017961
  0
VERTEX
  8
NC_Symbol-A
 10
3.337230
 20
22.080750
 30
0.0
  0
VERTEX
  8
NC_Symbol-A
 10
3.337230
 20
22.080750
 30
0.0
 42
-0.018285
  0
VERTEX
  8
NC_Symbol-A
 10
3.339520
 20
22.135260
 30
0.0
  0
VERTEX
  8
NC_Symbol-A
 10
3.339520
 20
22.135260
 30
0.0
 42
-0.232848
  0
VERTEX
  8
NC_Symbol-A
 10
3.644010
 20
22.691560
 30
0.0
  0
VERTEX
  8
NC_Symbol-A
 10
3.644010
 20
22.691560
 30
0.0
 42
-0.159927
  0
VERTEX
  8
NC_Symbol-A
 10
4.511160
 20
22.959530
 30
0.0
  0
VERTEX
  8
NC_Symbol-A
 10
4.511160
 20
22.959530
 30
0.0
 42
-0.159925
  0
VERTEX
  8
NC_Symbol-A
 10
5.378300
 20
22.691560
 30
0.0
  0
VERTEX
  8
NC_Symbol-A
 10
5.378300
 20
22.691560
 30
0.0
 42
-0.232848
  0
VERTEX
  8
NC_Symbol-A
 10
5.682790
 20
22.135260
 30
0.0
  0
VERTEX
  8
NC_Symbol-A
 10
5.682790
 20
22.135260
 30
0.0
 42
-0.018285
  0
VERTEX
  8
NC_Symbol-A
 10
5.685080
 20
22.080750
 30
0.0
  0
VERTEX
  8
NC_Symbol-A
 10
5.685080
 20
22.080750
 30
0.0
 42
-0.017964
  0
VERTEX
  8
NC_Symbol-A
 10
5.683210
 20
22.027180
 30
0.0
  0
VERTEX
  8
NC_Symbol-A
 10
5.683210
 20
22.027180
 30
0.0
 42
-0.232849
  0
VERTEX
  8
NC_Symbol-A
 10
5.383030
 20
21.468540
 30
0.0
  0
VERTEX
  8
NC_Symbol-A
 10
5.383030
 20
21.468540
 30
0.0
 42
-0.161130
  0
VERTEX
  8
NC_Symbol-A
 10
4.511150
 20
21.193950
 30
0.0
  0
VERTEX
  8
NC_Symbol-A
 10
4.511150
 20
21.193950
 30
0.0
 42
-0.161129
  0
VERTEX
  8
NC_Symbol-A
 10
3.639280
 20
21.468540
 30
0.0
  0
SEQEND
  0
POLYLINE
  8
NC_Symbol-A
 66
   1
 10
0.0
 20
0.0
 30
0.0
 70
   1
  0
VERTEX
  8
NC_Symbol-A
 10
4.951990
 20
21.563110
 30
0.0
 42
0.020076
  0
VERTEX
  8
NC_Symbol-A
 10
4.953560
 20
21.564360
 30
0.0
  0
VERTEX
  8
NC_Symbol-A
 10
4.953560
 20
21.564360
 30
0.0
 42
0.214149
  0
VERTEX
  8
NC_Symbol-A
 10
5.187990
 20
22.066770
 30
0.0
  0
VERTEX
  8
NC_Symbol-A
 10
5.187990
 20
22.066770
 30
0.0
 42
0.003700
  0
VERTEX
  8
NC_Symbol-A
 10
5.187990
 20
22.067140
 30
0.0
  0
VERTEX
  8
NC_Symbol-A
 10
5.187990
 20
22.086240
 30
0.0
 42
0.003700
  0
VERTEX
  8
NC_Symbol-A
 10
5.187990
 20
22.086610
 30
0.0
  0
VERTEX
  8
NC_Symbol-A
 10
5.187990
 20
22.086610
 30
0.0
 42
0.214149
  0
VERTEX
  8
NC_Symbol-A
 10
4.953560
 20
22.589020
 30
0.0
  0
VERTEX
  8
NC_Symbol-A
 10
4.953560
 20
22.589020
 30
0.0
 42
0.020076
  0
VERTEX
  8
NC_Symbol-A
 10
4.951990
 20
22.590270
 30
0.0
  0
VERTEX
  8
NC_Symbol-A
 10
4.951990
 20
22.590270
 30
0.0
 42
0.326970
  0
VERTEX
  8
NC_Symbol-A
 10
4.070310
 20
22.590270
 30
0.0
  0
VERTEX
  8
NC_Symbol-A
 10
4.070310
 20
22.590270
 30
0.0
 42
0.020076
  0
VERTEX
  8
NC_Symbol-A
 10
4.068740
 20
22.589020
 30
0.0
  0
VERTEX
  8
NC_Symbol-A
 10
4.068740
 20
22.589020
 30
0.0
 42
0.214149
  0
VERTEX
  8
NC_Symbol-A
 10
3.834310
 20
22.086610
 30
0.0
  0
VERTEX
  8
NC_Symbol-A
 10
3.834310
 20
22.086610
 30
0.0
 42
0.003700
  0
VERTEX
  8
NC_Symbol-A
 10
3.834310
 20
22.086240
 30
0.0
  0
VERTEX
  8
NC_Symbol-A
 10
3.834310
 20
22.067140
 30
0.0
 42
0.003700
  0
VERTEX
  8
NC_Symbol-A
 10
3.834310
 20
22.066770
 30
0.0
  0
VERTEX
  8
NC_Symbol-A
 10
3.834310
 20
22.066770
 30
0.0
 42
0.214149
  0
VERTEX
  8
NC_Symbol-A
 10
4.068740
 20
21.564360
 30
0.0
  0
VERTEX
  8
NC_Symbol-A
 10
4.068740
 20
21.564360
 30
0.0
 42
0.020076
  0
VERTEX
  8
NC_Symbol-A
 10
4.070310
 20
21.563110
 30
0.0
  0
VERTEX
  8
NC_Symbol-A
 10
4.070310
 20
21.563110
 30
0.0
 42
0.326970
  0
VERTEX
  8
NC_Symbol-A
 10
4.951990
 20
21.563110
 30
0.0
  0
SEQEND
  0
POLYLINE
  8
NC_Symbol-A
 66
   1
 10
0.0
 20
0.0
 30
0.0
 70
   1
  0
VERTEX
  8
NC_Symbol-A
 10
6.527910
 20
22.401490
 30
0.0
  0
VERTEX
  8
NC_Symbol-A
 10
6.528070
 20
21.556260
 30
0.0
 42
0.414168
  0
VERTEX
  8
NC_Symbol-A
 10
6.592030
 20
21.492310
 30
0.0
  0
VERTEX
  8
NC_Symbol-A
 10
6.816620
 20
21.492310
 30
0.0
 42
-0.414214
  0
VERTEX
  8
NC_Symbol-A
 10
6.841620
 20
21.467310
 30
0.0
  0
VERTEX
  8
NC_Symbol-A
 10
6.841620
 20
21.322020
 30
0.0
 42
-0.414214
  0
VERTEX
  8
NC_Symbol-A
 10
6.816620
 20
21.297020
 30
0.0
  0
VERTEX
  8
NC_Symbol-A
 10
5.964390
 20
21.297020
 30
0.0
 42
-0.414214
  0
VERTEX
  8
NC_Symbol-A
 10
5.939390
 20
21.322020
 30
0.0
  0
VERTEX
  8
NC_Symbol-A
 10
5.939390
 20
21.467310
 30
0.0
 42
-0.414214
  0
VERTEX
  8
NC_Symbol-A
 10
5.964390
 20
21.492310
 30
0.0
  0
VERTEX
  8
NC_Symbol-A
 10
6.161960
 20
21.492310
 30
0.0
 42
0.414214
  0
VERTEX
  8
NC_Symbol-A
 10
6.225920
 20
21.556270
 30
0.0
  0
VERTEX
  8
NC_Symbol-A
 10
6.225920
 20
22.569720
 30
0.0
 42
0.414214
  0
VERTEX
  8
NC_Symbol-A
 10
6.129980
 20
22.665660
 30
0.0
  0
VERTEX
  8
NC_Symbol-A
 10
5.947820
 20
22.665660
 30
0.0
 42
-0.414214
  0
VERTEX
  8
NC_Symbol-A
 10
5.922820
 20
22.690660
 30
0.0
  0
VERTEX
  8
NC_Symbol-A
 10
5.922820
 20
22.836250
 30
0.0
 42
-0.414214
  0
VERTEX
  8
NC_Symbol-A
 10
5.947820
 20
22.861250
 30
0.0
  0
VERTEX
  8
NC_Symbol-A
 10
6.681720
 20
22.861250
 30
0.0
 42
-0.185638
  0
VERTEX
  8
NC_Symbol-A
 10
6.698470
 20
22.854810
 30
0.0
  0
VERTEX
  8
NC_Symbol-A
 10
7.765810
 20
21.891600
 30
0.0
  0
VERTEX
  8
NC_Symbol-A
 10
7.754050
 20
22.587200
 30
0.0
 42
0.409281
  0
VERTEX
  8
NC_Symbol-A
 10
7.674110
 20
22.665800
 30
0.0
  0
VERTEX
  8
NC_Symbol-A
 10
7.468260
 20
22.665800
 30
0.0
 42
-0.414214
  0
VERTEX
  8
NC_Symbol-A
 10
7.443260
 20
22.690800
 30
0.0
  0
VERTEX
  8
NC_Symbol-A
 10
7.443260
 20
22.836080
 30
0.0
 42
-0.414214
  0
VERTEX
  8
NC_Symbol-A
 10
7.468260
 20
22.861080
 30
0.0
  0
VERTEX
  8
NC_Symbol-A
 10
8.337030
 20
22.861080
 30
0.0
 42
-0.414214
  0
VERTEX
  8
NC_Symbol-A
 10
8.362030
 20
22.836080
 30
0.0
  0
VERTEX
  8
NC_Symbol-A
 10
8.362030
 20
22.690800
 30
0.0
 42
-0.414214
  0
VERTEX
  8
NC_Symbol-A
 10
8.337030
 20
22.665800
 30
0.0
  0
VERTEX
  8
NC_Symbol-A
 10
8.142780
 20
22.665800
 30
0.0
 42
0.418165
  0
VERTEX
  8
NC_Symbol-A
 10
8.062830
 20
22.584780
 30
0.0
  0
VERTEX
  8
NC_Symbol-A
 10
8.079640
 20
21.322240
 30
0.0
 42
-0.418111
  0
VERTEX
  8
NC_Symbol-A
 10
8.054640
 20
21.296910
 30
0.0
  0
VERTEX
  8
NC_Symbol-A
 10
7.774880
 20
21.296910
 30
0.0
 42
-0.184144
  0
VERTEX
  8
NC_Symbol-A
 10
7.758240
 20
21.303260
 30
0.0
  0
SEQEND
  0
POLYLINE
  8
NC_Symbol-A
 66
   1
 10
0.0
 20
0.0
 30
0.0
 70
   1
  0
VERTEX
  8
NC_Symbol-A
 10
9.220570
 20
21.467750
 30
0.0
 42
-0.414448
  0
VERTEX
  8
NC_Symbol-A
 10
9.245590
 20
21.492750
 30
0.0
  0
VERTEX
  8
NC_Symbol-A
 10
9.469980
 20
21.492600
 30
0.0
 42
0.414282
  0
VERTEX
  8
NC_Symbol-A
 10
9.512650
 20
21.535220
 30
0.0
  0
VERTEX
  8
NC_Symbol-A
 10
9.512800
 20
21.884180
 30
0.0
 42
0.175501
  0
VERTEX
  8
NC_Symbol-A
 10
9.505390
 20
21.904660
 30
0.0
  0
VERTEX
  8
NC_Symbol-A
 10
9.495220
 20
21.916870
 30
0.0
  0
VERTEX
  8
NC_Symbol-A
 10
9.485660
 20
21.927970
 30
0.0
  0
VERTEX
  8
NC_Symbol-A
 10
9.471450
 20
21.944320
 30
0.0
  0
VERTEX
  8
NC_Symbol-A
 10
9.453040
 20
21.965400
 30
0.0
  0
VERTEX
  8
NC_Symbol-A
 10
9.405490
 20
22.019660
 30
0.0
  0
VERTEX
  8
NC_Symbol-A
 10
9.346670
 20
22.086600
 30
0.0
  0
VERTEX
  8
NC_Symbol-A
 10
9.280260
 20
22.162060
 30
0.0
  0
VERTEX
  8
NC_Symbol-A
 10
9.209940
 20
22.241870
 30
0.0
  0
VERTEX
  8
NC_Symbol-A
 10
9.139400
 20
22.321870
 30
0.0
  0
VERTEX
  8
NC_Symbol-A
 10
9.012300
 20
22.465810
 30
0.0
  0
VERTEX
  8
NC_Symbol-A
 10
8.943700
 20
22.543330
 30
0.0
  0
VERTEX
  8
NC_Symbol-A
 10
8.928380
 20
22.560590
 30
0.0
  0
VERTEX
  8
NC_Symbol-A
 10
8.917590
 20
22.572700
 30
0.0
  0
VERTEX
  8
NC_Symbol-A
 10
8.873480
 20
22.621690
 30
0.0
 42
0.212541
  0
VERTEX
  8
NC_Symbol-A
 10
8.774460
 20
22.665770
 30
0.0
  0
VERTEX
  8
NC_Symbol-A
 10
8.576660
 20
22.665770
 30
0.0
 42
-0.414214
  0
VERTEX
  8
NC_Symbol-A
 10
8.551660
 20
22.690770
 30
0.0
  0
VERTEX
  8
NC_Symbol-A
 10
8.551660
 20
22.836150
 30
0.0
 42
-0.414214
  0
VERTEX
  8
NC_Symbol-A
 10
8.576660
 20
22.861150
 30
0.0
  0
VERTEX
  8
NC_Symbol-A
 10
9.603940
 20
22.861150
 30
0.0
 42
-0.414214
  0
VERTEX
  8
NC_Symbol-A
 10
9.628940
 20
22.836150
 30
0.0
  0
VERTEX
  8
NC_Symbol-A
 10
9.628940
 20
22.691010
 30
0.0
 42
-0.414214
  0
VERTEX
  8
NC_Symbol-A
 10
9.603940
 20
22.666010
 30
0.0
  0
VERTEX
  8
NC_Symbol-A
 10
9.492870
 20
22.666010
 30
0.0
 42
0.636440
  0
VERTEX
  8
NC_Symbol-A
 10
9.468330
 20
22.613520
 30
0.0
  0
VERTEX
  8
NC_Symbol-A
 10
9.589950
 20
22.468040
 30
0.0
  0
VERTEX
  8
NC_Symbol-A
 10
9.782160
 20
22.237960
 30
0.0
 42
-0.000283
  0
VERTEX
  8
NC_Symbol-A
 10
9.782180
 20
22.237940
 30
0.0
  0
VERTEX
  8
NC_Symbol-A
 10
9.832760
 20
22.177270
 30
0.0
 42
-0.000721
  0
VERTEX
  8
NC_Symbol-A
 10
9.832800
 20
22.177210
 30
0.0
  0
VERTEX
  8
NC_Symbol-A
 10
9.838400
 20
22.170460
 30
0.0
 42
-0.001281
  0
VERTEX
  8
NC_Symbol-A
 10
9.838480
 20
22.170360
 30
0.0
  0
VERTEX
  8
NC_Symbol-A
 10
9.846470
 20
22.160620
 30
0.0
  0
VERTEX
  8
NC_Symbol-A
 10
9.853910
 20
22.168950
 30
0.0
  0
VERTEX
  8
NC_Symbol-A
 10
9.868800
 20
22.186200
 30
0.0
  0
VERTEX
  8
NC_Symbol-A
 10
9.895000
 20
22.216800
 30
0.0
  0
VERTEX
  8
NC_Symbol-A
 10
9.950000
 20
22.281210
 30
0.0
  0
VERTEX
  8
NC_Symbol-A
 10
10.062520
 20
22.413210
 30
0.0
  0
VERTEX
  8
NC_Symbol-A
 10
10.148590
 20
22.514280
 30
0.0
  0
VERTEX
  8
NC_Symbol-A
 10
10.232660
 20
22.613060
 30
0.0
 42
0.639557
  0
VERTEX
  8
NC_Symbol-A
 10
10.208310
 20
22.665770
 30
0.0
  0
VERTEX
  8
NC_Symbol-A
 10
10.085710
 20
22.665770
 30
0.0
 42
-0.414214
  0
VERTEX
  8
NC_Symbol-A
 10
10.060710
 20
22.690770
 30
0.0
  0
VERTEX
  8
NC_Symbol-A
 10
10.060710
 20
22.836150
 30
0.0
 42
-0.414214
  0
VERTEX
  8
NC_Symbol-A
 10
10.085710
 20
22.861150
 30
0.0
  0
VERTEX
  8
NC_Symbol-A
 10
10.918770
 20
22.861150
 30
0.0
 42
-0.414214
  0
VERTEX
  8
NC_Symbol-A
 10
10.943770
 20
22.836150
 30
0.0
  0
VERTEX
  8
NC_Symbol-A
 10
10.943770
 20
22.690770
 30
0.0
 42
-0.414214
  0
VERTEX
  8
NC_Symbol-A
 10
10.918770
 20
22.665770
 30
0.0
  0
VERTEX
  8
NC_Symbol-A
 10
10.717410
 20
22.665770
 30
0.0
 42
0.215489
  0
VERTEX
  8
NC_Symbol-A
 10
10.617390
 20
22.620570
 30
0.0
  0
VERTEX
  8
NC_Symbol-A
 10
10.586190
 20
22.585120
 30
0.0
  0
VERTEX
  8
NC_Symbol-A
 10
10.540400
 20
22.532940
 30
0.0
  0
VERTEX
  8
NC_Symbol-A
 10
9.998210
 20
21.914290
 30
0.0
 42
-0.000283
  0
VERTEX
  8
NC_Symbol-A
 10
9.998190
 20
21.914270
 30
0.0
  0
VERTEX
  8
NC_Symbol-A
 10
9.998190
 20
21.914270
 30
0.0
 42
0.182112
  0
VERTEX
  8
NC_Symbol-A
 10
9.990240
 20
21.893170
 30
0.0
  0
VERTEX
  8
NC_Symbol-A
 10
9.990240
 20
21.535410
 30
0.0
 42
0.414214
  0
VERTEX
  8
NC_Symbol-A
 10
10.032880
 20
21.492770
 30
0.0
  0
VERTEX
  8
NC_Symbol-A
 10
10.267380
 20
21.492770
 30
0.0
 42
-0.414214
  0
VERTEX
  8
NC_Symbol-A
 10
10.292380
 20
21.467770
 30
0.0
  0
VERTEX
  8
NC_Symbol-A
 10
10.292380
 20
21.322450
 30
0.0
 42
-0.414214
  0
VERTEX
  8
NC_Symbol-A
 10
10.267380
 20
21.297450
 30
0.0
  0
VERTEX
  8
NC_Symbol-A
 10
9.245570
 20
21.297450
 30
0.0
 42
-0.414214
  0
VERTEX
  8
NC_Symbol-A
 10
9.220570
 20
21.322450
 30
0.0
  0
SEQEND
  0
POLYLINE
  8
NC_Symbol-A
 66
   1
 10
0.0
 20
0.0
 30
0.0
 70
   1
  0
VERTEX
  8
NC_Symbol-A
 10
18.832220
 20
12.301720
 30
0.0
 42
-1.000000
  0
VERTEX
  8
NC_Symbol-A
 10
18.943260
 20
12.200880
 30
0.0
  0
VERTEX
  8
NC_Symbol-A
 10
18.871610
 20
12.121970
 30
0.0
  0
VERTEX
  8
NC_Symbol-A
 10
18.835380
 20
11.962370
 30
0.0
  0
VERTEX
  8
NC_Symbol-A
 10
18.835380
 20
11.888370
 30
0.0
  0
VERTEX
  8
NC_Symbol-A
 10
18.869720
 20
11.774910
 30
0.0
  0
VERTEX
  8
NC_Symbol-A
 10
18.888420
 20
11.754320
 30
0.0
  0
VERTEX
  8
NC_Symbol-A
 10
18.985970
 20
11.718510
 30
0.0
  0
VERTEX
  8
NC_Symbol-A
 10
19.038270
 20
11.718510
 30
0.0
  0
VERTEX
  8
NC_Symbol-A
 10
19.084460
 20
11.743950
 30
0.0
  0
VERTEX
  8
NC_Symbol-A
 10
19.113460
 20
11.807820
 30
0.0
  0
VERTEX
  8
NC_Symbol-A
 10
19.154220
 20
11.987380
 30
0.0
 42
-0.017696
  0
VERTEX
  8
NC_Symbol-A
 10
19.155580
 20
11.992510
 30
0.0
  0
VERTEX
  8
NC_Symbol-A
 10
19.198030
 20
12.132770
 30
0.0
 42
-0.043342
  0
VERTEX
  8
NC_Symbol-A
 10
19.202850
 20
12.144820
 30
0.0
  0
VERTEX
  8
NC_Symbol-A
 10
19.273610
 20
12.285080
 30
0.0
 42
-0.190177
  0
VERTEX
  8
NC_Symbol-A
 10
19.314720
 20
12.321710
 30
0.0
  0
VERTEX
  8
NC_Symbol-A
 10
19.442070
 20
12.368460
 30
0.0
 42
-0.088195
  0
VERTEX
  8
NC_Symbol-A
 10
19.467920
 20
12.373050
 30
0.0
  0
VERTEX
  8
NC_Symbol-A
 10
19.552830
 20
12.373050
 30
0.0
 42
-0.088162
  0
VERTEX
  8
NC_Symbol-A
 10
19.578670
 20
12.368460
 30
0.0
  0
VERTEX
  8
NC_Symbol-A
 10
19.706030
 20
12.321710
 30
0.0
 42
-0.121076
  0
VERTEX
  8
NC_Symbol-A
 10
19.735720
 20
12.301710
 30
0.0
  0
VERTEX
  8
NC_Symbol-A
 10
19.820620
 20
12.208200
 30
0.0
 42
-0.077870
  0
VERTEX
  8
NC_Symbol-A
 10
19.833380
 20
12.188800
 30
0.0
  0
VERTEX
  8
NC_Symbol-A
 10
19.918290
 20
12.001790
 30
0.0
 42
-0.106969
  0
VERTEX
  8
NC_Symbol-A
 10
19.925000
 20
11.970780
 30
0.0
  0
VERTEX
  8
NC_Symbol-A
 10
19.925000
 20
11.877270
 30
0.0
 42
-0.055853
  0
VERTEX
  8
NC_Symbol-A
 10
19.923140
 20
11.860670
 30
0.0
  0
VERTEX
  8
NC_Symbol-A
 10
19.880690
 20
11.673660
 30
0.0
 42
-0.129239
  0
VERTEX
  8
NC_Symbol-A
 10
19.863070
 20
11.639840
 30
0.0
  0
VERTEX
  8
NC_Symbol-A
 10
19.735710
 20
11.499580
 30
0.0
 42
-1.000000
  0
VERTEX
  8
NC_Symbol-A
 10
19.624670
 20
11.600420
 30
0.0
  0
VERTEX
  8
NC_Symbol-A
 10
19.738770
 20
11.726080
 30
0.0
  0
VERTEX
  8
NC_Symbol-A
 10
19.775000
 20
11.885680
 30
0.0
  0
VERTEX
  8
NC_Symbol-A
 10
19.775000
 20
11.954550
 30
0.0
  0
VERTEX
  8
NC_Symbol-A
 10
19.701660
 20
12.116080
 30
0.0
  0
VERTEX
  8
NC_Symbol-A
 10
19.637050
 20
12.187240
 30
0.0
  0
VERTEX
  8
NC_Symbol-A
 10
19.539500
 20
12.223050
 30
0.0
  0
VERTEX
  8
NC_Symbol-A
 10
19.481250
 20
12.223050
 30
0.0
  0
VERTEX
  8
NC_Symbol-A
 10
19.394200
 20
12.191090
 30
0.0
  0
VERTEX
  8
NC_Symbol-A
 10
19.339710
 20
12.083080
 30
0.0
  0
VERTEX
  8
NC_Symbol-A
 10
19.299910
 20
11.951590
 30
0.0
  0
VERTEX
  8
NC_Symbol-A
 10
19.258050
 20
11.767170
 30
0.0
 42
-0.050812
  0
VERTEX
  8
NC_Symbol-A
 10
19.253200
 20
11.752760
 30
0.0
  0
VERTEX
  8
NC_Symbol-A
 10
19.210740
 20
11.659250
 30
0.0
 42
-0.161686
  0
VERTEX
  8
NC_Symbol-A
 10
19.178630
 20
11.624560
 30
0.0
  0
VERTEX
  8
NC_Symbol-A
 10
19.093730
 20
11.577810
 30
0.0
 42
-0.126514
  0
VERTEX
  8
NC_Symbol-A
 10
19.057550
 20
11.568510
 30
0.0
  0
VERTEX
  8
NC_Symbol-A
 10
18.972640
 20
11.568510
 30
0.0
 42
-0.088162
  0
VERTEX
  8
NC_Symbol-A
 10
18.946800
 20
11.573100
 30
0.0
  0
VERTEX
  8
NC_Symbol-A
 10
18.819440
 20
11.619850
 30
0.0
 42
-0.121056
  0
VERTEX
  8
NC_Symbol-A
 10
18.789750
 20
11.639840
 30
0.0
  0
VERTEX
  8
NC_Symbol-A
 10
18.747300
 20
11.686590
 30
0.0
 42
-0.111269
  0
VERTEX
  8
NC_Symbol-A
 10
18.731050
 20
11.715280
 30
0.0
  0
VERTEX
  8
NC_Symbol-A
 10
18.688600
 20
11.855540
 30
0.0
 42
-0.073621
  0
VERTEX
  8
NC_Symbol-A
 10
18.685380
 20
11.877270
 30
0.0
  0
VERTEX
  8
NC_Symbol-A
 10
18.685380
 20
11.970780
 30
0.0
 42
-0.055853
  0
VERTEX
  8
NC_Symbol-A
 10
18.687240
 20
11.987380
 30
0.0
  0
VERTEX
  8
NC_Symbol-A
 10
18.729690
 20
12.174390
 30
0.0
 42
-0.129239
  0
VERTEX
  8
NC_Symbol-A
 10
18.747310
 20
12.208210
 30
0.0
  0
SEQEND
  0
POLYLINE
  8
NC_Symbol-A
 66
   1
 10
0.0
 20
0.0
 30
0.0
 70
   1
  0
VERTEX
  8
NC_Symbol-A
 10
19.850000
 20
12.725000
 30
0.0
 42
-1.000000
  0
VERTEX
  8
NC_Symbol-A
 10
19.850000
 20
12.575000
 30
0.0
  0
VERTEX
  8
NC_Symbol-A
 10
18.760380
 20
12.575000
 30
0.0
 42
-0.414214
  0
VERTEX
  8
NC_Symbol-A
 10
18.685380
 20
12.650000
 30
0.0
  0
VERTEX
  8
NC_Symbol-A
 10
18.685380
 20
13.140910
 30
0.0
 42
-0.120226
  0
VERTEX
  8
NC_Symbol-A
 10
18.693810
 20
13.175450
 30
0.0
  0
VERTEX
  8
NC_Symbol-A
 10
18.736260
 20
13.257270
 30
0.0
 42
-0.064758
  0
VERTEX
  8
NC_Symbol-A
 10
18.747310
 20
13.273150
 30
0.0
  0
VERTEX
  8
NC_Symbol-A
 10
18.832220
 20
13.366650
 30
0.0
 42
-0.110906
  0
VERTEX
  8
NC_Symbol-A
 10
18.859110
 20
13.385550
 30
0.0
  0
VERTEX
  8
NC_Symbol-A
 10
18.944010
 20
13.420620
 30
0.0
 42
-0.098232
  0
VERTEX
  8
NC_Symbol-A
 10
18.972640
 20
13.426300
 30
0.0
  0
VERTEX
  8
NC_Symbol-A
 10
19.100000
 20
13.426300
 30
0.0
 42
-0.112738
  0
VERTEX
  8
NC_Symbol-A
 10
19.132560
 20
13.418870
 30
0.0
  0
VERTEX
  8
NC_Symbol-A
 10
19.302370
 20
13.337050
 30
0.0
 42
-0.209988
  0
VERTEX
  8
NC_Symbol-A
 10
19.341590
 20
13.291200
 30
0.0
  0
VERTEX
  8
NC_Symbol-A
 10
19.369890
 20
13.197690
 30
0.0
 42
-0.073588
  0
VERTEX
  8
NC_Symbol-A
 10
19.373110
 20
13.175970
 30
0.0
  0
VERTEX
  8
NC_Symbol-A
 10
19.373110
 20
12.650000
 30
0.0
 42
-1.000000
  0
VERTEX
  8
NC_Symbol-A
 10
19.223110
 20
12.650000
 30
0.0
  0
VERTEX
  8
NC_Symbol-A
 10
19.223110
 20
13.164870
 30
0.0
  0
VERTEX
  8
NC_Symbol-A
 10
19.207570
 20
13.216220
 30
0.0
  0
VERTEX
  8
NC_Symbol-A
 10
19.082870
 20
13.276300
 30
0.0
  0
VERTEX
  8
NC_Symbol-A
 10
18.987520
 20
13.276300
 30
0.0
  0
VERTEX
  8
NC_Symbol-A
 10
18.931940
 20
13.253340
 30
0.0
  0
VERTEX
  8
NC_Symbol-A
 10
18.864910
 20
13.179530
 30
0.0
  0
VERTEX
  8
NC_Symbol-A
 10
18.835380
 20
13.122610
 30
0.0
  0
VERTEX
  8
NC_Symbol-A
 10
18.835380
 20
12.725000
 30
0.0
  0
SEQEND
  0
POLYLINE
  8
NC_Symbol-A
 66
   1
 10
0.0
 20
0.0
 30
0.0
 70
   1
  0
VERTEX
  8
NC_Symbol-A
 10
19.850000
 20
13.825000
 30
0.0
 42
-1.000000
  0
VERTEX
  8
NC_Symbol-A
 10
19.850000
 20
13.675000
 30
0.0
  0
VERTEX
  8
NC_Symbol-A
 10
18.760380
 20
13.675000
 30
0.0
 42
-0.414214
  0
VERTEX
  8
NC_Symbol-A
 10
18.685380
 20
13.750000
 30
0.0
  0
VERTEX
  8
NC_Symbol-A
 10
18.685380
 20
14.240910
 30
0.0
 42
-0.120226
  0
VERTEX
  8
NC_Symbol-A
 10
18.693810
 20
14.275450
 30
0.0
  0
VERTEX
  8
NC_Symbol-A
 10
18.736260
 20
14.357270
 30
0.0
 42
-0.064758
  0
VERTEX
  8
NC_Symbol-A
 10
18.747310
 20
14.373150
 30
0.0
  0
VERTEX
  8
NC_Symbol-A
 10
18.832220
 20
14.466650
 30
0.0
 42
-0.110906
  0
VERTEX
  8
NC_Symbol-A
 10
18.859110
 20
14.485550
 30
0.0
  0
VERTEX
  8
NC_Symbol-A
 10
18.944010
 20
14.520620
 30
0.0
 42
-0.098232
  0
VERTEX
  8
NC_Symbol-A
 10
18.972640
 20
14.526300
 30
0.0
  0
VERTEX
  8
NC_Symbol-A
 10
19.100000
 20
14.526300
 30
0.0
 42
-0.112738
  0
VERTEX
  8
NC_Symbol-A
 10
19.132560
 20
14.518870
 30
0.0
  0
VERTEX
  8
NC_Symbol-A
 10
19.302370
 20
14.437050
 30
0.0
 42
-0.209988
  0
VERTEX
  8
NC_Symbol-A
 10
19.341590
 20
14.391200
 30
0.0
  0
VERTEX
  8
NC_Symbol-A
 10
19.369890
 20
14.297690
 30
0.0
 42
-0.073588
  0
VERTEX
  8
NC_Symbol-A
 10
19.373110
 20
14.275970
 30
0.0
  0
VERTEX
  8
NC_Symbol-A
 10
19.373110
 20
13.750000
 30
0.0
 42
-1.000000
  0
VERTEX
  8
NC_Symbol-A
 10
19.223110
 20
13.750000
 30
0.0
  0
VERTEX
  8
NC_Symbol-A
 10
19.223110
 20
14.264870
 30
0.0
  0
VERTEX
  8
NC_Symbol-A
 10
19.207570
 20
14.316220
 30
0.0
  0
VERTEX
  8
NC_Symbol-A
 10
19.082870
 20
14.376300
 30
0.0
  0
VERTEX
  8
NC_Symbol-A
 10
18.987520
 20
14.376300
 30
0.0
  0
VERTEX
  8
NC_Symbol-A
 10
18.931940
 20
14.353340
 30
0.0
  0
VERTEX
  8
NC_Symbol-A
 10
18.864910
 20
14.279530
 30
0.0
  0
VERTEX
  8
NC_Symbol-A
 10
18.835380
 20
14.222610
 30
0.0
  0
VERTEX
  8
NC_Symbol-A
 10
18.835380
 20
13.825000
 30
0.0
  0
SEQEND
  0
POLYLINE
  8
NC_Symbol-A
 66
   1
 10
0.0
 20
0.0
 30
0.0
 70
   1
  0
VERTEX
  8
NC_Symbol-A
 10
19.334290
 20
14.128460
 30
0.0
 42
-1.000000
  0
VERTEX
  8
NC_Symbol-A
 10
19.261930
 20
14.259860
 30
0.0
  0
VERTEX
  8
NC_Symbol-A
 10
19.813820
 20
14.563750
 30
0.0
 42
-1.000000
  0
VERTEX
  8
NC_Symbol-A
 10
19.886180
 20
14.432350
 30
0.0
  0
SEQEND
  0
POLYLINE
  8
NC_Symbol-A
 66
   1
 10
0.0
 20
0.0
 30
0.0
 70
   1
  0
VERTEX
  8
NC_Symbol-A
 10
18.685380
 20
15.644810
 30
0.0
 42
-1.000000
  0
VERTEX
  8
NC_Symbol-A
 10
18.835380
 20
15.644810
 30
0.0
  0
VERTEX
  8
NC_Symbol-A
 10
18.835380
 20
14.925000
 30
0.0
  0
VERTEX
  8
NC_Symbol-A
 10
19.775000
 20
14.925000
 30
0.0
  0
VERTEX
  8
NC_Symbol-A
 10
19.775000
 20
15.644810
 30
0.0
 42
-1.000000
  0
VERTEX
  8
NC_Symbol-A
 10
19.925000
 20
15.644810
 30
0.0
  0
VERTEX
  8
NC_Symbol-A
 10
19.925000
 20
14.850000
 30
0.0
 42
-0.414214
  0
VERTEX
  8
NC_Symbol-A
 10
19.850000
 20
14.775000
 30
0.0
  0
VERTEX
  8
NC_Symbol-A
 10
18.760380
 20
14.775000
 30
0.0
 42
-0.414214
  0
VERTEX
  8
NC_Symbol-A
 10
18.685380
 20
14.850000
 30
0.0
  0
SEQEND
  0
POLYLINE
  8
NC_Symbol-A
 66
   1
 10
0.0
 20
0.0
 30
0.0
 70
   1
  0
VERTEX
  8
NC_Symbol-A
 10
19.373110
 20
14.850000
 30
0.0
 42
-1.000000
  0
VERTEX
  8
NC_Symbol-A
 10
19.223110
 20
14.850000
 30
0.0
  0
VERTEX
  8
NC_Symbol-A
 10
19.223110
 20
15.516230
 30
0.0
 42
-1.000000
  0
VERTEX
  8
NC_Symbol-A
 10
19.373110
 20
15.516230
 30
0.0
  0
SEQEND
  0
POLYLINE
  8
NC_Symbol-A
 66
   1
 10
0.0
 20
0.0
 30
0.0
 70
   1
  0
VERTEX
  8
NC_Symbol-A
 10
18.832220
 20
16.701720
 30
0.0
 42
-1.000000
  0
VERTEX
  8
NC_Symbol-A
 10
18.943260
 20
16.600880
 30
0.0
  0
VERTEX
  8
NC_Symbol-A
 10
18.871610
 20
16.521970
 30
0.0
  0
VERTEX
  8
NC_Symbol-A
 10
18.835380
 20
16.362370
 30
0.0
  0
VERTEX
  8
NC_Symbol-A
 10
18.835380
 20
16.288370
 30
0.0
  0
VERTEX
  8
NC_Symbol-A
 10
18.869720
 20
16.174910
 30
0.0
  0
VERTEX
  8
NC_Symbol-A
 10
18.888420
 20
16.154320
 30
0.0
  0
VERTEX
  8
NC_Symbol-A
 10
18.985970
 20
16.118510
 30
0.0
  0
VERTEX
  8
NC_Symbol-A
 10
19.038270
 20
16.118510
 30
0.0
  0
VERTEX
  8
NC_Symbol-A
 10
19.084460
 20
16.143950
 30
0.0
  0
VERTEX
  8
NC_Symbol-A
 10
19.113460
 20
16.207820
 30
0.0
  0
VERTEX
  8
NC_Symbol-A
 10
19.154220
 20
16.387380
 30
0.0
 42
-0.017696
  0
VERTEX
  8
NC_Symbol-A
 10
19.155580
 20
16.392510
 30
0.0
  0
VERTEX
  8
NC_Symbol-A
 10
19.198030
 20
16.532770
 30
0.0
 42
-0.043342
  0
VERTEX
  8
NC_Symbol-A
 10
19.202850
 20
16.544820
 30
0.0
  0
VERTEX
  8
NC_Symbol-A
 10
19.273610
 20
16.685080
 30
0.0
 42
-0.190177
  0
VERTEX
  8
NC_Symbol-A
 10
19.314720
 20
16.721710
 30
0.0
  0
VERTEX
  8
NC_Symbol-A
 10
19.442070
 20
16.768460
 30
0.0
 42
-0.088195
  0
VERTEX
  8
NC_Symbol-A
 10
19.467920
 20
16.773050
 30
0.0
  0
VERTEX
  8
NC_Symbol-A
 10
19.552830
 20
16.773050
 30
0.0
 42
-0.088162
  0
VERTEX
  8
NC_Symbol-A
 10
19.578670
 20
16.768460
 30
0.0
  0
VERTEX
  8
NC_Symbol-A
 10
19.706030
 20
16.721710
 30
0.0
 42
-0.121076
  0
VERTEX
  8
NC_Symbol-A
 10
19.735720
 20
16.701710
 30
0.0
  0
VERTEX
  8
NC_Symbol-A
 10
19.820620
 20
16.608200
 30
0.0
 42
-0.077870
  0
VERTEX
  8
NC_Symbol-A
 10
19.833380
 20
16.588800
 30
0.0
  0
VERTEX
  8
NC_Symbol-A
 10
19.918290
 20
16.401790
 30
0.0
 42
-0.106969
  0
VERTEX
  8
NC_Symbol-A
 10
19.925000
 20
16.370780
 30
0.0
  0
VERTEX
  8
NC_Symbol-A
 10
19.925000
 20
16.277270
 30
0.0
 42
-0.055853
  0
VERTEX
  8
NC_Symbol-A
 10
19.923140
 20
16.260670
 30
0.0
  0
VERTEX
  8
NC_Symbol-A
 10
19.880690
 20
16.073660
 30
0.0
 42
-0.129239
  0
VERTEX
  8
NC_Symbol-A
 10
19.863070
 20
16.039840
 30
0.0
  0
VERTEX
  8
NC_Symbol-A
 10
19.735710
 20
15.899580
 30
0.0
 42
-1.000000
  0
VERTEX
  8
NC_Symbol-A
 10
19.624670
 20
16.000420
 30
0.0
  0
VERTEX
  8
NC_Symbol-A
 10
19.738770
 20
16.126080
 30
0.0
  0
VERTEX
  8
NC_Symbol-A
 10
19.775000
 20
16.285680
 30
0.0
  0
VERTEX
  8
NC_Symbol-A
 10
19.775000
 20
16.354550
 30
0.0
  0
VERTEX
  8
NC_Symbol-A
 10
19.701660
 20
16.516080
 30
0.0
  0
VERTEX
  8
NC_Symbol-A
 10
19.637050
 20
16.587240
 30
0.0
  0
VERTEX
  8
NC_Symbol-A
 10
19.539500
 20
16.623050
 30
0.0
  0
VERTEX
  8
NC_Symbol-A
 10
19.481250
 20
16.623050
 30
0.0
  0
VERTEX
  8
NC_Symbol-A
 10
19.394200
 20
16.591090
 30
0.0
  0
VERTEX
  8
NC_Symbol-A
 10
19.339710
 20
16.483080
 30
0.0
  0
VERTEX
  8
NC_Symbol-A
 10
19.299910
 20
16.351590
 30
0.0
  0
VERTEX
  8
NC_Symbol-A
 10
19.258050
 20
16.167170
 30
0.0
 42
-0.050812
  0
VERTEX
  8
NC_Symbol-A
 10
19.253200
 20
16.152760
 30
0.0
  0
VERTEX
  8
NC_Symbol-A
 10
19.210740
 20
16.059250
 30
0.0
 42
-0.161686
  0
VERTEX
  8
NC_Symbol-A
 10
19.178630
 20
16.024560
 30
0.0
  0
VERTEX
  8
NC_Symbol-A
 10
19.093730
 20
15.977810
 30
0.0
 42
-0.126514
  0
VERTEX
  8
NC_Symbol-A
 10
19.057550
 20
15.968510
 30
0.0
  0
VERTEX
  8
NC_Symbol-A
 10
18.972640
 20
15.968510
 30
0.0
 42
-0.088162
  0
VERTEX
  8
NC_Symbol-A
 10
18.946800
 20
15.973100
 30
0.0
  0
VERTEX
  8
NC_Symbol-A
 10
18.819440
 20
16.019850
 30
0.0
 42
-0.121056
  0
VERTEX
  8
NC_Symbol-A
 10
18.789750
 20
16.039840
 30
0.0
  0
VERTEX
  8
NC_Symbol-A
 10
18.747300
 20
16.086590
 30
0.0
 42
-0.111269
  0
VERTEX
  8
NC_Symbol-A
 10
18.731050
 20
16.115280
 30
0.0
  0
VERTEX
  8
NC_Symbol-A
 10
18.688600
 20
16.255540
 30
0.0
 42
-0.073621
  0
VERTEX
  8
NC_Symbol-A
 10
18.685380
 20
16.277270
 30
0.0
  0
VERTEX
  8
NC_Symbol-A
 10
18.685380
 20
16.370780
 30
0.0
 42
-0.055853
  0
VERTEX
  8
NC_Symbol-A
 10
18.687240
 20
16.387380
 30
0.0
  0
VERTEX
  8
NC_Symbol-A
 10
18.729690
 20
16.574390
 30
0.0
 42
-0.129239
  0
VERTEX
  8
NC_Symbol-A
 10
18.747310
 20
16.608210
 30
0.0
  0
SEQEND
  0
POLYLINE
  8
NC_Symbol-A
 66
   1
 10
0.0
 20
0.0
 30
0.0
 70
   1
  0
VERTEX
  8
NC_Symbol-A
 10
18.685380
 20
17.844810
 30
0.0
 42
-1.000000
  0
VERTEX
  8
NC_Symbol-A
 10
18.835380
 20
17.844810
 30
0.0
  0
VERTEX
  8
NC_Symbol-A
 10
18.835380
 20
17.125000
 30
0.0
  0
VERTEX
  8
NC_Symbol-A
 10
19.775000
 20
17.125000
 30
0.0
  0
VERTEX
  8
NC_Symbol-A
 10
19.775000
 20
17.844810
 30
0.0
 42
-1.000000
  0
VERTEX
  8
NC_Symbol-A
 10
19.925000
 20
17.844810
 30
0.0
  0
VERTEX
  8
NC_Symbol-A
 10
19.925000
 20
17.050000
 30
0.0
 42
-0.414214
  0
VERTEX
  8
NC_Symbol-A
 10
19.850000
 20
16.975000
 30
0.0
  0
VERTEX
  8
NC_Symbol-A
 10
18.760380
 20
16.975000
 30
0.0
 42
-0.414214
  0
VERTEX
  8
NC_Symbol-A
 10
18.685380
 20
17.050000
 30
0.0
  0
SEQEND
  0
POLYLINE
  8
NC_Symbol-A
 66
   1
 10
0.0
 20
0.0
 30
0.0
 70
   1
  0
VERTEX
  8
NC_Symbol-A
 10
19.373110
 20
17.050000
 30
0.0
 42
-1.000000
  0
VERTEX
  8
NC_Symbol-A
 10
19.223110
 20
17.050000
 30
0.0
  0
VERTEX
  8
NC_Symbol-A
 10
19.223110
 20
17.716230
 30
0.0
 42
-1.000000
  0
VERTEX
  8
NC_Symbol-A
 10
19.373110
 20
17.716230
 30
0.0
  0
SEQEND
  0
POLYLINE
  8
NC_Symbol-A
 66
   1
 10
0.0
 20
0.0
 30
0.0
 70
   1
  0
VERTEX
  8
NC_Symbol-A
 10
19.850000
 20
18.225000
 30
0.0
 42
-1.000000
  0
VERTEX
  8
NC_Symbol-A
 10
19.850000
 20
18.075000
 30
0.0
  0
VERTEX
  8
NC_Symbol-A
 10
18.760380
 20
18.075000
 30
0.0
 42
-0.725784
  0
VERTEX
  8
NC_Symbol-A
 10
18.716180
 20
18.210590
 30
0.0
  0
VERTEX
  8
NC_Symbol-A
 10
19.619910
 20
18.869810
 30
0.0
  0
VERTEX
  8
NC_Symbol-A
 10
18.760380
 20
18.869810
 30
0.0
 42
-1.000000
  0
VERTEX
  8
NC_Symbol-A
 10
18.760380
 20
19.019810
 30
0.0
  0
VERTEX
  8
NC_Symbol-A
 10
19.850000
 20
19.019810
 30
0.0
 42
-0.725784
  0
VERTEX
  8
NC_Symbol-A
 10
19.894200
 20
18.884220
 30
0.0
  0
VERTEX
  8
NC_Symbol-A
 10
18.990470
 20
18.225000
 30
0.0
  0
SEQEND
  0
POLYLINE
  8
NC_Symbol-A
 66
   1
 10
0.0
 20
0.0
 30
0.0
 70
   1
  0
VERTEX
  8
NC_Symbol-A
 10
18.832220
 20
20.001720
 30
0.0
 42
-1.000000
  0
VERTEX
  8
NC_Symbol-A
 10
18.943260
 20
19.900880
 30
0.0
  0
VERTEX
  8
NC_Symbol-A
 10
18.871610
 20
19.821970
 30
0.0
  0
VERTEX
  8
NC_Symbol-A
 10
18.835380
 20
19.662370
 30
0.0
  0
VERTEX
  8
NC_Symbol-A
 10
18.835380
 20
19.588370
 30
0.0
  0
VERTEX
  8
NC_Symbol-A
 10
18.869720
 20
19.474910
 30
0.0
  0
VERTEX
  8
NC_Symbol-A
 10
18.888420
 20
19.454320
 30
0.0
  0
VERTEX
  8
NC_Symbol-A
 10
18.985970
 20
19.418510
 30
0.0
  0
VERTEX
  8
NC_Symbol-A
 10
19.038270
 20
19.418510
 30
0.0
  0
VERTEX
  8
NC_Symbol-A
 10
19.084460
 20
19.443950
 30
0.0
  0
VERTEX
  8
NC_Symbol-A
 10
19.113460
 20
19.507820
 30
0.0
  0
VERTEX
  8
NC_Symbol-A
 10
19.154220
 20
19.687380
 30
0.0
 42
-0.017696
  0
VERTEX
  8
NC_Symbol-A
 10
19.155580
 20
19.692510
 30
0.0
  0
VERTEX
  8
NC_Symbol-A
 10
19.198030
 20
19.832770
 30
0.0
 42
-0.043342
  0
VERTEX
  8
NC_Symbol-A
 10
19.202850
 20
19.844820
 30
0.0
  0
VERTEX
  8
NC_Symbol-A
 10
19.273610
 20
19.985080
 30
0.0
 42
-0.190177
  0
VERTEX
  8
NC_Symbol-A
 10
19.314720
 20
20.021710
 30
0.0
  0
VERTEX
  8
NC_Symbol-A
 10
19.442070
 20
20.068460
 30
0.0
 42
-0.088195
  0
VERTEX
  8
NC_Symbol-A
 10
19.467920
 20
20.073050
 30
0.0
  0
VERTEX
  8
NC_Symbol-A
 10
19.552830
 20
20.073050
 30
0.0
 42
-0.088162
  0
VERTEX
  8
NC_Symbol-A
 10
19.578670
 20
20.068460
 30
0.0
  0
VERTEX
  8
NC_Symbol-A
 10
19.706030
 20
20.021710
 30
0.0
 42
-0.121076
  0
VERTEX
  8
NC_Symbol-A
 10
19.735720
 20
20.001710
 30
0.0
  0
VERTEX
  8
NC_Symbol-A
 10
19.820620
 20
19.908200
 30
0.0
 42
-0.077870
  0
VERTEX
  8
NC_Symbol-A
 10
19.833380
 20
19.888800
 30
0.0
  0
VERTEX
  8
NC_Symbol-A
 10
19.918290
 20
19.701790
 30
0.0
 42
-0.106969
  0
VERTEX
  8
NC_Symbol-A
 10
19.925000
 20
19.670780
 30
0.0
  0
VERTEX
  8
NC_Symbol-A
 10
19.925000
 20
19.577270
 30
0.0
 42
-0.055853
  0
VERTEX
  8
NC_Symbol-A
 10
19.923140
 20
19.560670
 30
0.0
  0
VERTEX
  8
NC_Symbol-A
 10
19.880690
 20
19.373660
 30
0.0
 42
-0.129239
  0
VERTEX
  8
NC_Symbol-A
 10
19.863070
 20
19.339840
 30
0.0
  0
VERTEX
  8
NC_Symbol-A
 10
19.735710
 20
19.199580
 30
0.0
 42
-1.000000
  0
VERTEX
  8
NC_Symbol-A
 10
19.624670
 20
19.300420
 30
0.0
  0
VERTEX
  8
NC_Symbol-A
 10
19.738770
 20
19.426080
 30
0.0
  0
VERTEX
  8
NC_Symbol-A
 10
19.775000
 20
19.585680
 30
0.0
  0
VERTEX
  8
NC_Symbol-A
 10
19.775000
 20
19.654550
 30
0.0
  0
VERTEX
  8
NC_Symbol-A
 10
19.701660
 20
19.816080
 30
0.0
  0
VERTEX
  8
NC_Symbol-A
 10
19.637050
 20
19.887240
 30
0.0
  0
VERTEX
  8
NC_Symbol-A
 10
19.539500
 20
19.923050
 30
0.0
  0
VERTEX
  8
NC_Symbol-A
 10
19.481250
 20
19.923050
 30
0.0
  0
VERTEX
  8
NC_Symbol-A
 10
19.394200
 20
19.891090
 30
0.0
  0
VERTEX
  8
NC_Symbol-A
 10
19.339710
 20
19.783080
 30
0.0
  0
VERTEX
  8
NC_Symbol-A
 10
19.299910
 20
19.651590
 30
0.0
  0
VERTEX
  8
NC_Symbol-A
 10
19.258050
 20
19.467170
 30
0.0
 42
-0.050812
  0
VERTEX
  8
NC_Symbol-A
 10
19.253200
 20
19.452760
 30
0.0
  0
VERTEX
  8
NC_Symbol-A
 10
19.210740
 20
19.359250
 30
0.0
 42
-0.161686
  0
VERTEX
  8
NC_Symbol-A
 10
19.178630
 20
19.324560
 30
0.0
  0
VERTEX
  8
NC_Symbol-A
 10
19.093730
 20
19.277810
 30
0.0
 42
-0.126514
  0
VERTEX
  8
NC_Symbol-A
 10
19.057550
 20
19.268510
 30
0.0
  0
VERTEX
  8
NC_Symbol-A
 10
18.972640
 20
19.268510
 30
0.0
 42
-0.088162
  0
VERTEX
  8
NC_Symbol-A
 10
18.946800
 20
19.273100
 30
0.0
  0
VERTEX
  8
NC_Symbol-A
 10
18.819440
 20
19.319850
 30
0.0
 42
-0.121056
  0
VERTEX
  8
NC_Symbol-A
 10
18.789750
 20
19.339840
 30
0.0
  0
VERTEX
  8
NC_Symbol-A
 10
18.747300
 20
19.386590
 30
0.0
 42
-0.111269
  0
VERTEX
  8
NC_Symbol-A
 10
18.731050
 20
19.415280
 30
0.0
  0
VERTEX
  8
NC_Symbol-A
 10
18.688600
 20
19.555540
 30
0.0
 42
-0.073621
  0
VERTEX
  8
NC_Symbol-A
 10
18.685380
 20
19.577270
 30
0.0
  0
VERTEX
  8
NC_Symbol-A
 10
18.685380
 20
19.670780
 30
0.0
 42
-0.055853
  0
VERTEX
  8
NC_Symbol-A
 10
18.687240
 20
19.687380
 30
0.0
  0
VERTEX
  8
NC_Symbol-A
 10
18.729690
 20
19.874390
 30
0.0
 42
-0.129239
  0
VERTEX
  8
NC_Symbol-A
 10
18.747310
 20
19.908210
 30
0.0
  0
SEQEND
  0
POLYLINE
  8
NC_Symbol-A
 66
   1
 10
0.0
 20
0.0
 30
0.0
 70
   1
  0
VERTEX
  8
NC_Symbol-A
 10
18.685380
 20
21.144810
 30
0.0
 42
-1.000000
  0
VERTEX
  8
NC_Symbol-A
 10
18.835380
 20
21.144810
 30
0.0
  0
VERTEX
  8
NC_Symbol-A
 10
18.835380
 20
20.425000
 30
0.0
  0
VERTEX
  8
NC_Symbol-A
 10
19.775000
 20
20.425000
 30
0.0
  0
VERTEX
  8
NC_Symbol-A
 10
19.775000
 20
21.144810
 30
0.0
 42
-1.000000
  0
VERTEX
  8
NC_Symbol-A
 10
19.925000
 20
21.144810
 30
0.0
  0
VERTEX
  8
NC_Symbol-A
 10
19.925000
 20
20.350000
 30
0.0
 42
-0.414214
  0
VERTEX
  8
NC_Symbol-A
 10
19.850000
 20
20.275000
 30
0.0
  0
VERTEX
  8
NC_Symbol-A
 10
18.760380
 20
20.275000
 30
0.0
 42
-0.414214
  0
VERTEX
  8
NC_Symbol-A
 10
18.685380
 20
20.350000
 30
0.0
  0
SEQEND
  0
POLYLINE
  8
NC_Symbol-A
 66
   1
 10
0.0
 20
0.0
 30
0.0
 70
   1
  0
VERTEX
  8
NC_Symbol-A
 10
19.373110
 20
20.350000
 30
0.0
 42
-1.000000
  0
VERTEX
  8
NC_Symbol-A
 10
19.223110
 20
20.350000
 30
0.0
  0
VERTEX
  8
NC_Symbol-A
 10
19.223110
 20
21.016230
 30
0.0
 42
-1.000000
  0
VERTEX
  8
NC_Symbol-A
 10
19.373110
 20
21.016230
 30
0.0
  0
SEQEND
  0
POLYLINE
  8
NC_Symbol-A
 66
   1
 10
0.0
 20
0.0
 30
0.0
 70
   1
  0
VERTEX
  8
NC_Symbol-A
 10
21.251280
 20
5.502260
 30
0.0
 42
1.000000
  0
VERTEX
  8
NC_Symbol-A
 10
21.251280
 20
10.505720
 30
0.0
 42
1.000000
  0
VERTEX
  8
NC_Symbol-A
 10
21.251280
 20
5.502260
 30
0.0
  0
SEQEND
  0
POLYLINE
  8
NC_Symbol-A
 66
   1
 10
0.0
 20
0.0
 30
0.0
 70
   1
  0
VERTEX
  8
NC_Symbol-A
 10
21.214550
 20
6.243740
 30
0.0
 42
0.003700
  0
VERTEX
  8
NC_Symbol-A
 10
21.214920
 20
6.243740
 30
0.0
  0
VERTEX
  8
NC_Symbol-A
 10
21.214920
 20
6.243740
 30
0.0
 42
0.042782
  0
VERTEX
  8
NC_Symbol-A
 10
21.523240
 20
6.269860
 30
0.0
  0
VERTEX
  8
NC_Symbol-A
 10
21.523240
 20
6.269860
 30
0.0
 42
0.003846
  0
VERTEX
  8
NC_Symbol-A
 10
21.523620
 20
6.269920
 30
0.0
  0
VERTEX
  8
NC_Symbol-A
 10
21.523620
 20
6.269920
 30
0.0
 42
0.044234
  0
VERTEX
  8
NC_Symbol-A
 10
21.717770
 20
6.324420
 30
0.0
  0
VERTEX
  8
NC_Symbol-A
 10
21.717770
 20
6.324420
 30
0.0
 42
0.152007
  0
VERTEX
  8
NC_Symbol-A
 10
22.113100
 20
6.629420
 30
0.0
  0
VERTEX
  8
NC_Symbol-A
 10
22.113100
 20
6.629420
 30
0.0
 42
0.006490
  0
VERTEX
  8
NC_Symbol-A
 10
22.113460
 20
6.629960
 30
0.0
  0
VERTEX
  8
NC_Symbol-A
 10
22.113460
 20
6.629960
 30
0.0
 42
0.121050
  0
VERTEX
  8
NC_Symbol-A
 10
22.246060
 20
6.998550
 30
0.0
  0
VERTEX
  8
NC_Symbol-A
 10
22.246060
 20
6.998550
 30
0.0
 42
0.020294
  0
VERTEX
  8
NC_Symbol-A
 10
22.254470
 20
7.133660
 30
0.0
  0
VERTEX
  8
NC_Symbol-A
 10
22.254470
 20
7.133660
 30
0.0
 42
0.027419
  0
VERTEX
  8
NC_Symbol-A
 10
22.251160
 20
7.215800
 30
0.0
  0
VERTEX
  8
NC_Symbol-A
 10
22.251160
 20
7.215800
 30
0.0
 42
-0.011337
  0
VERTEX
  8
NC_Symbol-A
 10
22.251070
 20
7.216930
 30
0.0
  0
VERTEX
  8
NC_Symbol-A
 10
22.251070
 20
7.216930
 30
0.0
 42
0.028070
  0
VERTEX
  8
NC_Symbol-A
 10
22.245590
 20
7.268430
 30
0.0
  0
VERTEX
  8
NC_Symbol-A
 10
22.245590
 20
7.268430
 30
0.0
 42
-0.011315
  0
VERTEX
  8
NC_Symbol-A
 10
22.245430
 20
7.269550
 30
0.0
  0
VERTEX
  8
NC_Symbol-A
 10
22.245430
 20
7.269550
 30
0.0
 42
0.053461
  0
VERTEX
  8
NC_Symbol-A
 10
22.212540
 20
7.413990
 30
0.0
  0
VERTEX
  8
NC_Symbol-A
 10
22.212540
 20
7.413990
 30
0.0
 42
0.117248
  0
VERTEX
  8
NC_Symbol-A
 10
22.023390
 20
7.720350
 30
0.0
  0
VERTEX
  8
NC_Symbol-A
 10
22.023390
 20
7.720350
 30
0.0
 42
0.085020
  0
VERTEX
  8
NC_Symbol-A
 10
21.637580
 20
7.988310
 30
0.0
  0
VERTEX
  8
NC_Symbol-A
 10
21.637580
 20
7.988310
 30
0.0
 42
-0.308340
  0
VERTEX
  8
NC_Symbol-A
 10
21.623220
 20
8.012530
 30
0.0
  0
VERTEX
  8
NC_Symbol-A
 10
21.623220
 20
8.012530
 30
0.0
 42
0.682263
  0
VERTEX
  8
NC_Symbol-A
 10
20.994190
 20
8.305700
 30
0.0
  0
VERTEX
  8
NC_Symbol-A
 10
20.994190
 20
8.305700
 30
0.0
 42
-0.319548
  0
VERTEX
  8
NC_Symbol-A
 10
20.965490
 20
8.301580
 30
0.0
  0
VERTEX
  8
NC_Symbol-A
 10
20.965490
 20
8.301580
 30
0.0
 42
-0.070664
  0
VERTEX
  8
NC_Symbol-A
 10
20.730780
 20
8.468100
 30
0.0
  0
VERTEX
  8
NC_Symbol-A
 10
20.730780
 20
8.468100
 30
0.0
 42
-0.006152
  0
VERTEX
  8
NC_Symbol-A
 10
20.730340
 20
8.468530
 30
0.0
  0
VERTEX
  8
NC_Symbol-A
 10
20.730340
 20
8.468530
 30
0.0
 42
-0.059406
  0
VERTEX
  8
NC_Symbol-A
 10
20.653930
 20
8.565100
 30
0.0
  0
VERTEX
  8
NC_Symbol-A
 10
20.653930
 20
8.565100
 30
0.0
 42
-0.012642
  0
VERTEX
  8
NC_Symbol-A
 10
20.653290
 20
8.566190
 30
0.0
  0
VERTEX
  8
NC_Symbol-A
 10
20.653290
 20
8.566190
 30
0.0
 42
-0.058349
  0
VERTEX
  8
NC_Symbol-A
 10
20.603190
 20
8.690380
 30
0.0
  0
VERTEX
  8
NC_Symbol-A
 10
20.603190
 20
8.690380
 30
0.0
 42
-0.006185
  0
VERTEX
  8
NC_Symbol-A
 10
20.603040
 20
8.690980
 30
0.0
  0
VERTEX
  8
NC_Symbol-A
 10
20.603040
 20
8.690980
 30
0.0
 42
-0.061901
  0
VERTEX
  8
NC_Symbol-A
 10
20.584060
 20
8.850650
 30
0.0
  0
VERTEX
  8
NC_Symbol-A
 10
20.584060
 20
8.850650
 30
0.0
 42
0.012911
  0
VERTEX
  8
NC_Symbol-A
 10
20.583800
 20
8.863710
 30
0.0
  0
VERTEX
  8
NC_Symbol-A
 10
20.583780
 20
8.863700
 30
0.0
 42
-0.259171
  0
VERTEX
  8
NC_Symbol-A
 10
20.801610
 20
9.302370
 30
0.0
  0
VERTEX
  8
NC_Symbol-A
 10
20.801610
 20
9.302370
 30
0.0
 42
0.003528
  0
VERTEX
  8
NC_Symbol-A
 10
20.804540
 20
9.304410
 30
0.0
  0
VERTEX
  8
NC_Symbol-A
 10
20.804540
 20
9.304410
 30
0.0
 42
-0.033306
  0
VERTEX
  8
NC_Symbol-A
 10
20.868320
 20
9.343530
 30
0.0
  0
VERTEX
  8
NC_Symbol-A
 10
20.868320
 20
9.343530
 30
0.0
 42
-0.006307
  0
VERTEX
  8
NC_Symbol-A
 10
20.868880
 20
9.343820
 30
0.0
  0
VERTEX
  8
NC_Symbol-A
 10
20.868880
 20
9.343820
 30
0.0
 42
-0.081125
  0
VERTEX
  8
NC_Symbol-A
 10
21.158830
 20
9.432470
 30
0.0
  0
VERTEX
  8
NC_Symbol-A
 10
21.158830
 20
9.432470
 30
0.0
 42
-0.020114
  0
VERTEX
  8
NC_Symbol-A
 10
21.273050
 20
9.442810
 30
0.0
  0
VERTEX
  8
NC_Symbol-A
 10
21.273050
 20
9.442810
 30
0.0
 42
-0.046998
  0
VERTEX
  8
NC_Symbol-A
 10
21.573360
 20
9.427730
 30
0.0
  0
VERTEX
  8
NC_Symbol-A
 10
21.573500
 20
9.427700
 30
0.0
 42
-0.028330
  0
VERTEX
  8
NC_Symbol-A
 10
21.749150
 20
9.392060
 30
0.0
  0
VERTEX
  8
NC_Symbol-A
 10
21.749150
 20
9.392060
 30
0.0
 42
-0.444839
  0
VERTEX
  8
NC_Symbol-A
 10
21.766200
 20
9.359070
 30
0.0
  0
VERTEX
  8
NC_Symbol-A
 10
21.743380
 20
9.298450
 30
0.0
 42
0.414364
  0
VERTEX
  8
NC_Symbol-A
 10
21.757980
 20
9.266240
 30
0.0
  0
VERTEX
  8
NC_Symbol-A
 10
22.187090
 20
9.104980
 30
0.0
 42
0.414063
  0
VERTEX
  8
NC_Symbol-A
 10
22.219280
 20
9.119580
 30
0.0
  0
VERTEX
  8
NC_Symbol-A
 10
22.379000
 20
9.544590
 30
0.0
 42
0.414282
  0
VERTEX
  8
NC_Symbol-A
 10
22.364390
 20
9.576790
 30
0.0
  0
VERTEX
  8
NC_Symbol-A
 10
21.935380
 20
9.738020
 30
0.0
 42
0.414214
  0
VERTEX
  8
NC_Symbol-A
 10
21.903180
 20
9.723420
 30
0.0
  0
VERTEX
  8
NC_Symbol-A
 10
21.873310
 20
9.643940
 30
0.0
 42
-0.389352
  0
VERTEX
  8
NC_Symbol-A
 10
21.843150
 20
9.628660
 30
0.0
  0
VERTEX
  8
NC_Symbol-A
 10
21.843150
 20
9.628660
 30
0.0
 42
0.032531
  0
VERTEX
  8
NC_Symbol-A
 10
21.609680
 20
9.678070
 30
0.0
  0
VERTEX
  8
NC_Symbol-A
 10
21.609680
 20
9.678070
 30
0.0
 42
0.047209
  0
VERTEX
  8
NC_Symbol-A
 10
21.260420
 20
9.695450
 30
0.0
  0
VERTEX
  8
NC_Symbol-A
 10
21.260420
 20
9.695450
 30
0.0
 42
0.020284
  0
VERTEX
  8
NC_Symbol-A
 10
21.124810
 20
9.683150
 30
0.0
  0
VERTEX
  8
NC_Symbol-A
 10
21.124810
 20
9.683150
 30
0.0
 42
0.081781
  0
VERTEX
  8
NC_Symbol-A
 10
20.754090
 20
9.569260
 30
0.0
  0
VERTEX
  8
NC_Symbol-A
 10
20.754090
 20
9.569260
 30
0.0
 42
0.004472
  0
VERTEX
  8
NC_Symbol-A
 10
20.753690
 20
9.569060
 30
0.0
  0
VERTEX
  8
NC_Symbol-A
 10
20.753690
 20
9.569060
 30
0.0
 42
0.034253
  0
VERTEX
  8
NC_Symbol-A
 10
20.658460
 20
9.510940
 30
0.0
  0
VERTEX
  8
NC_Symbol-A
 10
20.658460
 20
9.510940
 30
0.0
 42
-0.003441
  0
VERTEX
  8
NC_Symbol-A
 10
20.658180
 20
9.510740
 30
0.0
  0
VERTEX
  8
NC_Symbol-A
 10
20.658180
 20
9.510740
 30
0.0
 42
0.258950
  0
VERTEX
  8
NC_Symbol-A
 10
20.331060
 20
8.852590
 30
0.0
  0
VERTEX
  8
NC_Symbol-A
 10
20.331060
 20
8.852590
 30
0.0
 42
-0.012606
  0
VERTEX
  8
NC_Symbol-A
 10
20.331090
 20
8.851330
 30
0.0
  0
VERTEX
  8
NC_Symbol-A
 10
20.331090
 20
8.851330
 30
0.0
 42
0.062524
  0
VERTEX
  8
NC_Symbol-A
 10
20.358140
 20
8.627540
 30
0.0
  0
VERTEX
  8
NC_Symbol-A
 10
20.358140
 20
8.627540
 30
0.0
 42
0.004342
  0
VERTEX
  8
NC_Symbol-A
 10
20.358250
 20
8.627120
 30
0.0
  0
VERTEX
  8
NC_Symbol-A
 10
20.358250
 20
8.627120
 30
0.0
 42
0.061368
  0
VERTEX
  8
NC_Symbol-A
 10
20.434380
 20
8.439310
 30
0.0
  0
VERTEX
  8
NC_Symbol-A
 10
20.434380
 20
8.439310
 30
0.0
 42
0.008559
  0
VERTEX
  8
NC_Symbol-A
 10
20.434810
 20
8.438570
 30
0.0
  0
VERTEX
  8
NC_Symbol-A
 10
20.434810
 20
8.438570
 30
0.0
 42
0.062827
  0
VERTEX
  8
NC_Symbol-A
 10
20.554570
 20
8.286580
 30
0.0
  0
VERTEX
  8
NC_Symbol-A
 10
20.554570
 20
8.286580
 30
0.0
 42
0.074666
  0
VERTEX
  8
NC_Symbol-A
 10
20.864910
 20
8.068960
 30
0.0
  0
VERTEX
  8
NC_Symbol-A
 10
20.864910
 20
8.068960
 30
0.0
 42
-0.291676
  0
VERTEX
  8
NC_Symbol-A
 10
20.878740
 20
8.045910
 30
0.0
  0
VERTEX
  8
NC_Symbol-A
 10
20.878740
 20
8.045910
 30
0.0
 42
0.656585
  0
VERTEX
  8
NC_Symbol-A
 10
21.498770
 20
7.757280
 30
0.0
  0
VERTEX
  8
NC_Symbol-A
 10
21.498770
 20
7.757280
 30
0.0
 42
-0.298185
  0
VERTEX
  8
NC_Symbol-A
 10
21.525860
 20
7.761280
 30
0.0
  0
VERTEX
  8
NC_Symbol-A
 10
21.525860
 20
7.761280
 30
0.0
 42
-0.086081
  0
VERTEX
  8
NC_Symbol-A
 10
21.845910
 20
7.540080
 30
0.0
  0
VERTEX
  8
NC_Symbol-A
 10
21.845910
 20
7.540080
 30
0.0
 42
-0.116442
  0
VERTEX
  8
NC_Symbol-A
 10
21.972400
 20
7.334490
 30
0.0
  0
VERTEX
  8
NC_Symbol-A
 10
21.972400
 20
7.334490
 30
0.0
 42
0.002760
  0
VERTEX
  8
NC_Symbol-A
 10
21.973280
 20
7.331840
 30
0.0
  0
VERTEX
  8
NC_Symbol-A
 10
21.973280
 20
7.331840
 30
0.0
 42
-0.053659
  0
VERTEX
  8
NC_Symbol-A
 10
21.994250
 20
7.239650
 30
0.0
  0
VERTEX
  8
NC_Symbol-A
 10
21.994250
 20
7.239650
 30
0.0
 42
0.011796
  0
VERTEX
  8
NC_Symbol-A
 10
21.995900
 20
7.227830
 30
0.0
  0
VERTEX
  8
NC_Symbol-A
 10
21.995900
 20
7.227830
 30
0.0
 42
-0.028641
  0
VERTEX
  8
NC_Symbol-A
 10
21.998430
 20
7.204080
 30
0.0
  0
VERTEX
  8
NC_Symbol-A
 10
21.998430
 20
7.204080
 30
0.0
 42
0.011793
  0
VERTEX
  8
NC_Symbol-A
 10
21.999290
 20
7.192180
 30
0.0
  0
VERTEX
  8
NC_Symbol-A
 10
21.999290
 20
7.192180
 30
0.0
 42
-0.027149
  0
VERTEX
  8
NC_Symbol-A
 10
22.001550
 20
7.138280
 30
0.0
  0
VERTEX
  8
NC_Symbol-A
 10
22.001550
 20
7.138280
 30
0.0
 42
-0.020141
  0
VERTEX
  8
NC_Symbol-A
 10
21.994430
 20
7.024520
 30
0.0
  0
VERTEX
  8
NC_Symbol-A
 10
21.994430
 20
7.024520
 30
0.0
 42
-0.119362
  0
VERTEX
  8
NC_Symbol-A
 10
21.904600
 20
6.772740
 30
0.0
  0
VERTEX
  8
NC_Symbol-A
 10
21.904600
 20
6.772740
 30
0.0
 42
-0.009349
  0
VERTEX
  8
NC_Symbol-A
 10
21.904070
 20
6.771970
 30
0.0
  0
VERTEX
  8
NC_Symbol-A
 10
21.904070
 20
6.771970
 30
0.0
 42
-0.150483
  0
VERTEX
  8
NC_Symbol-A
 10
21.629830
 20
6.561610
 30
0.0
  0
VERTEX
  8
NC_Symbol-A
 10
21.629830
 20
6.561610
 30
0.0
 42
0.000949
  0
VERTEX
  8
NC_Symbol-A
 10
21.629740
 20
6.561580
 30
0.0
  0
VERTEX
  8
NC_Symbol-A
 10
21.628170
 20
6.560990
 30
0.0
 42
0.000671
  0
VERTEX
  8
NC_Symbol-A
 10
21.628110
 20
6.560960
 30
0.0
  0
VERTEX
  8
NC_Symbol-A
 10
21.628110
 20
6.560960
 30
0.0
 42
-0.043673
  0
VERTEX
  8
NC_Symbol-A
 10
21.478920
 20
6.518920
 30
0.0
  0
VERTEX
  8
NC_Symbol-A
 10
21.478920
 20
6.518920
 30
0.0
 42
-0.042221
  0
VERTEX
  8
NC_Symbol-A
 10
21.217130
 20
6.496710
 30
0.0
  0
VERTEX
  8
NC_Symbol-A
 10
21.217130
 20
6.496710
 30
0.0
 42
-0.004400
  0
VERTEX
  8
NC_Symbol-A
 10
21.216690
 20
6.496710
 30
0.0
  0
VERTEX
  8
NC_Symbol-A
 10
21.216690
 20
6.496710
 30
0.0
 42
-0.066051
  0
VERTEX
  8
NC_Symbol-A
 10
20.738200
 20
6.568620
 30
0.0
  0
VERTEX
  8
NC_Symbol-A
 10
20.738200
 20
6.568620
 30
0.0
 42
-0.437176
  0
VERTEX
  8
NC_Symbol-A
 10
20.721730
 20
6.601420
 30
0.0
  0
VERTEX
  8
NC_Symbol-A
 10
20.754990
 20
6.690110
 30
0.0
 42
0.414049
  0
VERTEX
  8
NC_Symbol-A
 10
20.740370
 20
6.722290
 30
0.0
  0
VERTEX
  8
NC_Symbol-A
 10
20.311320
 20
6.883350
 30
0.0
 42
0.414131
  0
VERTEX
  8
NC_Symbol-A
 10
20.279130
 20
6.868740
 30
0.0
  0
VERTEX
  8
NC_Symbol-A
 10
20.119500
 20
6.443690
 30
0.0
 42
0.414351
  0
VERTEX
  8
NC_Symbol-A
 10
20.134120
 20
6.411490
 30
0.0
  0
VERTEX
  8
NC_Symbol-A
 10
20.563300
 20
6.250430
 30
0.0
 42
0.414268
  0
VERTEX
  8
NC_Symbol-A
 10
20.595490
 20
6.265060
 30
0.0
  0
VERTEX
  8
NC_Symbol-A
 10
20.614990
 20
6.317030
 30
0.0
 42
-0.394836
  0
VERTEX
  8
NC_Symbol-A
 10
20.645600
 20
6.332190
 30
0.0
  0
VERTEX
  8
NC_Symbol-A
 10
20.645600
 20
6.332190
 30
0.0
 42
0.069125
  0
VERTEX
  8
NC_Symbol-A
 10
21.214550
 20
6.243740
 30
0.0
  0
SEQEND
  0
POLYLINE
  8
NC_Resist-A
 66
   1
 10
0.0
 20
0.0
 30
0.0
 70
   1
  0
VERTEX
  8
NC_Resist-A
 10
2.000000
 20
13.100000
 30
0.0
 42
1.000000
  0
VERTEX
  8
NC_Resist-A
 10
2.000000
 20
15.900000
 30
0.0
 42
1.000000
  0
VERTEX
  8
NC_Resist-A
 10
2.000000
 20
13.100000
 30
0.0
  0
SEQEND
  0
POLYLINE
  8
NC_Resist-A
 66
   1
 10
0.0
 20
0.0
 30
0.0
 70
   1
  0
VERTEX
  8
NC_Resist-A
 10
2.000000
 20
0.600000
 30
0.0
 42
1.000000
  0
VERTEX
  8
NC_Resist-A
 10
2.000000
 20
3.400000
 30
0.0
 42
1.000000
  0
VERTEX
  8
NC_Resist-A
 10
2.000000
 20
0.600000
 30
0.0
  0
SEQEND
  0
POLYLINE
  8
NC_Resist-A
 66
   1
 10
0.0
 20
0.0
 30
0.0
 70
   1
  0
VERTEX
  8
NC_Resist-A
 10
23.000000
 20
0.600000
 30
0.0
 42
1.000000
  0
VERTEX
  8
NC_Resist-A
 10
23.000000
 20
3.400000
 30
0.0
 42
1.000000
  0
VERTEX
  8
NC_Resist-A
 10
23.000000
 20
0.600000
 30
0.0
  0
SEQEND
  0
POLYLINE
  8
NC_Resist-A
 66
   1
 10
0.0
 20
0.0
 30
0.0
 70
   1
  0
VERTEX
  8
NC_Resist-A
 10
23.000000
 20
13.100000
 30
0.0
 42
1.000000
  0
VERTEX
  8
NC_Resist-A
 10
23.000000
 20
15.900000
 30
0.0
 42
1.000000
  0
VERTEX
  8
NC_Resist-A
 10
23.000000
 20
13.100000
 30
0.0
  0
SEQEND
  0
POLYLINE
  8
NC_Symbol-A
 66
   1
 10
0.0
 20
0.0
 30
0.0
 70
   1
  0
VERTEX
  8
NC_Symbol-A
 10
8.150000
 20
1.300000
 30
0.0
 42
-1.000000
  0
VERTEX
  8
NC_Symbol-A
 10
7.950000
 20
1.300000
 30
0.0
  0
VERTEX
  8
NC_Symbol-A
 10
7.950000
 20
2.950000
 30
0.0
 42
-1.000000
  0
VERTEX
  8
NC_Symbol-A
 10
8.150000
 20
2.950000
 30
0.0
  0
SEQEND
  0
POLYLINE
  8
NC_Symbol-A
 66
   1
 10
0.0
 20
0.0
 30
0.0
 70
   1
  0
VERTEX
  8
NC_Symbol-A
 10
8.750000
 20
1.400000
 30
0.0
 42
-1.000000
  0
VERTEX
  8
NC_Symbol-A
 10
8.750000
 20
1.200000
 30
0.0
  0
VERTEX
  8
NC_Symbol-A
 10
8.050000
 20
1.200000
 30
0.0
 42
-1.000000
  0
VERTEX
  8
NC_Symbol-A
 10
8.050000
 20
1.400000
 30
0.0
  0
SEQEND
  0
POLYLINE
  8
NC_Symbol-A
 66
   1
 10
0.0
 20
0.0
 30
0.0
 70
   1
  0
VERTEX
  8
NC_Symbol-A
 10
8.360000
 20
2.950000
 30
0.0
 42
-1.000000
  0
VERTEX
  8
NC_Symbol-A
 10
8.160000
 20
2.950000
 30
0.0
  0
VERTEX
  8
NC_Symbol-A
 10
8.160000
 20
3.050000
 30
0.0
 42
-1.000000
  0
VERTEX
  8
NC_Symbol-A
 10
8.360000
 20
3.050000
 30
0.0
  0
SEQEND
  0
POLYLINE
  8
NC_Symbol-A
 66
   1
 10
0.0
 20
0.0
 30
0.0
 70
   1
  0
VERTEX
  8
NC_Symbol-A
 10
8.050000
 20
2.850000
 30
0.0
 42
-1.000000
  0
VERTEX
  8
NC_Symbol-A
 10
8.050000
 20
3.050000
 30
0.0
  0
VERTEX
  8
NC_Symbol-A
 10
8.260000
 20
3.050000
 30
0.0
 42
-1.000000
  0
VERTEX
  8
NC_Symbol-A
 10
8.260000
 20
2.850000
 30
0.0
  0
SEQEND
  0
POLYLINE
  8
NC_Symbol-A
 66
   1
 10
0.0
 20
0.0
 30
0.0
 70
   1
  0
VERTEX
  8
NC_Symbol-A
 10
16.850000
 20
2.950000
 30
0.0
 42
-1.000000
  0
VERTEX
  8
NC_Symbol-A
 10
17.050000
 20
2.950000
 30
0.0
  0
VERTEX
  8
NC_Symbol-A
 10
17.050000
 20
1.300000
 30
0.0
 42
-1.000000
  0
VERTEX
  8
NC_Symbol-A
 10
16.850000
 20
1.300000
 30
0.0
  0
SEQEND
  0
POLYLINE
  8
NC_Symbol-A
 66
   1
 10
0.0
 20
0.0
 30
0.0
 70
   1
  0
VERTEX
  8
NC_Symbol-A
 10
16.950000
 20
1.400000
 30
0.0
 42
-1.000000
  0
VERTEX
  8
NC_Symbol-A
 10
16.950000
 20
1.200000
 30
0.0
  0
VERTEX
  8
NC_Symbol-A
 10
16.250000
 20
1.200000
 30
0.0
 42
-1.000000
  0
VERTEX
  8
NC_Symbol-A
 10
16.250000
 20
1.400000
 30
0.0
  0
SEQEND
  0
POLYLINE
  8
NC_Symbol-A
 66
   1
 10
0.0
 20
0.0
 30
0.0
 70
   1
  0
VERTEX
  8
NC_Symbol-A
 10
16.640000
 20
3.050000
 30
0.0
 42
-1.000000
  0
VERTEX
  8
NC_Symbol-A
 10
16.840000
 20
3.050000
 30
0.0
  0
VERTEX
  8
NC_Symbol-A
 10
16.840000
 20
2.950000
 30
0.0
 42
-1.000000
  0
VERTEX
  8
NC_Symbol-A
 10
16.640000
 20
2.950000
 30
0.0
  0
SEQEND
  0
POLYLINE
  8
NC_Symbol-A
 66
   1
 10
0.0
 20
0.0
 30
0.0
 70
   1
  0
VERTEX
  8
NC_Symbol-A
 10
16.740000
 20
2.850000
 30
0.0
 42
-1.000000
  0
VERTEX
  8
NC_Symbol-A
 10
16.740000
 20
3.050000
 30
0.0
  0
VERTEX
  8
NC_Symbol-A
 10
16.950000
 20
3.050000
 30
0.0
 42
-1.000000
  0
VERTEX
  8
NC_Symbol-A
 10
16.950000
 20
2.850000
 30
0.0
  0
SEQEND
  0
POLYLINE
  8
NC_Resist-A
 66
   1
 10
0.0
 20
0.0
 30
0.0
 70
   1
  0
VERTEX
  8
NC_Resist-A
 10
9.050000
 20
3.800000
 30
0.0
 42
-0.414214
  0
VERTEX
  8
NC_Resist-A
 10
9.000000
 20
3.750000
 30
0.0
  0
VERTEX
  8
NC_Resist-A
 10
8.800000
 20
3.750000
 30
0.0
 42
-0.414214
  0
VERTEX
  8
NC_Resist-A
 10
8.750000
 20
3.800000
 30
0.0
  0
VERTEX
  8
NC_Resist-A
 10
8.750000
 20
4.400000
 30
0.0
 42
-0.414214
  0
VERTEX
  8
NC_Resist-A
 10
8.800000
 20
4.450000
 30
0.0
  0
VERTEX
  8
NC_Resist-A
 10
9.000000
 20
4.450000
 30
0.0
 42
-0.414214
  0
VERTEX
  8
NC_Resist-A
 10
9.050000
 20
4.400000
 30
0.0
  0
SEQEND
  0
POLYLINE
  8
NC_Resist-A
 66
   1
 10
0.0
 20
0.0
 30
0.0
 70
   1
  0
VERTEX
  8
NC_Resist-A
 10
9.350000
 20
0.900000
 30
0.0
 42
-0.414214
  0
VERTEX
  8
NC_Resist-A
 10
9.300000
 20
0.850000
 30
0.0
  0
VERTEX
  8
NC_Resist-A
 10
9.100000
 20
0.850000
 30
0.0
 42
-0.414214
  0
VERTEX
  8
NC_Resist-A
 10
9.050000
 20
0.900000
 30
0.0
  0
VERTEX
  8
NC_Resist-A
 10
9.050000
 20
1.450000
 30
0.0
 42
-0.414214
  0
VERTEX
  8
NC_Resist-A
 10
9.100000
 20
1.500000
 30
0.0
  0
VERTEX
  8
NC_Resist-A
 10
9.300000
 20
1.500000
 30
0.0
 42
-0.414214
  0
VERTEX
  8
NC_Resist-A
 10
9.350000
 20
1.450000
 30
0.0
  0
SEQEND
  0
POLYLINE
  8
NC_Resist-A
 66
   1
 10
0.0
 20
0.0
 30
0.0
 70
   1
  0
VERTEX
  8
NC_Resist-A
 10
9.650000
 20
3.800000
 30
0.0
 42
-0.414214
  0
VERTEX
  8
NC_Resist-A
 10
9.600000
 20
3.750000
 30
0.0
  0
VERTEX
  8
NC_Resist-A
 10
9.400000
 20
3.750000
 30
0.0
 42
-0.414214
  0
VERTEX
  8
NC_Resist-A
 10
9.350000
 20
3.800000
 30
0.0
  0
VERTEX
  8
NC_Resist-A
 10
9.350000
 20
4.400000
 30
0.0
 42
-0.414214
  0
VERTEX
  8
NC_Resist-A
 10
9.400000
 20
4.450000
 30
0.0
  0
VERTEX
  8
NC_Resist-A
 10
9.600000
 20
4.450000
 30
0.0
 42
-0.414214
  0
VERTEX
  8
NC_Resist-A
 10
9.650000
 20
4.400000
 30
0.0
  0
SEQEND
  0
POLYLINE
  8
NC_Resist-A
 66
   1
 10
0.0
 20
0.0
 30
0.0
 70
   1
  0
VERTEX
  8
NC_Resist-A
 10
9.950000
 20
0.900000
 30
0.0
 42
-0.414214
  0
VERTEX
  8
NC_Resist-A
 10
9.900000
 20
0.850000
 30
0.0
  0
VERTEX
  8
NC_Resist-A
 10
9.700000
 20
0.850000
 30
0.0
 42
-0.414214
  0
VERTEX
  8
NC_Resist-A
 10
9.650000
 20
0.900000
 30
0.0
  0
VERTEX
  8
NC_Resist-A
 10
9.650000
 20
1.450000
 30
0.0
 42
-0.414214
  0
VERTEX
  8
NC_Resist-A
 10
9.700000
 20
1.500000
 30
0.0
  0
VERTEX
  8
NC_Resist-A
 10
9.900000
 20
1.500000
 30
0.0
 42
-0.414214
  0
VERTEX
  8
NC_Resist-A
 10
9.950000
 20
1.450000
 30
0.0
  0
SEQEND
  0
POLYLINE
  8
NC_Resist-A
 66
   1
 10
0.0
 20
0.0
 30
0.0
 70
   1
  0
VERTEX
  8
NC_Resist-A
 10
10.250000
 20
3.800000
 30
0.0
 42
-0.414214
  0
VERTEX
  8
NC_Resist-A
 10
10.200000
 20
3.750000
 30
0.0
  0
VERTEX
  8
NC_Resist-A
 10
10.000000
 20
3.750000
 30
0.0
 42
-0.414214
  0
VERTEX
  8
NC_Resist-A
 10
9.950000
 20
3.800000
 30
0.0
  0
VERTEX
  8
NC_Resist-A
 10
9.950000
 20
4.400000
 30
0.0
 42
-0.414214
  0
VERTEX
  8
NC_Resist-A
 10
10.000000
 20
4.450000
 30
0.0
  0
VERTEX
  8
NC_Resist-A
 10
10.200000
 20
4.450000
 30
0.0
 42
-0.414214
  0
VERTEX
  8
NC_Resist-A
 10
10.250000
 20
4.400000
 30
0.0
  0
SEQEND
  0
POLYLINE
  8
NC_Resist-A
 66
   1
 10
0.0
 20
0.0
 30
0.0
 70
   1
  0
VERTEX
  8
NC_Resist-A
 10
10.550000
 20
0.900000
 30
0.0
 42
-0.414214
  0
VERTEX
  8
NC_Resist-A
 10
10.500000
 20
0.850000
 30
0.0
  0
VERTEX
  8
NC_Resist-A
 10
10.300000
 20
0.850000
 30
0.0
 42
-0.414214
  0
VERTEX
  8
NC_Resist-A
 10
10.250000
 20
0.900000
 30
0.0
  0
VERTEX
  8
NC_Resist-A
 10
10.250000
 20
1.450000
 30
0.0
 42
-0.414214
  0
VERTEX
  8
NC_Resist-A
 10
10.300000
 20
1.500000
 30
0.0
  0
VERTEX
  8
NC_Resist-A
 10
10.500000
 20
1.500000
 30
0.0
 42
-0.414214
  0
VERTEX
  8
NC_Resist-A
 10
10.550000
 20
1.450000
 30
0.0
  0
SEQEND
  0
POLYLINE
  8
NC_Resist-A
 66
   1
 10
0.0
 20
0.0
 30
0.0
 70
   1
  0
VERTEX
  8
NC_Resist-A
 10
10.850000
 20
3.800000
 30
0.0
 42
-0.414214
  0
VERTEX
  8
NC_Resist-A
 10
10.800000
 20
3.750000
 30
0.0
  0
VERTEX
  8
NC_Resist-A
 10
10.600000
 20
3.750000
 30
0.0
 42
-0.414214
  0
VERTEX
  8
NC_Resist-A
 10
10.550000
 20
3.800000
 30
0.0
  0
VERTEX
  8
NC_Resist-A
 10
10.550000
 20
4.400000
 30
0.0
 42
-0.414214
  0
VERTEX
  8
NC_Resist-A
 10
10.600000
 20
4.450000
 30
0.0
  0
VERTEX
  8
NC_Resist-A
 10
10.800000
 20
4.450000
 30
0.0
 42
-0.414214
  0
VERTEX
  8
NC_Resist-A
 10
10.850000
 20
4.400000
 30
0.0
  0
SEQEND
  0
POLYLINE
  8
NC_Resist-A
 66
   1
 10
0.0
 20
0.0
 30
0.0
 70
   1
  0
VERTEX
  8
NC_Resist-A
 10
11.150000
 20
0.900000
 30
0.0
 42
-0.414214
  0
VERTEX
  8
NC_Resist-A
 10
11.100000
 20
0.850000
 30
0.0
  0
VERTEX
  8
NC_Resist-A
 10
10.900000
 20
0.850000
 30
0.0
 42
-0.414214
  0
VERTEX
  8
NC_Resist-A
 10
10.850000
 20
0.900000
 30
0.0
  0
VERTEX
  8
NC_Resist-A
 10
10.850000
 20
1.450000
 30
0.0
 42
-0.414214
  0
VERTEX
  8
NC_Resist-A
 10
10.900000
 20
1.500000
 30
0.0
  0
VERTEX
  8
NC_Resist-A
 10
11.100000
 20
1.500000
 30
0.0
 42
-0.414214
  0
VERTEX
  8
NC_Resist-A
 10
11.150000
 20
1.450000
 30
0.0
  0
SEQEND
  0
POLYLINE
  8
NC_Resist-A
 66
   1
 10
0.0
 20
0.0
 30
0.0
 70
   1
  0
VERTEX
  8
NC_Resist-A
 10
11.450000
 20
3.800000
 30
0.0
 42
-0.414214
  0
VERTEX
  8
NC_Resist-A
 10
11.400000
 20
3.750000
 30
0.0
  0
VERTEX
  8
NC_Resist-A
 10
11.200000
 20
3.750000
 30
0.0
 42
-0.414214
  0
VERTEX
  8
NC_Resist-A
 10
11.150000
 20
3.800000
 30
0.0
  0
VERTEX
  8
NC_Resist-A
 10
11.150000
 20
4.400000
 30
0.0
 42
-0.414214
  0
VERTEX
  8
NC_Resist-A
 10
11.200000
 20
4.450000
 30
0.0
  0
VERTEX
  8
NC_Resist-A
 10
11.400000
 20
4.450000
 30
0.0
 42
-0.414214
  0
VERTEX
  8
NC_Resist-A
 10
11.450000
 20
4.400000
 30
0.0
  0
SEQEND
  0
POLYLINE
  8
NC_Resist-A
 66
   1
 10
0.0
 20
0.0
 30
0.0
 70
   1
  0
VERTEX
  8
NC_Resist-A
 10
11.750000
 20
0.900000
 30
0.0
 42
-0.414214
  0
VERTEX
  8
NC_Resist-A
 10
11.700000
 20
0.850000
 30
0.0
  0
VERTEX
  8
NC_Resist-A
 10
11.500000
 20
0.850000
 30
0.0
 42
-0.414214
  0
VERTEX
  8
NC_Resist-A
 10
11.450000
 20
0.900000
 30
0.0
  0
VERTEX
  8
NC_Resist-A
 10
11.450000
 20
1.450000
 30
0.0
 42
-0.414214
  0
VERTEX
  8
NC_Resist-A
 10
11.500000
 20
1.500000
 30
0.0
  0
VERTEX
  8
NC_Resist-A
 10
11.700000
 20
1.500000
 30
0.0
 42
-0.414214
  0
VERTEX
  8
NC_Resist-A
 10
11.750000
 20
1.450000
 30
0.0
  0
SEQEND
  0
POLYLINE
  8
NC_Resist-A
 66
   1
 10
0.0
 20
0.0
 30
0.0
 70
   1
  0
VERTEX
  8
NC_Resist-A
 10
12.050000
 20
3.800000
 30
0.0
 42
-0.414214
  0
VERTEX
  8
NC_Resist-A
 10
12.000000
 20
3.750000
 30
0.0
  0
VERTEX
  8
NC_Resist-A
 10
11.800000
 20
3.750000
 30
0.0
 42
-0.414214
  0
VERTEX
  8
NC_Resist-A
 10
11.750000
 20
3.800000
 30
0.0
  0
VERTEX
  8
NC_Resist-A
 10
11.750000
 20
4.400000
 30
0.0
 42
-0.414214
  0
VERTEX
  8
NC_Resist-A
 10
11.800000
 20
4.450000
 30
0.0
  0
VERTEX
  8
NC_Resist-A
 10
12.000000
 20
4.450000
 30
0.0
 42
-0.414214
  0
VERTEX
  8
NC_Resist-A
 10
12.050000
 20
4.400000
 30
0.0
  0
SEQEND
  0
POLYLINE
  8
NC_Resist-A
 66
   1
 10
0.0
 20
0.0
 30
0.0
 70
   1
  0
VERTEX
  8
NC_Resist-A
 10
12.350000
 20
0.900000
 30
0.0
 42
-0.414214
  0
VERTEX
  8
NC_Resist-A
 10
12.300000
 20
0.850000
 30
0.0
  0
VERTEX
  8
NC_Resist-A
 10
12.100000
 20
0.850000
 30
0.0
 42
-0.414214
  0
VERTEX
  8
NC_Resist-A
 10
12.050000
 20
0.900000
 30
0.0
  0
VERTEX
  8
NC_Resist-A
 10
12.050000
 20
1.450000
 30
0.0
 42
-0.414214
  0
VERTEX
  8
NC_Resist-A
 10
12.100000
 20
1.500000
 30
0.0
  0
VERTEX
  8
NC_Resist-A
 10
12.300000
 20
1.500000
 30
0.0
 42
-0.414214
  0
VERTEX
  8
NC_Resist-A
 10
12.350000
 20
1.450000
 30
0.0
  0
SEQEND
  0
POLYLINE
  8
NC_Resist-A
 66
   1
 10
0.0
 20
0.0
 30
0.0
 70
   1
  0
VERTEX
  8
NC_Resist-A
 10
12.650000
 20
3.800000
 30
0.0
 42
-0.414214
  0
VERTEX
  8
NC_Resist-A
 10
12.600000
 20
3.750000
 30
0.0
  0
VERTEX
  8
NC_Resist-A
 10
12.400000
 20
3.750000
 30
0.0
 42
-0.414214
  0
VERTEX
  8
NC_Resist-A
 10
12.350000
 20
3.800000
 30
0.0
  0
VERTEX
  8
NC_Resist-A
 10
12.350000
 20
4.400000
 30
0.0
 42
-0.414214
  0
VERTEX
  8
NC_Resist-A
 10
12.400000
 20
4.450000
 30
0.0
  0
VERTEX
  8
NC_Resist-A
 10
12.600000
 20
4.450000
 30
0.0
 42
-0.414214
  0
VERTEX
  8
NC_Resist-A
 10
12.650000
 20
4.400000
 30
0.0
  0
SEQEND
  0
POLYLINE
  8
NC_Resist-A
 66
   1
 10
0.0
 20
0.0
 30
0.0
 70
   1
  0
VERTEX
  8
NC_Resist-A
 10
12.950000
 20
0.900000
 30
0.0
 42
-0.414214
  0
VERTEX
  8
NC_Resist-A
 10
12.900000
 20
0.850000
 30
0.0
  0
VERTEX
  8
NC_Resist-A
 10
12.700000
 20
0.850000
 30
0.0
 42
-0.414214
  0
VERTEX
  8
NC_Resist-A
 10
12.650000
 20
0.900000
 30
0.0
  0
VERTEX
  8
NC_Resist-A
 10
12.650000
 20
1.450000
 30
0.0
 42
-0.414214
  0
VERTEX
  8
NC_Resist-A
 10
12.700000
 20
1.500000
 30
0.0
  0
VERTEX
  8
NC_Resist-A
 10
12.900000
 20
1.500000
 30
0.0
 42
-0.414214
  0
VERTEX
  8
NC_Resist-A
 10
12.950000
 20
1.450000
 30
0.0
  0
SEQEND
  0
POLYLINE
  8
NC_Resist-A
 66
   1
 10
0.0
 20
0.0
 30
0.0
 70
   1
  0
VERTEX
  8
NC_Resist-A
 10
13.250000
 20
3.800000
 30
0.0
 42
-0.414214
  0
VERTEX
  8
NC_Resist-A
 10
13.200000
 20
3.750000
 30
0.0
  0
VERTEX
  8
NC_Resist-A
 10
13.000000
 20
3.750000
 30
0.0
 42
-0.414214
  0
VERTEX
  8
NC_Resist-A
 10
12.950000
 20
3.800000
 30
0.0
  0
VERTEX
  8
NC_Resist-A
 10
12.950000
 20
4.400000
 30
0.0
 42
-0.414214
  0
VERTEX
  8
NC_Resist-A
 10
13.000000
 20
4.450000
 30
0.0
  0
VERTEX
  8
NC_Resist-A
 10
13.200000
 20
4.450000
 30
0.0
 42
-0.414214
  0
VERTEX
  8
NC_Resist-A
 10
13.250000
 20
4.400000
 30
0.0
  0
SEQEND
  0
POLYLINE
  8
NC_Resist-A
 66
   1
 10
0.0
 20
0.0
 30
0.0
 70
   1
  0
VERTEX
  8
NC_Resist-A
 10
13.550000
 20
0.900000
 30
0.0
 42
-0.414214
  0
VERTEX
  8
NC_Resist-A
 10
13.500000
 20
0.850000
 30
0.0
  0
VERTEX
  8
NC_Resist-A
 10
13.300000
 20
0.850000
 30
0.0
 42
-0.414214
  0
VERTEX
  8
NC_Resist-A
 10
13.250000
 20
0.900000
 30
0.0
  0
VERTEX
  8
NC_Resist-A
 10
13.250000
 20
1.450000
 30
0.0
 42
-0.414214
  0
VERTEX
  8
NC_Resist-A
 10
13.300000
 20
1.500000
 30
0.0
  0
VERTEX
  8
NC_Resist-A
 10
13.500000
 20
1.500000
 30
0.0
 42
-0.414214
  0
VERTEX
  8
NC_Resist-A
 10
13.550000
 20
1.450000
 30
0.0
  0
SEQEND
  0
POLYLINE
  8
NC_Resist-A
 66
   1
 10
0.0
 20
0.0
 30
0.0
 70
   1
  0
VERTEX
  8
NC_Resist-A
 10
13.850000
 20
3.800000
 30
0.0
 42
-0.414214
  0
VERTEX
  8
NC_Resist-A
 10
13.800000
 20
3.750000
 30
0.0
  0
VERTEX
  8
NC_Resist-A
 10
13.600000
 20
3.750000
 30
0.0
 42
-0.414214
  0
VERTEX
  8
NC_Resist-A
 10
13.550000
 20
3.800000
 30
0.0
  0
VERTEX
  8
NC_Resist-A
 10
13.550000
 20
4.400000
 30
0.0
 42
-0.414214
  0
VERTEX
  8
NC_Resist-A
 10
13.600000
 20
4.450000
 30
0.0
  0
VERTEX
  8
NC_Resist-A
 10
13.800000
 20
4.450000
 30
0.0
 42
-0.414214
  0
VERTEX
  8
NC_Resist-A
 10
13.850000
 20
4.400000
 30
0.0
  0
SEQEND
  0
POLYLINE
  8
NC_Resist-A
 66
   1
 10
0.0
 20
0.0
 30
0.0
 70
   1
  0
VERTEX
  8
NC_Resist-A
 10
14.150000
 20
0.900000
 30
0.0
 42
-0.414214
  0
VERTEX
  8
NC_Resist-A
 10
14.100000
 20
0.850000
 30
0.0
  0
VERTEX
  8
NC_Resist-A
 10
13.900000
 20
0.850000
 30
0.0
 42
-0.414214
  0
VERTEX
  8
NC_Resist-A
 10
13.850000
 20
0.900000
 30
0.0
  0
VERTEX
  8
NC_Resist-A
 10
13.850000
 20
1.450000
 30
0.0
 42
-0.414214
  0
VERTEX
  8
NC_Resist-A
 10
13.900000
 20
1.500000
 30
0.0
  0
VERTEX
  8
NC_Resist-A
 10
14.100000
 20
1.500000
 30
0.0
 42
-0.414214
  0
VERTEX
  8
NC_Resist-A
 10
14.150000
 20
1.450000
 30
0.0
  0
SEQEND
  0
POLYLINE
  8
NC_Resist-A
 66
   1
 10
0.0
 20
0.0
 30
0.0
 70
   1
  0
VERTEX
  8
NC_Resist-A
 10
14.450000
 20
3.800000
 30
0.0
 42
-0.414214
  0
VERTEX
  8
NC_Resist-A
 10
14.400000
 20
3.750000
 30
0.0
  0
VERTEX
  8
NC_Resist-A
 10
14.200000
 20
3.750000
 30
0.0
 42
-0.414214
  0
VERTEX
  8
NC_Resist-A
 10
14.150000
 20
3.800000
 30
0.0
  0
VERTEX
  8
NC_Resist-A
 10
14.150000
 20
4.400000
 30
0.0
 42
-0.414214
  0
VERTEX
  8
NC_Resist-A
 10
14.200000
 20
4.450000
 30
0.0
  0
VERTEX
  8
NC_Resist-A
 10
14.400000
 20
4.450000
 30
0.0
 42
-0.414214
  0
VERTEX
  8
NC_Resist-A
 10
14.450000
 20
4.400000
 30
0.0
  0
SEQEND
  0
POLYLINE
  8
NC_Resist-A
 66
   1
 10
0.0
 20
0.0
 30
0.0
 70
   1
  0
VERTEX
  8
NC_Resist-A
 10
14.750000
 20
0.900000
 30
0.0
 42
-0.414214
  0
VERTEX
  8
NC_Resist-A
 10
14.700000
 20
0.850000
 30
0.0
  0
VERTEX
  8
NC_Resist-A
 10
14.500000
 20
0.850000
 30
0.0
 42
-0.414214
  0
VERTEX
  8
NC_Resist-A
 10
14.450000
 20
0.900000
 30
0.0
  0
VERTEX
  8
NC_Resist-A
 10
14.450000
 20
1.450000
 30
0.0
 42
-0.414214
  0
VERTEX
  8
NC_Resist-A
 10
14.500000
 20
1.500000
 30
0.0
  0
VERTEX
  8
NC_Resist-A
 10
14.700000
 20
1.500000
 30
0.0
 42
-0.414214
  0
VERTEX
  8
NC_Resist-A
 10
14.750000
 20
1.450000
 30
0.0
  0
SEQEND
  0
POLYLINE
  8
NC_Resist-A
 66
   1
 10
0.0
 20
0.0
 30
0.0
 70
   1
  0
VERTEX
  8
NC_Resist-A
 10
15.050000
 20
3.800000
 30
0.0
 42
-0.414214
  0
VERTEX
  8
NC_Resist-A
 10
15.000000
 20
3.750000
 30
0.0
  0
VERTEX
  8
NC_Resist-A
 10
14.800000
 20
3.750000
 30
0.0
 42
-0.414214
  0
VERTEX
  8
NC_Resist-A
 10
14.750000
 20
3.800000
 30
0.0
  0
VERTEX
  8
NC_Resist-A
 10
14.750000
 20
4.400000
 30
0.0
 42
-0.414214
  0
VERTEX
  8
NC_Resist-A
 10
14.800000
 20
4.450000
 30
0.0
  0
VERTEX
  8
NC_Resist-A
 10
15.000000
 20
4.450000
 30
0.0
 42
-0.414214
  0
VERTEX
  8
NC_Resist-A
 10
15.050000
 20
4.400000
 30
0.0
  0
SEQEND
  0
POLYLINE
  8
NC_Resist-A
 66
   1
 10
0.0
 20
0.0
 30
0.0
 70
   1
  0
VERTEX
  8
NC_Resist-A
 10
15.350000
 20
0.900000
 30
0.0
 42
-0.414214
  0
VERTEX
  8
NC_Resist-A
 10
15.300000
 20
0.850000
 30
0.0
  0
VERTEX
  8
NC_Resist-A
 10
15.100000
 20
0.850000
 30
0.0
 42
-0.414214
  0
VERTEX
  8
NC_Resist-A
 10
15.050000
 20
0.900000
 30
0.0
  0
VERTEX
  8
NC_Resist-A
 10
15.050000
 20
1.450000
 30
0.0
 42
-0.414214
  0
VERTEX
  8
NC_Resist-A
 10
15.100000
 20
1.500000
 30
0.0
  0
VERTEX
  8
NC_Resist-A
 10
15.300000
 20
1.500000
 30
0.0
 42
-0.414214
  0
VERTEX
  8
NC_Resist-A
 10
15.350000
 20
1.450000
 30
0.0
  0
SEQEND
  0
POLYLINE
  8
NC_Resist-A
 66
   1
 10
0.0
 20
0.0
 30
0.0
 70
   1
  0
VERTEX
  8
NC_Resist-A
 10
15.650000
 20
3.800000
 30
0.0
 42
-0.414214
  0
VERTEX
  8
NC_Resist-A
 10
15.600000
 20
3.750000
 30
0.0
  0
VERTEX
  8
NC_Resist-A
 10
15.400000
 20
3.750000
 30
0.0
 42
-0.414214
  0
VERTEX
  8
NC_Resist-A
 10
15.350000
 20
3.800000
 30
0.0
  0
VERTEX
  8
NC_Resist-A
 10
15.350000
 20
4.400000
 30
0.0
 42
-0.414214
  0
VERTEX
  8
NC_Resist-A
 10
15.400000
 20
4.450000
 30
0.0
  0
VERTEX
  8
NC_Resist-A
 10
15.600000
 20
4.450000
 30
0.0
 42
-0.414214
  0
VERTEX
  8
NC_Resist-A
 10
15.650000
 20
4.400000
 30
0.0
  0
SEQEND
  0
POLYLINE
  8
NC_Resist-A
 66
   1
 10
0.0
 20
0.0
 30
0.0
 70
   1
  0
VERTEX
  8
NC_Resist-A
 10
15.950000
 20
0.900000
 30
0.0
 42
-0.414214
  0
VERTEX
  8
NC_Resist-A
 10
15.900000
 20
0.850000
 30
0.0
  0
VERTEX
  8
NC_Resist-A
 10
15.700000
 20
0.850000
 30
0.0
 42
-0.414214
  0
VERTEX
  8
NC_Resist-A
 10
15.650000
 20
0.900000
 30
0.0
  0
VERTEX
  8
NC_Resist-A
 10
15.650000
 20
1.450000
 30
0.0
 42
-0.414214
  0
VERTEX
  8
NC_Resist-A
 10
15.700000
 20
1.500000
 30
0.0
  0
VERTEX
  8
NC_Resist-A
 10
15.900000
 20
1.500000
 30
0.0
 42
-0.414214
  0
VERTEX
  8
NC_Resist-A
 10
15.950000
 20
1.450000
 30
0.0
  0
SEQEND
  0
POLYLINE
  8
NC_Resist-A
 66
   1
 10
0.0
 20
0.0
 30
0.0
 70
   1
  0
VERTEX
  8
NC_Resist-A
 10
16.250000
 20
3.800000
 30
0.0
 42
-0.414214
  0
VERTEX
  8
NC_Resist-A
 10
16.200000
 20
3.750000
 30
0.0
  0
VERTEX
  8
NC_Resist-A
 10
16.000000
 20
3.750000
 30
0.0
 42
-0.414214
  0
VERTEX
  8
NC_Resist-A
 10
15.950000
 20
3.800000
 30
0.0
  0
VERTEX
  8
NC_Resist-A
 10
15.950000
 20
4.400000
 30
0.0
 42
-0.414214
  0
VERTEX
  8
NC_Resist-A
 10
16.000000
 20
4.450000
 30
0.0
  0
VERTEX
  8
NC_Resist-A
 10
16.200000
 20
4.450000
 30
0.0
 42
-0.414214
  0
VERTEX
  8
NC_Resist-A
 10
16.250000
 20
4.400000
 30
0.0
  0
SEQEND
  0
POLYLINE
  8
NC_Resist-A
 66
   1
 10
0.0
 20
0.0
 30
0.0
 70
   1
  0
VERTEX
  8
NC_Resist-A
 10
8.460000
 20
3.400000
 30
0.0
 42
-0.414214
  0
VERTEX
  8
NC_Resist-A
 10
8.410000
 20
3.350000
 30
0.0
  0
VERTEX
  8
NC_Resist-A
 10
8.010000
 20
3.350000
 30
0.0
 42
-0.414214
  0
VERTEX
  8
NC_Resist-A
 10
7.960000
 20
3.400000
 30
0.0
  0
VERTEX
  8
NC_Resist-A
 10
7.960000
 20
4.100000
 30
0.0
 42
-0.414214
  0
VERTEX
  8
NC_Resist-A
 10
8.010000
 20
4.150000
 30
0.0
  0
VERTEX
  8
NC_Resist-A
 10
8.410000
 20
4.150000
 30
0.0
 42
-0.414214
  0
VERTEX
  8
NC_Resist-A
 10
8.460000
 20
4.100000
 30
0.0
  0
SEQEND
  0
POLYLINE
  8
NC_Resist-A
 66
   1
 10
0.0
 20
0.0
 30
0.0
 70
   1
  0
VERTEX
  8
NC_Resist-A
 10
17.040000
 20
3.400000
 30
0.0
 42
-0.414214
  0
VERTEX
  8
NC_Resist-A
 10
16.990000
 20
3.350000
 30
0.0
  0
VERTEX
  8
NC_Resist-A
 10
16.590000
 20
3.350000
 30
0.0
 42
-0.414214
  0
VERTEX
  8
NC_Resist-A
 10
16.540000
 20
3.400000
 30
0.0
  0
VERTEX
  8
NC_Resist-A
 10
16.540000
 20
4.100000
 30
0.0
 42
-0.414214
  0
VERTEX
  8
NC_Resist-A
 10
16.590000
 20
4.150000
 30
0.0
  0
VERTEX
  8
NC_Resist-A
 10
16.990000
 20
4.150000
 30
0.0
 42
-0.414214
  0
VERTEX
  8
NC_Resist-A
 10
17.040000
 20
4.100000
 30
0.0
  0
SEQEND
  0
POLYLINE
  8
NC_Resist-A
 66
   1
 10
0.0
 20
0.0
 30
0.0
 70
   1
  0
VERTEX
  8
NC_Resist-A
 10
16.800000
 20
15.900000
 30
0.0
 42
1.000000
  0
VERTEX
  8
NC_Resist-A
 10
17.800000
 20
15.900000
 30
0.0
 42
1.000000
  0
VERTEX
  8
NC_Resist-A
 10
16.800000
 20
15.900000
 30
0.0
  0
SEQEND
  0
POLYLINE
  8
NC_Resist-A
 66
   1
 10
0.0
 20
0.0
 30
0.0
 70
   1
  0
VERTEX
  8
NC_Resist-A
 10
4.250000
 20
16.500000
 30
0.0
 42
1.000000
  0
VERTEX
  8
NC_Resist-A
 10
5.250000
 20
16.500000
 30
0.0
 42
1.000000
  0
VERTEX
  8
NC_Resist-A
 10
4.250000
 20
16.500000
 30
0.0
  0
SEQEND
  0
POLYLINE
  8
NC_Resist-A
 66
   1
 10
0.0
 20
0.0
 30
0.0
 70
   1
  0
VERTEX
  8
NC_Resist-A
 10
8.350000
 20
19.500000
 30
0.0
 42
1.000000
  0
VERTEX
  8
NC_Resist-A
 10
9.350000
 20
19.500000
 30
0.0
 42
1.000000
  0
VERTEX
  8
NC_Resist-A
 10
8.350000
 20
19.500000
 30
0.0
  0
SEQEND
  0
POLYLINE
  8
HOLE_1_2
 66
   1
 10
0.0
 20
0.0
 30
0.0
 70
   1
  0
VERTEX
  8
HOLE_1_2
 10
23.125000
 20
17.750000
 30
0.0
 42
1.000000
  0
VERTEX
  8
HOLE_1_2
 10
22.875000
 20
17.750000
 30
0.0
 42
1.000000
  0
VERTEX
  8
HOLE_1_2
 10
23.125000
 20
17.750000
 30
0.0
  0
SEQEND
  0
POLYLINE
  8
NC_Resist-A
 66
   1
 10
0.0
 20
0.0
 30
0.0
 70
   1
  0
VERTEX
  8
NC_Resist-A
 10
23.225000
 20
17.750000
 30
0.0
 42
1.000000
  0
VERTEX
  8
NC_Resist-A
 10
22.775000
 20
17.750000
 30
0.0
 42
1.000000
  0
VERTEX
  8
NC_Resist-A
 10
23.225000
 20
17.750000
 30
0.0
  0
SEQEND
  0
POLYLINE
  8
HOLE_1_2
 66
   1
 10
0.0
 20
0.0
 30
0.0
 70
   1
  0
VERTEX
  8
HOLE_1_2
 10
3.875000
 20
17.500000
 30
0.0
 42
1.000000
  0
VERTEX
  8
HOLE_1_2
 10
3.625000
 20
17.500000
 30
0.0
 42
1.000000
  0
VERTEX
  8
HOLE_1_2
 10
3.875000
 20
17.500000
 30
0.0
  0
SEQEND
  0
POLYLINE
  8
NC_Resist-A
 66
   1
 10
0.0
 20
0.0
 30
0.0
 70
   1
  0
VERTEX
  8
NC_Resist-A
 10
3.975000
 20
17.500000
 30
0.0
 42
1.000000
  0
VERTEX
  8
NC_Resist-A
 10
3.525000
 20
17.500000
 30
0.0
 42
1.000000
  0
VERTEX
  8
NC_Resist-A
 10
3.975000
 20
17.500000
 30
0.0
  0
SEQEND
  0
POLYLINE
  8
HOLE_1_2
 66
   1
 10
0.0
 20
0.0
 30
0.0
 70
   1
  0
VERTEX
  8
HOLE_1_2
 10
2.125000
 20
17.500000
 30
0.0
 42
1.000000
  0
VERTEX
  8
HOLE_1_2
 10
1.875000
 20
17.500000
 30
0.0
 42
1.000000
  0
VERTEX
  8
HOLE_1_2
 10
2.125000
 20
17.500000
 30
0.0
  0
SEQEND
  0
POLYLINE
  8
NC_Resist-A
 66
   1
 10
0.0
 20
0.0
 30
0.0
 70
   1
  0
VERTEX
  8
NC_Resist-A
 10
2.225000
 20
17.500000
 30
0.0
 42
1.000000
  0
VERTEX
  8
NC_Resist-A
 10
1.775000
 20
17.500000
 30
0.0
 42
1.000000
  0
VERTEX
  8
NC_Resist-A
 10
2.225000
 20
17.500000
 30
0.0
  0
SEQEND
  0
POLYLINE
  8
HOLE_1_2
 66
   1
 10
0.0
 20
0.0
 30
0.0
 70
   1
  0
VERTEX
  8
HOLE_1_2
 10
10.425000
 20
16.900000
 30
0.0
 42
1.000000
  0
VERTEX
  8
HOLE_1_2
 10
10.175000
 20
16.900000
 30
0.0
 42
1.000000
  0
VERTEX
  8
HOLE_1_2
 10
10.425000
 20
16.900000
 30
0.0
  0
SEQEND
  0
POLYLINE
  8
NC_Resist-A
 66
   1
 10
0.0
 20
0.0
 30
0.0
 70
   1
  0
VERTEX
  8
NC_Resist-A
 10
10.525000
 20
16.900000
 30
0.0
 42
1.000000
  0
VERTEX
  8
NC_Resist-A
 10
10.075000
 20
16.900000
 30
0.0
 42
1.000000
  0
VERTEX
  8
NC_Resist-A
 10
10.525000
 20
16.900000
 30
0.0
  0
SEQEND
  0
POLYLINE
  8
HOLE_1_2
 66
   1
 10
0.0
 20
0.0
 30
0.0
 70
   1
  0
VERTEX
  8
HOLE_1_2
 10
11.375000
 20
15.550000
 30
0.0
 42
1.000000
  0
VERTEX
  8
HOLE_1_2
 10
11.125000
 20
15.550000
 30
0.0
 42
1.000000
  0
VERTEX
  8
HOLE_1_2
 10
11.375000
 20
15.550000
 30
0.0
  0
SEQEND
  0
POLYLINE
  8
NC_Resist-A
 66
   1
 10
0.0
 20
0.0
 30
0.0
 70
   1
  0
VERTEX
  8
NC_Resist-A
 10
11.475000
 20
15.550000
 30
0.0
 42
1.000000
  0
VERTEX
  8
NC_Resist-A
 10
11.025000
 20
15.550000
 30
0.0
 42
1.000000
  0
VERTEX
  8
NC_Resist-A
 10
11.475000
 20
15.550000
 30
0.0
  0
SEQEND
  0
POLYLINE
  8
HOLE_1_2
 66
   1
 10
0.0
 20
0.0
 30
0.0
 70
   1
  0
VERTEX
  8
HOLE_1_2
 10
9.875000
 20
15.550000
 30
0.0
 42
1.000000
  0
VERTEX
  8
HOLE_1_2
 10
9.625000
 20
15.550000
 30
0.0
 42
1.000000
  0
VERTEX
  8
HOLE_1_2
 10
9.875000
 20
15.550000
 30
0.0
  0
SEQEND
  0
POLYLINE
  8
NC_Resist-A
 66
   1
 10
0.0
 20
0.0
 30
0.0
 70
   1
  0
VERTEX
  8
NC_Resist-A
 10
9.975000
 20
15.550000
 30
0.0
 42
1.000000
  0
VERTEX
  8
NC_Resist-A
 10
9.525000
 20
15.550000
 30
0.0
 42
1.000000
  0
VERTEX
  8
NC_Resist-A
 10
9.975000
 20
15.550000
 30
0.0
  0
SEQEND
  0
POLYLINE
  8
HOLE_1_2
 66
   1
 10
0.0
 20
0.0
 30
0.0
 70
   1
  0
VERTEX
  8
HOLE_1_2
 10
8.375000
 20
15.550000
 30
0.0
 42
1.000000
  0
VERTEX
  8
HOLE_1_2
 10
8.125000
 20
15.550000
 30
0.0
 42
1.000000
  0
VERTEX
  8
HOLE_1_2
 10
8.375000
 20
15.550000
 30
0.0
  0
SEQEND
  0
POLYLINE
  8
NC_Resist-A
 66
   1
 10
0.0
 20
0.0
 30
0.0
 70
   1
  0
VERTEX
  8
NC_Resist-A
 10
8.475000
 20
15.550000
 30
0.0
 42
1.000000
  0
VERTEX
  8
NC_Resist-A
 10
8.025000
 20
15.550000
 30
0.0
 42
1.000000
  0
VERTEX
  8
NC_Resist-A
 10
8.475000
 20
15.550000
 30
0.0
  0
SEQEND
  0
POLYLINE
  8
HOLE_1_2
 66
   1
 10
0.0
 20
0.0
 30
0.0
 70
   1
  0
VERTEX
  8
HOLE_1_2
 10
10.625000
 20
14.800000
 30
0.0
 42
1.000000
  0
VERTEX
  8
HOLE_1_2
 10
10.375000
 20
14.800000
 30
0.0
 42
1.000000
  0
VERTEX
  8
HOLE_1_2
 10
10.625000
 20
14.800000
 30
0.0
  0
SEQEND
  0
POLYLINE
  8
NC_Resist-A
 66
   1
 10
0.0
 20
0.0
 30
0.0
 70
   1
  0
VERTEX
  8
NC_Resist-A
 10
10.725000
 20
14.800000
 30
0.0
 42
1.000000
  0
VERTEX
  8
NC_Resist-A
 10
10.275000
 20
14.800000
 30
0.0
 42
1.000000
  0
VERTEX
  8
NC_Resist-A
 10
10.725000
 20
14.800000
 30
0.0
  0
SEQEND
  0
POLYLINE
  8
HOLE_1_2
 66
   1
 10
0.0
 20
0.0
 30
0.0
 70
   1
  0
VERTEX
  8
HOLE_1_2
 10
7.125000
 20
14.800000
 30
0.0
 42
1.000000
  0
VERTEX
  8
HOLE_1_2
 10
6.875000
 20
14.800000
 30
0.0
 42
1.000000
  0
VERTEX
  8
HOLE_1_2
 10
7.125000
 20
14.800000
 30
0.0
  0
SEQEND
  0
POLYLINE
  8
NC_Resist-A
 66
   1
 10
0.0
 20
0.0
 30
0.0
 70
   1
  0
VERTEX
  8
NC_Resist-A
 10
7.225000
 20
14.800000
 30
0.0
 42
1.000000
  0
VERTEX
  8
NC_Resist-A
 10
6.775000
 20
14.800000
 30
0.0
 42
1.000000
  0
VERTEX
  8
NC_Resist-A
 10
7.225000
 20
14.800000
 30
0.0
  0
SEQEND
  0
POLYLINE
  8
HOLE_1_2
 66
   1
 10
0.0
 20
0.0
 30
0.0
 70
   1
  0
VERTEX
  8
HOLE_1_2
 10
8.975000
 20
11.750000
 30
0.0
 42
1.000000
  0
VERTEX
  8
HOLE_1_2
 10
8.725000
 20
11.750000
 30
0.0
 42
1.000000
  0
VERTEX
  8
HOLE_1_2
 10
8.975000
 20
11.750000
 30
0.0
  0
SEQEND
  0
POLYLINE
  8
NC_Resist-A
 66
   1
 10
0.0
 20
0.0
 30
0.0
 70
   1
  0
VERTEX
  8
NC_Resist-A
 10
9.075000
 20
11.750000
 30
0.0
 42
1.000000
  0
VERTEX
  8
NC_Resist-A
 10
8.625000
 20
11.750000
 30
0.0
 42
1.000000
  0
VERTEX
  8
NC_Resist-A
 10
9.075000
 20
11.750000
 30
0.0
  0
SEQEND
  0
POLYLINE
  8
HOLE_1_2
 66
   1
 10
0.0
 20
0.0
 30
0.0
 70
   1
  0
VERTEX
  8
HOLE_1_2
 10
23.125000
 20
11.500000
 30
0.0
 42
1.000000
  0
VERTEX
  8
HOLE_1_2
 10
22.875000
 20
11.500000
 30
0.0
 42
1.000000
  0
VERTEX
  8
HOLE_1_2
 10
23.125000
 20
11.500000
 30
0.0
  0
SEQEND
  0
POLYLINE
  8
NC_Resist-A
 66
   1
 10
0.0
 20
0.0
 30
0.0
 70
   1
  0
VERTEX
  8
NC_Resist-A
 10
23.225000
 20
11.500000
 30
0.0
 42
1.000000
  0
VERTEX
  8
NC_Resist-A
 10
22.775000
 20
11.500000
 30
0.0
 42
1.000000
  0
VERTEX
  8
NC_Resist-A
 10
23.225000
 20
11.500000
 30
0.0
  0
SEQEND
  0
POLYLINE
  8
HOLE_1_2
 66
   1
 10
0.0
 20
0.0
 30
0.0
 70
   1
  0
VERTEX
  8
HOLE_1_2
 10
8.025000
 20
11.200000
 30
0.0
 42
1.000000
  0
VERTEX
  8
HOLE_1_2
 10
7.775000
 20
11.200000
 30
0.0
 42
1.000000
  0
VERTEX
  8
HOLE_1_2
 10
8.025000
 20
11.200000
 30
0.0
  0
SEQEND
  0
POLYLINE
  8
NC_Resist-A
 66
   1
 10
0.0
 20
0.0
 30
0.0
 70
   1
  0
VERTEX
  8
NC_Resist-A
 10
8.125000
 20
11.200000
 30
0.0
 42
1.000000
  0
VERTEX
  8
NC_Resist-A
 10
7.675000
 20
11.200000
 30
0.0
 42
1.000000
  0
VERTEX
  8
NC_Resist-A
 10
8.125000
 20
11.200000
 30
0.0
  0
SEQEND
  0
POLYLINE
  8
HOLE_1_2
 66
   1
 10
0.0
 20
0.0
 30
0.0
 70
   1
  0
VERTEX
  8
HOLE_1_2
 10
7.975000
 20
9.700000
 30
0.0
 42
1.000000
  0
VERTEX
  8
HOLE_1_2
 10
7.725000
 20
9.700000
 30
0.0
 42
1.000000
  0
VERTEX
  8
HOLE_1_2
 10
7.975000
 20
9.700000
 30
0.0
  0
SEQEND
  0
POLYLINE
  8
NC_Resist-A
 66
   1
 10
0.0
 20
0.0
 30
0.0
 70
   1
  0
VERTEX
  8
NC_Resist-A
 10
8.075000
 20
9.700000
 30
0.0
 42
1.000000
  0
VERTEX
  8
NC_Resist-A
 10
7.625000
 20
9.700000
 30
0.0
 42
1.000000
  0
VERTEX
  8
NC_Resist-A
 10
8.075000
 20
9.700000
 30
0.0
  0
SEQEND
  0
POLYLINE
  8
HOLE_1_2
 66
   1
 10
0.0
 20
0.0
 30
0.0
 70
   1
  0
VERTEX
  8
HOLE_1_2
 10
20.125000
 20
1.750000
 30
0.0
 42
1.000000
  0
VERTEX
  8
HOLE_1_2
 10
19.875000
 20
1.750000
 30
0.0
 42
1.000000
  0
VERTEX
  8
HOLE_1_2
 10
20.125000
 20
1.750000
 30
0.0
  0
SEQEND
  0
POLYLINE
  8
NC_Resist-A
 66
   1
 10
0.0
 20
0.0
 30
0.0
 70
   1
  0
VERTEX
  8
NC_Resist-A
 10
20.225000
 20
1.750000
 30
0.0
 42
1.000000
  0
VERTEX
  8
NC_Resist-A
 10
19.775000
 20
1.750000
 30
0.0
 42
1.000000
  0
VERTEX
  8
NC_Resist-A
 10
20.225000
 20
1.750000
 30
0.0
  0
SEQEND
  0
POLYLINE
  8
HOLE_1_2
 66
   1
 10
0.0
 20
0.0
 30
0.0
 70
   1
  0
VERTEX
  8
HOLE_1_2
 10
10.925000
 20
10.850000
 30
0.0
 42
1.000000
  0
VERTEX
  8
HOLE_1_2
 10
10.675000
 20
10.850000
 30
0.0
 42
1.000000
  0
VERTEX
  8
HOLE_1_2
 10
10.925000
 20
10.850000
 30
0.0
  0
SEQEND
  0
POLYLINE
  8
NC_Resist-A
 66
   1
 10
0.0
 20
0.0
 30
0.0
 70
   1
  0
VERTEX
  8
NC_Resist-A
 10
11.025000
 20
10.850000
 30
0.0
 42
1.000000
  0
VERTEX
  8
NC_Resist-A
 10
10.575000
 20
10.850000
 30
0.0
 42
1.000000
  0
VERTEX
  8
NC_Resist-A
 10
11.025000
 20
10.850000
 30
0.0
  0
SEQEND
  0
POLYLINE
  8
HOLE_1_2
 66
   1
 10
0.0
 20
0.0
 30
0.0
 70
   1
  0
VERTEX
  8
HOLE_1_2
 10
11.925000
 20
10.850000
 30
0.0
 42
1.000000
  0
VERTEX
  8
HOLE_1_2
 10
11.675000
 20
10.850000
 30
0.0
 42
1.000000
  0
VERTEX
  8
HOLE_1_2
 10
11.925000
 20
10.850000
 30
0.0
  0
SEQEND
  0
POLYLINE
  8
NC_Resist-A
 66
   1
 10
0.0
 20
0.0
 30
0.0
 70
   1
  0
VERTEX
  8
NC_Resist-A
 10
12.025000
 20
10.850000
 30
0.0
 42
1.000000
  0
VERTEX
  8
NC_Resist-A
 10
11.575000
 20
10.850000
 30
0.0
 42
1.000000
  0
VERTEX
  8
NC_Resist-A
 10
12.025000
 20
10.850000
 30
0.0
  0
SEQEND
  0
POLYLINE
  8
HOLE_1_2
 66
   1
 10
0.0
 20
0.0
 30
0.0
 70
   1
  0
VERTEX
  8
HOLE_1_2
 10
12.025000
 20
4.950000
 30
0.0
 42
1.000000
  0
VERTEX
  8
HOLE_1_2
 10
11.775000
 20
4.950000
 30
0.0
 42
1.000000
  0
VERTEX
  8
HOLE_1_2
 10
12.025000
 20
4.950000
 30
0.0
  0
SEQEND
  0
POLYLINE
  8
NC_Resist-A
 66
   1
 10
0.0
 20
0.0
 30
0.0
 70
   1
  0
VERTEX
  8
NC_Resist-A
 10
12.125000
 20
4.950000
 30
0.0
 42
1.000000
  0
VERTEX
  8
NC_Resist-A
 10
11.675000
 20
4.950000
 30
0.0
 42
1.000000
  0
VERTEX
  8
NC_Resist-A
 10
12.125000
 20
4.950000
 30
0.0
  0
SEQEND
  0
POLYLINE
  8
HOLE_1_2
 66
   1
 10
0.0
 20
0.0
 30
0.0
 70
   1
  0
VERTEX
  8
HOLE_1_2
 10
11.725000
 20
2.950000
 30
0.0
 42
1.000000
  0
VERTEX
  8
HOLE_1_2
 10
11.475000
 20
2.950000
 30
0.0
 42
1.000000
  0
VERTEX
  8
HOLE_1_2
 10
11.725000
 20
2.950000
 30
0.0
  0
SEQEND
  0
POLYLINE
  8
NC_Resist-A
 66
   1
 10
0.0
 20
0.0
 30
0.0
 70
   1
  0
VERTEX
  8
NC_Resist-A
 10
11.825000
 20
2.950000
 30
0.0
 42
1.000000
  0
VERTEX
  8
NC_Resist-A
 10
11.375000
 20
2.950000
 30
0.0
 42
1.000000
  0
VERTEX
  8
NC_Resist-A
 10
11.825000
 20
2.950000
 30
0.0
  0
SEQEND
  0
POLYLINE
  8
HOLE_1_2
 66
   1
 10
0.0
 20
0.0
 30
0.0
 70
   1
  0
VERTEX
  8
HOLE_1_2
 10
11.725000
 20
2.000000
 30
0.0
 42
1.000000
  0
VERTEX
  8
HOLE_1_2
 10
11.475000
 20
2.000000
 30
0.0
 42
1.000000
  0
VERTEX
  8
HOLE_1_2
 10
11.725000
 20
2.000000
 30
0.0
  0
SEQEND
  0
POLYLINE
  8
NC_Resist-A
 66
   1
 10
0.0
 20
0.0
 30
0.0
 70
   1
  0
VERTEX
  8
NC_Resist-A
 10
11.825000
 20
2.000000
 30
0.0
 42
1.000000
  0
VERTEX
  8
NC_Resist-A
 10
11.375000
 20
2.000000
 30
0.0
 42
1.000000
  0
VERTEX
  8
NC_Resist-A
 10
11.825000
 20
2.000000
 30
0.0
  0
SEQEND
  0
POLYLINE
  8
HOLE_1_2
 66
   1
 10
0.0
 20
0.0
 30
0.0
 70
   1
  0
VERTEX
  8
HOLE_1_2
 10
9.025000
 20
4.950000
 30
0.0
 42
1.000000
  0
VERTEX
  8
HOLE_1_2
 10
8.775000
 20
4.950000
 30
0.0
 42
1.000000
  0
VERTEX
  8
HOLE_1_2
 10
9.025000
 20
4.950000
 30
0.0
  0
SEQEND
  0
POLYLINE
  8
NC_Resist-A
 66
   1
 10
0.0
 20
0.0
 30
0.0
 70
   1
  0
VERTEX
  8
NC_Resist-A
 10
9.125000
 20
4.950000
 30
0.0
 42
1.000000
  0
VERTEX
  8
NC_Resist-A
 10
8.675000
 20
4.950000
 30
0.0
 42
1.000000
  0
VERTEX
  8
NC_Resist-A
 10
9.125000
 20
4.950000
 30
0.0
  0
SEQEND
  0
POLYLINE
  8
HOLE_1_2
 66
   1
 10
0.0
 20
0.0
 30
0.0
 70
   1
  0
VERTEX
  8
HOLE_1_2
 10
9.925000
 20
2.950000
 30
0.0
 42
1.000000
  0
VERTEX
  8
HOLE_1_2
 10
9.675000
 20
2.950000
 30
0.0
 42
1.000000
  0
VERTEX
  8
HOLE_1_2
 10
9.925000
 20
2.950000
 30
0.0
  0
SEQEND
  0
POLYLINE
  8
NC_Resist-A
 66
   1
 10
0.0
 20
0.0
 30
0.0
 70
   1
  0
VERTEX
  8
NC_Resist-A
 10
10.025000
 20
2.950000
 30
0.0
 42
1.000000
  0
VERTEX
  8
NC_Resist-A
 10
9.575000
 20
2.950000
 30
0.0
 42
1.000000
  0
VERTEX
  8
NC_Resist-A
 10
10.025000
 20
2.950000
 30
0.0
  0
SEQEND
  0
POLYLINE
  8
HOLE_1_2
 66
   1
 10
0.0
 20
0.0
 30
0.0
 70
   1
  0
VERTEX
  8
HOLE_1_2
 10
9.925000
 20
2.000000
 30
0.0
 42
1.000000
  0
VERTEX
  8
HOLE_1_2
 10
9.675000
 20
2.000000
 30
0.0
 42
1.000000
  0
VERTEX
  8
HOLE_1_2
 10
9.925000
 20
2.000000
 30
0.0
  0
SEQEND
  0
POLYLINE
  8
NC_Resist-A
 66
   1
 10
0.0
 20
0.0
 30
0.0
 70
   1
  0
VERTEX
  8
NC_Resist-A
 10
10.025000
 20
2.000000
 30
0.0
 42
1.000000
  0
VERTEX
  8
NC_Resist-A
 10
9.575000
 20
2.000000
 30
0.0
 42
1.000000
  0
VERTEX
  8
NC_Resist-A
 10
10.025000
 20
2.000000
 30
0.0
  0
SEQEND
  0
POLYLINE
  8
HOLE_1_2
 66
   1
 10
0.0
 20
0.0
 30
0.0
 70
   1
  0
VERTEX
  8
HOLE_1_2
 10
8.975000
 20
2.000000
 30
0.0
 42
1.000000
  0
VERTEX
  8
HOLE_1_2
 10
8.725000
 20
2.000000
 30
0.0
 42
1.000000
  0
VERTEX
  8
HOLE_1_2
 10
8.975000
 20
2.000000
 30
0.0
  0
SEQEND
  0
POLYLINE
  8
NC_Resist-A
 66
   1
 10
0.0
 20
0.0
 30
0.0
 70
   1
  0
VERTEX
  8
NC_Resist-A
 10
9.075000
 20
2.000000
 30
0.0
 42
1.000000
  0
VERTEX
  8
NC_Resist-A
 10
8.625000
 20
2.000000
 30
0.0
 42
1.000000
  0
VERTEX
  8
NC_Resist-A
 10
9.075000
 20
2.000000
 30
0.0
  0
SEQEND
  0
POLYLINE
  8
HOLE_1_2
 66
   1
 10
0.0
 20
0.0
 30
0.0
 70
   1
  0
VERTEX
  8
HOLE_1_2
 10
12.025000
 20
5.900000
 30
0.0
 42
1.000000
  0
VERTEX
  8
HOLE_1_2
 10
11.775000
 20
5.900000
 30
0.0
 42
1.000000
  0
VERTEX
  8
HOLE_1_2
 10
12.025000
 20
5.900000
 30
0.0
  0
SEQEND
  0
POLYLINE
  8
NC_Resist-A
 66
   1
 10
0.0
 20
0.0
 30
0.0
 70
   1
  0
VERTEX
  8
NC_Resist-A
 10
12.125000
 20
5.900000
 30
0.0
 42
1.000000
  0
VERTEX
  8
NC_Resist-A
 10
11.675000
 20
5.900000
 30
0.0
 42
1.000000
  0
VERTEX
  8
NC_Resist-A
 10
12.125000
 20
5.900000
 30
0.0
  0
SEQEND
  0
POLYLINE
  8
HOLE_1_2
 66
   1
 10
0.0
 20
0.0
 30
0.0
 70
   1
  0
VERTEX
  8
HOLE_1_2
 10
16.825000
 20
4.950000
 30
0.0
 42
1.000000
  0
VERTEX
  8
HOLE_1_2
 10
16.575000
 20
4.950000
 30
0.0
 42
1.000000
  0
VERTEX
  8
HOLE_1_2
 10
16.825000
 20
4.950000
 30
0.0
  0
SEQEND
  0
POLYLINE
  8
NC_Resist-A
 66
   1
 10
0.0
 20
0.0
 30
0.0
 70
   1
  0
VERTEX
  8
NC_Resist-A
 10
16.925000
 20
4.950000
 30
0.0
 42
1.000000
  0
VERTEX
  8
NC_Resist-A
 10
16.475000
 20
4.950000
 30
0.0
 42
1.000000
  0
VERTEX
  8
NC_Resist-A
 10
16.925000
 20
4.950000
 30
0.0
  0
SEQEND
  0
POLYLINE
  8
HOLE_1_2
 66
   1
 10
0.0
 20
0.0
 30
0.0
 70
   1
  0
VERTEX
  8
HOLE_1_2
 10
14.125000
 20
4.950000
 30
0.0
 42
1.000000
  0
VERTEX
  8
HOLE_1_2
 10
13.875000
 20
4.950000
 30
0.0
 42
1.000000
  0
VERTEX
  8
HOLE_1_2
 10
14.125000
 20
4.950000
 30
0.0
  0
SEQEND
  0
POLYLINE
  8
NC_Resist-A
 66
   1
 10
0.0
 20
0.0
 30
0.0
 70
   1
  0
VERTEX
  8
NC_Resist-A
 10
14.225000
 20
4.950000
 30
0.0
 42
1.000000
  0
VERTEX
  8
NC_Resist-A
 10
13.775000
 20
4.950000
 30
0.0
 42
1.000000
  0
VERTEX
  8
NC_Resist-A
 10
14.225000
 20
4.950000
 30
0.0
  0
SEQEND
  0
POLYLINE
  8
HOLE_1_2
 66
   1
 10
0.0
 20
0.0
 30
0.0
 70
   1
  0
VERTEX
  8
HOLE_1_2
 10
16.375000
 20
20.750000
 30
0.0
 42
1.000000
  0
VERTEX
  8
HOLE_1_2
 10
16.125000
 20
20.750000
 30
0.0
 42
1.000000
  0
VERTEX
  8
HOLE_1_2
 10
16.375000
 20
20.750000
 30
0.0
  0
SEQEND
  0
POLYLINE
  8
NC_Resist-A
 66
   1
 10
0.0
 20
0.0
 30
0.0
 70
   1
  0
VERTEX
  8
NC_Resist-A
 10
16.475000
 20
20.750000
 30
0.0
 42
1.000000
  0
VERTEX
  8
NC_Resist-A
 10
16.025000
 20
20.750000
 30
0.0
 42
1.000000
  0
VERTEX
  8
NC_Resist-A
 10
16.475000
 20
20.750000
 30
0.0
  0
SEQEND
  0
POLYLINE
  8
HOLE_1_2
 66
   1
 10
0.0
 20
0.0
 30
0.0
 70
   1
  0
VERTEX
  8
HOLE_1_2
 10
6.875000
 20
17.500000
 30
0.0
 42
1.000000
  0
VERTEX
  8
HOLE_1_2
 10
6.625000
 20
17.500000
 30
0.0
 42
1.000000
  0
VERTEX
  8
HOLE_1_2
 10
6.875000
 20
17.500000
 30
0.0
  0
SEQEND
  0
POLYLINE
  8
NC_Resist-A
 66
   1
 10
0.0
 20
0.0
 30
0.0
 70
   1
  0
VERTEX
  8
NC_Resist-A
 10
6.975000
 20
17.500000
 30
0.0
 42
1.000000
  0
VERTEX
  8
NC_Resist-A
 10
6.525000
 20
17.500000
 30
0.0
 42
1.000000
  0
VERTEX
  8
NC_Resist-A
 10
6.975000
 20
17.500000
 30
0.0
  0
SEQEND
  0
POLYLINE
  8
HOLE_1_2
 66
   1
 10
0.0
 20
0.0
 30
0.0
 70
   1
  0
VERTEX
  8
HOLE_1_2
 10
5.875000
 20
17.500000
 30
0.0
 42
1.000000
  0
VERTEX
  8
HOLE_1_2
 10
5.625000
 20
17.500000
 30
0.0
 42
1.000000
  0
VERTEX
  8
HOLE_1_2
 10
5.875000
 20
17.500000
 30
0.0
  0
SEQEND
  0
POLYLINE
  8
NC_Resist-A
 66
   1
 10
0.0
 20
0.0
 30
0.0
 70
   1
  0
VERTEX
  8
NC_Resist-A
 10
5.975000
 20
17.500000
 30
0.0
 42
1.000000
  0
VERTEX
  8
NC_Resist-A
 10
5.525000
 20
17.500000
 30
0.0
 42
1.000000
  0
VERTEX
  8
NC_Resist-A
 10
5.975000
 20
17.500000
 30
0.0
  0
SEQEND
  0
POLYLINE
  8
HOLE_1_2
 66
   1
 10
0.0
 20
0.0
 30
0.0
 70
   1
  0
VERTEX
  8
HOLE_1_2
 10
4.875000
 20
17.500000
 30
0.0
 42
1.000000
  0
VERTEX
  8
HOLE_1_2
 10
4.625000
 20
17.500000
 30
0.0
 42
1.000000
  0
VERTEX
  8
HOLE_1_2
 10
4.875000
 20
17.500000
 30
0.0
  0
SEQEND
  0
POLYLINE
  8
NC_Resist-A
 66
   1
 10
0.0
 20
0.0
 30
0.0
 70
   1
  0
VERTEX
  8
NC_Resist-A
 10
4.975000
 20
17.500000
 30
0.0
 42
1.000000
  0
VERTEX
  8
NC_Resist-A
 10
4.525000
 20
17.500000
 30
0.0
 42
1.000000
  0
VERTEX
  8
NC_Resist-A
 10
4.975000
 20
17.500000
 30
0.0
  0
SEQEND
  0
POLYLINE
  8
HOLE_1_2
 66
   1
 10
0.0
 20
0.0
 30
0.0
 70
   1
  0
VERTEX
  8
HOLE_1_2
 10
16.775000
 20
9.300000
 30
0.0
 42
1.000000
  0
VERTEX
  8
HOLE_1_2
 10
16.525000
 20
9.300000
 30
0.0
 42
1.000000
  0
VERTEX
  8
HOLE_1_2
 10
16.775000
 20
9.300000
 30
0.0
  0
SEQEND
  0
POLYLINE
  8
NC_Resist-A
 66
   1
 10
0.0
 20
0.0
 30
0.0
 70
   1
  0
VERTEX
  8
NC_Resist-A
 10
16.875000
 20
9.300000
 30
0.0
 42
1.000000
  0
VERTEX
  8
NC_Resist-A
 10
16.425000
 20
9.300000
 30
0.0
 42
1.000000
  0
VERTEX
  8
NC_Resist-A
 10
16.875000
 20
9.300000
 30
0.0
  0
SEQEND
  0
POLYLINE
  8
HOLE_1_2
 66
   1
 10
0.0
 20
0.0
 30
0.0
 70
   1
  0
VERTEX
  8
HOLE_1_2
 10
16.775000
 20
8.000000
 30
0.0
 42
1.000000
  0
VERTEX
  8
HOLE_1_2
 10
16.525000
 20
8.000000
 30
0.0
 42
1.000000
  0
VERTEX
  8
HOLE_1_2
 10
16.775000
 20
8.000000
 30
0.0
  0
SEQEND
  0
POLYLINE
  8
NC_Resist-A
 66
   1
 10
0.0
 20
0.0
 30
0.0
 70
   1
  0
VERTEX
  8
NC_Resist-A
 10
16.875000
 20
8.000000
 30
0.0
 42
1.000000
  0
VERTEX
  8
NC_Resist-A
 10
16.425000
 20
8.000000
 30
0.0
 42
1.000000
  0
VERTEX
  8
NC_Resist-A
 10
16.875000
 20
8.000000
 30
0.0
  0
SEQEND
  0
POLYLINE
  8
HOLE_1_2
 66
   1
 10
0.0
 20
0.0
 30
0.0
 70
   1
  0
VERTEX
  8
HOLE_1_2
 10
9.225000
 20
9.200000
 30
0.0
 42
1.000000
  0
VERTEX
  8
HOLE_1_2
 10
8.975000
 20
9.200000
 30
0.0
 42
1.000000
  0
VERTEX
  8
HOLE_1_2
 10
9.225000
 20
9.200000
 30
0.0
  0
SEQEND
  0
POLYLINE
  8
NC_Resist-A
 66
   1
 10
0.0
 20
0.0
 30
0.0
 70
   1
  0
VERTEX
  8
NC_Resist-A
 10
9.325000
 20
9.200000
 30
0.0
 42
1.000000
  0
VERTEX
  8
NC_Resist-A
 10
8.875000
 20
9.200000
 30
0.0
 42
1.000000
  0
VERTEX
  8
NC_Resist-A
 10
9.325000
 20
9.200000
 30
0.0
  0
SEQEND
  0
POLYLINE
  8
HOLE_1_2
 66
   1
 10
0.0
 20
0.0
 30
0.0
 70
   1
  0
VERTEX
  8
HOLE_1_2
 10
13.125000
 20
4.950000
 30
0.0
 42
1.000000
  0
VERTEX
  8
HOLE_1_2
 10
12.875000
 20
4.950000
 30
0.0
 42
1.000000
  0
VERTEX
  8
HOLE_1_2
 10
13.125000
 20
4.950000
 30
0.0
  0
SEQEND
  0
POLYLINE
  8
NC_Resist-A
 66
   1
 10
0.0
 20
0.0
 30
0.0
 70
   1
  0
VERTEX
  8
NC_Resist-A
 10
13.225000
 20
4.950000
 30
0.0
 42
1.000000
  0
VERTEX
  8
NC_Resist-A
 10
12.775000
 20
4.950000
 30
0.0
 42
1.000000
  0
VERTEX
  8
NC_Resist-A
 10
13.225000
 20
4.950000
 30
0.0
  0
SEQEND
  0
POLYLINE
  8
HOLE_1_2
 66
   1
 10
0.0
 20
0.0
 30
0.0
 70
   1
  0
VERTEX
  8
HOLE_1_2
 10
16.775000
 20
16.950000
 30
0.0
 42
1.000000
  0
VERTEX
  8
HOLE_1_2
 10
16.525000
 20
16.950000
 30
0.0
 42
1.000000
  0
VERTEX
  8
HOLE_1_2
 10
16.775000
 20
16.950000
 30
0.0
  0
SEQEND
  0
POLYLINE
  8
NC_Resist-A
 66
   1
 10
0.0
 20
0.0
 30
0.0
 70
   1
  0
VERTEX
  8
NC_Resist-A
 10
16.875000
 20
16.950000
 30
0.0
 42
1.000000
  0
VERTEX
  8
NC_Resist-A
 10
16.425000
 20
16.950000
 30
0.0
 42
1.000000
  0
VERTEX
  8
NC_Resist-A
 10
16.875000
 20
16.950000
 30
0.0
  0
SEQEND
  0
POLYLINE
  8
HOLE_1_2
 66
   1
 10
0.0
 20
0.0
 30
0.0
 70
   1
  0
VERTEX
  8
HOLE_1_2
 10
17.875000
 20
14.750000
 30
0.0
 42
1.000000
  0
VERTEX
  8
HOLE_1_2
 10
17.625000
 20
14.750000
 30
0.0
 42
1.000000
  0
VERTEX
  8
HOLE_1_2
 10
17.875000
 20
14.750000
 30
0.0
  0
SEQEND
  0
POLYLINE
  8
NC_Resist-A
 66
   1
 10
0.0
 20
0.0
 30
0.0
 70
   1
  0
VERTEX
  8
NC_Resist-A
 10
17.975000
 20
14.750000
 30
0.0
 42
1.000000
  0
VERTEX
  8
NC_Resist-A
 10
17.525000
 20
14.750000
 30
0.0
 42
1.000000
  0
VERTEX
  8
NC_Resist-A
 10
17.975000
 20
14.750000
 30
0.0
  0
SEQEND
  0
POLYLINE
  8
HOLE_1_2
 66
   1
 10
0.0
 20
0.0
 30
0.0
 70
   1
  0
VERTEX
  8
HOLE_1_2
 10
13.025000
 20
11.500000
 30
0.0
 42
1.000000
  0
VERTEX
  8
HOLE_1_2
 10
12.775000
 20
11.500000
 30
0.0
 42
1.000000
  0
VERTEX
  8
HOLE_1_2
 10
13.025000
 20
11.500000
 30
0.0
  0
SEQEND
  0
POLYLINE
  8
NC_Resist-A
 66
   1
 10
0.0
 20
0.0
 30
0.0
 70
   1
  0
VERTEX
  8
NC_Resist-A
 10
13.125000
 20
11.500000
 30
0.0
 42
1.000000
  0
VERTEX
  8
NC_Resist-A
 10
12.675000
 20
11.500000
 30
0.0
 42
1.000000
  0
VERTEX
  8
NC_Resist-A
 10
13.125000
 20
11.500000
 30
0.0
  0
SEQEND
  0
POLYLINE
  8
HOLE_1_2
 66
   1
 10
0.0
 20
0.0
 30
0.0
 70
   1
  0
VERTEX
  8
HOLE_1_2
 10
12.325000
 20
13.200000
 30
0.0
 42
1.000000
  0
VERTEX
  8
HOLE_1_2
 10
12.075000
 20
13.200000
 30
0.0
 42
1.000000
  0
VERTEX
  8
HOLE_1_2
 10
12.325000
 20
13.200000
 30
0.0
  0
SEQEND
  0
POLYLINE
  8
NC_Resist-A
 66
   1
 10
0.0
 20
0.0
 30
0.0
 70
   1
  0
VERTEX
  8
NC_Resist-A
 10
12.425000
 20
13.200000
 30
0.0
 42
1.000000
  0
VERTEX
  8
NC_Resist-A
 10
11.975000
 20
13.200000
 30
0.0
 42
1.000000
  0
VERTEX
  8
NC_Resist-A
 10
12.425000
 20
13.200000
 30
0.0
  0
SEQEND
  0
POLYLINE
  8
HOLE_1_2
 66
   1
 10
0.0
 20
0.0
 30
0.0
 70
   1
  0
VERTEX
  8
HOLE_1_2
 10
6.675000
 20
1.750000
 30
0.0
 42
1.000000
  0
VERTEX
  8
HOLE_1_2
 10
6.425000
 20
1.750000
 30
0.0
 42
1.000000
  0
VERTEX
  8
HOLE_1_2
 10
6.675000
 20
1.750000
 30
0.0
  0
SEQEND
  0
POLYLINE
  8
NC_Resist-A
 66
   1
 10
0.0
 20
0.0
 30
0.0
 70
   1
  0
VERTEX
  8
NC_Resist-A
 10
6.775000
 20
1.750000
 30
0.0
 42
1.000000
  0
VERTEX
  8
NC_Resist-A
 10
6.325000
 20
1.750000
 30
0.0
 42
1.000000
  0
VERTEX
  8
NC_Resist-A
 10
6.775000
 20
1.750000
 30
0.0
  0
SEQEND
  0
POLYLINE
  8
HOLE_1_2
 66
   1
 10
0.0
 20
0.0
 30
0.0
 70
   1
  0
VERTEX
  8
HOLE_1_2
 10
6.675000
 20
6.750000
 30
0.0
 42
1.000000
  0
VERTEX
  8
HOLE_1_2
 10
6.425000
 20
6.750000
 30
0.0
 42
1.000000
  0
VERTEX
  8
HOLE_1_2
 10
6.675000
 20
6.750000
 30
0.0
  0
SEQEND
  0
POLYLINE
  8
NC_Resist-A
 66
   1
 10
0.0
 20
0.0
 30
0.0
 70
   1
  0
VERTEX
  8
NC_Resist-A
 10
6.775000
 20
6.750000
 30
0.0
 42
1.000000
  0
VERTEX
  8
NC_Resist-A
 10
6.325000
 20
6.750000
 30
0.0
 42
1.000000
  0
VERTEX
  8
NC_Resist-A
 10
6.775000
 20
6.750000
 30
0.0
  0
SEQEND
  0
POLYLINE
  8
HOLE_1_2
 66
   1
 10
0.0
 20
0.0
 30
0.0
 70
   1
  0
VERTEX
  8
HOLE_1_2
 10
4.925000
 20
12.750000
 30
0.0
 42
1.000000
  0
VERTEX
  8
HOLE_1_2
 10
4.675000
 20
12.750000
 30
0.0
 42
1.000000
  0
VERTEX
  8
HOLE_1_2
 10
4.925000
 20
12.750000
 30
0.0
  0
SEQEND
  0
POLYLINE
  8
NC_Resist-A
 66
   1
 10
0.0
 20
0.0
 30
0.0
 70
   1
  0
VERTEX
  8
NC_Resist-A
 10
5.025000
 20
12.750000
 30
0.0
 42
1.000000
  0
VERTEX
  8
NC_Resist-A
 10
4.575000
 20
12.750000
 30
0.0
 42
1.000000
  0
VERTEX
  8
NC_Resist-A
 10
5.025000
 20
12.750000
 30
0.0
  0
SEQEND
  0
POLYLINE
  8
HOLE_1_2
 66
   1
 10
0.0
 20
0.0
 30
0.0
 70
   1
  0
VERTEX
  8
HOLE_1_2
 10
10.675000
 20
7.650000
 30
0.0
 42
1.000000
  0
VERTEX
  8
HOLE_1_2
 10
10.425000
 20
7.650000
 30
0.0
 42
1.000000
  0
VERTEX
  8
HOLE_1_2
 10
10.675000
 20
7.650000
 30
0.0
  0
SEQEND
  0
POLYLINE
  8
NC_Resist-A
 66
   1
 10
0.0
 20
0.0
 30
0.0
 70
   1
  0
VERTEX
  8
NC_Resist-A
 10
10.775000
 20
7.650000
 30
0.0
 42
1.000000
  0
VERTEX
  8
NC_Resist-A
 10
10.325000
 20
7.650000
 30
0.0
 42
1.000000
  0
VERTEX
  8
NC_Resist-A
 10
10.775000
 20
7.650000
 30
0.0
  0
SEQEND
  0
POLYLINE
  8
HOLE_1_2
 66
   1
 10
0.0
 20
0.0
 30
0.0
 70
   1
  0
VERTEX
  8
HOLE_1_2
 10
15.675000
 20
9.750000
 30
0.0
 42
1.000000
  0
VERTEX
  8
HOLE_1_2
 10
15.425000
 20
9.750000
 30
0.0
 42
1.000000
  0
VERTEX
  8
HOLE_1_2
 10
15.675000
 20
9.750000
 30
0.0
  0
SEQEND
  0
POLYLINE
  8
NC_Resist-A
 66
   1
 10
0.0
 20
0.0
 30
0.0
 70
   1
  0
VERTEX
  8
NC_Resist-A
 10
15.775000
 20
9.750000
 30
0.0
 42
1.000000
  0
VERTEX
  8
NC_Resist-A
 10
15.325000
 20
9.750000
 30
0.0
 42
1.000000
  0
VERTEX
  8
NC_Resist-A
 10
15.775000
 20
9.750000
 30
0.0
  0
SEQEND
  0
POLYLINE
  8
HOLE_1_2
 66
   1
 10
0.0
 20
0.0
 30
0.0
 70
   1
  0
VERTEX
  8
HOLE_1_2
 10
14.725000
 20
11.750000
 30
0.0
 42
1.000000
  0
VERTEX
  8
HOLE_1_2
 10
14.475000
 20
11.750000
 30
0.0
 42
1.000000
  0
VERTEX
  8
HOLE_1_2
 10
14.725000
 20
11.750000
 30
0.0
  0
SEQEND
  0
POLYLINE
  8
NC_Resist-A
 66
   1
 10
0.0
 20
0.0
 30
0.0
 70
   1
  0
VERTEX
  8
NC_Resist-A
 10
14.825000
 20
11.750000
 30
0.0
 42
1.000000
  0
VERTEX
  8
NC_Resist-A
 10
14.375000
 20
11.750000
 30
0.0
 42
1.000000
  0
VERTEX
  8
NC_Resist-A
 10
14.825000
 20
11.750000
 30
0.0
  0
SEQEND
  0
POLYLINE
  8
HOLE_1_2
 66
   1
 10
0.0
 20
0.0
 30
0.0
 70
   1
  0
VERTEX
  8
HOLE_1_2
 10
16.875000
 20
13.750000
 30
0.0
 42
1.000000
  0
VERTEX
  8
HOLE_1_2
 10
16.625000
 20
13.750000
 30
0.0
 42
1.000000
  0
VERTEX
  8
HOLE_1_2
 10
16.875000
 20
13.750000
 30
0.0
  0
SEQEND
  0
POLYLINE
  8
NC_Resist-A
 66
   1
 10
0.0
 20
0.0
 30
0.0
 70
   1
  0
VERTEX
  8
NC_Resist-A
 10
16.975000
 20
13.750000
 30
0.0
 42
1.000000
  0
VERTEX
  8
NC_Resist-A
 10
16.525000
 20
13.750000
 30
0.0
 42
1.000000
  0
VERTEX
  8
NC_Resist-A
 10
16.975000
 20
13.750000
 30
0.0
  0
SEQEND
  0
POLYLINE
  8
HOLE_1_2
 66
   1
 10
0.0
 20
0.0
 30
0.0
 70
   1
  0
VERTEX
  8
HOLE_1_2
 10
14.325000
 20
14.800000
 30
0.0
 42
1.000000
  0
VERTEX
  8
HOLE_1_2
 10
14.075000
 20
14.800000
 30
0.0
 42
1.000000
  0
VERTEX
  8
HOLE_1_2
 10
14.325000
 20
14.800000
 30
0.0
  0
SEQEND
  0
POLYLINE
  8
NC_Resist-A
 66
   1
 10
0.0
 20
0.0
 30
0.0
 70
   1
  0
VERTEX
  8
NC_Resist-A
 10
14.425000
 20
14.800000
 30
0.0
 42
1.000000
  0
VERTEX
  8
NC_Resist-A
 10
13.975000
 20
14.800000
 30
0.0
 42
1.000000
  0
VERTEX
  8
NC_Resist-A
 10
14.425000
 20
14.800000
 30
0.0
  0
SEQEND
  0
POLYLINE
  8
HOLE_1_2
 66
   1
 10
0.0
 20
0.0
 30
0.0
 70
   1
  0
VERTEX
  8
HOLE_1_2
 10
13.325000
 20
13.200000
 30
0.0
 42
1.000000
  0
VERTEX
  8
HOLE_1_2
 10
13.075000
 20
13.200000
 30
0.0
 42
1.000000
  0
VERTEX
  8
HOLE_1_2
 10
13.325000
 20
13.200000
 30
0.0
  0
SEQEND
  0
POLYLINE
  8
NC_Resist-A
 66
   1
 10
0.0
 20
0.0
 30
0.0
 70
   1
  0
VERTEX
  8
NC_Resist-A
 10
13.425000
 20
13.200000
 30
0.0
 42
1.000000
  0
VERTEX
  8
NC_Resist-A
 10
12.975000
 20
13.200000
 30
0.0
 42
1.000000
  0
VERTEX
  8
NC_Resist-A
 10
13.425000
 20
13.200000
 30
0.0
  0
SEQEND
  0
POLYLINE
  8
HOLE_1_2
 66
   1
 10
0.0
 20
0.0
 30
0.0
 70
   1
  0
VERTEX
  8
HOLE_1_2
 10
8.775000
 20
14.050000
 30
0.0
 42
1.000000
  0
VERTEX
  8
HOLE_1_2
 10
8.525000
 20
14.050000
 30
0.0
 42
1.000000
  0
VERTEX
  8
HOLE_1_2
 10
8.775000
 20
14.050000
 30
0.0
  0
SEQEND
  0
POLYLINE
  8
NC_Resist-A
 66
   1
 10
0.0
 20
0.0
 30
0.0
 70
   1
  0
VERTEX
  8
NC_Resist-A
 10
8.875000
 20
14.050000
 30
0.0
 42
1.000000
  0
VERTEX
  8
NC_Resist-A
 10
8.425000
 20
14.050000
 30
0.0
 42
1.000000
  0
VERTEX
  8
NC_Resist-A
 10
8.875000
 20
14.050000
 30
0.0
  0
SEQEND
  0
POLYLINE
  8
HOLE_1_2
 66
   1
 10
0.0
 20
0.0
 30
0.0
 70
   1
  0
VERTEX
  8
HOLE_1_2
 10
9.925000
 20
5.700000
 30
0.0
 42
1.000000
  0
VERTEX
  8
HOLE_1_2
 10
9.675000
 20
5.700000
 30
0.0
 42
1.000000
  0
VERTEX
  8
HOLE_1_2
 10
9.925000
 20
5.700000
 30
0.0
  0
SEQEND
  0
POLYLINE
  8
NC_Resist-A
 66
   1
 10
0.0
 20
0.0
 30
0.0
 70
   1
  0
VERTEX
  8
NC_Resist-A
 10
10.025000
 20
5.700000
 30
0.0
 42
1.000000
  0
VERTEX
  8
NC_Resist-A
 10
9.575000
 20
5.700000
 30
0.0
 42
1.000000
  0
VERTEX
  8
NC_Resist-A
 10
10.025000
 20
5.700000
 30
0.0
  0
SEQEND
  0
POLYLINE
  8
HOLE_1_2
 66
   1
 10
0.0
 20
0.0
 30
0.0
 70
   1
  0
VERTEX
  8
HOLE_1_2
 10
14.725000
 20
16.750000
 30
0.0
 42
1.000000
  0
VERTEX
  8
HOLE_1_2
 10
14.475000
 20
16.750000
 30
0.0
 42
1.000000
  0
VERTEX
  8
HOLE_1_2
 10
14.725000
 20
16.750000
 30
0.0
  0
SEQEND
  0
POLYLINE
  8
NC_Resist-A
 66
   1
 10
0.0
 20
0.0
 30
0.0
 70
   1
  0
VERTEX
  8
NC_Resist-A
 10
14.825000
 20
16.750000
 30
0.0
 42
1.000000
  0
VERTEX
  8
NC_Resist-A
 10
14.375000
 20
16.750000
 30
0.0
 42
1.000000
  0
VERTEX
  8
NC_Resist-A
 10
14.825000
 20
16.750000
 30
0.0
  0
SEQEND
  0
POLYLINE
  8
HOLE_1_2
 66
   1
 10
0.0
 20
0.0
 30
0.0
 70
   1
  0
VERTEX
  8
HOLE_1_2
 10
14.725000
 20
15.800000
 30
0.0
 42
1.000000
  0
VERTEX
  8
HOLE_1_2
 10
14.475000
 20
15.800000
 30
0.0
 42
1.000000
  0
VERTEX
  8
HOLE_1_2
 10
14.725000
 20
15.800000
 30
0.0
  0
SEQEND
  0
POLYLINE
  8
NC_Resist-A
 66
   1
 10
0.0
 20
0.0
 30
0.0
 70
   1
  0
VERTEX
  8
NC_Resist-A
 10
14.825000
 20
15.800000
 30
0.0
 42
1.000000
  0
VERTEX
  8
NC_Resist-A
 10
14.375000
 20
15.800000
 30
0.0
 42
1.000000
  0
VERTEX
  8
NC_Resist-A
 10
14.825000
 20
15.800000
 30
0.0
  0
SEQEND
  0
POLYLINE
  8
HOLE_1_2
 66
   1
 10
0.0
 20
0.0
 30
0.0
 70
   1
  0
VERTEX
  8
HOLE_1_2
 10
8.375000
 20
7.250000
 30
0.0
 42
1.000000
  0
VERTEX
  8
HOLE_1_2
 10
8.125000
 20
7.250000
 30
0.0
 42
1.000000
  0
VERTEX
  8
HOLE_1_2
 10
8.375000
 20
7.250000
 30
0.0
  0
SEQEND
  0
POLYLINE
  8
NC_Resist-A
 66
   1
 10
0.0
 20
0.0
 30
0.0
 70
   1
  0
VERTEX
  8
NC_Resist-A
 10
8.475000
 20
7.250000
 30
0.0
 42
1.000000
  0
VERTEX
  8
NC_Resist-A
 10
8.025000
 20
7.250000
 30
0.0
 42
1.000000
  0
VERTEX
  8
NC_Resist-A
 10
8.475000
 20
7.250000
 30
0.0
  0
SEQEND
  0
POLYLINE
  8
HOLE_1_2
 66
   1
 10
0.0
 20
0.0
 30
0.0
 70
   1
  0
VERTEX
  8
HOLE_1_2
 10
6.675000
 20
11.500000
 30
0.0
 42
1.000000
  0
VERTEX
  8
HOLE_1_2
 10
6.425000
 20
11.500000
 30
0.0
 42
1.000000
  0
VERTEX
  8
HOLE_1_2
 10
6.675000
 20
11.500000
 30
0.0
  0
SEQEND
  0
POLYLINE
  8
NC_Resist-A
 66
   1
 10
0.0
 20
0.0
 30
0.0
 70
   1
  0
VERTEX
  8
NC_Resist-A
 10
6.775000
 20
11.500000
 30
0.0
 42
1.000000
  0
VERTEX
  8
NC_Resist-A
 10
6.325000
 20
11.500000
 30
0.0
 42
1.000000
  0
VERTEX
  8
NC_Resist-A
 10
6.775000
 20
11.500000
 30
0.0
  0
SEQEND
  0
POLYLINE
  8
HOLE_1_2
 66
   1
 10
0.0
 20
0.0
 30
0.0
 70
   1
  0
VERTEX
  8
HOLE_1_2
 10
13.825000
 20
10.150000
 30
0.0
 42
1.000000
  0
VERTEX
  8
HOLE_1_2
 10
13.575000
 20
10.150000
 30
0.0
 42
1.000000
  0
VERTEX
  8
HOLE_1_2
 10
13.825000
 20
10.150000
 30
0.0
  0
SEQEND
  0
POLYLINE
  8
NC_Resist-A
 66
   1
 10
0.0
 20
0.0
 30
0.0
 70
   1
  0
VERTEX
  8
NC_Resist-A
 10
13.925000
 20
10.150000
 30
0.0
 42
1.000000
  0
VERTEX
  8
NC_Resist-A
 10
13.475000
 20
10.150000
 30
0.0
 42
1.000000
  0
VERTEX
  8
NC_Resist-A
 10
13.925000
 20
10.150000
 30
0.0
  0
SEQEND
  0
POLYLINE
  8
HOLE_1_2
 66
   1
 10
0.0
 20
0.0
 30
0.0
 70
   1
  0
VERTEX
  8
HOLE_1_2
 10
13.775000
 20
12.100000
 30
0.0
 42
1.000000
  0
VERTEX
  8
HOLE_1_2
 10
13.525000
 20
12.100000
 30
0.0
 42
1.000000
  0
VERTEX
  8
HOLE_1_2
 10
13.775000
 20
12.100000
 30
0.0
  0
SEQEND
  0
POLYLINE
  8
NC_Resist-A
 66
   1
 10
0.0
 20
0.0
 30
0.0
 70
   1
  0
VERTEX
  8
NC_Resist-A
 10
13.875000
 20
12.100000
 30
0.0
 42
1.000000
  0
VERTEX
  8
NC_Resist-A
 10
13.425000
 20
12.100000
 30
0.0
 42
1.000000
  0
VERTEX
  8
NC_Resist-A
 10
13.875000
 20
12.100000
 30
0.0
  0
SEQEND
  0
POLYLINE
  8
HOLE_1_2
 66
   1
 10
0.0
 20
0.0
 30
0.0
 70
   1
  0
VERTEX
  8
HOLE_1_2
 10
15.725000
 20
14.750000
 30
0.0
 42
1.000000
  0
VERTEX
  8
HOLE_1_2
 10
15.475000
 20
14.750000
 30
0.0
 42
1.000000
  0
VERTEX
  8
HOLE_1_2
 10
15.725000
 20
14.750000
 30
0.0
  0
SEQEND
  0
POLYLINE
  8
NC_Resist-A
 66
   1
 10
0.0
 20
0.0
 30
0.0
 70
   1
  0
VERTEX
  8
NC_Resist-A
 10
15.825000
 20
14.750000
 30
0.0
 42
1.000000
  0
VERTEX
  8
NC_Resist-A
 10
15.375000
 20
14.750000
 30
0.0
 42
1.000000
  0
VERTEX
  8
NC_Resist-A
 10
15.825000
 20
14.750000
 30
0.0
  0
SEQEND
  0
POLYLINE
  8
HOLE_1_2
 66
   1
 10
0.0
 20
0.0
 30
0.0
 70
   1
  0
VERTEX
  8
HOLE_1_2
 10
15.675000
 20
11.200000
 30
0.0
 42
1.000000
  0
VERTEX
  8
HOLE_1_2
 10
15.425000
 20
11.200000
 30
0.0
 42
1.000000
  0
VERTEX
  8
HOLE_1_2
 10
15.675000
 20
11.200000
 30
0.0
  0
SEQEND
  0
POLYLINE
  8
NC_Resist-A
 66
   1
 10
0.0
 20
0.0
 30
0.0
 70
   1
  0
VERTEX
  8
NC_Resist-A
 10
15.775000
 20
11.200000
 30
0.0
 42
1.000000
  0
VERTEX
  8
NC_Resist-A
 10
15.325000
 20
11.200000
 30
0.0
 42
1.000000
  0
VERTEX
  8
NC_Resist-A
 10
15.775000
 20
11.200000
 30
0.0
  0
SEQEND
  0
POLYLINE
  8
HOLE_1_2
 66
   1
 10
0.0
 20
0.0
 30
0.0
 70
   1
  0
VERTEX
  8
HOLE_1_2
 10
13.775000
 20
15.800000
 30
0.0
 42
1.000000
  0
VERTEX
  8
HOLE_1_2
 10
13.525000
 20
15.800000
 30
0.0
 42
1.000000
  0
VERTEX
  8
HOLE_1_2
 10
13.775000
 20
15.800000
 30
0.0
  0
SEQEND
  0
POLYLINE
  8
NC_Resist-A
 66
   1
 10
0.0
 20
0.0
 30
0.0
 70
   1
  0
VERTEX
  8
NC_Resist-A
 10
13.875000
 20
15.800000
 30
0.0
 42
1.000000
  0
VERTEX
  8
NC_Resist-A
 10
13.425000
 20
15.800000
 30
0.0
 42
1.000000
  0
VERTEX
  8
NC_Resist-A
 10
13.875000
 20
15.800000
 30
0.0
  0
SEQEND
  0
POLYLINE
  8
HOLE_1_2
 66
   1
 10
0.0
 20
0.0
 30
0.0
 70
   1
  0
VERTEX
  8
HOLE_1_2
 10
23.375000
 20
5.500000
 30
0.0
 42
1.000000
  0
VERTEX
  8
HOLE_1_2
 10
23.125000
 20
5.500000
 30
0.0
 42
1.000000
  0
VERTEX
  8
HOLE_1_2
 10
23.375000
 20
5.500000
 30
0.0
  0
SEQEND
  0
POLYLINE
  8
NC_Resist-A
 66
   1
 10
0.0
 20
0.0
 30
0.0
 70
   1
  0
VERTEX
  8
NC_Resist-A
 10
23.475000
 20
5.500000
 30
0.0
 42
1.000000
  0
VERTEX
  8
NC_Resist-A
 10
23.025000
 20
5.500000
 30
0.0
 42
1.000000
  0
VERTEX
  8
NC_Resist-A
 10
23.475000
 20
5.500000
 30
0.0
  0
SEQEND
  0
POLYLINE
  8
HOLE_1_2
 66
   1
 10
0.0
 20
0.0
 30
0.0
 70
   1
  0
VERTEX
  8
HOLE_1_2
 10
18.325000
 20
5.000000
 30
0.0
 42
1.000000
  0
VERTEX
  8
HOLE_1_2
 10
18.075000
 20
5.000000
 30
0.0
 42
1.000000
  0
VERTEX
  8
HOLE_1_2
 10
18.325000
 20
5.000000
 30
0.0
  0
SEQEND
  0
POLYLINE
  8
NC_Resist-A
 66
   1
 10
0.0
 20
0.0
 30
0.0
 70
   1
  0
VERTEX
  8
NC_Resist-A
 10
18.425000
 20
5.000000
 30
0.0
 42
1.000000
  0
VERTEX
  8
NC_Resist-A
 10
17.975000
 20
5.000000
 30
0.0
 42
1.000000
  0
VERTEX
  8
NC_Resist-A
 10
18.425000
 20
5.000000
 30
0.0
  0
SEQEND
  0
POLYLINE
  8
HOLE_1_2
 66
   1
 10
0.0
 20
0.0
 30
0.0
 70
   1
  0
VERTEX
  8
HOLE_1_2
 10
17.975000
 20
7.500000
 30
0.0
 42
1.000000
  0
VERTEX
  8
HOLE_1_2
 10
17.725000
 20
7.500000
 30
0.0
 42
1.000000
  0
VERTEX
  8
HOLE_1_2
 10
17.975000
 20
7.500000
 30
0.0
  0
SEQEND
  0
POLYLINE
  8
NC_Resist-A
 66
   1
 10
0.0
 20
0.0
 30
0.0
 70
   1
  0
VERTEX
  8
NC_Resist-A
 10
18.075000
 20
7.500000
 30
0.0
 42
1.000000
  0
VERTEX
  8
NC_Resist-A
 10
17.625000
 20
7.500000
 30
0.0
 42
1.000000
  0
VERTEX
  8
NC_Resist-A
 10
18.075000
 20
7.500000
 30
0.0
  0
SEQEND
  0
POLYLINE
  8
HOLE_1_2
 66
   1
 10
0.0
 20
0.0
 30
0.0
 70
   1
  0
VERTEX
  8
HOLE_1_2
 10
15.875000
 20
4.950000
 30
0.0
 42
1.000000
  0
VERTEX
  8
HOLE_1_2
 10
15.625000
 20
4.950000
 30
0.0
 42
1.000000
  0
VERTEX
  8
HOLE_1_2
 10
15.875000
 20
4.950000
 30
0.0
  0
SEQEND
  0
POLYLINE
  8
NC_Resist-A
 66
   1
 10
0.0
 20
0.0
 30
0.0
 70
   1
  0
VERTEX
  8
NC_Resist-A
 10
15.975000
 20
4.950000
 30
0.0
 42
1.000000
  0
VERTEX
  8
NC_Resist-A
 10
15.525000
 20
4.950000
 30
0.0
 42
1.000000
  0
VERTEX
  8
NC_Resist-A
 10
15.975000
 20
4.950000
 30
0.0
  0
SEQEND
  0
POLYLINE
  8
HOLE_1_2
 66
   1
 10
0.0
 20
0.0
 30
0.0
 70
   1
  0
VERTEX
  8
HOLE_1_2
 10
12.175000
 20
6.850000
 30
0.0
 42
1.000000
  0
VERTEX
  8
HOLE_1_2
 10
11.925000
 20
6.850000
 30
0.0
 42
1.000000
  0
VERTEX
  8
HOLE_1_2
 10
12.175000
 20
6.850000
 30
0.0
  0
SEQEND
  0
POLYLINE
  8
NC_Resist-A
 66
   1
 10
0.0
 20
0.0
 30
0.0
 70
   1
  0
VERTEX
  8
NC_Resist-A
 10
12.275000
 20
6.850000
 30
0.0
 42
1.000000
  0
VERTEX
  8
NC_Resist-A
 10
11.825000
 20
6.850000
 30
0.0
 42
1.000000
  0
VERTEX
  8
NC_Resist-A
 10
12.275000
 20
6.850000
 30
0.0
  0
SEQEND
  0
POLYLINE
  8
HOLE_1_2
 66
   1
 10
0.0
 20
0.0
 30
0.0
 70
   1
  0
VERTEX
  8
HOLE_1_2
 10
20.875000
 20
4.350000
 30
0.0
 42
1.000000
  0
VERTEX
  8
HOLE_1_2
 10
20.625000
 20
4.350000
 30
0.0
 42
1.000000
  0
VERTEX
  8
HOLE_1_2
 10
20.875000
 20
4.350000
 30
0.0
  0
SEQEND
  0
POLYLINE
  8
NC_Resist-A
 66
   1
 10
0.0
 20
0.0
 30
0.0
 70
   1
  0
VERTEX
  8
NC_Resist-A
 10
20.975000
 20
4.350000
 30
0.0
 42
1.000000
  0
VERTEX
  8
NC_Resist-A
 10
20.525000
 20
4.350000
 30
0.0
 42
1.000000
  0
VERTEX
  8
NC_Resist-A
 10
20.975000
 20
4.350000
 30
0.0
  0
SEQEND
  0
POLYLINE
  8
HOLE_1_2
 66
   1
 10
0.0
 20
0.0
 30
0.0
 70
   1
  0
VERTEX
  8
HOLE_1_2
 10
17.925000
 20
9.250000
 30
0.0
 42
1.000000
  0
VERTEX
  8
HOLE_1_2
 10
17.675000
 20
9.250000
 30
0.0
 42
1.000000
  0
VERTEX
  8
HOLE_1_2
 10
17.925000
 20
9.250000
 30
0.0
  0
SEQEND
  0
POLYLINE
  8
NC_Resist-A
 66
   1
 10
0.0
 20
0.0
 30
0.0
 70
   1
  0
VERTEX
  8
NC_Resist-A
 10
18.025000
 20
9.250000
 30
0.0
 42
1.000000
  0
VERTEX
  8
NC_Resist-A
 10
17.575000
 20
9.250000
 30
0.0
 42
1.000000
  0
VERTEX
  8
NC_Resist-A
 10
18.025000
 20
9.250000
 30
0.0
  0
SEQEND
  0
POLYLINE
  8
HOLE_1_2
 66
   1
 10
0.0
 20
0.0
 30
0.0
 70
   1
  0
VERTEX
  8
HOLE_1_2
 10
17.925000
 20
12.250000
 30
0.0
 42
1.000000
  0
VERTEX
  8
HOLE_1_2
 10
17.675000
 20
12.250000
 30
0.0
 42
1.000000
  0
VERTEX
  8
HOLE_1_2
 10
17.925000
 20
12.250000
 30
0.0
  0
SEQEND
  0
POLYLINE
  8
NC_Resist-A
 66
   1
 10
0.0
 20
0.0
 30
0.0
 70
   1
  0
VERTEX
  8
NC_Resist-A
 10
18.025000
 20
12.250000
 30
0.0
 42
1.000000
  0
VERTEX
  8
NC_Resist-A
 10
17.575000
 20
12.250000
 30
0.0
 42
1.000000
  0
VERTEX
  8
NC_Resist-A
 10
18.025000
 20
12.250000
 30
0.0
  0
SEQEND
  0
POLYLINE
  8
HOLE_1_2
 66
   1
 10
0.0
 20
0.0
 30
0.0
 70
   1
  0
VERTEX
  8
HOLE_1_2
 10
19.125000
 20
22.250000
 30
0.0
 42
1.000000
  0
VERTEX
  8
HOLE_1_2
 10
18.875000
 20
22.250000
 30
0.0
 42
1.000000
  0
VERTEX
  8
HOLE_1_2
 10
19.125000
 20
22.250000
 30
0.0
  0
SEQEND
  0
POLYLINE
  8
NC_Resist-A
 66
   1
 10
0.0
 20
0.0
 30
0.0
 70
   1
  0
VERTEX
  8
NC_Resist-A
 10
19.225000
 20
22.250000
 30
0.0
 42
1.000000
  0
VERTEX
  8
NC_Resist-A
 10
18.775000
 20
22.250000
 30
0.0
 42
1.000000
  0
VERTEX
  8
NC_Resist-A
 10
19.225000
 20
22.250000
 30
0.0
  0
SEQEND
  0
POLYLINE
  8
HOLE_1_2
 66
   1
 10
0.0
 20
0.0
 30
0.0
 70
   1
  0
VERTEX
  8
HOLE_1_2
 10
1.875000
 20
20.000000
 30
0.0
 42
1.000000
  0
VERTEX
  8
HOLE_1_2
 10
1.625000
 20
20.000000
 30
0.0
 42
1.000000
  0
VERTEX
  8
HOLE_1_2
 10
1.875000
 20
20.000000
 30
0.0
  0
SEQEND
  0
POLYLINE
  8
NC_Resist-A
 66
   1
 10
0.0
 20
0.0
 30
0.0
 70
   1
  0
VERTEX
  8
NC_Resist-A
 10
1.975000
 20
20.000000
 30
0.0
 42
1.000000
  0
VERTEX
  8
NC_Resist-A
 10
1.525000
 20
20.000000
 30
0.0
 42
1.000000
  0
VERTEX
  8
NC_Resist-A
 10
1.975000
 20
20.000000
 30
0.0
  0
SEQEND
  0
POLYLINE
  8
HOLE_1_2
 66
   1
 10
0.0
 20
0.0
 30
0.0
 70
   1
  0
VERTEX
  8
HOLE_1_2
 10
21.125000
 20
18.000000
 30
0.0
 42
1.000000
  0
VERTEX
  8
HOLE_1_2
 10
20.875000
 20
18.000000
 30
0.0
 42
1.000000
  0
VERTEX
  8
HOLE_1_2
 10
21.125000
 20
18.000000
 30
0.0
  0
SEQEND
  0
POLYLINE
  8
NC_Resist-A
 66
   1
 10
0.0
 20
0.0
 30
0.0
 70
   1
  0
VERTEX
  8
NC_Resist-A
 10
21.225000
 20
18.000000
 30
0.0
 42
1.000000
  0
VERTEX
  8
NC_Resist-A
 10
20.775000
 20
18.000000
 30
0.0
 42
1.000000
  0
VERTEX
  8
NC_Resist-A
 10
21.225000
 20
18.000000
 30
0.0
  0
SEQEND
  0
POLYLINE
  8
HOLE_1_2
 66
   1
 10
0.0
 20
0.0
 30
0.0
 70
   1
  0
VERTEX
  8
HOLE_1_2
 10
4.825000
 20
15.250000
 30
0.0
 42
1.000000
  0
VERTEX
  8
HOLE_1_2
 10
4.575000
 20
15.250000
 30
0.0
 42
1.000000
  0
VERTEX
  8
HOLE_1_2
 10
4.825000
 20
15.250000
 30
0.0
  0
SEQEND
  0
POLYLINE
  8
NC_Resist-A
 66
   1
 10
0.0
 20
0.0
 30
0.0
 70
   1
  0
VERTEX
  8
NC_Resist-A
 10
4.925000
 20
15.250000
 30
0.0
 42
1.000000
  0
VERTEX
  8
NC_Resist-A
 10
4.475000
 20
15.250000
 30
0.0
 42
1.000000
  0
VERTEX
  8
NC_Resist-A
 10
4.925000
 20
15.250000
 30
0.0
  0
SEQEND
  0
POLYLINE
  8
HOLE_1_2
 66
   1
 10
0.0
 20
0.0
 30
0.0
 70
   1
  0
VERTEX
  8
HOLE_1_2
 10
13.575000
 20
20.750000
 30
0.0
 42
1.000000
  0
VERTEX
  8
HOLE_1_2
 10
13.325000
 20
20.750000
 30
0.0
 42
1.000000
  0
VERTEX
  8
HOLE_1_2
 10
13.575000
 20
20.750000
 30
0.0
  0
SEQEND
  0
POLYLINE
  8
NC_Resist-A
 66
   1
 10
0.0
 20
0.0
 30
0.0
 70
   1
  0
VERTEX
  8
NC_Resist-A
 10
13.675000
 20
20.750000
 30
0.0
 42
1.000000
  0
VERTEX
  8
NC_Resist-A
 10
13.225000
 20
20.750000
 30
0.0
 42
1.000000
  0
VERTEX
  8
NC_Resist-A
 10
13.675000
 20
20.750000
 30
0.0
  0
SEQEND
  0
POLYLINE
  8
HOLE_1_2
 66
   1
 10
0.0
 20
0.0
 30
0.0
 70
   1
  0
VERTEX
  8
HOLE_1_2
 10
15.525000
 20
22.250000
 30
0.0
 42
1.000000
  0
VERTEX
  8
HOLE_1_2
 10
15.275000
 20
22.250000
 30
0.0
 42
1.000000
  0
VERTEX
  8
HOLE_1_2
 10
15.525000
 20
22.250000
 30
0.0
  0
SEQEND
  0
POLYLINE
  8
NC_Resist-A
 66
   1
 10
0.0
 20
0.0
 30
0.0
 70
   1
  0
VERTEX
  8
NC_Resist-A
 10
15.625000
 20
22.250000
 30
0.0
 42
1.000000
  0
VERTEX
  8
NC_Resist-A
 10
15.175000
 20
22.250000
 30
0.0
 42
1.000000
  0
VERTEX
  8
NC_Resist-A
 10
15.625000
 20
22.250000
 30
0.0
  0
SEQEND
  0
POLYLINE
  8
HOLE_1_2
 66
   1
 10
0.0
 20
0.0
 30
0.0
 70
   1
  0
VERTEX
  8
HOLE_1_2
 10
14.575000
 20
22.250000
 30
0.0
 42
1.000000
  0
VERTEX
  8
HOLE_1_2
 10
14.325000
 20
22.250000
 30
0.0
 42
1.000000
  0
VERTEX
  8
HOLE_1_2
 10
14.575000
 20
22.250000
 30
0.0
  0
SEQEND
  0
POLYLINE
  8
NC_Resist-A
 66
   1
 10
0.0
 20
0.0
 30
0.0
 70
   1
  0
VERTEX
  8
NC_Resist-A
 10
14.675000
 20
22.250000
 30
0.0
 42
1.000000
  0
VERTEX
  8
NC_Resist-A
 10
14.225000
 20
22.250000
 30
0.0
 42
1.000000
  0
VERTEX
  8
NC_Resist-A
 10
14.675000
 20
22.250000
 30
0.0
  0
SEQEND
  0
POLYLINE
  8
HOLE_1_2
 66
   1
 10
0.0
 20
0.0
 30
0.0
 70
   1
  0
VERTEX
  8
HOLE_1_2
 10
13.775000
 20
21.700000
 30
0.0
 42
1.000000
  0
VERTEX
  8
HOLE_1_2
 10
13.525000
 20
21.700000
 30
0.0
 42
1.000000
  0
VERTEX
  8
HOLE_1_2
 10
13.775000
 20
21.700000
 30
0.0
  0
SEQEND
  0
POLYLINE
  8
NC_Resist-A
 66
   1
 10
0.0
 20
0.0
 30
0.0
 70
   1
  0
VERTEX
  8
NC_Resist-A
 10
13.875000
 20
21.700000
 30
0.0
 42
1.000000
  0
VERTEX
  8
NC_Resist-A
 10
13.425000
 20
21.700000
 30
0.0
 42
1.000000
  0
VERTEX
  8
NC_Resist-A
 10
13.875000
 20
21.700000
 30
0.0
  0
SEQEND
  0
POLYLINE
  8
HOLE_1_2
 66
   1
 10
0.0
 20
0.0
 30
0.0
 70
   1
  0
VERTEX
  8
HOLE_1_2
 10
12.975000
 20
22.250000
 30
0.0
 42
1.000000
  0
VERTEX
  8
HOLE_1_2
 10
12.725000
 20
22.250000
 30
0.0
 42
1.000000
  0
VERTEX
  8
HOLE_1_2
 10
12.975000
 20
22.250000
 30
0.0
  0
SEQEND
  0
POLYLINE
  8
NC_Resist-A
 66
   1
 10
0.0
 20
0.0
 30
0.0
 70
   1
  0
VERTEX
  8
NC_Resist-A
 10
13.075000
 20
22.250000
 30
0.0
 42
1.000000
  0
VERTEX
  8
NC_Resist-A
 10
12.625000
 20
22.250000
 30
0.0
 42
1.000000
  0
VERTEX
  8
NC_Resist-A
 10
13.075000
 20
22.250000
 30
0.0
  0
SEQEND
  0
POLYLINE
  8
HOLE_1_2
 66
   1
 10
0.0
 20
0.0
 30
0.0
 70
   1
  0
VERTEX
  8
HOLE_1_2
 10
21.625000
 20
11.000000
 30
0.0
 42
1.000000
  0
VERTEX
  8
HOLE_1_2
 10
21.375000
 20
11.000000
 30
0.0
 42
1.000000
  0
VERTEX
  8
HOLE_1_2
 10
21.625000
 20
11.000000
 30
0.0
  0
SEQEND
  0
POLYLINE
  8
NC_Resist-A
 66
   1
 10
0.0
 20
0.0
 30
0.0
 70
   1
  0
VERTEX
  8
NC_Resist-A
 10
21.725000
 20
11.000000
 30
0.0
 42
1.000000
  0
VERTEX
  8
NC_Resist-A
 10
21.275000
 20
11.000000
 30
0.0
 42
1.000000
  0
VERTEX
  8
NC_Resist-A
 10
21.725000
 20
11.000000
 30
0.0
  0
SEQEND
  0
POLYLINE
  8
HOLE_1_2
 66
   1
 10
0.0
 20
0.0
 30
0.0
 70
   1
  0
VERTEX
  8
HOLE_1_2
 10
17.725000
 20
16.950000
 30
0.0
 42
1.000000
  0
VERTEX
  8
HOLE_1_2
 10
17.475000
 20
16.950000
 30
0.0
 42
1.000000
  0
VERTEX
  8
HOLE_1_2
 10
17.725000
 20
16.950000
 30
0.0
  0
SEQEND
  0
POLYLINE
  8
NC_Resist-A
 66
   1
 10
0.0
 20
0.0
 30
0.0
 70
   1
  0
VERTEX
  8
NC_Resist-A
 10
17.825000
 20
16.950000
 30
0.0
 42
1.000000
  0
VERTEX
  8
NC_Resist-A
 10
17.375000
 20
16.950000
 30
0.0
 42
1.000000
  0
VERTEX
  8
NC_Resist-A
 10
17.825000
 20
16.950000
 30
0.0
  0
SEQEND
  0
POLYLINE
  8
HOLE_1_2
 66
   1
 10
0.0
 20
0.0
 30
0.0
 70
   1
  0
VERTEX
  8
HOLE_1_2
 10
12.125000
 20
16.950000
 30
0.0
 42
1.000000
  0
VERTEX
  8
HOLE_1_2
 10
11.875000
 20
16.950000
 30
0.0
 42
1.000000
  0
VERTEX
  8
HOLE_1_2
 10
12.125000
 20
16.950000
 30
0.0
  0
SEQEND
  0
POLYLINE
  8
NC_Resist-A
 66
   1
 10
0.0
 20
0.0
 30
0.0
 70
   1
  0
VERTEX
  8
NC_Resist-A
 10
12.225000
 20
16.950000
 30
0.0
 42
1.000000
  0
VERTEX
  8
NC_Resist-A
 10
11.775000
 20
16.950000
 30
0.0
 42
1.000000
  0
VERTEX
  8
NC_Resist-A
 10
12.225000
 20
16.950000
 30
0.0
  0
SEQEND
  0
POLYLINE
  8
HOLE_1_2
 66
   1
 10
0.0
 20
0.0
 30
0.0
 70
   1
  0
VERTEX
  8
HOLE_1_2
 10
3.625000
 20
19.750000
 30
0.0
 42
1.000000
  0
VERTEX
  8
HOLE_1_2
 10
3.375000
 20
19.750000
 30
0.0
 42
1.000000
  0
VERTEX
  8
HOLE_1_2
 10
3.625000
 20
19.750000
 30
0.0
  0
SEQEND
  0
POLYLINE
  8
NC_Resist-A
 66
   1
 10
0.0
 20
0.0
 30
0.0
 70
   1
  0
VERTEX
  8
NC_Resist-A
 10
3.725000
 20
19.750000
 30
0.0
 42
1.000000
  0
VERTEX
  8
NC_Resist-A
 10
3.275000
 20
19.750000
 30
0.0
 42
1.000000
  0
VERTEX
  8
NC_Resist-A
 10
3.725000
 20
19.750000
 30
0.0
  0
SEQEND
  0
POLYLINE
  8
HOLE_1_2
 66
   1
 10
0.0
 20
0.0
 30
0.0
 70
   1
  0
VERTEX
  8
HOLE_1_2
 10
21.125000
 20
22.250000
 30
0.0
 42
1.000000
  0
VERTEX
  8
HOLE_1_2
 10
20.875000
 20
22.250000
 30
0.0
 42
1.000000
  0
VERTEX
  8
HOLE_1_2
 10
21.125000
 20
22.250000
 30
0.0
  0
SEQEND
  0
POLYLINE
  8
NC_Resist-A
 66
   1
 10
0.0
 20
0.0
 30
0.0
 70
   1
  0
VERTEX
  8
NC_Resist-A
 10
21.225000
 20
22.250000
 30
0.0
 42
1.000000
  0
VERTEX
  8
NC_Resist-A
 10
20.775000
 20
22.250000
 30
0.0
 42
1.000000
  0
VERTEX
  8
NC_Resist-A
 10
21.225000
 20
22.250000
 30
0.0
  0
SEQEND
  0
POLYLINE
  8
HOLE_1_2
 66
   1
 10
0.0
 20
0.0
 30
0.0
 70
   1
  0
VERTEX
  8
HOLE_1_2
 10
6.875000
 20
16.000000
 30
0.0
 42
1.000000
  0
VERTEX
  8
HOLE_1_2
 10
6.625000
 20
16.000000
 30
0.0
 42
1.000000
  0
VERTEX
  8
HOLE_1_2
 10
6.875000
 20
16.000000
 30
0.0
  0
SEQEND
  0
POLYLINE
  8
NC_Resist-A
 66
   1
 10
0.0
 20
0.0
 30
0.0
 70
   1
  0
VERTEX
  8
NC_Resist-A
 10
6.975000
 20
16.000000
 30
0.0
 42
1.000000
  0
VERTEX
  8
NC_Resist-A
 10
6.525000
 20
16.000000
 30
0.0
 42
1.000000
  0
VERTEX
  8
NC_Resist-A
 10
6.975000
 20
16.000000
 30
0.0
  0
SEQEND
  0
POLYLINE
  8
HOLE_1_2
 66
   1
 10
0.0
 20
0.0
 30
0.0
 70
   1
  0
VERTEX
  8
HOLE_1_2
 10
7.775000
 20
19.900000
 30
0.0
 42
1.000000
  0
VERTEX
  8
HOLE_1_2
 10
7.525000
 20
19.900000
 30
0.0
 42
1.000000
  0
VERTEX
  8
HOLE_1_2
 10
7.775000
 20
19.900000
 30
0.0
  0
SEQEND
  0
POLYLINE
  8
NC_Resist-A
 66
   1
 10
0.0
 20
0.0
 30
0.0
 70
   1
  0
VERTEX
  8
NC_Resist-A
 10
7.875000
 20
19.900000
 30
0.0
 42
1.000000
  0
VERTEX
  8
NC_Resist-A
 10
7.425000
 20
19.900000
 30
0.0
 42
1.000000
  0
VERTEX
  8
NC_Resist-A
 10
7.875000
 20
19.900000
 30
0.0
  0
SEQEND
  0
POLYLINE
  8
HOLE_1_2
 66
   1
 10
0.0
 20
0.0
 30
0.0
 70
   1
  0
VERTEX
  8
HOLE_1_2
 10
10.375000
 20
19.900000
 30
0.0
 42
1.000000
  0
VERTEX
  8
HOLE_1_2
 10
10.125000
 20
19.900000
 30
0.0
 42
1.000000
  0
VERTEX
  8
HOLE_1_2
 10
10.375000
 20
19.900000
 30
0.0
  0
SEQEND
  0
POLYLINE
  8
NC_Resist-A
 66
   1
 10
0.0
 20
0.0
 30
0.0
 70
   1
  0
VERTEX
  8
NC_Resist-A
 10
10.475000
 20
19.900000
 30
0.0
 42
1.000000
  0
VERTEX
  8
NC_Resist-A
 10
10.025000
 20
19.900000
 30
0.0
 42
1.000000
  0
VERTEX
  8
NC_Resist-A
 10
10.475000
 20
19.900000
 30
0.0
  0
SEQEND
  0
POLYLINE
  8
HOLE_1_2
 66
   1
 10
0.0
 20
0.0
 30
0.0
 70
   1
  0
VERTEX
  8
HOLE_1_2
 10
11.375000
 20
19.900000
 30
0.0
 42
1.000000
  0
VERTEX
  8
HOLE_1_2
 10
11.125000
 20
19.900000
 30
0.0
 42
1.000000
  0
VERTEX
  8
HOLE_1_2
 10
11.375000
 20
19.900000
 30
0.0
  0
SEQEND
  0
POLYLINE
  8
NC_Resist-A
 66
   1
 10
0.0
 20
0.0
 30
0.0
 70
   1
  0
VERTEX
  8
NC_Resist-A
 10
11.475000
 20
19.900000
 30
0.0
 42
1.000000
  0
VERTEX
  8
NC_Resist-A
 10
11.025000
 20
19.900000
 30
0.0
 42
1.000000
  0
VERTEX
  8
NC_Resist-A
 10
11.475000
 20
19.900000
 30
0.0
  0
SEQEND
  0
POLYLINE
  8
HOLE_1_2
 66
   1
 10
0.0
 20
0.0
 30
0.0
 70
   1
  0
VERTEX
  8
HOLE_1_2
 10
12.875000
 20
19.900000
 30
0.0
 42
1.000000
  0
VERTEX
  8
HOLE_1_2
 10
12.625000
 20
19.900000
 30
0.0
 42
1.000000
  0
VERTEX
  8
HOLE_1_2
 10
12.875000
 20
19.900000
 30
0.0
  0
SEQEND
  0
POLYLINE
  8
NC_Resist-A
 66
   1
 10
0.0
 20
0.0
 30
0.0
 70
   1
  0
VERTEX
  8
NC_Resist-A
 10
12.975000
 20
19.900000
 30
0.0
 42
1.000000
  0
VERTEX
  8
NC_Resist-A
 10
12.525000
 20
19.900000
 30
0.0
 42
1.000000
  0
VERTEX
  8
NC_Resist-A
 10
12.975000
 20
19.900000
 30
0.0
  0
SEQEND
  0
POLYLINE
  8
HOLE_1_2
 66
   1
 10
0.0
 20
0.0
 30
0.0
 70
   1
  0
VERTEX
  8
HOLE_1_2
 10
12.625000
 20
20.850000
 30
0.0
 42
1.000000
  0
VERTEX
  8
HOLE_1_2
 10
12.375000
 20
20.850000
 30
0.0
 42
1.000000
  0
VERTEX
  8
HOLE_1_2
 10
12.625000
 20
20.850000
 30
0.0
  0
SEQEND
  0
POLYLINE
  8
NC_Resist-A
 66
   1
 10
0.0
 20
0.0
 30
0.0
 70
   1
  0
VERTEX
  8
NC_Resist-A
 10
12.725000
 20
20.850000
 30
0.0
 42
1.000000
  0
VERTEX
  8
NC_Resist-A
 10
12.275000
 20
20.850000
 30
0.0
 42
1.000000
  0
VERTEX
  8
NC_Resist-A
 10
12.725000
 20
20.850000
 30
0.0
  0
SEQEND
  0
ENDSEC
  0
EOF
